<?xml version="1.0" encoding="UTF-8" standalone="no"?>
<!-- Generator: Adobe Illustrator 18.0.0, SVG Export Plug-In . SVG Version: 6.00 Build 0)  -->

<svg
   xmlns:dc="http://purl.org/dc/elements/1.1/"
   xmlns:cc="http://creativecommons.org/ns#"
   xmlns:rdf="http://www.w3.org/1999/02/22-rdf-syntax-ns#"
   xmlns:svg="http://www.w3.org/2000/svg"
   xmlns="http://www.w3.org/2000/svg"
   xmlns:sodipodi="http://sodipodi.sourceforge.net/DTD/sodipodi-0.dtd"
   xmlns:inkscape="http://www.inkscape.org/namespaces/inkscape"
   version="1.1"
   id="a_x2F_w"
   x="0px"
   y="0px"
   viewBox="0 0 70.750001 19.90625"
   enable-background="new 0 0 106.844 19.878"
   xml:space="preserve"
   inkscape:version="0.48.5 r10040"
   width="100%"
   height="100%"
   sodipodi:docname="logo-standard.svg"><metadata
     id="metadata181"><rdf:RDF><cc:Work
         rdf:about=""><dc:format>image/svg+xml</dc:format><dc:type
           rdf:resource="http://purl.org/dc/dcmitype/StillImage" /><dc:title></dc:title></cc:Work></rdf:RDF></metadata><defs
     id="defs179" /><sodipodi:namedview
     pagecolor="#ffffff"
     bordercolor="#666666"
     borderopacity="1"
     objecttolerance="10"
     gridtolerance="10"
     guidetolerance="10"
     inkscape:pageopacity="0"
     inkscape:pageshadow="2"
     inkscape:window-width="2065"
     inkscape:window-height="1126"
     id="namedview177"
     showgrid="false"
     fit-margin-top="0"
     fit-margin-left="0"
     fit-margin-right="0"
     fit-margin-bottom="0"
     inkscape:zoom="14.714826"
     inkscape:cx="53.335043"
     inkscape:cy="-4.4372861"
     inkscape:window-x="0"
     inkscape:window-y="0"
     inkscape:window-maximized="0"
     inkscape:current-layer="a_x2F_w" /><rect
     x="-9.8297501"
     y="-9.8465004"
     width="127.317"
     height="39.771999"
     id="rect3"
     style="fill:none" /><g
     id="g5"
     transform="translate(-0.09375019,0.0625)"><path
       d="m 19.884,16.626 c 0.053,-0.313 0.084,-0.82 0.093,-1.521 h 0.329 c 0.016,0.476 0.043,0.758 0.08,0.844 0.038,0.088 0.128,0.18 0.271,0.277 0.145,0.098 0.337,0.184 0.578,0.261 0.243,0.077 0.477,0.115 0.701,0.115 0.33,0 0.634,-0.075 0.912,-0.227 0.277,-0.152 0.479,-0.352 0.607,-0.6 0.128,-0.247 0.191,-0.51 0.191,-0.791 0,-0.213 -0.031,-0.401 -0.096,-0.558 -0.064,-0.156 -0.16,-0.282 -0.291,-0.379 -0.13,-0.096 -0.292,-0.164 -0.484,-0.202 -0.121,-0.019 -0.361,-0.054 -0.724,-0.1 -0.362,-0.048 -0.67,-0.099 -0.925,-0.153 -0.34,-0.106 -0.589,-0.228 -0.749,-0.367 -0.16,-0.14 -0.29,-0.324 -0.39,-0.552 -0.1,-0.229 -0.149,-0.474 -0.149,-0.738 0,-0.384 0.102,-0.746 0.302,-1.087 0.2,-0.34 0.497,-0.605 0.89,-0.794 0.394,-0.188 0.82,-0.283 1.28,-0.283 0.277,0 0.579,0.037 0.908,0.11 0.327,0.073 0.634,0.181 0.917,0.321 -0.046,0.206 -0.078,0.398 -0.098,0.575 -0.019,0.177 -0.034,0.439 -0.045,0.784 h -0.327 c -0.01,-0.502 -0.024,-0.775 -0.044,-0.821 -0.082,-0.118 -0.193,-0.224 -0.334,-0.318 -0.336,-0.189 -0.688,-0.284 -1.054,-0.284 -0.474,0 -0.853,0.143 -1.134,0.432 -0.283,0.288 -0.425,0.661 -0.425,1.12 0,0.276 0.051,0.491 0.152,0.643 0.101,0.152 0.282,0.273 0.543,0.364 0.18,0.063 0.474,0.121 0.881,0.176 0.407,0.055 0.775,0.112 1.101,0.175 0.308,0.092 0.533,0.2 0.681,0.325 0.148,0.126 0.268,0.291 0.361,0.495 0.095,0.203 0.142,0.443 0.142,0.717 0,0.65 -0.27,1.217 -0.808,1.701 -0.538,0.482 -1.235,0.724 -2.09,0.724 -0.641,-0.002 -1.227,-0.131 -1.753,-0.384 z"
       id="path7"
       inkscape:connector-curvature="0" /><path
       d="m 25.052,13.03 v -0.206 c 0.313,-0.125 0.563,-0.235 0.749,-0.332 0,-0.777 0,-1.274 0,-1.488 0.339,-0.118 0.614,-0.243 0.827,-0.377 l 0.116,0.098 c -0.035,0.271 -0.074,0.868 -0.116,1.791 0.261,0.004 0.417,0.006 0.469,0.006 0.029,0 0.198,-0.004 0.505,-0.01 0.169,-0.004 0.296,-0.01 0.381,-0.019 l 0.034,0.033 -0.103,0.455 c -0.205,-0.003 -0.394,-0.004 -0.567,-0.004 -0.173,0 -0.413,10e-4 -0.719,0.004 l -0.025,1.992 c -0.01,0.485 -0.006,0.776 0.01,0.871 0.017,0.095 0.048,0.176 0.093,0.246 0.046,0.071 0.104,0.127 0.178,0.169 0.074,0.044 0.198,0.075 0.373,0.099 0.134,0 0.241,-0.005 0.325,-0.018 0.082,-0.012 0.188,-0.039 0.315,-0.086 l 0.059,0.191 c -0.154,0.12 -0.302,0.247 -0.445,0.377 -0.124,0.046 -0.239,0.075 -0.348,0.091 -0.107,0.015 -0.231,0.022 -0.371,0.022 -0.173,0 -0.31,-0.019 -0.413,-0.06 -0.102,-0.038 -0.196,-0.092 -0.281,-0.163 -0.084,-0.07 -0.155,-0.159 -0.211,-0.267 -0.056,-0.107 -0.093,-0.277 -0.109,-0.509 0.004,-0.222 0.01,-0.466 0.021,-0.729 0.003,-0.052 0.005,-0.108 0.005,-0.17 V 13.005 H 25.6 c -0.163,-0.001 -0.345,0.008 -0.548,0.025 z"
       id="path9"
       inkscape:connector-curvature="0" /><path
       d="m 30.407,16.866 v -0.332 c 0.259,-0.004 0.419,-0.014 0.482,-0.032 0.065,-0.018 0.123,-0.052 0.177,-0.103 0.054,-0.052 0.132,-0.183 0.233,-0.394 0.059,-0.121 0.271,-0.578 0.637,-1.375 l 1.225,-2.76 c 0.134,-0.303 0.42,-0.98 0.858,-2.026 h 0.313 l 2.092,4.908 c 0.341,0.796 0.566,1.296 0.678,1.497 0.062,0.115 0.129,0.19 0.203,0.226 0.072,0.036 0.239,0.056 0.497,0.06 v 0.332 c -0.51,-0.031 -0.866,-0.048 -1.068,-0.048 l -1.577,0.048 v -0.332 c 0.365,-0.007 0.587,-0.018 0.666,-0.035 0.077,-0.016 0.13,-0.04 0.158,-0.071 0.028,-0.03 0.042,-0.068 0.042,-0.115 0,-0.071 -0.022,-0.164 -0.068,-0.276 L 35.353,14.539 H 32.52 l -0.532,1.257 c -0.095,0.226 -0.143,0.39 -0.143,0.496 0,0.044 0.014,0.082 0.04,0.111 0.035,0.044 0.091,0.071 0.166,0.087 0.121,0.028 0.333,0.042 0.637,0.046 v 0.332 c -0.552,-0.029 -0.965,-0.044 -1.239,-0.044 -0.319,-0.002 -0.665,0.012 -1.042,0.042 z m 2.28,-2.745 h 2.467 l -1.219,-2.945 -1.248,2.945 z"
       id="path11"
       inkscape:connector-curvature="0" /><path
       d="m 38.173,16.866 v -0.279 l 0.468,-0.005 c 0.069,-0.003 0.122,-0.015 0.16,-0.036 0.037,-0.022 0.066,-0.048 0.086,-0.08 0.036,-0.066 0.06,-0.181 0.068,-0.348 0,-0.042 0.009,-0.512 0.025,-1.405 V 14.13 c 0,-0.262 -0.005,-0.541 -0.015,-0.842 C 38.954,13.096 38.94,12.981 38.918,12.945 38.897,12.91 38.86,12.882 38.809,12.864 38.756,12.846 38.544,12.839 38.172,12.842 v -0.278 c 0.659,-0.092 1.14,-0.211 1.443,-0.358 0.065,-0.031 0.109,-0.049 0.132,-0.049 0.023,0 0.042,0.01 0.055,0.025 0.013,0.016 0.019,0.039 0.019,0.073 0,0.023 -10e-4,0.049 -0.005,0.078 -0.009,0.117 -0.019,0.364 -0.029,0.744 l 0.91,-0.779 c 0.268,-0.097 0.521,-0.147 0.76,-0.147 0.264,0 0.514,0.054 0.751,0.162 0.236,0.107 0.414,0.243 0.533,0.406 0.119,0.163 0.197,0.368 0.237,0.616 0.022,0.146 0.034,0.556 0.034,1.229 v 0.865 c 0,0.426 0.011,0.714 0.034,0.867 0.016,0.098 0.041,0.165 0.076,0.203 0.034,0.037 0.087,0.062 0.159,0.07 l 0.522,0.015 v 0.279 c -0.319,-0.024 -0.585,-0.033 -0.797,-0.033 -0.184,0 -0.485,0.01 -0.91,0.033 0.046,-0.807 0.068,-1.315 0.068,-1.526 v -0.822 c 0,-0.513 -0.02,-0.849 -0.059,-1.008 -0.056,-0.219 -0.182,-0.394 -0.377,-0.529 -0.196,-0.134 -0.432,-0.2 -0.71,-0.2 -0.244,0 -0.468,0.058 -0.67,0.174 -0.202,0.115 -0.347,0.25 -0.433,0.4 -0.087,0.152 -0.131,0.407 -0.131,0.765 v 0.594 c 0.017,0.849 0.025,1.307 0.025,1.376 0.006,0.161 0.026,0.283 0.059,0.356 0.013,0.029 0.032,0.055 0.059,0.076 0.026,0.021 0.067,0.038 0.122,0.051 0.021,0.003 0.2,0.008 0.543,0.015 v 0.279 c -0.398,-0.024 -0.759,-0.033 -1.082,-0.033 -0.27,0.002 -0.716,0.011 -1.337,0.035 z"
       id="path13"
       inkscape:connector-curvature="0" /><path
       d="M 47.192,10.22 V 9.941 C 47.554,9.902 47.86,9.856 48.11,9.802 48.359,9.748 48.603,9.682 48.842,9.604 l 0.063,0.044 c -0.013,0.277 -0.028,0.813 -0.044,1.606 l -0.019,0.783 V 15.1 c 0,0.331 0.005,0.62 0.017,0.864 0.012,0.241 0.032,0.388 0.062,0.435 0.029,0.047 0.078,0.085 0.146,0.115 0.068,0.029 0.272,0.058 0.612,0.087 v 0.265 C 49.281,16.842 49,16.833 48.837,16.833 c -0.141,0 -0.428,0.01 -0.861,0.033 0.01,-0.225 0.017,-0.528 0.024,-0.909 -0.131,0.095 -0.307,0.237 -0.526,0.425 -0.221,0.188 -0.393,0.344 -0.516,0.465 -0.262,0.066 -0.491,0.098 -0.69,0.098 -0.368,0 -0.708,-0.092 -1.018,-0.273 -0.311,-0.183 -0.549,-0.447 -0.717,-0.796 -0.168,-0.348 -0.253,-0.737 -0.253,-1.171 0,-0.327 0.052,-0.636 0.154,-0.928 0.104,-0.292 0.233,-0.517 0.39,-0.678 0.088,-0.092 0.288,-0.231 0.602,-0.417 0.313,-0.186 0.566,-0.32 0.761,-0.403 0.194,-0.083 0.405,-0.125 0.634,-0.125 0.205,0 0.407,0.026 0.604,0.076 0.197,0.051 0.389,0.128 0.575,0.232 V 11.175 C 48,10.722 47.98,10.446 47.941,10.349 47.927,10.313 47.903,10.286 47.868,10.27 47.802,10.24 47.577,10.224 47.192,10.22 z M 48,13.297 c -0.223,-0.244 -0.454,-0.422 -0.698,-0.535 -0.242,-0.112 -0.481,-0.168 -0.717,-0.168 -0.267,0 -0.514,0.068 -0.738,0.206 -0.225,0.136 -0.396,0.343 -0.516,0.619 -0.12,0.277 -0.179,0.609 -0.179,0.997 0,0.597 0.148,1.061 0.444,1.398 0.297,0.335 0.654,0.503 1.071,0.503 0.219,0 0.415,-0.045 0.587,-0.137 0.174,-0.092 0.325,-0.225 0.456,-0.401 0.13,-0.176 0.214,-0.371 0.25,-0.587 C 47.987,15.05 48,14.697 48,14.132 v -0.835 z"
       id="path15"
       inkscape:connector-curvature="0" /><path
       d="m 50.22,16.866 v -0.279 c 0.372,-0.007 0.572,-0.013 0.601,-0.019 0.057,-0.01 0.098,-0.025 0.126,-0.046 0.028,-0.021 0.05,-0.051 0.066,-0.092 0.033,-0.073 0.053,-0.192 0.06,-0.351 0.016,-0.872 0.023,-1.327 0.023,-1.366 V 14.13 c 0,-0.262 -0.004,-0.541 -0.014,-0.842 C 51.075,13.096 51.061,12.981 51.04,12.945 51.019,12.91 50.981,12.882 50.928,12.864 50.874,12.846 50.66,12.839 50.289,12.842 v -0.278 c 0.659,-0.092 1.141,-0.211 1.443,-0.358 0.065,-0.031 0.109,-0.049 0.133,-0.049 0.022,0 0.04,0.01 0.054,0.025 0.013,0.016 0.02,0.039 0.02,0.073 0,0.023 -0.002,0.049 -0.006,0.078 -0.016,0.198 -0.025,0.507 -0.028,0.925 0.146,-0.17 0.282,-0.338 0.405,-0.504 0.124,-0.167 0.214,-0.273 0.27,-0.323 0.098,-0.085 0.211,-0.152 0.338,-0.203 0.127,-0.05 0.259,-0.076 0.396,-0.076 0.138,0 0.273,0.03 0.407,0.089 l 0.028,0.067 c -0.049,0.435 -0.076,0.816 -0.083,1.146 h -0.22 c -0.075,-0.157 -0.162,-0.272 -0.262,-0.343 -0.1,-0.071 -0.225,-0.108 -0.374,-0.108 -0.252,0 -0.465,0.104 -0.642,0.311 -0.176,0.206 -0.264,0.518 -0.264,0.932 v 0.504 c 0,0.216 0.008,0.608 0.023,1.18 0.004,0.203 0.013,0.331 0.025,0.387 0.013,0.056 0.029,0.096 0.051,0.12 0.021,0.024 0.057,0.045 0.105,0.061 0.098,0.029 0.362,0.059 0.793,0.088 v 0.279 c -0.574,-0.024 -1.064,-0.033 -1.468,-0.033 -0.417,10e-4 -0.821,0.01 -1.213,0.034 z"
       id="path17"
       inkscape:connector-curvature="0" /><path
       d="m 58.105,16.106 -0.156,0.353 c -0.225,0.142 -0.39,0.233 -0.494,0.278 -0.153,0.069 -0.329,0.127 -0.525,0.176 -0.198,0.048 -0.406,0.07 -0.624,0.07 -0.432,0 -0.821,-0.09 -1.17,-0.269 -0.35,-0.18 -0.621,-0.448 -0.815,-0.806 -0.193,-0.356 -0.291,-0.775 -0.291,-1.256 0,-0.375 0.052,-0.712 0.154,-1.015 0.104,-0.303 0.22,-0.523 0.35,-0.668 0.096,-0.104 0.242,-0.224 0.44,-0.359 0.199,-0.135 0.396,-0.242 0.592,-0.321 0.259,-0.106 0.537,-0.16 0.838,-0.16 0.365,0 0.695,0.083 0.99,0.249 0.296,0.166 0.512,0.394 0.649,0.681 0.137,0.287 0.205,0.61 0.205,0.973 0,0.092 -0.009,0.204 -0.024,0.333 -0.234,0.047 -0.445,0.074 -0.63,0.089 -0.353,0.025 -0.704,0.039 -1.056,0.039 h -1.569 c 0.007,0.467 0.088,0.847 0.242,1.135 0.155,0.289 0.369,0.503 0.642,0.64 0.272,0.138 0.556,0.207 0.849,0.207 0.199,0 0.397,-0.031 0.595,-0.096 0.197,-0.066 0.441,-0.183 0.732,-0.356 l 0.076,0.083 z m -3.137,-2.001 c 0.092,0.01 0.265,0.02 0.52,0.03 0.486,0.017 0.82,0.025 1.003,0.025 0.434,0 0.72,-0.009 0.856,-0.025 0.003,-0.077 0.005,-0.139 0.005,-0.182 0,-0.515 -0.104,-0.894 -0.313,-1.134 -0.21,-0.242 -0.488,-0.363 -0.838,-0.363 -0.368,0 -0.665,0.132 -0.891,0.396 -0.223,0.266 -0.338,0.684 -0.342,1.253 z"
       id="path19"
       inkscape:connector-curvature="0" /><path
       d="M 60.679,16.92 60.473,16.238 60.018,14.725 C 59.888,14.286 59.755,13.864 59.62,13.456 59.485,13.048 59.395,12.812 59.351,12.75 59.307,12.688 59.253,12.644 59.19,12.617 59.127,12.592 58.97,12.567 58.722,12.544 v -0.278 c 0.359,0.022 0.745,0.033 1.155,0.033 0.438,0 0.845,-0.011 1.223,-0.033 v 0.278 c -0.303,0.003 -0.5,0.016 -0.592,0.034 -0.062,0.014 -0.106,0.037 -0.134,0.071 -0.027,0.035 -0.042,0.075 -0.042,0.12 0,0.075 0.047,0.276 0.142,0.604 l 0.455,1.576 c 0.075,0.265 0.166,0.55 0.273,0.857 l 0.372,-0.852 0.72,-1.609 c 0.17,-0.38 0.33,-0.766 0.48,-1.153 h 0.239 c 0.216,0.596 0.362,0.99 0.44,1.183 l 0.563,1.419 c 0.192,0.476 0.337,0.834 0.435,1.075 l 0.367,-0.964 c 0.237,-0.621 0.423,-1.148 0.557,-1.587 0.075,-0.238 0.112,-0.406 0.112,-0.504 0,-0.092 -0.031,-0.158 -0.095,-0.199 -0.063,-0.041 -0.275,-0.064 -0.634,-0.071 v -0.278 c 0.496,0.022 0.839,0.033 1.028,0.033 0.229,0 0.539,-0.011 0.932,-0.033 v 0.278 c -0.189,0.003 -0.316,0.021 -0.382,0.052 -0.065,0.031 -0.123,0.083 -0.172,0.154 -0.085,0.11 -0.217,0.372 -0.396,0.783 l -0.514,1.225 -0.22,0.549 c -0.042,0.108 -0.168,0.439 -0.377,0.995 -0.092,0.234 -0.16,0.44 -0.206,0.618 h -0.46 l -0.234,-0.612 -1.116,-2.804 -0.47,1.012 -0.553,1.229 c -0.127,0.284 -0.23,0.525 -0.308,0.726 l -0.162,0.45 h -0.469 z"
       id="path21"
       inkscape:connector-curvature="0" /><path
       d="m 67.388,15.388 h 0.294 c 0.003,0.189 0.013,0.339 0.028,0.451 0.018,0.109 0.045,0.219 0.085,0.324 0.039,0.105 0.099,0.196 0.181,0.27 0.082,0.072 0.171,0.13 0.268,0.172 0.096,0.039 0.194,0.067 0.294,0.079 0.1,0.015 0.251,0.02 0.454,0.02 0.333,0 0.606,-0.087 0.821,-0.263 0.213,-0.177 0.321,-0.418 0.321,-0.727 0,-0.136 -0.034,-0.257 -0.101,-0.361 -0.068,-0.102 -0.164,-0.185 -0.29,-0.243 -0.126,-0.06 -0.396,-0.137 -0.812,-0.23 -0.415,-0.094 -0.683,-0.163 -0.804,-0.207 -0.183,-0.067 -0.328,-0.15 -0.437,-0.249 -0.107,-0.097 -0.193,-0.222 -0.257,-0.371 -0.064,-0.149 -0.096,-0.314 -0.096,-0.49 0,-0.258 0.067,-0.494 0.203,-0.712 0.136,-0.216 0.349,-0.393 0.64,-0.527 0.291,-0.136 0.608,-0.203 0.95,-0.203 0.207,0 0.445,0.027 0.717,0.085 0.271,0.058 0.491,0.129 0.661,0.214 -0.022,0.361 -0.039,0.729 -0.049,1.106 H 70.18 c -0.016,-0.238 -0.035,-0.396 -0.056,-0.47 -0.021,-0.075 -0.051,-0.142 -0.086,-0.201 -0.036,-0.059 -0.099,-0.121 -0.187,-0.188 -0.089,-0.066 -0.202,-0.126 -0.341,-0.179 -0.139,-0.052 -0.311,-0.077 -0.513,-0.077 -0.288,0 -0.52,0.085 -0.693,0.254 -0.176,0.169 -0.263,0.369 -0.263,0.597 0,0.127 0.025,0.236 0.075,0.328 0.051,0.091 0.119,0.166 0.204,0.223 0.085,0.057 0.204,0.108 0.357,0.154 l 0.814,0.2 c 0.411,0.104 0.694,0.193 0.85,0.269 0.155,0.076 0.28,0.192 0.375,0.351 0.095,0.158 0.143,0.349 0.143,0.569 0,0.44 -0.182,0.825 -0.547,1.152 -0.364,0.329 -0.852,0.493 -1.463,0.493 -0.28,0 -0.654,-0.044 -1.122,-0.129 -0.258,-0.048 -0.396,-0.082 -0.416,-0.102 -0.014,-0.01 -0.02,-0.026 -0.02,-0.049 0,-0.023 0.003,-0.051 0.01,-0.083 0.029,-0.141 0.049,-0.277 0.059,-0.411 0.014,-0.136 0.021,-0.415 0.028,-0.839 z"
       id="path23"
       inkscape:connector-curvature="0" /></g><g
     id="g25"
     transform="translate(-0.09375019,0.0625)"><polygon
       points="74.339,19.251 73.83,19.251 73.857,19.251 73.857,0.449 74.339,0.449 "
       id="polygon27" /><polygon
       points="106.844,19.251 106.334,19.251 106.362,19.251 106.362,0.449 106.844,0.449 "
       id="polygon29" /><path
       d="M 77.769,2.72 V 2.565 c 0.247,0.011 0.456,0.018 0.629,0.018 0.121,0 0.34,-0.004 0.655,-0.012 0.315,-0.007 0.528,-0.011 0.638,-0.011 0.119,0 0.228,10e-4 0.326,0.004 0.098,0.002 0.187,0.007 0.267,0.014 -0.041,0.137 -0.066,0.384 -0.078,0.737 H 80.053 C 80.038,3.119 80.019,2.967 79.993,2.862 79.908,2.834 79.802,2.811 79.679,2.799 79.554,2.784 79.41,2.777 79.246,2.777 c -0.164,0 -0.334,0.01 -0.51,0.029 -0.01,0.088 -0.016,0.17 -0.02,0.246 -10e-4,0.043 -0.005,0.23 -0.012,0.557 v 0.539 c 0.183,0.005 0.343,0.008 0.482,0.008 0.206,0 0.371,-0.011 0.494,-0.031 0.048,-0.009 0.078,-0.023 0.092,-0.04 0.014,-0.019 0.028,-0.088 0.045,-0.206 l 0.019,-0.151 h 0.155 l -0.018,0.557 0.018,0.597 H 79.836 L 79.82,4.727 C 79.802,4.548 79.789,4.454 79.782,4.441 79.768,4.419 79.737,4.401 79.688,4.39 79.595,4.369 79.386,4.358 79.059,4.358 c -0.114,0 -0.233,0.004 -0.355,0.01 V 4.86 c 0,0.221 0.003,0.436 0.01,0.646 0.004,0.153 0.015,0.246 0.032,0.274 0.02,0.029 0.05,0.051 0.093,0.064 0.041,0.015 0.159,0.024 0.351,0.026 V 6.026 C 78.983,6.014 78.777,6.009 78.573,6.009 c -0.184,0 -0.451,0.006 -0.804,0.017 V 5.87 c 0.19,-0.003 0.307,-0.012 0.35,-0.026 0.041,-0.014 0.07,-0.033 0.088,-0.057 0.019,-0.032 0.029,-0.111 0.035,-0.236 0.002,-0.033 0.006,-0.265 0.013,-0.692 V 3.732 C 78.255,3.51 78.252,3.294 78.247,3.083 78.242,2.93 78.229,2.839 78.212,2.81 78.193,2.783 78.163,2.761 78.121,2.747 78.08,2.732 77.962,2.724 77.769,2.72"
       id="path31"
       inkscape:connector-curvature="0" /><path
       d="m 80.556,4.318 c 0,-0.258 0.038,-0.494 0.115,-0.712 0.077,-0.219 0.206,-0.414 0.385,-0.587 0.178,-0.175 0.381,-0.306 0.606,-0.395 0.226,-0.089 0.484,-0.133 0.774,-0.133 0.27,0 0.513,0.038 0.731,0.113 0.221,0.075 0.399,0.176 0.54,0.3 0.141,0.124 0.252,0.26 0.333,0.408 0.062,0.11 0.11,0.24 0.147,0.391 0.036,0.148 0.055,0.309 0.055,0.479 0,0.548 -0.185,1.002 -0.551,1.367 -0.37,0.364 -0.833,0.546 -1.395,0.546 -0.255,0 -0.492,-0.042 -0.714,-0.125 C 81.361,5.888 81.174,5.765 81.02,5.601 80.869,5.438 80.752,5.24 80.672,5.007 80.596,4.775 80.556,4.544 80.556,4.318 m 0.507,-0.203 c 0,0.154 0.015,0.311 0.046,0.471 0.031,0.159 0.071,0.296 0.117,0.412 0.078,0.194 0.181,0.358 0.307,0.491 0.126,0.132 0.266,0.229 0.421,0.292 0.154,0.063 0.328,0.094 0.516,0.094 0.262,0 0.49,-0.064 0.683,-0.19 0.193,-0.128 0.337,-0.308 0.433,-0.54 0.095,-0.231 0.143,-0.498 0.143,-0.801 0,-0.258 -0.033,-0.495 -0.102,-0.713 C 83.584,3.497 83.527,3.376 83.459,3.268 83.389,3.161 83.304,3.067 83.208,2.986 83.111,2.906 82.986,2.839 82.832,2.784 82.676,2.726 82.509,2.7 82.33,2.7 c -0.257,0 -0.484,0.057 -0.679,0.172 -0.195,0.115 -0.342,0.282 -0.44,0.501 -0.098,0.218 -0.148,0.465 -0.148,0.742"
       id="path33"
       inkscape:connector-curvature="0" /><path
       d="M 84.435,2.72 V 2.565 c 0.264,0.011 0.511,0.018 0.737,0.018 0.23,0 0.461,-0.007 0.688,-0.018 V 2.72 C 85.671,2.724 85.552,2.732 85.511,2.746 85.468,2.76 85.441,2.778 85.426,2.803 85.405,2.835 85.392,2.914 85.387,3.039 85.384,3.072 85.38,3.303 85.375,3.731 v 0.9 c 0,0.349 0.022,0.579 0.067,0.69 0.044,0.111 0.116,0.203 0.213,0.275 0.075,0.056 0.176,0.101 0.303,0.134 0.126,0.033 0.267,0.05 0.424,0.05 0.182,0 0.343,-0.023 0.485,-0.066 0.141,-0.045 0.247,-0.1 0.317,-0.163 0.071,-0.065 0.124,-0.137 0.159,-0.216 0.035,-0.08 0.058,-0.188 0.074,-0.327 C 87.432,4.867 87.44,4.693 87.44,4.481 V 3.731 C 87.44,3.509 87.436,3.293 87.428,3.082 87.424,2.929 87.414,2.838 87.395,2.809 87.377,2.782 87.347,2.76 87.305,2.746 87.263,2.731 87.146,2.724 86.954,2.72 V 2.565 c 0.269,0.011 0.464,0.018 0.588,0.018 0.111,0 0.313,-0.007 0.604,-0.018 V 2.72 c -0.191,0.004 -0.31,0.012 -0.351,0.026 -0.041,0.014 -0.069,0.032 -0.086,0.057 -0.02,0.033 -0.031,0.111 -0.036,0.236 -0.003,0.033 -0.006,0.264 -0.011,0.692 v 0.814 c 0,0.401 -0.028,0.683 -0.083,0.841 -0.058,0.16 -0.159,0.3 -0.309,0.421 -0.109,0.093 -0.252,0.163 -0.429,0.214 -0.176,0.05 -0.372,0.075 -0.587,0.075 -0.249,0 -0.467,-0.03 -0.65,-0.09 C 85.42,5.947 85.281,5.87 85.185,5.773 85.09,5.677 85.024,5.578 84.988,5.478 84.942,5.344 84.92,5.121 84.92,4.808 V 3.732 C 84.92,3.51 84.917,3.295 84.913,3.083 84.907,2.93 84.895,2.839 84.879,2.81 84.859,2.783 84.828,2.761 84.787,2.747 84.746,2.732 84.628,2.724 84.435,2.72"
       id="path35"
       inkscape:connector-curvature="0" /><path
       d="M 88.382,6.026 V 5.87 C 88.554,5.869 88.666,5.855 88.721,5.831 88.743,5.821 88.76,5.807 88.77,5.785 88.787,5.753 88.797,5.668 88.804,5.53 88.812,5.315 88.817,5.131 88.817,4.974 V 2.994 C 88.817,2.939 88.813,2.905 88.806,2.889 88.793,2.86 88.764,2.826 88.719,2.786 88.69,2.76 88.656,2.742 88.618,2.736 88.579,2.728 88.494,2.723 88.361,2.721 V 2.564 c 0.283,0.007 0.459,0.011 0.531,0.011 0.122,0 0.244,-0.004 0.366,-0.011 0.136,0.181 0.236,0.314 0.299,0.398 l 0.498,0.621 0.728,0.884 c 0.231,0.282 0.42,0.504 0.56,0.667 0.089,0.106 0.164,0.191 0.226,0.252 V 3.612 C 91.569,3.454 91.564,3.267 91.551,3.053 91.545,2.918 91.535,2.835 91.519,2.802 91.508,2.782 91.492,2.767 91.468,2.757 91.416,2.734 91.303,2.722 91.136,2.72 V 2.564 c 0.19,0.007 0.384,0.011 0.581,0.011 0.186,0 0.354,-0.004 0.504,-0.011 V 2.72 c -0.17,0.002 -0.281,0.015 -0.335,0.037 -0.024,0.01 -0.039,0.026 -0.05,0.049 -0.015,0.03 -0.027,0.116 -0.034,0.255 C 91.794,3.275 91.79,3.46 91.79,3.614 v 1.171 c 0,0.236 0.004,0.679 0.012,1.326 L 91.551,6.038 91.493,6.026 C 91.483,6.023 91.473,6.017 91.466,6.01 91.455,6.002 91.423,5.97 91.374,5.912 91.238,5.758 91.14,5.64 91.077,5.561 L 90.762,5.16 89.033,3.073 v 1.89 c 0,0.161 0.007,0.351 0.019,0.568 0.006,0.137 0.017,0.221 0.031,0.252 0.011,0.022 0.028,0.039 0.051,0.049 0.054,0.022 0.165,0.036 0.334,0.037 V 6.025 C 89.325,6.013 89.167,6.008 88.995,6.008 c -0.188,0 -0.392,0.006 -0.613,0.018"
       id="path37"
       inkscape:connector-curvature="0" /><path
       d="M 92.614,6.026 V 5.909 c 0.092,-0.054 0.17,-0.103 0.233,-0.147 0.01,-0.11 0.018,-0.265 0.024,-0.46 0.011,-0.334 0.017,-0.565 0.017,-0.695 V 3.614 C 92.888,3.455 92.884,3.268 92.877,3.055 92.87,2.92 92.857,2.837 92.841,2.804 92.831,2.782 92.813,2.768 92.791,2.758 92.735,2.735 92.624,2.723 92.454,2.721 V 2.565 c 0.236,0.008 0.446,0.012 0.629,0.012 0.139,0 0.331,-0.003 0.572,-0.008 0.241,-0.006 0.429,-0.01 0.562,-0.01 0.396,0 0.718,0.052 0.961,0.153 0.242,0.101 0.446,0.271 0.616,0.51 0.168,0.239 0.252,0.529 0.252,0.874 0,0.247 -0.04,0.478 -0.117,0.694 -0.08,0.217 -0.19,0.405 -0.327,0.566 -0.135,0.162 -0.28,0.289 -0.436,0.384 -0.156,0.094 -0.32,0.165 -0.491,0.213 -0.172,0.048 -0.407,0.072 -0.707,0.072 -0.099,0 -0.231,-0.003 -0.4,-0.009 C 93.347,6.01 93.203,6.007 93.133,6.007 93.036,6.008 92.861,6.014 92.614,6.026 M 93.367,5.76 c 0.179,0.03 0.366,0.046 0.565,0.046 0.204,0 0.384,-0.018 0.542,-0.054 0.156,-0.035 0.291,-0.086 0.401,-0.151 0.111,-0.064 0.218,-0.16 0.323,-0.286 0.104,-0.127 0.185,-0.289 0.24,-0.487 0.056,-0.197 0.084,-0.4 0.084,-0.611 0,-0.303 -0.054,-0.562 -0.162,-0.778 C 95.251,3.222 95.089,3.056 94.871,2.942 94.654,2.826 94.354,2.768 93.974,2.768 c -0.198,0 -0.401,0.016 -0.607,0.046 -0.006,0.08 -0.01,0.221 -0.013,0.424 l -0.01,0.353 v 0.972 l 0.008,0.755 c 10e-4,0.114 0.005,0.261 0.015,0.442"
       id="path39"
       inkscape:connector-curvature="0" /><path
       d="M 96.426,6.026 V 5.87 C 96.595,5.869 96.707,5.855 96.761,5.831 96.784,5.821 96.8,5.807 96.809,5.785 96.828,5.753 96.837,5.668 96.844,5.529 96.853,5.315 96.857,5.13 96.857,4.974 V 3.731 C 96.857,3.51 96.855,3.293 96.849,3.084 96.847,2.93 96.835,2.839 96.816,2.811 96.798,2.782 96.768,2.761 96.725,2.747 96.684,2.733 96.568,2.725 96.372,2.722 V 2.564 l 0.696,0.016 0.735,-0.013 c 0.353,-0.005 0.607,-0.008 0.768,-0.008 0.16,0 0.313,0.009 0.457,0.027 -0.027,0.093 -0.046,0.173 -0.056,0.241 -0.002,0.015 -0.016,0.184 -0.043,0.507 H 98.777 C 98.779,3.169 98.766,3.018 98.745,2.882 98.656,2.844 98.556,2.819 98.449,2.806 98.267,2.784 98.087,2.771 97.903,2.771 c -0.04,0 -0.126,0.005 -0.261,0.011 -0.133,0.006 -0.231,0.013 -0.289,0.017 -0.006,0.181 -0.011,0.349 -0.016,0.505 l -0.011,0.821 c 0.191,0.012 0.368,0.018 0.524,0.018 0.193,0 0.36,-0.01 0.495,-0.027 0.055,-0.006 0.086,-0.019 0.101,-0.039 0.015,-0.02 0.027,-0.087 0.037,-0.2 l 0.018,-0.17 h 0.145 v 0.046 l -0.012,0.507 0.012,0.568 h -0.17 L 98.468,4.662 C 98.466,4.542 98.454,4.467 98.436,4.438 98.416,4.409 98.383,4.387 98.329,4.376 98.237,4.356 98.059,4.347 97.792,4.347 c -0.11,0 -0.264,0.004 -0.465,0.012 -0.008,0.163 -0.012,0.404 -0.012,0.725 0,0.301 0.004,0.528 0.012,0.685 0.233,0.018 0.497,0.027 0.788,0.027 0.204,0 0.354,-0.007 0.44,-0.02 0.086,-0.013 0.168,-0.035 0.243,-0.065 0.019,-0.051 0.038,-0.118 0.058,-0.205 0.037,-0.144 0.062,-0.253 0.07,-0.326 h 0.165 c -0.042,0.328 -0.063,0.6 -0.063,0.816 -0.14,0.021 -0.311,0.032 -0.512,0.032 L 97.062,6.011 C 97.042,6.008 96.83,6.014 96.426,6.026"
       id="path41"
       inkscape:connector-curvature="0" /><path
       d="M 99.525,6.026 V 5.909 C 99.618,5.855 99.695,5.806 99.76,5.762 99.768,5.652 99.778,5.497 99.781,5.302 99.797,4.968 99.8,4.737 99.8,4.607 V 3.614 C 99.8,3.455 99.797,3.268 99.789,3.055 99.78,2.92 99.768,2.837 99.754,2.804 99.742,2.782 99.723,2.768 99.701,2.758 99.647,2.735 99.534,2.723 99.366,2.721 V 2.565 c 0.236,0.008 0.445,0.012 0.629,0.012 0.139,0 0.329,-0.003 0.571,-0.008 0.241,-0.006 0.43,-0.01 0.562,-0.01 0.396,0 0.718,0.052 0.962,0.153 0.241,0.101 0.446,0.271 0.615,0.51 0.17,0.239 0.254,0.529 0.254,0.874 0,0.247 -0.041,0.478 -0.12,0.694 -0.08,0.217 -0.189,0.405 -0.325,0.566 -0.137,0.162 -0.28,0.289 -0.437,0.384 -0.156,0.094 -0.32,0.165 -0.49,0.213 -0.172,0.048 -0.409,0.072 -0.706,0.072 -0.101,0 -0.233,-0.003 -0.403,-0.009 -0.219,-0.006 -0.363,-0.009 -0.431,-0.009 -0.1,0.001 -0.274,0.007 -0.522,0.019 m 0.754,-0.266 c 0.177,0.03 0.365,0.046 0.565,0.046 0.203,0 0.384,-0.018 0.54,-0.054 0.158,-0.035 0.29,-0.086 0.403,-0.151 0.109,-0.064 0.219,-0.16 0.323,-0.286 0.104,-0.127 0.185,-0.289 0.239,-0.487 0.058,-0.197 0.084,-0.4 0.084,-0.611 0,-0.303 -0.055,-0.562 -0.161,-0.778 -0.108,-0.217 -0.27,-0.383 -0.488,-0.497 -0.219,-0.116 -0.52,-0.174 -0.899,-0.174 -0.197,0 -0.4,0.016 -0.606,0.046 -0.006,0.08 -0.011,0.221 -0.014,0.424 l -0.009,0.353 v 0.972 l 0.007,0.755 c 0,0.114 0.007,0.261 0.016,0.442"
       id="path43"
       inkscape:connector-curvature="0" /><path
       d="m 78.288,10.344 -0.105,-0.029 -0.06,-0.48 0.06,-0.059 C 78.6,9.655 79.053,9.489 79.545,9.279 80.271,8.97 80.736,8.764 80.942,8.659 l 0.152,0.058 C 81.031,10.504 81,11.53 81,11.794 v 2.169 c 0,0.866 0.01,1.523 0.029,1.966 0.012,0.262 0.044,0.427 0.097,0.497 0.053,0.065 0.131,0.114 0.234,0.144 0.104,0.03 0.441,0.057 1.015,0.079 v 0.357 c -0.987,-0.027 -1.604,-0.042 -1.854,-0.042 -0.187,0 -0.849,0.015 -1.982,0.042 v -0.357 c 0.592,-0.035 0.935,-0.063 1.025,-0.085 0.093,-0.021 0.16,-0.053 0.205,-0.097 0.045,-0.041 0.077,-0.102 0.098,-0.181 0.031,-0.122 0.058,-0.47 0.082,-1.043 0.023,-0.576 0.034,-1.012 0.034,-1.309 V 11.63 c 0,-0.938 -0.002,-1.528 -0.006,-1.767 0,-0.104 -0.014,-0.171 -0.041,-0.197 -0.016,-0.017 -0.037,-0.024 -0.063,-0.024 -0.036,0 -0.125,0.031 -0.27,0.094 -0.663,0.297 -1.102,0.499 -1.315,0.608"
       id="path45"
       inkscape:connector-curvature="0" /><path
       d="M 85.857,17.006 V 16.66 c 0.609,-0.012 0.966,-0.027 1.071,-0.049 0.105,-0.021 0.179,-0.056 0.222,-0.103 0.055,-0.067 0.094,-0.185 0.117,-0.356 0.035,-0.288 0.053,-0.588 0.053,-0.895 v -0.434 h -1.281 c -0.706,0 -1.335,0.015 -1.889,0.042 l -0.1,-0.316 c 0.301,-0.566 0.701,-1.258 1.205,-2.078 0.733,-1.195 1.464,-2.345 2.192,-3.449 0.044,-0.019 0.149,-0.064 0.316,-0.135 0.297,-0.117 0.466,-0.184 0.509,-0.198 l 0.146,0.07 c -0.027,0.468 -0.045,1.044 -0.053,1.731 -0.02,1.446 -0.029,2.239 -0.029,2.381 v 1.21 c 0.53,-0.004 0.966,-0.018 1.305,-0.041 -0.013,0.196 -0.018,0.326 -0.018,0.388 l 0.018,0.438 c -0.397,-0.027 -0.733,-0.042 -1.006,-0.042 h -0.299 v 0.393 c 0,0.654 0.029,1.055 0.088,1.197 0.024,0.06 0.07,0.108 0.141,0.143 0.147,0.065 0.507,0.102 1.076,0.104 v 0.346 c -0.842,-0.027 -1.49,-0.042 -1.941,-0.042 -0.487,-0.001 -1.102,0.014 -1.843,0.041 m -1.035,-2.924 h 2.498 l 0.053,-4.159 c -0.425,0.612 -0.905,1.36 -1.442,2.246 -0.536,0.885 -0.907,1.522 -1.109,1.913"
       id="path47"
       inkscape:connector-curvature="0" /><path
       d="M 91.464,10.344 91.36,10.315 91.3,9.835 91.36,9.776 c 0.417,-0.121 0.871,-0.287 1.363,-0.497 0.724,-0.309 1.19,-0.515 1.397,-0.62 l 0.152,0.058 c -0.063,1.787 -0.094,2.813 -0.094,3.077 v 2.169 c 0,0.866 0.011,1.523 0.029,1.966 0.012,0.262 0.042,0.427 0.097,0.497 0.052,0.065 0.131,0.114 0.233,0.144 0.103,0.03 0.441,0.057 1.016,0.079 v 0.357 c -0.988,-0.027 -1.605,-0.042 -1.856,-0.042 -0.186,0 -0.846,0.015 -1.981,0.042 v -0.357 c 0.593,-0.035 0.935,-0.063 1.025,-0.085 0.093,-0.021 0.16,-0.053 0.204,-0.097 0.047,-0.041 0.079,-0.102 0.099,-0.181 0.03,-0.122 0.058,-0.47 0.081,-1.043 0.024,-0.576 0.035,-1.012 0.035,-1.309 V 11.63 c 0,-0.938 -10e-4,-1.528 -0.006,-1.767 0,-0.104 -0.014,-0.171 -0.041,-0.197 -0.015,-0.017 -0.037,-0.024 -0.064,-0.024 -0.035,0 -0.124,0.031 -0.27,0.094 -0.662,0.297 -1.101,0.499 -1.315,0.608"
       id="path49"
       inkscape:connector-curvature="0" /><path
       d="m 97.765,16.824 c -0.052,-0.331 -0.099,-0.586 -0.14,-0.766 -0.026,-0.112 -0.117,-0.434 -0.27,-0.964 l 0.32,-0.124 c 0.245,0.654 0.525,1.1 0.844,1.331 0.317,0.232 0.734,0.348 1.244,0.348 0.374,0 0.69,-0.075 0.947,-0.223 0.254,-0.147 0.461,-0.382 0.621,-0.707 0.16,-0.324 0.241,-0.688 0.241,-1.095 0,-0.542 -0.14,-0.957 -0.416,-1.248 -0.275,-0.291 -0.647,-0.434 -1.116,-0.434 -0.156,0 -0.301,0.015 -0.436,0.046 -0.134,0.031 -0.334,0.102 -0.599,0.211 l -0.069,-0.06 0.128,-0.637 c 0.313,0.019 0.521,0.028 0.625,0.028 0.475,0 0.843,-0.166 1.102,-0.499 0.259,-0.334 0.388,-0.711 0.388,-1.132 0,-0.379 -0.138,-0.7 -0.412,-0.965 -0.274,-0.266 -0.622,-0.397 -1.043,-0.397 -0.253,0 -0.497,0.051 -0.73,0.151 -0.232,0.102 -0.438,0.237 -0.619,0.409 -0.07,0.148 -0.182,0.428 -0.333,0.837 H 97.681 L 98.039,9.53 c 0.262,-0.272 0.507,-0.464 0.738,-0.573 0.378,-0.172 0.79,-0.257 1.237,-0.257 0.661,0 1.183,0.173 1.566,0.522 0.384,0.346 0.576,0.767 0.576,1.262 0,0.336 -0.101,0.666 -0.297,0.992 -0.198,0.324 -0.534,0.656 -1.009,0.997 0.44,0.058 0.787,0.159 1.042,0.3 0.254,0.144 0.449,0.345 0.585,0.604 0.137,0.26 0.204,0.55 0.204,0.868 0,0.465 -0.146,0.921 -0.437,1.368 -0.293,0.449 -0.704,0.819 -1.236,1.113 -0.53,0.292 -1.104,0.438 -1.725,0.438 -0.272,0 -0.521,-0.024 -0.749,-0.076 -0.223,-0.051 -0.479,-0.138 -0.769,-0.264"
       id="path51"
       inkscape:connector-curvature="0" /></g><g
     id="g53"
     transform="translate(-0.09375019,0.0625)"><path
       d="M 19.683,1.173 V 0.925 c 0.421,0.017 0.812,0.026 1.174,0.026 0.366,0 0.731,-0.009 1.092,-0.026 v 0.248 c -0.303,0.005 -0.487,0.019 -0.555,0.04 -0.066,0.021 -0.111,0.053 -0.135,0.091 -0.033,0.052 -0.054,0.178 -0.062,0.376 -0.003,0.051 -0.01,0.418 -0.02,1.099 v 1.433 c 0,0.556 0.036,0.921 0.107,1.098 0.07,0.177 0.183,0.323 0.338,0.439 0.119,0.088 0.279,0.157 0.481,0.211 0.201,0.053 0.427,0.079 0.674,0.079 0.29,0 0.547,-0.035 0.771,-0.106 0.224,-0.071 0.393,-0.157 0.506,-0.26 0.111,-0.102 0.196,-0.216 0.251,-0.342 0.056,-0.127 0.096,-0.3 0.12,-0.521 0.025,-0.221 0.037,-0.5 0.037,-0.839 V 2.779 C 24.462,2.428 24.456,2.086 24.443,1.75 24.437,1.505 24.421,1.359 24.39,1.314 24.36,1.269 24.312,1.235 24.245,1.213 24.179,1.192 23.993,1.178 23.689,1.173 V 0.925 c 0.426,0.017 0.736,0.026 0.933,0.026 0.178,0 0.499,-0.009 0.963,-0.026 v 0.248 c -0.307,0.005 -0.492,0.019 -0.558,0.04 -0.066,0.021 -0.11,0.053 -0.137,0.091 -0.03,0.052 -0.05,0.178 -0.058,0.376 -0.003,0.051 -0.008,0.418 -0.016,1.1 v 1.296 c 0,0.638 -0.045,1.084 -0.134,1.336 -0.089,0.253 -0.252,0.477 -0.49,0.67 -0.178,0.144 -0.407,0.257 -0.688,0.337 -0.279,0.08 -0.591,0.12 -0.932,0.12 -0.397,0 -0.742,-0.047 -1.034,-0.142 C 21.246,6.303 21.023,6.179 20.871,6.025 20.719,5.873 20.614,5.715 20.558,5.555 20.486,5.343 20.45,4.989 20.45,4.491 V 2.78 C 20.45,2.428 20.446,2.086 20.438,1.75 20.43,1.505 20.412,1.359 20.382,1.314 20.352,1.269 20.305,1.235 20.238,1.213 20.177,1.192 19.991,1.178 19.683,1.173 z"
       id="path55"
       inkscape:connector-curvature="0" /><path
       d="m 25.846,6.426 v -0.22 l 0.37,-0.004 c 0.056,-0.003 0.097,-0.013 0.128,-0.029 0.029,-0.017 0.052,-0.038 0.067,-0.063 0.029,-0.053 0.047,-0.143 0.055,-0.275 0,-0.033 0.007,-0.404 0.02,-1.112 V 4.26 C 26.486,4.054 26.482,3.831 26.474,3.594 26.466,3.442 26.453,3.351 26.437,3.323 26.42,3.295 26.392,3.273 26.35,3.259 26.309,3.245 26.14,3.239 25.846,3.242 V 3.021 c 0.522,-0.072 0.903,-0.167 1.144,-0.283 0.052,-0.025 0.086,-0.039 0.104,-0.039 0.019,0 0.033,0.007 0.043,0.02 0.011,0.013 0.016,0.032 0.016,0.058 0,0.018 -10e-4,0.039 -0.004,0.063 -0.007,0.093 -0.016,0.289 -0.023,0.588 l 0.722,-0.615 c 0.211,-0.078 0.411,-0.116 0.6,-0.116 0.209,0 0.408,0.042 0.595,0.127 0.186,0.086 0.328,0.193 0.423,0.322 0.094,0.129 0.156,0.292 0.188,0.488 0.017,0.116 0.027,0.44 0.027,0.973 v 0.685 c 0,0.336 0.009,0.565 0.026,0.685 0.014,0.078 0.033,0.132 0.061,0.161 0.027,0.03 0.069,0.048 0.126,0.057 l 0.414,0.012 V 6.428 C 30.055,6.41 29.844,6.401 29.677,6.401 29.533,6.401 29.292,6.41 28.956,6.428 28.992,5.789 29.01,5.387 29.01,5.219 V 4.569 C 29.01,4.163 28.994,3.897 28.964,3.77 28.92,3.597 28.82,3.457 28.665,3.352 28.51,3.245 28.323,3.193 28.103,3.193 c -0.193,0 -0.37,0.046 -0.53,0.138 -0.161,0.092 -0.274,0.197 -0.343,0.317 -0.069,0.12 -0.104,0.322 -0.104,0.606 v 0.469 c 0.014,0.672 0.021,1.035 0.021,1.089 0.005,0.129 0.021,0.224 0.046,0.282 0.011,0.025 0.026,0.044 0.047,0.061 0.02,0.017 0.053,0.03 0.098,0.041 0.016,0.003 0.158,0.007 0.429,0.012 V 6.429 C 27.452,6.411 27.166,6.402 26.912,6.402 26.691,6.399 26.337,6.408 25.846,6.426 z"
       id="path57"
       inkscape:connector-curvature="0" /><path
       d="M 30.53,3.238 V 3.017 C 31.031,2.96 31.453,2.852 31.794,2.692 l 0.085,0.061 c -0.02,0.551 -0.03,0.971 -0.03,1.264 v 0.704 c 0.013,0.672 0.019,1.035 0.022,1.089 0.003,0.129 0.017,0.224 0.043,0.282 0.013,0.025 0.029,0.044 0.051,0.061 0.02,0.017 0.051,0.03 0.093,0.041 0.015,0.003 0.158,0.007 0.43,0.012 V 6.427 C 32.095,6.409 31.782,6.4 31.547,6.4 31.34,6.4 31.002,6.409 30.531,6.427 V 6.206 l 0.371,-0.004 c 0.054,-0.003 0.097,-0.013 0.127,-0.029 0.029,-0.017 0.052,-0.038 0.068,-0.063 0.027,-0.053 0.046,-0.143 0.054,-0.275 0,-0.033 0.007,-0.404 0.021,-1.112 V 4.04 C 31.172,3.655 31.158,3.427 31.133,3.355 31.116,3.316 31.089,3.287 31.049,3.268 31.007,3.248 30.835,3.238 30.53,3.238 z m 0.945,-2.267 c 0.122,0 0.225,0.043 0.309,0.128 0.083,0.085 0.126,0.188 0.126,0.31 0,0.118 -0.043,0.22 -0.128,0.306 C 31.697,1.8 31.594,1.843 31.475,1.843 31.354,1.843 31.251,1.8 31.165,1.715 31.08,1.629 31.037,1.527 31.037,1.409 c 0,-0.122 0.043,-0.226 0.128,-0.31 0.087,-0.085 0.189,-0.128 0.31,-0.128 z"
       id="path59"
       inkscape:connector-curvature="0" /><path
       d="M 34.64,6.465 C 34.539,6.201 34.469,6.024 34.431,5.934 L 34.113,5.194 33.32,3.346 C 33.268,3.23 33.223,3.153 33.188,3.113 33.152,3.074 33.112,3.05 33.068,3.04 33.032,3.029 32.936,3.021 32.781,3.017 V 2.785 c 0.429,0.018 0.741,0.027 0.938,0.027 0.217,0 0.515,-0.01 0.892,-0.027 v 0.232 c -0.279,0.008 -0.443,0.025 -0.492,0.054 -0.049,0.028 -0.074,0.067 -0.074,0.116 0,0.078 0.052,0.244 0.155,0.5 l 0.473,1.177 0.113,0.263 c 0.126,0.307 0.213,0.513 0.26,0.615 L 35.432,4.864 C 35.457,4.812 35.574,4.522 35.785,3.994 35.909,3.685 35.992,3.451 36.033,3.289 36.044,3.244 36.05,3.206 36.05,3.173 36.05,3.129 36.033,3.098 35.999,3.079 35.936,3.046 35.771,3.025 35.503,3.017 V 2.785 c 0.385,0.018 0.631,0.027 0.739,0.027 0.091,0 0.338,-0.01 0.74,-0.027 V 3.017 C 36.822,3.025 36.715,3.043 36.663,3.073 36.61,3.103 36.559,3.164 36.506,3.258 36.471,3.32 36.33,3.599 36.088,4.095 L 35.716,4.889 C 35.652,5.031 35.428,5.557 35.045,6.466 H 34.64 z"
       id="path61"
       inkscape:connector-curvature="0" /><path
       d="M 40.572,5.825 40.448,6.104 C 40.269,6.215 40.139,6.288 40.056,6.325 39.935,6.38 39.795,6.426 39.639,6.463 39.484,6.501 39.319,6.52 39.146,6.52 38.805,6.52 38.497,6.449 38.22,6.306 37.944,6.164 37.729,5.953 37.574,5.669 37.421,5.386 37.344,5.056 37.344,4.675 c 0,-0.296 0.041,-0.564 0.122,-0.803 0.082,-0.239 0.174,-0.416 0.277,-0.529 0.075,-0.083 0.191,-0.178 0.349,-0.285 0.158,-0.107 0.314,-0.191 0.469,-0.253 0.204,-0.085 0.425,-0.128 0.662,-0.128 0.289,0 0.551,0.066 0.785,0.197 0.233,0.132 0.404,0.312 0.513,0.538 0.108,0.227 0.163,0.485 0.163,0.771 0,0.072 -0.007,0.16 -0.02,0.263 -0.186,0.036 -0.353,0.061 -0.499,0.07 -0.278,0.021 -0.558,0.031 -0.835,0.031 h -1.242 c 0.006,0.37 0.069,0.67 0.191,0.899 0.122,0.229 0.292,0.398 0.508,0.507 0.216,0.107 0.439,0.163 0.672,0.163 0.157,0 0.314,-0.026 0.471,-0.077 0.156,-0.052 0.35,-0.144 0.579,-0.28 l 0.063,0.066 z M 38.089,4.241 c 0.072,0.008 0.209,0.016 0.41,0.023 0.385,0.013 0.649,0.02 0.795,0.02 0.343,0 0.569,-0.007 0.678,-0.02 0.002,-0.063 0.004,-0.109 0.004,-0.144 0,-0.407 -0.083,-0.708 -0.248,-0.898 -0.165,-0.191 -0.386,-0.286 -0.662,-0.286 -0.292,0 -0.527,0.105 -0.706,0.313 -0.179,0.21 -0.269,0.541 -0.271,0.992 z"
       id="path63"
       inkscape:connector-curvature="0" /><path
       d="m 41.13,6.426 v -0.22 c 0.294,-0.005 0.452,-0.011 0.476,-0.016 0.045,-0.008 0.077,-0.021 0.1,-0.037 0.021,-0.017 0.039,-0.04 0.053,-0.071 0.025,-0.06 0.041,-0.152 0.046,-0.279 0.014,-0.689 0.02,-1.05 0.02,-1.081 V 4.26 C 41.825,4.054 41.822,3.831 41.813,3.594 41.808,3.442 41.797,3.351 41.781,3.323 41.763,3.295 41.734,3.273 41.692,3.259 41.648,3.245 41.48,3.239 41.186,3.242 V 3.021 c 0.521,-0.072 0.902,-0.167 1.142,-0.283 0.052,-0.025 0.087,-0.039 0.104,-0.039 0.019,0 0.032,0.007 0.043,0.02 0.01,0.013 0.016,0.032 0.016,0.058 0,0.018 -0.002,0.039 -0.004,0.063 -0.014,0.157 -0.021,0.401 -0.023,0.731 0.116,-0.134 0.224,-0.267 0.321,-0.398 0.099,-0.132 0.169,-0.218 0.214,-0.256 0.077,-0.067 0.166,-0.121 0.267,-0.161 0.101,-0.04 0.206,-0.06 0.313,-0.06 0.109,0 0.216,0.023 0.322,0.069 l 0.023,0.054 C 43.885,3.163 43.863,3.465 43.858,3.725 H 43.684 C 43.624,3.602 43.555,3.511 43.476,3.454 43.398,3.397 43.298,3.368 43.18,3.368 c -0.199,0 -0.368,0.083 -0.508,0.246 -0.14,0.165 -0.209,0.411 -0.209,0.738 v 0.399 c 0,0.171 0.007,0.481 0.02,0.934 0.002,0.16 0.009,0.262 0.019,0.307 0.011,0.044 0.024,0.075 0.041,0.095 0.018,0.018 0.045,0.035 0.083,0.048 0.078,0.023 0.287,0.047 0.628,0.07 V 6.426 C 42.8,6.408 42.412,6.399 42.092,6.399 c -0.333,0 -0.652,0.009 -0.962,0.027 z"
       id="path65"
       inkscape:connector-curvature="0" /><path
       d="m 44.438,5.255 h 0.232 c 0.003,0.151 0.01,0.27 0.023,0.356 0.013,0.088 0.035,0.174 0.066,0.258 0.031,0.084 0.079,0.155 0.144,0.214 0.065,0.058 0.136,0.102 0.212,0.135 0.076,0.033 0.154,0.055 0.233,0.065 0.078,0.01 0.198,0.016 0.358,0.016 0.265,0 0.48,-0.069 0.65,-0.21 0.17,-0.14 0.255,-0.33 0.255,-0.572 0,-0.108 -0.027,-0.205 -0.08,-0.287 C 46.478,5.147 46.402,5.082 46.302,5.036 46.201,4.99 45.988,4.93 45.659,4.854 45.33,4.78 45.118,4.725 45.022,4.692 44.877,4.637 44.762,4.572 44.676,4.495 44.591,4.417 44.523,4.318 44.473,4.199 44.422,4.081 44.397,3.952 44.397,3.812 c 0,-0.204 0.054,-0.392 0.161,-0.563 0.107,-0.172 0.276,-0.312 0.507,-0.418 0.23,-0.107 0.48,-0.161 0.752,-0.161 0.163,0 0.353,0.022 0.566,0.067 0.215,0.045 0.39,0.102 0.524,0.169 -0.017,0.286 -0.031,0.578 -0.039,0.876 H 46.65 C 46.637,3.593 46.622,3.469 46.605,3.41 46.588,3.35 46.566,3.297 46.538,3.25 46.509,3.203 46.46,3.153 46.389,3.1 46.32,3.047 46.23,3 46.119,2.959 46.01,2.917 45.874,2.896 45.714,2.896 c -0.229,0 -0.411,0.067 -0.55,0.201 -0.139,0.135 -0.208,0.292 -0.208,0.473 0,0.101 0.021,0.188 0.061,0.26 0.041,0.072 0.094,0.131 0.161,0.176 0.067,0.046 0.161,0.087 0.283,0.122 l 0.645,0.159 c 0.325,0.083 0.55,0.153 0.673,0.213 0.123,0.06 0.222,0.152 0.297,0.277 0.075,0.125 0.113,0.275 0.113,0.451 0,0.349 -0.145,0.653 -0.433,0.912 C 46.467,6.4 46.081,6.53 45.598,6.53 45.375,6.53 45.08,6.496 44.709,6.429 44.505,6.39 44.396,6.363 44.38,6.348 44.368,6.339 44.364,6.326 44.364,6.309 c 0,-0.018 0.002,-0.04 0.008,-0.066 0.023,-0.111 0.038,-0.22 0.046,-0.325 0.008,-0.106 0.015,-0.327 0.02,-0.663 z"
       id="path67"
       inkscape:connector-curvature="0" /><path
       d="M 47.618,3.238 V 3.017 C 48.12,2.96 48.541,2.852 48.882,2.692 l 0.085,0.061 c -0.021,0.551 -0.03,0.971 -0.03,1.264 v 0.704 c 0.013,0.672 0.021,1.035 0.022,1.089 0.003,0.129 0.017,0.224 0.043,0.282 0.013,0.025 0.029,0.044 0.051,0.061 0.02,0.017 0.051,0.03 0.093,0.041 0.016,0.003 0.158,0.007 0.43,0.012 V 6.427 C 49.183,6.409 48.87,6.4 48.635,6.4 48.429,6.4 48.09,6.409 47.619,6.427 V 6.206 L 47.99,6.202 c 0.055,-0.003 0.097,-0.013 0.127,-0.029 0.029,-0.017 0.053,-0.038 0.068,-0.063 0.028,-0.053 0.047,-0.143 0.054,-0.275 0,-0.033 0.007,-0.404 0.021,-1.112 V 4.04 C 48.26,3.655 48.246,3.427 48.221,3.355 48.205,3.316 48.178,3.287 48.138,3.268 48.096,3.248 47.923,3.238 47.618,3.238 z m 0.946,-2.267 c 0.121,0 0.224,0.043 0.308,0.128 0.084,0.085 0.126,0.188 0.126,0.31 0,0.118 -0.043,0.22 -0.128,0.306 C 48.785,1.8 48.682,1.843 48.564,1.843 48.442,1.843 48.339,1.8 48.253,1.715 48.168,1.629 48.125,1.527 48.125,1.409 c 0,-0.122 0.043,-0.226 0.128,-0.31 0.086,-0.085 0.189,-0.128 0.311,-0.128 z"
       id="path69"
       inkscape:connector-curvature="0" /><path
       d="M 49.931,3.389 V 3.226 c 0.249,-0.098 0.446,-0.185 0.593,-0.264 0,-0.614 0,-1.007 0,-1.178 0.269,-0.093 0.487,-0.192 0.654,-0.298 l 0.094,0.077 c -0.028,0.215 -0.06,0.688 -0.094,1.418 0.207,0.003 0.331,0.004 0.372,0.004 0.023,0 0.156,-0.003 0.399,-0.008 0.135,-0.002 0.235,-0.008 0.303,-0.016 l 0.026,0.027 -0.081,0.36 C 52.034,3.345 51.884,3.344 51.748,3.344 c -0.138,0 -0.327,0.001 -0.57,0.004 L 51.16,4.927 c -0.008,0.384 -0.005,0.614 0.008,0.688 0.013,0.075 0.037,0.141 0.073,0.196 0.036,0.056 0.083,0.101 0.141,0.133 0.058,0.034 0.156,0.061 0.295,0.078 0.105,0 0.191,-0.004 0.257,-0.014 0.065,-0.009 0.148,-0.031 0.249,-0.067 l 0.047,0.15 C 52.108,6.188 51.991,6.286 51.877,6.39 51.779,6.426 51.688,6.451 51.602,6.461 51.518,6.473 51.419,6.478 51.309,6.478 51.172,6.478 51.063,6.463 50.982,6.432 50.901,6.401 50.827,6.358 50.759,6.302 50.693,6.246 50.636,6.176 50.592,6.09 50.547,6.005 50.519,5.871 50.505,5.688 50.508,5.512 50.513,5.32 50.521,5.111 50.524,5.069 50.525,5.024 50.525,4.975 V 3.369 h -0.158 c -0.131,0 -0.276,0.007 -0.436,0.02 z"
       id="path71"
       inkscape:connector-curvature="0" /><path
       d="m 52.515,8.499 0.198,-0.596 h 0.093 c 0.049,0.04 0.091,0.073 0.126,0.098 0.034,0.025 0.072,0.043 0.112,0.057 0.04,0.013 0.099,0.018 0.176,0.018 0.08,0 0.159,-0.017 0.234,-0.052 C 53.53,7.99 53.601,7.934 53.667,7.859 53.733,7.785 53.812,7.656 53.902,7.472 54.039,7.195 54.161,6.913 54.269,6.626 54.187,6.394 54.086,6.133 53.97,5.844 L 53.353,4.319 C 53.169,3.865 53.02,3.517 52.904,3.275 52.858,3.18 52.808,3.117 52.754,3.084 52.701,3.052 52.583,3.025 52.4,3.005 v -0.22 c 0.32,0.018 0.638,0.027 0.95,0.027 0.305,0 0.599,-0.01 0.881,-0.027 v 0.221 c -0.266,0.018 -0.419,0.034 -0.457,0.05 -0.067,0.025 -0.101,0.071 -0.101,0.139 0,0.041 0.021,0.125 0.065,0.253 0.101,0.318 0.196,0.59 0.287,0.816 l 0.245,0.605 c 0.146,0.362 0.271,0.656 0.372,0.881 L 54.846,5.293 C 54.926,5.11 55.067,4.768 55.268,4.261 55.469,3.753 55.587,3.441 55.621,3.322 55.632,3.281 55.637,3.245 55.637,3.214 55.637,3.165 55.616,3.127 55.576,3.1 55.536,3.073 55.381,3.046 55.109,3.021 V 2.785 c 0.3,0.018 0.565,0.027 0.795,0.027 0.232,0 0.462,-0.01 0.688,-0.027 L 56.554,3.017 C 56.422,3.022 56.321,3.05 56.248,3.102 56.176,3.154 56.066,3.328 55.92,3.623 55.774,3.918 55.504,4.5 55.108,5.368 L 54.215,7.46 c -0.144,0.338 -0.27,0.58 -0.375,0.725 -0.106,0.145 -0.232,0.254 -0.38,0.329 -0.147,0.074 -0.309,0.112 -0.483,0.112 -0.086,0 -0.163,-0.01 -0.23,-0.029 C 52.677,8.579 52.6,8.545 52.515,8.499 z"
       id="path73"
       inkscape:connector-curvature="0" /><path
       d="m 59.001,4.642 c 0,-0.579 0.185,-1.052 0.552,-1.417 0.368,-0.366 0.84,-0.549 1.416,-0.549 0.543,0 0.984,0.17 1.325,0.512 0.341,0.341 0.512,0.781 0.512,1.322 0,0.377 -0.088,0.723 -0.264,1.035 -0.176,0.313 -0.424,0.558 -0.744,0.735 -0.32,0.177 -0.673,0.266 -1.058,0.266 -0.299,0 -0.553,-0.051 -0.761,-0.151 C 59.771,6.293 59.602,6.167 59.473,6.015 59.344,5.862 59.245,5.705 59.179,5.545 59.06,5.264 59.001,4.963 59.001,4.642 z m 0.732,-0.287 c 0,0.318 0.053,0.642 0.159,0.97 0.105,0.328 0.259,0.568 0.459,0.72 0.2,0.151 0.417,0.227 0.652,0.227 0.3,0 0.55,-0.118 0.752,-0.357 0.201,-0.238 0.302,-0.604 0.302,-1.098 0,-0.412 -0.06,-0.767 -0.18,-1.065 C 61.757,3.453 61.604,3.243 61.418,3.12 61.231,2.997 61.026,2.936 60.802,2.936 c -0.317,0 -0.575,0.114 -0.773,0.345 -0.197,0.23 -0.296,0.589 -0.296,1.074 z"
       id="path75"
       inkscape:connector-curvature="0" /><path
       d="M 63.363,3.397 V 3.24 C 63.564,3.155 63.742,3.065 63.897,2.971 V 2.738 c 0,-0.335 0.021,-0.572 0.064,-0.711 0.042,-0.138 0.102,-0.261 0.18,-0.37 0.116,-0.16 0.3,-0.363 0.55,-0.611 0.168,-0.163 0.292,-0.265 0.373,-0.307 0.105,-0.054 0.229,-0.081 0.371,-0.081 0.101,0 0.204,0.017 0.31,0.05 l 0.017,0.644 -0.09,0.035 C 65.592,1.32 65.513,1.271 65.434,1.239 65.355,1.208 65.263,1.192 65.158,1.192 c -0.141,0 -0.254,0.028 -0.342,0.085 -0.087,0.058 -0.151,0.139 -0.191,0.245 -0.04,0.105 -0.06,0.321 -0.06,0.647 V 2.97 h 0.41 c 0.206,0 0.41,-0.009 0.608,-0.027 l 0.038,0.024 -0.076,0.401 c -0.226,-0.01 -0.391,-0.015 -0.496,-0.015 -0.109,0 -0.271,0.005 -0.484,0.015 v 1.386 c 0,0.171 0.006,0.48 0.019,0.933 0.003,0.16 0.01,0.262 0.02,0.306 0.011,0.044 0.024,0.075 0.041,0.095 0.017,0.018 0.045,0.035 0.083,0.049 0.078,0.023 0.286,0.046 0.628,0.069 V 6.427 C 64.754,6.409 64.387,6.4 64.255,6.4 64.137,6.4 63.805,6.409 63.26,6.427 V 6.206 l 0.37,-0.004 c 0.055,-0.003 0.097,-0.013 0.126,-0.029 0.03,-0.017 0.054,-0.038 0.068,-0.063 0.029,-0.053 0.047,-0.143 0.056,-0.275 0,-0.033 0.006,-0.403 0.019,-1.11 V 3.369 l -0.536,0.028 z"
       id="path77"
       inkscape:connector-curvature="0" /></g><path
     d="m 0.81924981,0.5585 c -0.017,0.456 -0.103,2.862 -0.103,2.862 -0.066,1.677 -0.123,3.148 -0.123,4.459 0,5.768 1.11399999,8.397 7.52999999,11.509 6.4170002,-3.111 7.5320002,-5.74 7.5320002,-11.504 0,-1.312 -0.057,-2.787 -0.123,-4.466 0,0 -0.084,-2.404 -0.1,-2.86 H 0.81924981 z"
     id="path79"
     inkscape:connector-curvature="0"
     style="fill:#ffffff" /><g
     id="g81"
     transform="translate(-0.09375019,0.0625)"><path
       d="M 15.074,0.991 H 1.38 L 1.235,4.811 H 15.231 L 15.074,0.991 z M 8.68,4.553 8.666,4.52 c 0,0 0.102,-0.044 0.238,-0.127 C 9.17,4.23 9.389,3.894 9.389,3.574 9.389,3.01 8.864,2.551 8.2,2.551 c -0.657,0 -1.201,0.458 -1.201,1.023 0,0.32 0.223,0.656 0.485,0.818 0.138,0.083 0.24,0.128 0.24,0.128 L 7.711,4.553 c 0,0 -0.114,-0.042 -0.252,-0.129 C 6.997,4.143 6.751,3.68 6.751,3.263 c 0,-0.709 0.659,-1.286 1.447,-1.286 0.792,0 1.443,0.577 1.443,1.286 0,0.417 -0.25,0.88 -0.71,1.162 C 8.794,4.511 8.68,4.553 8.68,4.553 z M 9.017,4.48 9.009,4.444 c 0.427,-0.28 0.707,-0.737 0.707,-1.182 0,-0.75 -0.684,-1.361 -1.517,-1.361 -0.829,0 -1.524,0.611 -1.524,1.361 0,0.445 0.278,0.902 0.707,1.182 L 7.372,4.48 C 6.744,4.191 6.289,3.6 6.289,2.983 c 0,-0.885 0.882,-1.621 1.913,-1.621 1.032,0 1.899,0.735 1.899,1.621 C 10.1,3.6 9.648,4.191 9.017,4.48 z"
       id="path83"
       inkscape:connector-curvature="0"
       style="fill:#ee3124" /><path
       d="M 9.974,5.219 V 7.362 C 9.951,7.377 9.791,7.503 9.54,7.506 9.274,7.509 8.955,7.384 8.666,7.384 8.485,7.384 8.347,7.458 8.232,7.583 H 8.169 c 0,0 -0.171,-0.199 -0.44,-0.199 -0.279,0 -0.608,0.128 -0.874,0.128 -0.263,0 -0.408,-0.138 -0.429,-0.153 V 5.219 C 6.37,5.327 6.25,5.441 6.155,5.442 V 7.56 C 6.263,7.646 6.397,7.679 6.541,7.683 6.892,7.695 7.309,7.534 7.674,7.534 7.873,7.534 8.059,7.588 8.199,7.741 8.345,7.587 8.521,7.533 8.72,7.533 9.083,7.533 9.507,7.694 9.856,7.682 9.999,7.678 10.13,7.645 10.241,7.559 V 5.442 C 10.143,5.452 10.012,5.333 9.974,5.219 z"
       id="path85"
       inkscape:connector-curvature="0"
       style="fill:#ee3124" /></g><path
     d="m 13.42125,14.0825 c -0.04,-0.137 -0.164,-0.252 -0.284,-0.26 0.023,0.024 0.045,0.045 0.066,0.067 0.127,0.145 0.051,0.47 -0.079,0.548 0.054,-0.193 -0.095,-0.348 -0.292,-0.295 0.073,0.044 0.119,0.166 0.086,0.282 -0.032,0.112 -0.158,0.215 -0.281,0.192 -0.168,-0.033 -0.074,-0.254 -0.08,-0.394 -0.006,-0.197 -0.132,-0.291 -0.227,-0.337 -0.011,-0.006 -10e-4,-0.019 -10e-4,-0.019 0.065,0.017 0.129,0.045 0.22,0.043 0.123,0 0.222,-0.068 0.261,-0.123 0.05,-0.063 0.069,-0.168 0.042,-0.244 -0.022,0.032 -0.05,0.074 -0.08,0.102 -0.072,0.066 -0.213,0.076 -0.314,0.025 -0.105,-0.051 -0.206,-0.158 -0.287,-0.26 -0.271,-0.37 -0.598,-0.743 -0.937,-0.966 -0.207,-0.138 -0.484,-0.249 -0.75,-0.257 -0.159,-0.004 -0.32,0.029 -0.457,0.117 -0.1840002,0.117 -0.2960002,0.32 -0.3190002,0.513 -0.028,0.229 0.052,0.453 0.19,0.628 0.1840002,0.236 0.4420002,0.41 0.6890002,0.566 0.183,0.117 0.362,0.242 0.532,0.377 0.132,0.104 0.246,0.227 0.282,0.398 0.037,0.159 -0.032,0.27 -0.096,0.323 -0.114,0.093 -0.417,0.085 -0.527,-0.01 -0.072,-0.546 -0.449,-0.786 -0.9400002,-0.904 -0.233,-0.056 -0.481,-0.114 -0.676,-0.224 -0.176,-0.095 -0.335,-0.191 -0.414,-0.422 -0.029,0.008 -0.113,-0.008 -0.174,-0.035 -0.146,-0.053 -0.194,-0.152 -0.22,-0.235 0.084,0.083 0.158,0.137 0.377,0.149 0.131,0.004 0.307,-0.062 0.375,-0.171 -0.135,0.017 -0.245,0.009 -0.321,-0.037 -0.075,-0.047 -0.15,-0.152 -0.135,-0.266 0.13,0.137 0.374,0.184 0.592,0.078 0.03,-0.014 0.13,-0.088 0.136,-0.125 -0.118,0.014 -0.224,-0.007 -0.293,-0.066 -0.071,-0.057 -0.116,-0.145 -0.114,-0.267 0.074,0.078 0.211,0.119 0.342,0.113 0.131,-0.006 0.256,-0.059 0.3,-0.167 -0.098,0.019 -0.196,-0.004 -0.276,-0.052 -0.072,-0.045 -0.127,-0.119 -0.131,-0.211 -0.13,-0.01 -0.231,-0.066 -0.293,-0.139 -0.073,0.104 -0.098,0.348 -0.085,0.514 -0.207,-0.008 -0.381,-0.15 -0.413,-0.347 -0.09,0.101 -0.104,0.354 -0.058,0.495 -0.247,-0.017 -0.397,-0.148 -0.455,-0.354 -0.035,0.074 -0.053,0.174 -0.052,0.283 0.002,0.03 0.007,0.092 0.015,0.135 0,0 -0.061,-0.004 -0.147,-0.064 -0.11,-0.072 -0.207,-0.258 -0.2,-0.347 0.064,0.099 0.145,0.183 0.238,0.243 -0.009,-0.225 0.093,-0.399 0.214,-0.486 0.003,0.243 0.082,0.385 0.275,0.436 -0.032,-0.143 0.009,-0.259 0.043,-0.349 0.034,-0.081 0.123,-0.196 0.174,-0.231 10e-4,0.198 0.093,0.395 0.262,0.441 -0.007,-0.154 0.024,-0.33 0.081,-0.441 0.027,-0.05 0.061,-0.106 0.106,-0.13 0.048,0.158 0.247,0.236 0.43,0.242 0.492,0.016 0.517,-0.389 0.517,-0.389 -0.066,0.031 -0.155,0.086 -0.319,0.086 -0.201,0 -0.258,-0.16 -0.258,-0.16 0.117,0.046 0.351,-0.013 0.46,-0.099 0.069,-0.054 0.155,-0.17 0.163,-0.271 0.008,-0.097 -0.015,-0.187 -0.082,-0.233 -0.081,0.212 -0.546,0.324 -0.708,0.111 0.176,0.013 0.34,-0.065 0.399,-0.177 0.018,-0.028 0.034,-0.115 0.02,-0.153 0,0 -0.128,0.083 -0.297,0.09 -0.182,0.008 -0.281,-0.067 -0.281,-0.067 0.121,-0.008 0.354,-0.132 0.337,-0.281 0,0 -0.075,0.027 -0.127,0.031 -0.134,0.014 -0.303,-0.003 -0.392,-0.069 0.005,-0.021 0.053,-0.366 0.014,-0.409 -0.153,0.07 -0.295,0.183 -0.381,0.329 -0.091,-0.015 -0.199,-0.028 -0.325,-0.025 -0.126,0.002 -0.267,0.025 -0.334,0.059 -0.03,0.016 -0.086,0.054 -0.116,0.094 -0.034,0.041 -0.044,0.091 -0.082,0.115 -0.089,0.05 -0.232,0.07 -0.349,0.079 -0.089,0.01 -0.207,-0.005 -0.235,0.065 -0.029,0.075 0.03,0.117 0.057,0.152 0.018,0.026 0.038,0.068 0.052,0.103 0.013,0.034 0.024,0.088 0.043,0.115 0.114,0.185 0.23,0.103 0.357,0.063 0.141,-0.05 0.331,-0.097 0.498,-0.097 0.101,0 0.208,0.013 0.292,0.068 0.075,0.046 0.115,0.152 0.11,0.241 -0.002,0.082 -0.037,0.164 -0.101,0.218 -0.032,0.03 -0.162,0.104 -0.335,0.104 -0.212,0 -0.423,-0.097 -0.608,-0.101 -0.055,-0.004 -0.111,0.015 -0.129,0.036 -0.06,0.057 -0.06,0.135 -0.007,0.205 0.186,-0.004 0.179,0.208 0.151,0.303 -0.089,0.236 -0.275,0.248 -0.363,0.24 -0.109,-0.014 -0.219,-0.059 -0.268,-0.115 -0.09,0.268 0.093,0.482 0.335,0.496 -0.168,0.139 -0.502,0.029 -0.534,-0.154 -0.025,0.027 -0.045,0.086 -0.048,0.139 -0.021,0.328 0.244,0.459 0.576,0.446 -0.194,0.08 -0.441,0.04 -0.668,-0.026 -0.206,-0.06 -0.319,-0.113 -0.461,-0.185 -0.175,-0.083 -0.358,-0.234 -0.449,-0.392 -0.029,-0.056 -0.062,-0.152 -0.058,-0.225 0.013,-0.249 0.302,-0.282 0.263,-0.569 -0.2,-0.061 -0.401,0.037 -0.461,0.231 -0.018,0.053 -0.023,0.11 -0.015,0.181 -0.073,-0.065 -0.148,-0.146 -0.224,-0.214 -0.064,-0.056 -0.131,-0.09 -0.205,-0.084 -0.007,0 -0.019,0.059 -0.071,0.126 -0.018,0.019 -0.099,0.089 -0.099,0.089 0.004,0.046 0.045,0.097 0.063,0.108 0.063,0.06 0.185,0.09 0.237,0.172 0.016,0.024 0.022,0.055 0.018,0.096 -0.054,0.017 -0.105,0.015 -0.149,0.003 -0.155,-0.036 -0.27,-0.173 -0.448,-0.183 -0.073,-0.006 -0.148,0.008 -0.183,0.059 0.048,0.063 0.038,0.191 -0.006,0.266 0.028,0.063 0.088,0.089 0.153,0.097 0.103,0.011 0.224,-0.008 0.32,0.008 0.052,0.001 0.097,0.017 0.127,0.052 -0.06,0.041 -0.105,0.07 -0.17,0.085 -0.141,0.03 -0.31,-0.072 -0.431,-0.007 0,0 0.028,0.057 0.008,0.123 -0.015,0.061 -0.048,0.116 -0.048,0.116 0.063,0.058 0.129,0.078 0.193,0.082 0.129,0 0.264,-0.078 0.391,-0.124 0.062,-0.023 0.119,-0.04 0.175,-0.04 -0.103,0.136 -0.267,0.263 -0.459,0.282 -0.024,0.002 -0.059,0.002 -0.059,0.002 0.002,0.021 0.048,0.043 0.063,0.051 0.043,0.023 0.114,0.043 0.172,0.045 0.257,0.011 0.466,-0.076 0.644,-0.178 -0.08,0.16 -0.224,0.25 -0.407,0.307 0.019,0.024 0.063,0.03 0.098,0.036 0.394,0.064 0.749,-0.202 0.749,-0.202 -0.008,0.076 -0.065,0.188 -0.191,0.266 -0.066,0.037 -0.136,0.047 -0.136,0.047 0.053,0.057 0.199,0.064 0.297,0.053 0.114,-0.007 0.249,-0.055 0.36,-0.078 0.18,-0.031 0.291,-0.023 0.399,-0.049 -0.121,0.049 -0.248,0.098 -0.377,0.147 -0.158,0.057 -0.302,0.133 -0.44,0.209 -0.148,0.078 -0.272,0.184 -0.409,0.25 -0.146,0.076 -0.317,0.042 -0.385,-0.074 -0.032,-0.061 -0.031,-0.122 -0.045,-0.184 -0.033,-0.146 -0.142,-0.271 -0.308,-0.267 -0.014,0.125 -0.122,0.207 -0.173,0.246 0.021,0.23 0.319,0.226 0.352,0.463 -0.026,0.015 -0.083,0.021 -0.14,0.005 -0.121,-0.036 -0.202,-0.083 -0.315,-0.085 -0.066,-0.002 -0.127,0.009 -0.184,0.049 0.023,0.023 0.039,0.048 0.051,0.09 0.019,0.07 -0.005,0.152 -0.038,0.203 0.044,0.046 0.101,0.062 0.164,0.062 0.109,0 0.233,-0.04 0.329,-0.048 0.056,-0.004 0.125,-0.004 0.178,0.023 -0.061,0.147 -0.278,0.137 -0.444,0.177 -0.078,0.02 -0.143,0.056 -0.176,0.122 0.113,0.035 0.191,0.119 0.184,0.273 0.057,0.002 0.105,-0.01 0.15,-0.026 0.141,-0.064 0.225,-0.217 0.366,-0.267 -0.004,0.158 -0.102,0.246 -0.124,0.385 -0.008,0.042 -0.006,0.087 0.005,0.142 0,0 0.07,-0.031 0.145,-0.031 0.066,0.002 0.101,0.023 0.139,0.047 0.039,-0.037 0.062,-0.088 0.076,-0.142 0.023,-0.105 0.015,-0.227 0.019,-0.33 0.011,-0.055 0.007,-0.08 0.05,-0.088 0.195,0 0.404,-0.107 0.48,-0.19 -0.031,0.121 -0.073,0.191 -0.144,0.272 -0.023,0.027 -0.076,0.078 -0.098,0.098 0.12,0.018 0.242,-0.02 0.339,-0.082 0.201,-0.131 0.372,-0.301 0.458,-0.514 0.023,0.091 0.017,0.203 -0.015,0.291 -0.022,0.066 -0.063,0.129 -0.091,0.162 0.033,0.008 0.098,-0.006 0.136,-0.023 0.148,-0.064 0.255,-0.191 0.334,-0.354 0.04,-0.082 0.08,-0.191 0.095,-0.292 0.084,0.088 0.102,0.236 0.039,0.399 -0.014,0.037 -0.038,0.071 -0.044,0.08 0.098,-0.009 0.174,-0.078 0.242,-0.142 0.115,-0.11 0.216,-0.329 0.192,-0.524 0.109,0.096 0.139,0.354 0.071,0.499 0.097,-0.026 0.18,-0.089 0.247,-0.162 0.08,-0.083 0.128,-0.15 0.175,-0.307 0.046,-0.15 0.015,-0.257 0.015,-0.257 0.021,0.019 0.051,0.07 0.061,0.118 0.045,0.191 -0.01,0.409 -0.17,0.562 -0.026,0.025 -0.079,0.066 -0.086,0.07 0.107,0.144 0.297,0.204 0.508,0.213 0.356,0.02 0.566,-0.129 0.898,-0.165 -0.136,0.063 -0.263,0.145 -0.346,0.181 -0.193,0.09 -0.367,0.148 -0.52,0.143 -0.086,-0.004 -0.189,-0.002 -0.282,-0.049 -0.065,0.082 -0.078,0.177 -0.065,0.313 0.02,0.179 0.119,0.296 0.075,0.479 -0.093,0.35 -0.706,0.295 -0.934,0.127 -0.186,-0.137 -0.169,-0.463 -0.336,-0.603 -0.05,-0.043 -0.113,-0.065 -0.204,-0.065 -0.032,0.105 -0.104,0.17 -0.188,0.227 0.011,0.066 0.044,0.113 0.083,0.154 0.066,0.072 0.164,0.117 0.221,0.203 0.023,0.033 0.043,0.076 0.047,0.127 -0.062,0.004 -0.115,-0.01 -0.161,-0.033 -0.126,-0.061 -0.22,-0.182 -0.362,-0.217 -0.052,-0.008 -0.108,-0.006 -0.178,0.008 0.025,0.072 -0.017,0.191 -0.084,0.242 0.052,0.143 0.195,0.223 0.38,0.232 0.103,0.006 0.222,-0.004 0.283,0.072 -0.145,0.154 -0.372,0.002 -0.57,0.002 -0.053,0 -0.104,0.012 -0.153,0.043 0.007,0.012 0.032,0.06 0.036,0.107 0.007,0.068 -0.041,0.164 -0.041,0.164 0.007,0.057 0.121,0.086 0.185,0.094 0.044,0.006 0.094,0.002 0.136,-0.006 0.147,-0.023 0.307,-0.129 0.456,-0.115 0.022,0 0.062,0.012 0.07,0.031 -0.048,0.117 -0.168,0.133 -0.24,0.211 -0.024,0.027 -0.045,0.064 -0.053,0.115 0.123,-0.031 0.166,0.018 0.226,0.096 0.057,0.006 0.106,-0.01 0.144,-0.039 0.077,-0.059 0.13,-0.182 0.18,-0.24 0.018,-0.025 0.036,-0.059 0.079,-0.051 0.023,0.004 0.051,0.055 0.08,0.092 0.104,0.131 0.287,0.236 0.513,0.209 0.065,-0.006 0.134,-0.039 0.178,-0.088 -0.146,-0.025 -0.249,-0.125 -0.297,-0.26 0.127,0.094 0.35,0.174 0.533,0.143 0.023,-0.004 0.08,-0.025 0.088,-0.045 -0.142,-0.037 -0.257,-0.182 -0.204,-0.354 0.065,0.107 0.198,0.207 0.357,0.221 0.05,0.006 0.11,0.006 0.153,-0.027 -0.023,-0.023 -0.054,-0.051 -0.071,-0.088 -0.019,-0.039 -0.03,-0.094 -0.025,-0.147 0.019,-0.127 0.198,-0.164 0.312,-0.174 0.15,-0.02 0.312,0.016 0.446,-0.035 0.096,-0.041 0.182,-0.113 0.172,-0.215 -0.049,0.035 -0.116,0.066 -0.201,0.059 -0.129,-0.012 -0.17,-0.119 -0.17,-0.199 0,-0.152 0.093,-0.23 0.278,-0.242 0.084,-0.006 0.21,0.016 0.286,0.047 -0.002,-0.002 0.121,0.045 0.121,0.043 -0.052,-0.105 0.007,-0.291 0.041,-0.376 0.065,-0.144 0.135,-0.227 0.172,-0.36 0.008,0.026 0.012,0.056 0.008,0.087 -0.013,0.15 -0.076,0.24 -0.091,0.412 -0.01,0.091 0.025,0.218 0.103,0.28 0.148,0.117 0.385,0.158 0.467,0.351 0.057,0.149 0,0.275 -0.073,0.369 -0.104,0.148 -0.261,0.272 -0.434,0.352 -0.048,0.025 -0.133,0.064 -0.218,0.037 -0.15,-0.051 -0.206,-0.334 -0.337,-0.424 -0.052,-0.033 -0.118,-0.043 -0.187,-0.029 -0.01,0.055 -0.02,0.078 -0.055,0.123 -0.025,0.029 -0.081,0.068 -0.081,0.074 0.008,0.059 0.046,0.113 0.064,0.131 0.073,0.066 0.226,0.109 0.259,0.197 -0.018,0.023 -0.053,0.027 -0.083,0.031 -0.163,0.006 -0.239,-0.141 -0.393,-0.154 -0.036,-0.002 -0.102,0 -0.14,0.029 0.008,0.043 0.007,0.06 -0.005,0.1 -0.015,0.047 -0.028,0.063 -0.049,0.096 0.026,0.121 0.232,0.133 0.397,0.147 0.052,0.006 0.106,0.014 0.129,0.049 -0.041,0.037 -0.094,0.07 -0.155,0.084 -0.123,0.017 -0.234,-0.051 -0.353,-0.061 -0.04,-0.002 -0.092,0.014 -0.135,0.041 0.011,0.027 0.018,0.084 0.007,0.129 -0.012,0.057 -0.015,0.086 -0.034,0.111 0.022,0.016 0.08,0.051 0.145,0.051 0.168,0.01 0.307,-0.127 0.484,-0.066 -0.071,0.108 -0.191,0.115 -0.292,0.18 -0.04,0.025 -0.083,0.068 -0.108,0.117 0.036,0.016 0.066,0.041 0.088,0.074 0.02,0.031 0.035,0.063 0.04,0.111 0.21,0.014 0.307,-0.125 0.407,-0.236 0.148,-0.16 0.354,-0.264 0.636,-0.287 0.309,-0.019 0.7030002,0.127 0.8410002,-0.139 -0.1700002,-0.008 -0.3730002,-0.039 -0.4320002,-0.158 0.2990002,0.086 0.6680002,0.004 0.8200002,-0.186 -0.207,0.039 -0.418,-0.01 -0.5,-0.139 0.229,0.061 0.48,0.024 0.656,-0.08 0.115,-0.068 0.241,-0.176 0.273,-0.305 -0.017,0 -0.054,0.016 -0.082,0.029 -0.148,0.066 -0.407,0.055 -0.468,-0.064 0.133,0.008 0.254,-0.016 0.35,-0.066 0.127,-0.072 0.193,-0.182 0.236,-0.254 0.05,-0.094 0.098,-0.189 0.164,-0.268 0.028,-0.031 0.059,-0.049 0.085,-0.059 -0.022,-0.025 -0.079,-0.029 -0.115,-0.022 -0.189,0.033 -0.271,0.209 -0.448,0.248 0.068,-0.188 0.096,-0.436 0.101,-0.651 0.359,0.138 0.674,0.031 0.834,-0.184 0.096,-0.132 0.12,-0.292 0.12,-0.404 0,-0.225 -0.12,-0.391 -0.232,-0.512 -0.214,-0.228 -0.481,-0.394 -0.737,-0.572 -0.176,-0.119 -0.357,-0.245 -0.505,-0.383 -0.105,-0.095 -0.221,-0.228 -0.247,-0.389 -0.04,-0.241 0.108,-0.428 0.275,-0.479 0.537,-0.164 1.091,0.418 1.351,0.725 0.06,0.07 0.274,0.32 0.19,0.484 -0.026,0.043 -0.089,0.07 -0.133,0.066 -0.076,-0.008 -0.14,-0.08 -0.085,-0.198 -0.143,0.032 -0.202,0.245 -0.118,0.362 0.059,0.089 0.163,0.102 0.241,0.087 0.069,-0.013 0.132,-0.054 0.164,-0.104 -0.096,0.287 0.014,0.592 0.158,0.75 0.17,0.192 0.416,0.236 0.519,0.244 0.265,0.016 0.532,-0.05 0.706,-0.271 0.115,-0.151 0.175,-0.373 0.115,-0.564 z m -5.4690002,-3.124 c -0.043,-0.063 -0.055,-0.166 -0.012,-0.233 0.107,0.066 0.201,0.079 0.322,0.1 -0.102,0.03 -0.223,0.07 -0.31,0.133 z"
     id="path87"
     inkscape:connector-curvature="0"
     style="fill:#ee3124" /><g
     id="g89"
     transform="translate(-0.09375019,0.0625)"><path
       d="m 13.126,1.237 -1.51,1.7 1.51,1.704 1.475,-1.704 -1.475,-1.7 z M 12.221,2.936 13.118,1.931 14,2.953 l -0.867,1 -0.912,-1.017 z"
       id="path91"
       inkscape:connector-curvature="0"
       style="fill:#ffef00" /><path
       d="m 1.936,2.937 1.513,1.704 1.475,-1.704 -1.475,-1.7 -1.513,1.7 z m 1.518,1.016 -0.91,-1.017 0.898,-1.005 0.882,1.022 -0.87,1 z"
       id="path93"
       inkscape:connector-curvature="0"
       style="fill:#ffef00" /></g><path
     d="m 9.0262498,6.9375 c -0.264,-0.07 -0.541,-0.133 -0.781,0.007 v 0.069 c 0.227,-0.157 0.494,-0.091 0.768,-0.023 0.234,0.06 0.471,0.118 0.695,0.032 v -0.061 c -0.21,0.091 -0.436,0.034 -0.682,-0.024 z"
     id="path95"
     inkscape:connector-curvature="0"
     style="fill:#00539b" /><path
     d="m 7.1802498,6.3965 c -0.243,0.062 -0.477,0.119 -0.681,0.028 v 0.063 c 0.218,0.085 0.46,0.024 0.696,-0.033 0.274,-0.068 0.535,-0.132 0.767,0.022 v -0.07 c -0.241,-0.141 -0.517,-0.075 -0.782,-0.01 z"
     id="path97"
     inkscape:connector-curvature="0"
     style="fill:#00539b" /><path
     d="m 7.1802498,5.8655 c -0.243,0.063 -0.477,0.116 -0.681,0.029 v 0.06 c 0.218,0.085 0.46,0.025 0.696,-0.03 0.273,-0.07 0.535,-0.135 0.767,0.02 v -0.07 c -0.241,-0.144 -0.517,-0.075 -0.782,-0.009 z"
     id="path99"
     inkscape:connector-curvature="0"
     style="fill:#00539b" /><path
     d="m 7.1802498,6.9375 c -0.243,0.058 -0.475,0.115 -0.681,0.024 v 0.061 c 0.218,0.086 0.46,0.028 0.696,-0.032 0.274,-0.068 0.535,-0.134 0.767,0.023 v -0.069 c -0.241,-0.141 -0.517,-0.077 -0.782,-0.007 z"
     id="path101"
     inkscape:connector-curvature="0"
     style="fill:#00539b" /><path
     d="m 9.0262498,5.8655 c -0.263,-0.066 -0.541,-0.135 -0.781,0.008 v 0.07 c 0.227,-0.155 0.493,-0.09 0.768,-0.02 0.234,0.055 0.471,0.115 0.695,0.03 v -0.06 c -0.21,0.088 -0.436,0.035 -0.682,-0.028 z"
     id="path103"
     inkscape:connector-curvature="0"
     style="fill:#00539b" /><path
     d="m 9.0262498,6.3965 c -0.264,-0.065 -0.541,-0.131 -0.781,0.01 v 0.069 c 0.227,-0.153 0.494,-0.089 0.768,-0.021 0.234,0.057 0.471,0.118 0.695,0.033 v -0.063 c -0.21,0.091 -0.436,0.034 -0.682,-0.028 z"
     id="path105"
     inkscape:connector-curvature="0"
     style="fill:#00539b" /><g
     id="g107"
     transform="translate(-0.09375019,0.0625)"><path
       d="m 5.198,16.738 c 0.148,-0.145 0.267,-0.07 0.267,-0.07 0.07,-0.072 0.058,-0.232 0.005,-0.271 -0.149,0.036 -0.277,0.151 -0.272,0.341 z"
       id="path109"
       inkscape:connector-curvature="0"
       style="fill:#00539b" /><path
       d="m 5.203,16.05 c 0,0 0.071,-0.029 0.178,-0.029 0.081,0.004 0.15,0.025 0.15,0.025 0.064,-0.029 0.134,-0.17 0.084,-0.242 -0.195,0.012 -0.364,0.11 -0.412,0.246 z"
       id="path111"
       inkscape:connector-curvature="0"
       style="fill:#00539b" /><path
       d="m 4.691,15.601 c 0,0 0.01,0.182 0.136,0.289 0.035,0.033 0.086,0.068 0.146,0.065 C 4.901,15.869 4.923,15.717 4.976,15.617 4.912,15.556 4.768,15.556 4.691,15.601 z"
       id="path113"
       inkscape:connector-curvature="0"
       style="fill:#00539b" /><path
       d="m 4.859,12 c -0.207,-0.058 -0.422,0.058 -0.477,0.212 0,0 0.163,-0.064 0.307,0.003 C 4.688,12.214 4.835,12.127 4.859,12 z"
       id="path115"
       inkscape:connector-curvature="0"
       style="fill:#00539b" /><path
       d="M 5.46,11.928 C 5.54,11.881 5.655,11.865 5.765,11.889 5.758,11.825 5.676,11.763 5.633,11.745 5.536,11.698 5.478,11.679 5.362,11.68 5.281,11.686 5.234,11.71 5.234,11.71 5.317,11.761 5.43,11.815 5.46,11.928 z"
       id="path117"
       inkscape:connector-curvature="0"
       style="fill:#00539b" /><path
       d="M 6.151,15.335 C 6.025,15.293 5.863,15.32 5.763,15.367 c -0.088,0.046 -0.146,0.115 -0.146,0.115 0.234,-0.023 0.347,0.079 0.347,0.079 0.071,-0.015 0.197,-0.129 0.187,-0.226 z"
       id="path119"
       inkscape:connector-curvature="0"
       style="fill:#00539b" /><path
       d="M 4.11,15.094 C 4.035,15.17 3.967,15.317 3.997,15.475 4.012,15.548 4.07,15.583 4.07,15.583 4.088,15.487 4.165,15.381 4.294,15.367 4.324,15.197 4.176,15.094 4.11,15.094 z"
       id="path121"
       inkscape:connector-curvature="0"
       style="fill:#00539b" /><path
       d="m 4.047,14.465 c 0,0 -0.105,0.025 -0.22,0.154 -0.047,0.053 -0.102,0.16 -0.081,0.248 0,0 0.062,-0.068 0.168,-0.1 0.064,-0.021 0.113,-0.021 0.145,-0.01 0.059,-0.031 0.086,-0.231 -0.012,-0.292 z"
       id="path123"
       inkscape:connector-curvature="0"
       style="fill:#00539b" /><path
       d="m 8.199,7.99 c 0.25,0 0.358,-0.211 0.358,-0.211 0.351,0.005 1.919,0 1.919,0 L 10.471,5.51 H 10.23 l 10e-4,2.039 c 0,0 -0.129,0.12 -0.418,0.12 -0.347,0 -0.739,-0.148 -1.092,-0.148 -0.347,0 -0.485,0.173 -0.522,0.203 0,0 -0.176,-0.203 -0.51,-0.203 -0.346,0 -0.759,0.143 -1.165,0.143 -0.211,0 -0.33,-0.102 -0.361,-0.114 L 6.167,5.51 H 5.934 v 2.269 h 1.905 c 0,0 0.097,0.211 0.36,0.211 z"
       id="path125"
       inkscape:connector-curvature="0"
       style="fill:#00539b" /><path
       d="m 4.18,13.209 c 0,0 0.106,-0.143 0.04,-0.239 -0.206,0.023 -0.337,0.135 -0.401,0.271 0,0 0.193,-0.073 0.361,-0.032 z"
       id="path127"
       inkscape:connector-curvature="0"
       style="fill:#00539b" /><path
       d="m 6.018,16.998 c 0,0 -0.07,0.264 0.117,0.344 0,0 -0.034,-0.141 0.108,-0.248 C 6.207,17.007 6.098,16.951 6.018,16.998 z"
       id="path129"
       inkscape:connector-curvature="0"
       style="fill:#00539b" /><path
       d="m 3.994,13.991 c 0.104,-0.019 0.26,-0.027 0.34,0.043 C 4.462,13.965 4.523,13.839 4.507,13.788 4.492,13.776 4.415,13.776 4.393,13.776 4.18,13.772 4.058,13.866 3.994,13.991 z"
       id="path131"
       inkscape:connector-curvature="0"
       style="fill:#00539b" /><path
       d="m 4.22,12.735 c 0,0 0.103,-0.15 0.006,-0.266 -0.158,0.035 -0.288,0.158 -0.313,0.336 0,0 0.054,-0.037 0.109,-0.056 0.082,-0.026 0.154,-0.02 0.198,-0.014 z"
       id="path133"
       inkscape:connector-curvature="0"
       style="fill:#00539b" /><path
       d="m 8.201,9.29 6.455,3.785 c 0.742,-1.988 0.729,-4.463 0.602,-7.947 L 8.201,9.29 z"
       id="path135"
       inkscape:connector-curvature="0"
       style="fill:#00539b" /><path
       d="M 8.199,11.575 C 8.176,11.628 8.163,11.735 8.138,11.79 8.19,11.802 8.248,11.758 8.288,11.737 8.259,11.691 8.227,11.622 8.199,11.575 z"
       id="path137"
       inkscape:connector-curvature="0"
       style="fill:#00539b" /><path
       d="m 7.692,17.601 c 0,0 0.045,-0.039 0.119,-0.066 0.053,-0.029 0.153,-0.043 0.207,-0.006 0.049,-0.027 0.069,-0.207 0.027,-0.24 -0.152,0.015 -0.334,0.14 -0.353,0.312 z"
       id="path139"
       inkscape:connector-curvature="0"
       style="fill:#00539b" /><path
       d="m 7.742,11.607 c -0.018,0.028 -0.043,0.095 -0.071,0.132 0.04,0.012 0.106,0.03 0.136,0.026 C 7.789,11.727 7.763,11.641 7.742,11.607 z"
       id="path141"
       inkscape:connector-curvature="0"
       style="fill:#00539b" /><path
       d="M 16.134,3.374 16.013,0.001 0.421,0 0.301,3.377 c -0.352,9.066 -0.483,12.46 7.795,16.443 L 8.217,19.879 8.34,19.82 c 8.281,-3.983 8.146,-7.377 7.794,-16.446 z M 8.217,19.326 c -6.416,-3.111 -7.53,-5.74 -7.53,-11.509 0,-1.311 0.057,-2.782 0.123,-4.459 0,0 0.086,-2.406 0.103,-2.862 h 14.614 c 0.015,0.456 0.1,2.86 0.1,2.86 0.066,1.679 0.123,3.154 0.123,4.466 -10e-4,5.763 -1.116,8.392 -7.533,11.504 z"
       id="path143"
       inkscape:connector-curvature="0"
       style="fill:#00539b" /><path
       d="M 1.777,13.075 8.201,9.29 1.173,5.165 c -0.124,3.461 -0.134,5.926 0.604,7.91 z"
       id="path145"
       inkscape:connector-curvature="0"
       style="fill:#00539b" /><path
       d="M 8.275,16.58 C 8.346,16.555 8.45,16.549 8.511,16.6 8.592,16.549 8.648,16.479 8.647,16.403 8.49,16.359 8.302,16.425 8.275,16.58 z"
       id="path147"
       inkscape:connector-curvature="0"
       style="fill:#00539b" /><path
       d="M 8.246,17.81 C 8.177,17.863 8.07,18.029 8.089,18.162 8.101,18.228 8.154,18.26 8.154,18.26 8.181,18.145 8.286,18.032 8.375,17.996 8.395,17.927 8.297,17.81 8.246,17.81 z"
       id="path149"
       inkscape:connector-curvature="0"
       style="fill:#00539b" /><path
       d="m 7.767,11.196 c 0.02,0.04 0.054,0.156 0.055,0.156 0.025,-0.052 0.063,-0.124 0.087,-0.181 -0.051,0 -0.11,0.012 -0.142,0.025 z"
       id="path151"
       inkscape:connector-curvature="0"
       style="fill:#00539b" /><path
       d="m 7.539,11.262 c 0,0 0.057,0.088 0.073,0.126 l 0.052,-0.167 c -0.03,0 -0.094,0.024 -0.125,0.041 z"
       id="path153"
       inkscape:connector-curvature="0"
       style="fill:#00539b" /><path
       d="m 7.991,11.162 c 0,0 0.051,0.122 0.073,0.169 0.02,-0.05 0.072,-0.118 0.098,-0.168 C 8.108,11.15 8.046,11.145 7.991,11.162 z"
       id="path155"
       inkscape:connector-curvature="0"
       style="fill:#00539b" /><path
       d="m 7.898,11.792 c 0.052,0.01 0.1,0.025 0.148,0.016 -0.023,-0.05 -0.065,-0.152 -0.077,-0.2 -0.012,0.049 -0.058,0.147 -0.071,0.184 z"
       id="path157"
       inkscape:connector-curvature="0"
       style="fill:#00539b" /><path
       d="M 7.835,17.039 C 7.896,16.996 8.051,16.961 8.163,17.029 8.197,17.011 8.247,16.898 8.217,16.834 8.046,16.783 7.87,16.894 7.835,17.039 z"
       id="path159"
       inkscape:connector-curvature="0"
       style="fill:#00539b" /><path
       d="M 8.377,11.384 C 8.313,11.372 8.225,11.378 8.148,11.392 7.882,11.436 7.555,11.481 7.347,11.468 7.18,11.456 6.942,11.404 6.94,11.171 6.937,11.085 6.983,11.004 6.983,11.004 c -0.093,0.02 -0.211,0.141 -0.198,0.293 0.019,0.182 0.183,0.288 0.505,0.297 0.268,0.011 0.623,-0.072 0.851,-0.125 0.158,-0.039 0.236,-0.085 0.236,-0.085 z"
       id="path161"
       inkscape:connector-curvature="0"
       style="fill:#00539b" /><path
       d="m 7.729,7.384 c 0.269,0 0.44,0.199 0.44,0.199 H 8.232 C 8.347,7.458 8.485,7.384 8.666,7.384 8.955,7.384 9.273,7.509 9.54,7.506 9.79,7.503 9.951,7.377 9.974,7.362 V 5.219 L 9.924,5.256 C 9.689,5.442 9.412,5.376 9.123,5.303 8.803,5.223 8.477,5.15 8.199,5.431 7.924,5.155 7.591,5.223 7.277,5.303 6.983,5.376 6.71,5.441 6.472,5.256 L 6.426,5.219 v 2.14 c 0.021,0.015 0.167,0.153 0.429,0.153 0.266,0 0.595,-0.128 0.874,-0.128 z M 8.227,5.475 C 8.478,5.218 8.781,5.278 9.107,5.359 9.384,5.426 9.67,5.489 9.921,5.328 v 2.01 C 9.695,7.498 9.412,7.46 9.125,7.393 8.816,7.324 8.499,7.267 8.227,7.51 V 5.475 z M 6.472,7.334 V 5.327 C 6.723,5.489 7.015,5.425 7.29,5.358 7.616,5.278 7.919,5.201 8.171,5.48 V 7.512 C 7.905,7.266 7.586,7.324 7.277,7.392 6.983,7.46 6.712,7.52 6.472,7.334 z"
       id="path163"
       inkscape:connector-curvature="0"
       style="fill:#00539b" /><path
       d="M 7.289,6.392 C 7.563,6.324 7.824,6.26 8.056,6.414 V 6.344 C 7.815,6.203 7.539,6.269 7.274,6.334 7.031,6.396 6.797,6.453 6.593,6.362 V 6.425 C 6.811,6.51 7.053,6.449 7.289,6.392 z"
       id="path165"
       inkscape:connector-curvature="0"
       style="fill:#00539b" /><path
       d="M 7.289,5.861 C 7.562,5.791 7.824,5.726 8.056,5.881 V 5.811 C 7.815,5.668 7.539,5.737 7.274,5.803 7.031,5.866 6.797,5.919 6.593,5.832 v 0.06 c 0.218,0.085 0.46,0.025 0.696,-0.031 z"
       id="path167"
       inkscape:connector-curvature="0"
       style="fill:#00539b" /><path
       d="M 8.056,6.951 V 6.882 C 7.815,6.741 7.539,6.805 7.274,6.875 7.031,6.933 6.799,6.99 6.593,6.899 V 6.96 C 6.811,7.046 7.053,6.988 7.289,6.928 7.563,6.86 7.824,6.794 8.056,6.951 z"
       id="path169"
       inkscape:connector-curvature="0"
       style="fill:#00539b" /><path
       d="M 9.107,6.392 C 9.341,6.449 9.578,6.51 9.802,6.425 V 6.362 C 9.592,6.453 9.366,6.396 9.12,6.334 8.856,6.269 8.579,6.203 8.339,6.344 V 6.413 C 8.566,6.26 8.833,6.324 9.107,6.392 z"
       id="path171"
       inkscape:connector-curvature="0"
       style="fill:#00539b" /><path
       d="m 9.107,5.861 c 0.234,0.055 0.471,0.115 0.695,0.03 V 5.831 C 9.592,5.919 9.366,5.866 9.12,5.803 8.857,5.737 8.579,5.668 8.339,5.811 v 0.07 C 8.566,5.726 8.833,5.791 9.107,5.861 z"
       id="path173"
       inkscape:connector-curvature="0"
       style="fill:#00539b" /><path
       d="M 9.107,6.928 C 9.341,6.988 9.578,7.046 9.802,6.96 V 6.899 C 9.592,6.99 9.366,6.933 9.12,6.875 8.856,6.805 8.579,6.742 8.339,6.882 V 6.951 C 8.566,6.794 8.833,6.86 9.107,6.928 z"
       id="path175"
       inkscape:connector-curvature="0"
       style="fill:#00539b" /></g></svg>