<?xml version="1.0" encoding="UTF-8" standalone="no"?>
<svg width="70px" height="20px" viewBox="0 0 71 20" version="1.1" xmlns="http://www.w3.org/2000/svg" xmlns:xlink="http://www.w3.org/1999/xlink" xmlns:sketch="http://www.bohemiancoding.com/sketch/ns">
    <title>logo-standard</title>
    <description>Created with Sketch (http://www.bohemiancoding.com/sketch)</description>
    <defs></defs>
    <g id="Page-1" stroke="none" stroke-width="1" fill="none" fill-rule="evenodd" sketch:type="MSPage">
        <g id="g5" sketch:type="MSLayerGroup" transform="translate(19.906250, 10.062500)" fill="#000000">
            <path d="M-0.116,6.626 C-0.063,6.313 -0.032,5.806 -0.023,5.105 L0.306,5.105 C0.322,5.581 0.349,5.863 0.386,5.949 C0.424,6.037 0.514,6.129 0.657,6.226 C0.802,6.324 0.994,6.41 1.235,6.487 C1.478,6.564 1.712,6.602 1.936,6.602 C2.266,6.602 2.57,6.527 2.848,6.375 C3.125,6.223 3.327,6.023 3.455,5.775 C3.583,5.528 3.646,5.265 3.646,4.984 C3.646,4.771 3.615,4.583 3.55,4.426 C3.486,4.27 3.39,4.144 3.259,4.047 C3.129,3.951 2.967,3.883 2.775,3.845 C2.654,3.826 2.414,3.791 2.051,3.745 C1.689,3.697 1.381,3.646 1.126,3.592 C0.786,3.486 0.537,3.364 0.377,3.225 C0.217,3.085 0.087,2.901 -0.013,2.673 C-0.113,2.444 -0.162,2.199 -0.162,1.935 C-0.162,1.551 -0.06,1.189 0.14,0.848 C0.34,0.508 0.637,0.243 1.03,0.054 C1.424,-0.134 1.85,-0.229 2.31,-0.229 C2.587,-0.229 2.889,-0.192 3.218,-0.119 C3.545,-0.046 3.852,0.062 4.135,0.202 C4.089,0.408 4.057,0.6 4.037,0.777 C4.018,0.954 4.003,1.216 3.992,1.561 L3.665,1.561 C3.655,1.059 3.641,0.786 3.621,0.74 C3.539,0.622 3.428,0.516 3.287,0.422 C2.951,0.233 2.599,0.138 2.233,0.138 C1.759,0.138 1.38,0.281 1.099,0.57 C0.816,0.858 0.674,1.231 0.674,1.69 C0.674,1.966 0.725,2.181 0.826,2.333 C0.927,2.485 1.108,2.606 1.369,2.697 C1.549,2.76 1.843,2.818 2.25,2.873 C2.657,2.928 3.025,2.985 3.351,3.048 C3.659,3.14 3.884,3.248 4.032,3.373 C4.18,3.499 4.3,3.664 4.393,3.868 C4.488,4.071 4.535,4.311 4.535,4.585 C4.535,5.235 4.265,5.802 3.727,6.286 C3.189,6.768 2.492,7.01 1.637,7.01 C0.996,7.008 0.41,6.879 -0.116,6.626 L-0.116,6.626 Z" id="path7" sketch:type="MSShapeGroup"></path>
            <path d="M5.052,3.03 L5.052,2.824 C5.365,2.699 5.615,2.589 5.801,2.492 L5.801,1.004 C6.14,0.886 6.415,0.761 6.628,0.627 L6.744,0.725 C6.709,0.996 6.67,1.593 6.628,2.516 C6.889,2.52 7.045,2.522 7.097,2.522 C7.126,2.522 7.295,2.518 7.602,2.512 C7.771,2.508 7.898,2.502 7.983,2.493 L8.017,2.526 L7.914,2.981 C7.709,2.978 7.52,2.977 7.347,2.977 C7.174,2.977 6.934,2.978 6.628,2.981 L6.603,4.973 C6.593,5.458 6.597,5.749 6.613,5.844 C6.63,5.939 6.661,6.02 6.706,6.09 C6.752,6.161 6.81,6.217 6.884,6.259 C6.958,6.303 7.082,6.334 7.257,6.358 C7.391,6.358 7.498,6.353 7.582,6.34 C7.664,6.328 7.77,6.301 7.897,6.254 L7.956,6.445 C7.802,6.565 7.654,6.692 7.511,6.822 C7.387,6.868 7.272,6.897 7.163,6.913 C7.056,6.928 6.932,6.935 6.792,6.935 C6.619,6.935 6.482,6.916 6.379,6.875 C6.277,6.837 6.183,6.783 6.098,6.712 C6.014,6.642 5.943,6.553 5.887,6.445 C5.831,6.338 5.794,6.168 5.778,5.936 C5.782,5.714 5.788,5.47 5.799,5.207 C5.802,5.155 5.804,5.099 5.804,5.037 L5.804,3.005 L5.6,3.005 C5.437,3.004 5.255,3.013 5.052,3.03 L5.052,3.03 Z" id="path9" sketch:type="MSShapeGroup"></path>
            <path d="M10.407,6.866 L10.407,6.534 C10.666,6.53 10.826,6.52 10.889,6.502 C10.954,6.484 11.012,6.45 11.066,6.399 C11.12,6.347 11.198,6.216 11.299,6.005 C11.358,5.884 11.57,5.427 11.936,4.63 L13.161,1.87 C13.295,1.567 13.581,0.89 14.019,-0.156 L14.332,-0.156 L16.424,4.752 C16.765,5.548 16.99,6.048 17.102,6.249 C17.164,6.364 17.231,6.439 17.305,6.475 C17.377,6.511 17.544,6.531 17.802,6.535 L17.802,6.867 C17.292,6.836 16.936,6.819 16.734,6.819 L15.157,6.867 L15.157,6.535 C15.522,6.528 15.744,6.517 15.823,6.5 C15.9,6.484 15.953,6.46 15.981,6.429 C16.009,6.399 16.023,6.361 16.023,6.314 C16.023,6.243 16.001,6.15 15.955,6.038 L15.353,4.539 L12.52,4.539 L11.988,5.796 C11.893,6.022 11.845,6.186 11.845,6.292 C11.845,6.336 11.859,6.374 11.885,6.403 C11.92,6.447 11.976,6.474 12.051,6.49 C12.172,6.518 12.384,6.532 12.688,6.536 L12.688,6.868 C12.136,6.839 11.723,6.824 11.449,6.824 C11.13,6.822 10.784,6.836 10.407,6.866 L10.407,6.866 Z M12.687,4.121 L15.154,4.121 L13.935,1.176 L12.687,4.121 L12.687,4.121 Z" id="path11" sketch:type="MSShapeGroup"></path>
            <path d="M18.173,6.866 L18.173,6.587 L18.641,6.582 C18.71,6.579 18.763,6.567 18.801,6.546 C18.838,6.524 18.867,6.498 18.887,6.466 C18.923,6.4 18.947,6.285 18.955,6.118 C18.955,6.076 18.964,5.606 18.98,4.713 L18.98,4.13 C18.98,3.868 18.975,3.589 18.965,3.288 C18.954,3.096 18.94,2.981 18.918,2.945 C18.897,2.91 18.86,2.882 18.809,2.864 C18.756,2.846 18.544,2.839 18.172,2.842 L18.172,2.564 C18.831,2.472 19.312,2.353 19.615,2.206 C19.68,2.175 19.724,2.157 19.747,2.157 C19.77,2.157 19.789,2.167 19.802,2.182 C19.815,2.198 19.821,2.221 19.821,2.255 C19.821,2.278 19.82,2.304 19.816,2.333 C19.807,2.45 19.797,2.697 19.787,3.077 L20.697,2.298 C20.965,2.201 21.218,2.151 21.457,2.151 C21.721,2.151 21.971,2.205 22.208,2.313 C22.444,2.42 22.622,2.556 22.741,2.719 C22.86,2.882 22.938,3.087 22.978,3.335 C23,3.481 23.012,3.891 23.012,4.564 L23.012,5.429 C23.012,5.855 23.023,6.143 23.046,6.296 C23.062,6.394 23.087,6.461 23.122,6.499 C23.156,6.536 23.209,6.561 23.281,6.569 L23.803,6.584 L23.803,6.863 C23.484,6.839 23.218,6.83 23.006,6.83 C22.822,6.83 22.521,6.84 22.096,6.863 C22.142,6.056 22.164,5.548 22.164,5.337 L22.164,4.515 C22.164,4.002 22.144,3.666 22.105,3.507 C22.049,3.288 21.923,3.113 21.728,2.978 C21.532,2.844 21.296,2.778 21.018,2.778 C20.774,2.778 20.55,2.836 20.348,2.952 C20.146,3.067 20.001,3.202 19.915,3.352 C19.828,3.504 19.784,3.759 19.784,4.117 L19.784,4.711 C19.801,5.56 19.809,6.018 19.809,6.087 C19.815,6.248 19.835,6.37 19.868,6.443 C19.881,6.472 19.9,6.498 19.927,6.519 C19.953,6.54 19.994,6.557 20.049,6.57 C20.07,6.573 20.249,6.578 20.592,6.585 L20.592,6.864 C20.194,6.84 19.833,6.831 19.51,6.831 C19.24,6.833 18.794,6.842 18.173,6.866 L18.173,6.866 Z" id="path13" sketch:type="MSShapeGroup"></path>
            <path d="M27.192,0.22 L27.192,-0.059 C27.554,-0.098 27.86,-0.144 28.11,-0.198 C28.359,-0.252 28.603,-0.318 28.842,-0.396 L28.905,-0.352 C28.892,-0.075 28.877,0.461 28.861,1.254 L28.842,2.037 L28.842,5.1 C28.842,5.431 28.847,5.72 28.859,5.964 C28.871,6.205 28.891,6.352 28.921,6.399 C28.95,6.446 28.999,6.484 29.067,6.514 C29.135,6.543 29.339,6.572 29.679,6.601 L29.679,6.866 C29.281,6.842 29,6.833 28.837,6.833 C28.696,6.833 28.409,6.843 27.976,6.866 C27.986,6.641 27.993,6.338 28,5.957 C27.869,6.052 27.693,6.194 27.474,6.382 C27.253,6.57 27.081,6.726 26.958,6.847 C26.696,6.913 26.467,6.945 26.268,6.945 C25.9,6.945 25.56,6.853 25.25,6.672 C24.939,6.489 24.701,6.225 24.533,5.876 C24.365,5.528 24.28,5.139 24.28,4.705 C24.28,4.378 24.332,4.069 24.434,3.777 C24.538,3.485 24.667,3.26 24.824,3.099 C24.912,3.007 25.112,2.868 25.426,2.682 C25.739,2.496 25.992,2.362 26.187,2.279 C26.381,2.196 26.592,2.154 26.821,2.154 C27.026,2.154 27.228,2.18 27.425,2.23 C27.622,2.281 27.814,2.358 28,2.462 L28,1.175 C28,0.722 27.98,0.446 27.941,0.349 C27.927,0.313 27.903,0.286 27.868,0.27 C27.802,0.24 27.577,0.224 27.192,0.22 L27.192,0.22 Z M28,3.297 C27.777,3.053 27.546,2.875 27.302,2.762 C27.06,2.65 26.821,2.594 26.585,2.594 C26.318,2.594 26.071,2.662 25.847,2.8 C25.622,2.936 25.451,3.143 25.331,3.419 C25.211,3.696 25.152,4.028 25.152,4.416 C25.152,5.013 25.3,5.477 25.596,5.814 C25.893,6.149 26.25,6.317 26.667,6.317 C26.886,6.317 27.082,6.272 27.254,6.18 C27.428,6.088 27.579,5.955 27.71,5.779 C27.84,5.603 27.924,5.408 27.96,5.192 C27.987,5.05 28,4.697 28,4.132 L28,3.297 L28,3.297 Z" id="path15" sketch:type="MSShapeGroup"></path>
            <path d="M30.22,6.866 L30.22,6.587 C30.592,6.58 30.792,6.574 30.821,6.568 C30.878,6.558 30.919,6.543 30.947,6.522 C30.975,6.501 30.997,6.471 31.013,6.43 C31.046,6.357 31.066,6.238 31.073,6.079 C31.089,5.207 31.096,4.752 31.096,4.713 L31.096,4.13 C31.096,3.868 31.092,3.589 31.082,3.288 C31.075,3.096 31.061,2.981 31.04,2.945 C31.019,2.91 30.981,2.882 30.928,2.864 C30.874,2.846 30.66,2.839 30.289,2.842 L30.289,2.564 C30.948,2.472 31.43,2.353 31.732,2.206 C31.797,2.175 31.841,2.157 31.865,2.157 C31.887,2.157 31.905,2.167 31.919,2.182 C31.932,2.198 31.939,2.221 31.939,2.255 C31.939,2.278 31.937,2.304 31.933,2.333 C31.917,2.531 31.908,2.84 31.905,3.258 C32.051,3.088 32.187,2.92 32.31,2.754 C32.434,2.587 32.524,2.481 32.58,2.431 C32.678,2.346 32.791,2.279 32.918,2.228 C33.045,2.178 33.177,2.152 33.314,2.152 C33.452,2.152 33.587,2.182 33.721,2.241 L33.749,2.308 C33.7,2.743 33.673,3.124 33.666,3.454 L33.446,3.454 C33.371,3.297 33.284,3.182 33.184,3.111 C33.084,3.04 32.959,3.003 32.81,3.003 C32.558,3.003 32.345,3.107 32.168,3.314 C31.992,3.52 31.904,3.832 31.904,4.246 L31.904,4.75 C31.904,4.966 31.912,5.358 31.927,5.93 C31.931,6.133 31.94,6.261 31.952,6.317 C31.965,6.373 31.981,6.413 32.003,6.437 C32.024,6.461 32.06,6.482 32.108,6.498 C32.206,6.527 32.47,6.557 32.901,6.586 L32.901,6.865 C32.327,6.841 31.837,6.832 31.433,6.832 C31.016,6.833 30.612,6.842 30.22,6.866 L30.22,6.866 Z" id="path17" sketch:type="MSShapeGroup"></path>
            <path d="M38.105,6.106 L37.949,6.459 C37.724,6.601 37.559,6.692 37.455,6.737 C37.302,6.806 37.126,6.864 36.93,6.913 C36.732,6.961 36.524,6.983 36.306,6.983 C35.874,6.983 35.485,6.893 35.136,6.714 C34.786,6.534 34.515,6.266 34.321,5.908 C34.128,5.552 34.03,5.133 34.03,4.652 C34.03,4.277 34.082,3.94 34.184,3.637 C34.288,3.334 34.404,3.114 34.534,2.969 C34.63,2.865 34.776,2.745 34.974,2.61 C35.173,2.475 35.37,2.368 35.566,2.289 C35.825,2.183 36.103,2.129 36.404,2.129 C36.769,2.129 37.099,2.212 37.394,2.378 C37.69,2.544 37.906,2.772 38.043,3.059 C38.18,3.346 38.248,3.669 38.248,4.032 C38.248,4.124 38.239,4.236 38.224,4.365 C37.99,4.412 37.779,4.439 37.594,4.454 C37.241,4.479 36.89,4.493 36.538,4.493 L34.969,4.493 C34.976,4.96 35.057,5.34 35.211,5.628 C35.366,5.917 35.58,6.131 35.853,6.268 C36.125,6.406 36.409,6.475 36.702,6.475 C36.901,6.475 37.099,6.444 37.297,6.379 C37.494,6.313 37.738,6.196 38.029,6.023 L38.105,6.106 L38.105,6.106 Z M34.968,4.105 C35.06,4.115 35.233,4.125 35.488,4.135 C35.974,4.152 36.308,4.16 36.491,4.16 C36.925,4.16 37.211,4.151 37.347,4.135 C37.35,4.058 37.352,3.996 37.352,3.953 C37.352,3.438 37.248,3.059 37.039,2.819 C36.829,2.577 36.551,2.456 36.201,2.456 C35.833,2.456 35.536,2.588 35.31,2.852 C35.087,3.118 34.972,3.536 34.968,4.105 L34.968,4.105 Z" id="path19" sketch:type="MSShapeGroup"></path>
            <path d="M40.679,6.92 L40.473,6.238 L40.018,4.725 C39.888,4.286 39.755,3.864 39.62,3.456 C39.485,3.048 39.395,2.812 39.351,2.75 C39.307,2.688 39.253,2.644 39.19,2.617 C39.127,2.592 38.97,2.567 38.722,2.544 L38.722,2.266 C39.081,2.288 39.467,2.299 39.877,2.299 C40.315,2.299 40.722,2.288 41.1,2.266 L41.1,2.544 C40.797,2.547 40.6,2.56 40.508,2.578 C40.446,2.592 40.402,2.615 40.374,2.649 C40.347,2.684 40.332,2.724 40.332,2.769 C40.332,2.844 40.379,3.045 40.474,3.373 L40.929,4.949 C41.004,5.214 41.095,5.499 41.202,5.806 L41.574,4.954 L42.294,3.345 C42.464,2.965 42.624,2.579 42.774,2.192 L43.013,2.192 C43.229,2.788 43.375,3.182 43.453,3.375 L44.016,4.794 C44.208,5.27 44.353,5.628 44.451,5.869 L44.818,4.905 C45.055,4.284 45.241,3.757 45.375,3.318 C45.45,3.08 45.487,2.912 45.487,2.814 C45.487,2.722 45.456,2.656 45.392,2.615 C45.329,2.574 45.117,2.551 44.758,2.544 L44.758,2.266 C45.254,2.288 45.597,2.299 45.786,2.299 C46.015,2.299 46.325,2.288 46.718,2.266 L46.718,2.544 C46.529,2.547 46.402,2.565 46.336,2.596 C46.271,2.627 46.213,2.679 46.164,2.75 C46.079,2.86 45.947,3.122 45.768,3.533 L45.254,4.758 L45.034,5.307 C44.992,5.415 44.866,5.746 44.657,6.302 C44.565,6.536 44.497,6.742 44.451,6.92 L43.991,6.92 L43.757,6.308 L42.641,3.504 L42.171,4.516 L41.618,5.745 C41.491,6.029 41.388,6.27 41.31,6.471 L41.148,6.921 L40.679,6.921 L40.679,6.92 Z" id="path21" sketch:type="MSShapeGroup"></path>
            <path d="M47.388,5.388 L47.682,5.388 C47.685,5.577 47.695,5.727 47.71,5.839 C47.728,5.948 47.755,6.058 47.795,6.163 C47.834,6.268 47.894,6.359 47.976,6.433 C48.058,6.505 48.147,6.563 48.244,6.605 C48.34,6.644 48.438,6.672 48.538,6.684 C48.638,6.699 48.789,6.704 48.992,6.704 C49.325,6.704 49.598,6.617 49.813,6.441 C50.026,6.264 50.134,6.023 50.134,5.714 C50.134,5.578 50.1,5.457 50.033,5.353 C49.965,5.251 49.869,5.168 49.743,5.11 C49.617,5.05 49.347,4.973 48.931,4.88 C48.516,4.786 48.248,4.717 48.127,4.673 C47.944,4.606 47.799,4.523 47.69,4.424 C47.583,4.327 47.497,4.202 47.433,4.053 C47.369,3.904 47.337,3.739 47.337,3.563 C47.337,3.305 47.404,3.069 47.54,2.851 C47.676,2.635 47.889,2.458 48.18,2.324 C48.471,2.188 48.788,2.121 49.13,2.121 C49.337,2.121 49.575,2.148 49.847,2.206 C50.118,2.264 50.338,2.335 50.508,2.42 C50.486,2.781 50.469,3.149 50.459,3.526 L50.18,3.526 C50.164,3.288 50.145,3.13 50.124,3.056 C50.103,2.981 50.073,2.914 50.038,2.855 C50.002,2.796 49.939,2.734 49.851,2.667 C49.762,2.601 49.649,2.541 49.51,2.488 C49.371,2.436 49.199,2.411 48.997,2.411 C48.709,2.411 48.477,2.496 48.304,2.665 C48.128,2.834 48.041,3.034 48.041,3.262 C48.041,3.389 48.066,3.498 48.116,3.59 C48.167,3.681 48.235,3.756 48.32,3.813 C48.405,3.87 48.524,3.921 48.677,3.967 L49.491,4.167 C49.902,4.271 50.185,4.36 50.341,4.436 C50.496,4.512 50.621,4.628 50.716,4.787 C50.811,4.945 50.859,5.136 50.859,5.356 C50.859,5.796 50.677,6.181 50.312,6.508 C49.948,6.837 49.46,7.001 48.849,7.001 C48.569,7.001 48.195,6.957 47.727,6.872 C47.469,6.824 47.331,6.79 47.311,6.77 C47.297,6.76 47.291,6.744 47.291,6.721 C47.291,6.698 47.294,6.67 47.301,6.638 C47.33,6.497 47.35,6.361 47.36,6.227 C47.374,6.091 47.381,5.812 47.388,5.388 L47.388,5.388 Z" id="path23" sketch:type="MSShapeGroup"></path>
        </g>
        <g id="g53" sketch:type="MSLayerGroup" transform="translate(19.906250, 1.062500)" fill="#000000">
            <path d="M-0.317,0.173 L-0.317,-0.075 C0.104,-0.058 0.495,-0.049 0.857,-0.049 C1.223,-0.049 1.588,-0.058 1.949,-0.075 L1.949,0.173 C1.646,0.178 1.462,0.192 1.394,0.213 C1.328,0.234 1.283,0.266 1.259,0.304 C1.226,0.356 1.205,0.482 1.197,0.68 C1.194,0.731 1.187,1.098 1.177,1.779 L1.177,3.212 C1.177,3.768 1.213,4.133 1.284,4.31 C1.354,4.487 1.467,4.633 1.622,4.749 C1.741,4.837 1.901,4.906 2.103,4.96 C2.304,5.013 2.53,5.039 2.777,5.039 C3.067,5.039 3.324,5.004 3.548,4.933 C3.772,4.862 3.941,4.776 4.054,4.673 C4.165,4.571 4.25,4.457 4.305,4.331 C4.361,4.204 4.401,4.031 4.425,3.81 C4.45,3.589 4.462,3.31 4.462,2.971 L4.462,1.779 C4.462,1.428 4.456,1.086 4.443,0.75 C4.437,0.505 4.421,0.359 4.39,0.314 C4.36,0.269 4.312,0.235 4.245,0.213 C4.179,0.192 3.993,0.178 3.689,0.173 L3.689,-0.075 C4.115,-0.058 4.425,-0.049 4.622,-0.049 C4.8,-0.049 5.121,-0.058 5.585,-0.075 L5.585,0.173 C5.278,0.178 5.093,0.192 5.027,0.213 C4.961,0.234 4.917,0.266 4.89,0.304 C4.86,0.356 4.84,0.482 4.832,0.68 C4.829,0.731 4.824,1.098 4.816,1.78 L4.816,3.076 C4.816,3.714 4.771,4.16 4.682,4.412 C4.593,4.665 4.43,4.889 4.192,5.082 C4.014,5.226 3.785,5.339 3.504,5.419 C3.225,5.499 2.913,5.539 2.572,5.539 C2.175,5.539 1.83,5.492 1.538,5.397 C1.246,5.303 1.023,5.179 0.871,5.025 C0.719,4.873 0.614,4.715 0.558,4.555 C0.486,4.343 0.45,3.989 0.45,3.491 L0.45,1.78 C0.45,1.428 0.446,1.086 0.438,0.75 C0.43,0.505 0.412,0.359 0.382,0.314 C0.352,0.269 0.305,0.235 0.238,0.213 C0.177,0.192 -0.009,0.178 -0.317,0.173 L-0.317,0.173 Z" id="path55" sketch:type="MSShapeGroup"></path>
            <path d="M5.846,5.426 L5.846,5.206 L6.216,5.202 C6.272,5.199 6.313,5.189 6.344,5.173 C6.373,5.156 6.396,5.135 6.411,5.11 C6.44,5.057 6.458,4.967 6.466,4.835 C6.466,4.802 6.473,4.431 6.486,3.723 L6.486,3.26 C6.486,3.054 6.482,2.831 6.474,2.594 C6.466,2.442 6.453,2.351 6.437,2.323 C6.42,2.295 6.392,2.273 6.35,2.259 C6.309,2.245 6.14,2.239 5.846,2.242 L5.846,2.021 C6.368,1.949 6.749,1.854 6.99,1.738 C7.042,1.713 7.076,1.699 7.094,1.699 C7.113,1.699 7.127,1.706 7.137,1.719 C7.148,1.732 7.153,1.751 7.153,1.777 C7.153,1.795 7.152,1.816 7.149,1.84 C7.142,1.933 7.133,2.129 7.126,2.428 L7.848,1.813 C8.059,1.735 8.259,1.697 8.448,1.697 C8.657,1.697 8.856,1.739 9.043,1.824 C9.229,1.91 9.371,2.017 9.466,2.146 C9.56,2.275 9.622,2.438 9.654,2.634 C9.671,2.75 9.681,3.074 9.681,3.607 L9.681,4.292 C9.681,4.628 9.69,4.857 9.707,4.977 C9.721,5.055 9.74,5.109 9.768,5.138 C9.795,5.168 9.837,5.186 9.894,5.195 L10.308,5.207 L10.308,5.428 C10.055,5.41 9.844,5.401 9.677,5.401 C9.533,5.401 9.292,5.41 8.956,5.428 C8.992,4.789 9.01,4.387 9.01,4.219 L9.01,3.569 C9.01,3.163 8.994,2.897 8.964,2.77 C8.92,2.597 8.82,2.457 8.665,2.352 C8.51,2.245 8.323,2.193 8.103,2.193 C7.91,2.193 7.733,2.239 7.573,2.331 C7.412,2.423 7.299,2.528 7.23,2.648 C7.161,2.768 7.126,2.97 7.126,3.254 L7.126,3.723 C7.14,4.395 7.147,4.758 7.147,4.812 C7.152,4.941 7.168,5.036 7.193,5.094 C7.204,5.119 7.219,5.138 7.24,5.155 C7.26,5.172 7.293,5.185 7.338,5.196 C7.354,5.199 7.496,5.203 7.767,5.208 L7.767,5.429 C7.452,5.411 7.166,5.402 6.912,5.402 C6.691,5.399 6.337,5.408 5.846,5.426 L5.846,5.426 Z" id="path57" sketch:type="MSShapeGroup"></path>
            <path d="M10.53,2.238 L10.53,2.017 C11.031,1.96 11.453,1.852 11.794,1.692 L11.879,1.753 C11.859,2.304 11.849,2.724 11.849,3.017 L11.849,3.721 C11.862,4.393 11.868,4.756 11.871,4.81 C11.874,4.939 11.888,5.034 11.914,5.092 C11.927,5.117 11.943,5.136 11.965,5.153 C11.985,5.17 12.016,5.183 12.058,5.194 C12.073,5.197 12.216,5.201 12.488,5.206 L12.488,5.427 C12.095,5.409 11.782,5.4 11.547,5.4 C11.34,5.4 11.002,5.409 10.531,5.427 L10.531,5.206 L10.902,5.202 C10.956,5.199 10.999,5.189 11.029,5.173 C11.058,5.156 11.081,5.135 11.097,5.11 C11.124,5.057 11.143,4.967 11.151,4.835 C11.151,4.802 11.158,4.431 11.172,3.723 L11.172,3.04 C11.172,2.655 11.158,2.427 11.133,2.355 C11.116,2.316 11.089,2.287 11.049,2.268 C11.007,2.248 10.835,2.238 10.53,2.238 L10.53,2.238 Z M11.475,-0.029 C11.597,-0.029 11.7,0.014 11.784,0.099 C11.867,0.184 11.91,0.287 11.91,0.409 C11.91,0.527 11.867,0.629 11.782,0.715 C11.697,0.8 11.594,0.843 11.475,0.843 C11.354,0.843 11.251,0.8 11.165,0.715 C11.08,0.629 11.037,0.527 11.037,0.409 C11.037,0.287 11.08,0.183 11.165,0.099 C11.252,0.014 11.354,-0.029 11.475,-0.029 L11.475,-0.029 Z" id="path59" sketch:type="MSShapeGroup"></path>
            <path d="M14.64,5.465 C14.539,5.201 14.469,5.024 14.431,4.934 L14.113,4.194 L13.32,2.346 C13.268,2.23 13.223,2.153 13.188,2.113 C13.152,2.074 13.112,2.05 13.068,2.04 C13.032,2.029 12.936,2.021 12.781,2.017 L12.781,1.785 C13.21,1.803 13.522,1.812 13.719,1.812 C13.936,1.812 14.234,1.802 14.611,1.785 L14.611,2.017 C14.332,2.025 14.168,2.042 14.119,2.071 C14.07,2.099 14.045,2.138 14.045,2.187 C14.045,2.265 14.097,2.431 14.2,2.687 L14.673,3.864 L14.786,4.127 C14.912,4.434 14.999,4.64 15.046,4.742 L15.432,3.864 C15.457,3.812 15.574,3.522 15.785,2.994 C15.909,2.685 15.992,2.451 16.033,2.289 C16.044,2.244 16.05,2.206 16.05,2.173 C16.05,2.129 16.033,2.098 15.999,2.079 C15.936,2.046 15.771,2.025 15.503,2.017 L15.503,1.785 C15.888,1.803 16.134,1.812 16.242,1.812 C16.333,1.812 16.58,1.802 16.982,1.785 L16.982,2.017 C16.822,2.025 16.715,2.043 16.663,2.073 C16.61,2.103 16.559,2.164 16.506,2.258 C16.471,2.32 16.33,2.599 16.088,3.095 L15.716,3.889 C15.652,4.031 15.428,4.557 15.045,5.466 L14.64,5.466 L14.64,5.465 Z" id="path61" sketch:type="MSShapeGroup"></path>
            <path d="M20.572,4.825 L20.448,5.104 C20.269,5.215 20.139,5.288 20.056,5.325 C19.935,5.38 19.795,5.426 19.639,5.463 C19.484,5.501 19.319,5.52 19.146,5.52 C18.805,5.52 18.497,5.449 18.22,5.306 C17.944,5.164 17.729,4.953 17.574,4.669 C17.421,4.386 17.344,4.056 17.344,3.675 C17.344,3.379 17.385,3.111 17.466,2.872 C17.548,2.633 17.64,2.456 17.743,2.343 C17.818,2.26 17.934,2.165 18.092,2.058 C18.25,1.951 18.406,1.867 18.561,1.805 C18.765,1.72 18.986,1.677 19.223,1.677 C19.512,1.677 19.774,1.743 20.008,1.874 C20.241,2.006 20.412,2.186 20.521,2.412 C20.629,2.639 20.684,2.897 20.684,3.183 C20.684,3.255 20.677,3.343 20.664,3.446 C20.478,3.482 20.311,3.507 20.165,3.516 C19.887,3.537 19.607,3.547 19.33,3.547 L18.088,3.547 C18.094,3.917 18.157,4.217 18.279,4.446 C18.401,4.675 18.571,4.844 18.787,4.953 C19.003,5.06 19.226,5.116 19.459,5.116 C19.616,5.116 19.773,5.09 19.93,5.039 C20.086,4.987 20.28,4.895 20.509,4.759 L20.572,4.825 L20.572,4.825 Z M18.089,3.241 C18.161,3.249 18.298,3.257 18.499,3.264 C18.884,3.277 19.148,3.284 19.294,3.284 C19.637,3.284 19.863,3.277 19.972,3.264 C19.974,3.201 19.976,3.155 19.976,3.12 C19.976,2.713 19.893,2.412 19.728,2.222 C19.563,2.031 19.342,1.936 19.066,1.936 C18.774,1.936 18.539,2.041 18.36,2.249 C18.181,2.459 18.091,2.79 18.089,3.241 L18.089,3.241 Z" id="path63" sketch:type="MSShapeGroup"></path>
            <path d="M21.13,5.426 L21.13,5.206 C21.424,5.201 21.582,5.195 21.606,5.19 C21.651,5.182 21.683,5.169 21.706,5.153 C21.727,5.136 21.745,5.113 21.759,5.082 C21.784,5.022 21.8,4.93 21.805,4.803 C21.819,4.114 21.825,3.753 21.825,3.722 L21.825,3.26 C21.825,3.054 21.822,2.831 21.813,2.594 C21.808,2.442 21.797,2.351 21.781,2.323 C21.763,2.295 21.734,2.273 21.692,2.259 C21.648,2.245 21.48,2.239 21.186,2.242 L21.186,2.021 C21.707,1.949 22.088,1.854 22.328,1.738 C22.38,1.713 22.415,1.699 22.432,1.699 C22.451,1.699 22.464,1.706 22.475,1.719 C22.485,1.732 22.491,1.751 22.491,1.777 C22.491,1.795 22.489,1.816 22.487,1.84 C22.473,1.997 22.466,2.241 22.464,2.571 C22.58,2.437 22.688,2.304 22.785,2.173 C22.884,2.041 22.954,1.955 22.999,1.917 C23.076,1.85 23.165,1.796 23.266,1.756 C23.367,1.716 23.472,1.696 23.579,1.696 C23.688,1.696 23.795,1.719 23.901,1.765 L23.924,1.819 C23.885,2.163 23.863,2.465 23.858,2.725 L23.684,2.725 C23.624,2.602 23.555,2.511 23.476,2.454 C23.398,2.397 23.298,2.368 23.18,2.368 C22.981,2.368 22.812,2.451 22.672,2.614 C22.532,2.779 22.463,3.025 22.463,3.352 L22.463,3.751 C22.463,3.922 22.47,4.232 22.483,4.685 C22.485,4.845 22.492,4.947 22.502,4.992 C22.513,5.036 22.526,5.067 22.543,5.087 C22.561,5.105 22.588,5.122 22.626,5.135 C22.704,5.158 22.913,5.182 23.254,5.205 L23.254,5.426 C22.8,5.408 22.412,5.399 22.092,5.399 C21.759,5.399 21.44,5.408 21.13,5.426 L21.13,5.426 Z" id="path65" sketch:type="MSShapeGroup"></path>
            <path d="M24.438,4.255 L24.67,4.255 C24.673,4.406 24.68,4.525 24.693,4.611 C24.706,4.699 24.728,4.785 24.759,4.869 C24.79,4.953 24.838,5.024 24.903,5.083 C24.968,5.141 25.039,5.185 25.115,5.218 C25.191,5.251 25.269,5.273 25.348,5.283 C25.426,5.293 25.546,5.299 25.706,5.299 C25.971,5.299 26.186,5.23 26.356,5.089 C26.526,4.949 26.611,4.759 26.611,4.517 C26.611,4.409 26.584,4.312 26.531,4.23 C26.478,4.147 26.402,4.082 26.302,4.036 C26.201,3.99 25.988,3.93 25.659,3.854 C25.33,3.78 25.118,3.725 25.022,3.692 C24.877,3.637 24.762,3.572 24.676,3.495 C24.591,3.417 24.523,3.318 24.473,3.199 C24.422,3.081 24.397,2.952 24.397,2.812 C24.397,2.608 24.451,2.42 24.558,2.249 C24.665,2.077 24.834,1.937 25.065,1.831 C25.295,1.724 25.545,1.67 25.817,1.67 C25.98,1.67 26.17,1.692 26.383,1.737 C26.598,1.782 26.773,1.839 26.907,1.906 C26.89,2.192 26.876,2.484 26.868,2.782 L26.65,2.782 C26.637,2.593 26.622,2.469 26.605,2.41 C26.588,2.35 26.566,2.297 26.538,2.25 C26.509,2.203 26.46,2.153 26.389,2.1 C26.32,2.047 26.23,2 26.119,1.959 C26.01,1.917 25.874,1.896 25.714,1.896 C25.485,1.896 25.303,1.963 25.164,2.097 C25.025,2.232 24.956,2.389 24.956,2.57 C24.956,2.671 24.977,2.758 25.017,2.83 C25.058,2.902 25.111,2.961 25.178,3.006 C25.245,3.052 25.339,3.093 25.461,3.128 L26.106,3.287 C26.431,3.37 26.656,3.44 26.779,3.5 C26.902,3.56 27.001,3.652 27.076,3.777 C27.151,3.902 27.189,4.052 27.189,4.228 C27.189,4.577 27.044,4.881 26.756,5.14 C26.467,5.4 26.081,5.53 25.598,5.53 C25.375,5.53 25.08,5.496 24.709,5.429 C24.505,5.39 24.396,5.363 24.38,5.348 C24.368,5.339 24.364,5.326 24.364,5.309 C24.364,5.291 24.366,5.269 24.372,5.243 C24.395,5.132 24.41,5.023 24.418,4.918 C24.426,4.812 24.433,4.591 24.438,4.255 L24.438,4.255 Z" id="path67" sketch:type="MSShapeGroup"></path>
            <path d="M27.618,2.238 L27.618,2.017 C28.12,1.96 28.541,1.852 28.882,1.692 L28.967,1.753 C28.946,2.304 28.937,2.724 28.937,3.017 L28.937,3.721 C28.95,4.393 28.958,4.756 28.959,4.81 C28.962,4.939 28.976,5.034 29.002,5.092 C29.015,5.117 29.031,5.136 29.053,5.153 C29.073,5.17 29.104,5.183 29.146,5.194 C29.162,5.197 29.304,5.201 29.576,5.206 L29.576,5.427 C29.183,5.409 28.87,5.4 28.635,5.4 C28.429,5.4 28.09,5.409 27.619,5.427 L27.619,5.206 L27.99,5.202 C28.045,5.199 28.087,5.189 28.117,5.173 C28.146,5.156 28.17,5.135 28.185,5.11 C28.213,5.057 28.232,4.967 28.239,4.835 C28.239,4.802 28.246,4.431 28.26,3.723 L28.26,3.04 C28.26,2.655 28.246,2.427 28.221,2.355 C28.205,2.316 28.178,2.287 28.138,2.268 C28.096,2.248 27.923,2.238 27.618,2.238 L27.618,2.238 Z M28.564,-0.029 C28.685,-0.029 28.788,0.014 28.872,0.099 C28.956,0.184 28.998,0.287 28.998,0.409 C28.998,0.527 28.955,0.629 28.87,0.715 C28.785,0.8 28.682,0.843 28.564,0.843 C28.442,0.843 28.339,0.8 28.253,0.715 C28.168,0.629 28.125,0.527 28.125,0.409 C28.125,0.287 28.168,0.183 28.253,0.099 C28.339,0.014 28.442,-0.029 28.564,-0.029 L28.564,-0.029 Z" id="path69" sketch:type="MSShapeGroup"></path>
            <path d="M29.931,2.389 L29.931,2.226 C30.18,2.128 30.377,2.041 30.524,1.962 L30.524,0.784 C30.793,0.691 31.011,0.592 31.178,0.486 L31.272,0.563 C31.244,0.778 31.212,1.251 31.178,1.981 C31.385,1.984 31.509,1.985 31.55,1.985 C31.573,1.985 31.706,1.982 31.949,1.977 C32.084,1.975 32.184,1.969 32.252,1.961 L32.278,1.988 L32.197,2.348 C32.034,2.345 31.884,2.344 31.748,2.344 C31.61,2.344 31.421,2.345 31.178,2.348 L31.16,3.927 C31.152,4.311 31.155,4.541 31.168,4.615 C31.181,4.69 31.205,4.756 31.241,4.811 C31.277,4.867 31.324,4.912 31.382,4.944 C31.44,4.978 31.538,5.005 31.677,5.022 C31.782,5.022 31.868,5.018 31.934,5.008 C31.999,4.999 32.082,4.977 32.183,4.941 L32.23,5.091 C32.108,5.188 31.991,5.286 31.877,5.39 C31.779,5.426 31.688,5.451 31.602,5.461 C31.518,5.473 31.419,5.478 31.309,5.478 C31.172,5.478 31.063,5.463 30.982,5.432 C30.901,5.401 30.827,5.358 30.759,5.302 C30.693,5.246 30.636,5.176 30.592,5.09 C30.547,5.005 30.519,4.871 30.505,4.688 C30.508,4.512 30.513,4.32 30.521,4.111 C30.524,4.069 30.525,4.024 30.525,3.975 L30.525,2.369 L30.367,2.369 C30.236,2.369 30.091,2.376 29.931,2.389 L29.931,2.389 Z" id="path71" sketch:type="MSShapeGroup"></path>
            <path d="M32.515,7.499 L32.713,6.903 L32.806,6.903 C32.855,6.943 32.897,6.976 32.932,7.001 C32.966,7.026 33.004,7.044 33.044,7.058 C33.084,7.071 33.143,7.076 33.22,7.076 C33.3,7.076 33.379,7.059 33.454,7.024 C33.53,6.99 33.601,6.934 33.667,6.859 C33.733,6.785 33.812,6.656 33.902,6.472 C34.039,6.195 34.161,5.913 34.269,5.626 C34.187,5.394 34.086,5.133 33.97,4.844 L33.353,3.319 C33.169,2.865 33.02,2.517 32.904,2.275 C32.858,2.18 32.808,2.117 32.754,2.084 C32.701,2.052 32.583,2.025 32.4,2.005 L32.4,1.785 C32.72,1.803 33.038,1.812 33.35,1.812 C33.655,1.812 33.949,1.802 34.231,1.785 L34.231,2.006 C33.965,2.024 33.812,2.04 33.774,2.056 C33.707,2.081 33.673,2.127 33.673,2.195 C33.673,2.236 33.694,2.32 33.738,2.448 C33.839,2.766 33.934,3.038 34.025,3.264 L34.27,3.869 C34.416,4.231 34.541,4.525 34.642,4.75 L34.846,4.293 C34.926,4.11 35.067,3.768 35.268,3.261 C35.469,2.753 35.587,2.441 35.621,2.322 C35.632,2.281 35.637,2.245 35.637,2.214 C35.637,2.165 35.616,2.127 35.576,2.1 C35.536,2.073 35.381,2.046 35.109,2.021 L35.109,1.785 C35.409,1.803 35.674,1.812 35.904,1.812 C36.136,1.812 36.366,1.802 36.592,1.785 L36.554,2.017 C36.422,2.022 36.321,2.05 36.248,2.102 C36.176,2.154 36.066,2.328 35.92,2.623 C35.774,2.918 35.504,3.5 35.108,4.368 L34.215,6.46 C34.071,6.798 33.945,7.04 33.84,7.185 C33.734,7.33 33.608,7.439 33.46,7.514 C33.313,7.588 33.151,7.626 32.977,7.626 C32.891,7.626 32.814,7.616 32.747,7.597 C32.677,7.579 32.6,7.545 32.515,7.499 L32.515,7.499 Z" id="path73" sketch:type="MSShapeGroup"></path>
            <path d="M39.001,3.642 C39.001,3.063 39.186,2.59 39.553,2.225 C39.921,1.859 40.393,1.676 40.969,1.676 C41.512,1.676 41.953,1.846 42.294,2.188 C42.635,2.529 42.806,2.969 42.806,3.51 C42.806,3.887 42.718,4.233 42.542,4.545 C42.366,4.858 42.118,5.103 41.798,5.28 C41.478,5.457 41.125,5.546 40.74,5.546 C40.441,5.546 40.187,5.495 39.979,5.395 C39.771,5.293 39.602,5.167 39.473,5.015 C39.344,4.862 39.245,4.705 39.179,4.545 C39.06,4.264 39.001,3.963 39.001,3.642 L39.001,3.642 Z M39.733,3.355 C39.733,3.673 39.786,3.997 39.892,4.325 C39.997,4.653 40.151,4.893 40.351,5.045 C40.551,5.196 40.768,5.272 41.003,5.272 C41.303,5.272 41.553,5.154 41.755,4.915 C41.956,4.677 42.057,4.311 42.057,3.817 C42.057,3.405 41.997,3.05 41.877,2.752 C41.757,2.453 41.604,2.243 41.418,2.12 C41.231,1.997 41.026,1.936 40.802,1.936 C40.485,1.936 40.227,2.05 40.029,2.281 C39.832,2.511 39.733,2.87 39.733,3.355 L39.733,3.355 Z" id="path75" sketch:type="MSShapeGroup"></path>
            <path d="M43.363,2.397 L43.363,2.24 C43.564,2.155 43.742,2.065 43.897,1.971 L43.897,1.738 C43.897,1.403 43.918,1.166 43.961,1.027 C44.003,0.889 44.063,0.766 44.141,0.657 C44.257,0.497 44.441,0.294 44.691,0.046 C44.859,-0.117 44.983,-0.219 45.064,-0.261 C45.169,-0.315 45.293,-0.342 45.435,-0.342 C45.536,-0.342 45.639,-0.325 45.745,-0.292 L45.762,0.352 L45.672,0.387 C45.592,0.32 45.513,0.271 45.434,0.239 C45.355,0.208 45.263,0.192 45.158,0.192 C45.017,0.192 44.904,0.22 44.816,0.277 C44.729,0.335 44.665,0.416 44.625,0.522 C44.585,0.627 44.565,0.843 44.565,1.169 L44.565,1.97 L44.975,1.97 C45.181,1.97 45.385,1.961 45.583,1.943 L45.621,1.967 L45.545,2.368 C45.319,2.358 45.154,2.353 45.049,2.353 C44.94,2.353 44.778,2.358 44.565,2.368 L44.565,3.754 C44.565,3.925 44.571,4.234 44.584,4.687 C44.587,4.847 44.594,4.949 44.604,4.993 C44.615,5.037 44.628,5.068 44.645,5.088 C44.662,5.106 44.69,5.123 44.728,5.137 C44.806,5.16 45.014,5.183 45.356,5.206 L45.356,5.427 C44.754,5.409 44.387,5.4 44.255,5.4 C44.137,5.4 43.805,5.409 43.26,5.427 L43.26,5.206 L43.63,5.202 C43.685,5.199 43.727,5.189 43.756,5.173 C43.786,5.156 43.81,5.135 43.824,5.11 C43.853,5.057 43.871,4.967 43.88,4.835 C43.88,4.802 43.886,4.432 43.899,3.725 L43.899,2.369 L43.363,2.397 L43.363,2.397 Z" id="path77" sketch:type="MSShapeGroup"></path>
        </g>
        <path d="M0.81924981,0.5585 C0.80224981,1.0145 0.71624981,3.4205 0.71624981,3.4205 C0.65024981,5.0975 0.59324981,6.5685 0.59324981,7.8795 C0.59324981,13.6475 1.7072498,16.2765 8.1232498,19.3885 C14.54025,16.2775 15.65525,13.6485 15.65525,7.8845 C15.65525,6.5725 15.59825,5.0975 15.53225,3.4185 C15.53225,3.4185 15.44825,1.0145 15.43225,0.5585 L0.81924981,0.5585 L0.81924981,0.5585 Z" id="path79" fill="#FFFFFF" sketch:type="MSShapeGroup"></path>
        <g id="g81" sketch:type="MSLayerGroup" transform="translate(0.906250, 1.062500)" fill="#EE3124">
            <path d="M14.074,-0.009 L0.38,-0.009 L0.235,3.811 L14.231,3.811 L14.074,-0.009 L14.074,-0.009 Z M7.68,3.553 L7.666,3.52 C7.666,3.52 7.768,3.476 7.904,3.393 C8.17,3.23 8.389,2.894 8.389,2.574 C8.389,2.01 7.864,1.551 7.2,1.551 C6.543,1.551 5.999,2.009 5.999,2.574 C5.999,2.894 6.222,3.23 6.484,3.392 C6.622,3.475 6.724,3.52 6.724,3.52 L6.711,3.553 C6.711,3.553 6.597,3.511 6.459,3.424 C5.997,3.143 5.751,2.68 5.751,2.263 C5.751,1.554 6.41,0.977 7.198,0.977 C7.99,0.977 8.641,1.554 8.641,2.263 C8.641,2.68 8.391,3.143 7.931,3.425 C7.794,3.511 7.68,3.553 7.68,3.553 L7.68,3.553 Z M8.017,3.48 L8.009,3.444 C8.436,3.164 8.716,2.707 8.716,2.262 C8.716,1.512 8.032,0.901 7.199,0.901 C6.37,0.901 5.675,1.512 5.675,2.262 C5.675,2.707 5.953,3.164 6.382,3.444 L6.372,3.48 C5.744,3.191 5.289,2.6 5.289,1.983 C5.289,1.098 6.171,0.362 7.202,0.362 C8.234,0.362 9.101,1.097 9.101,1.983 C9.1,2.6 8.648,3.191 8.017,3.48 L8.017,3.48 Z" id="path83" sketch:type="MSShapeGroup"></path>
            <path d="M8.974,4.219 L8.974,6.362 C8.951,6.377 8.791,6.503 8.54,6.506 C8.274,6.509 7.955,6.384 7.666,6.384 C7.485,6.384 7.347,6.458 7.232,6.583 L7.169,6.583 C7.169,6.583 6.998,6.384 6.729,6.384 C6.45,6.384 6.121,6.512 5.855,6.512 C5.592,6.512 5.447,6.374 5.426,6.359 L5.426,4.219 C5.37,4.327 5.25,4.441 5.155,4.442 L5.155,6.56 C5.263,6.646 5.397,6.679 5.541,6.683 C5.892,6.695 6.309,6.534 6.674,6.534 C6.873,6.534 7.059,6.588 7.199,6.741 C7.345,6.587 7.521,6.533 7.72,6.533 C8.083,6.533 8.507,6.694 8.856,6.682 C8.999,6.678 9.13,6.645 9.241,6.559 L9.241,4.442 C9.143,4.452 9.012,4.333 8.974,4.219 L8.974,4.219 Z" id="path85" sketch:type="MSShapeGroup"></path>
        </g>
        <path d="M13.42125,14.0825 C13.38125,13.9455 13.25725,13.8305 13.13725,13.8225 C13.16025,13.8465 13.18225,13.8675 13.20325,13.8895 C13.33025,14.0345 13.25425,14.3595 13.12425,14.4375 C13.17825,14.2445 13.02925,14.0895 12.83225,14.1425 C12.90525,14.1865 12.95125,14.3085 12.91825,14.4245 C12.88625,14.5365 12.76025,14.6395 12.63725,14.6165 C12.46925,14.5835 12.56325,14.3625 12.55725,14.2225 C12.55125,14.0255 12.42525,13.9315 12.33025,13.8855 C12.31925,13.8795 12.32925,13.8665 12.32925,13.8665 C12.39425,13.8835 12.45825,13.9115 12.54925,13.9095 C12.67225,13.9095 12.77125,13.8415 12.81025,13.7865 C12.86025,13.7235 12.87925,13.6185 12.85225,13.5425 C12.83025,13.5745 12.80225,13.6165 12.77225,13.6445 C12.70025,13.7105 12.55925,13.7205 12.45825,13.6695 C12.35325,13.6185 12.25225,13.5115 12.17125,13.4095 C11.90025,13.0395 11.57325,12.6665 11.23425,12.4435 C11.02725,12.3055 10.75025,12.1945 10.48425,12.1865 C10.32525,12.1825 10.16425,12.2155 10.02725,12.3035 C9.8432498,12.4205 9.7312498,12.6235 9.7082498,12.8165 C9.6802498,13.0455 9.7602498,13.2695 9.8982498,13.4445 C10.08225,13.6805 10.34025,13.8545 10.58725,14.0105 C10.77025,14.1275 10.94925,14.2525 11.11925,14.3875 C11.25125,14.4915 11.36525,14.6145 11.40125,14.7855 C11.43825,14.9445 11.36925,15.0555 11.30525,15.1085 C11.19125,15.2015 10.88825,15.1935 10.77825,15.0985 C10.70625,14.5525 10.32925,14.3125 9.8382498,14.1945 C9.6052498,14.1385 9.3572498,14.0805 9.1622498,13.9705 C8.9862498,13.8755 8.8272498,13.7795 8.7482498,13.5485 C8.7192498,13.5565 8.6352498,13.5405 8.5742498,13.5135 C8.4282498,13.4605 8.3802498,13.3615 8.3542498,13.2785 C8.4382498,13.3615 8.5122498,13.4155 8.7312498,13.4275 C8.8622498,13.4315 9.0382498,13.3655 9.1062498,13.2565 C8.9712498,13.2735 8.8612498,13.2655 8.7852498,13.2195 C8.7102498,13.1725 8.6352498,13.0675 8.6502498,12.9535 C8.7802498,13.0905 9.0242498,13.1375 9.2422498,13.0315 C9.2722498,13.0175 9.3722498,12.9435 9.3782498,12.9065 C9.2602498,12.9205 9.1542498,12.8995 9.0852498,12.8405 C9.0142498,12.7835 8.9692498,12.6955 8.9712498,12.5735 C9.0452498,12.6515 9.1822498,12.6925 9.3132498,12.6865 C9.4442498,12.6805 9.5692498,12.6275 9.6132498,12.5195 C9.5152498,12.5385 9.4172498,12.5155 9.3372498,12.4675 C9.2652498,12.4225 9.2102498,12.3485 9.2062498,12.2565 C9.0762498,12.2465 8.9752498,12.1905 8.9132498,12.1175 C8.8402498,12.2215 8.8152498,12.4655 8.8282498,12.6315 C8.6212498,12.6235 8.4472498,12.4815 8.4152498,12.2845 C8.3252498,12.3855 8.3112498,12.6385 8.3572498,12.7795 C8.1102498,12.7625 7.9602498,12.6315 7.9022498,12.4255 C7.8672498,12.4995 7.8492498,12.5995 7.8502498,12.7085 C7.8522498,12.7385 7.8572498,12.8005 7.8652498,12.8435 C7.8652498,12.8435 7.8042498,12.8395 7.7182498,12.7795 C7.6082498,12.7075 7.5112498,12.5215 7.5182498,12.4325 C7.5822498,12.5315 7.6632498,12.6155 7.7562498,12.6755 C7.7472498,12.4505 7.8492498,12.2765 7.9702498,12.1895 C7.9732498,12.4325 8.0522498,12.5745 8.2452498,12.6255 C8.2132498,12.4825 8.2542498,12.3665 8.2882498,12.2765 C8.3222498,12.1955 8.4112498,12.0805 8.4622498,12.0455 C8.4632498,12.2435 8.5552498,12.4405 8.7242498,12.4865 C8.7172498,12.3325 8.7482498,12.1565 8.8052498,12.0455 C8.8322498,11.9955 8.8662498,11.9395 8.9112498,11.9155 C8.9592498,12.0735 9.1582498,12.1515 9.3412498,12.1575 C9.8332498,12.1735 9.8582498,11.7685 9.8582498,11.7685 C9.7922498,11.7995 9.7032498,11.8545 9.5392498,11.8545 C9.3382498,11.8545 9.2812498,11.6945 9.2812498,11.6945 C9.3982498,11.7405 9.6322498,11.6815 9.7412498,11.5955 C9.8102498,11.5415 9.8962498,11.4255 9.9042498,11.3245 C9.9122498,11.2275 9.8892498,11.1375 9.8222498,11.0915 C9.7412498,11.3035 9.2762498,11.4155 9.1142498,11.2025 C9.2902498,11.2155 9.4542498,11.1375 9.5132498,11.0255 C9.5312498,10.9975 9.5472498,10.9105 9.5332498,10.8725 C9.5332498,10.8725 9.4052498,10.9555 9.2362498,10.9625 C9.0542498,10.9705 8.9552498,10.8955 8.9552498,10.8955 C9.0762498,10.8875 9.3092498,10.7635 9.2922498,10.6145 C9.2922498,10.6145 9.2172498,10.6415 9.1652498,10.6455 C9.0312498,10.6595 8.8622498,10.6425 8.7732498,10.5765 C8.7782498,10.5555 8.8262498,10.2105 8.7872498,10.1675 C8.6342498,10.2375 8.4922498,10.3505 8.4062498,10.4965 C8.3152498,10.4815 8.2072498,10.4685 8.0812498,10.4715 C7.9552498,10.4735 7.8142498,10.4965 7.7472498,10.5305 C7.7172498,10.5465 7.6612498,10.5845 7.6312498,10.6245 C7.5972498,10.6655 7.5872498,10.7155 7.5492498,10.7395 C7.4602498,10.7895 7.3172498,10.8095 7.2002498,10.8185 C7.1112498,10.8285 6.9932498,10.8135 6.9652498,10.8835 C6.9362498,10.9585 6.9952498,11.0005 7.0222498,11.0355 C7.0402498,11.0615 7.0602498,11.1035 7.0742498,11.1385 C7.0872498,11.1725 7.0982498,11.2265 7.1172498,11.2535 C7.2312498,11.4385 7.3472498,11.3565 7.4742498,11.3165 C7.6152498,11.2665 7.8052498,11.2195 7.9722498,11.2195 C8.0732498,11.2195 8.1802498,11.2325 8.2642498,11.2875 C8.3392498,11.3335 8.3792498,11.4395 8.3742498,11.5285 C8.3722498,11.6105 8.3372498,11.6925 8.2732498,11.7465 C8.2412498,11.7765 8.1112498,11.8505 7.9382498,11.8505 C7.7262498,11.8505 7.5152498,11.7535 7.3302498,11.7495 C7.2752498,11.7455 7.2192498,11.7645 7.2012498,11.7855 C7.1412498,11.8425 7.1412498,11.9205 7.1942498,11.9905 C7.3802498,11.9865 7.3732498,12.1985 7.3452498,12.2935 C7.2562498,12.5295 7.0702498,12.5415 6.9822498,12.5335 C6.8732498,12.5195 6.7632498,12.4745 6.7142498,12.4185 C6.6242498,12.6865 6.8072498,12.9005 7.0492498,12.9145 C6.8812498,13.0535 6.5472498,12.9435 6.5152498,12.7605 C6.4902498,12.7875 6.4702498,12.8465 6.4672498,12.8995 C6.4462498,13.2275 6.7112498,13.3585 7.0432498,13.3455 C6.8492498,13.4255 6.6022498,13.3855 6.3752498,13.3195 C6.1692498,13.2595 6.0562498,13.2065 5.9142498,13.1345 C5.7392498,13.0515 5.5562498,12.9005 5.4652498,12.7425 C5.4362498,12.6865 5.4032498,12.5905 5.4072498,12.5175 C5.4202498,12.2685 5.7092498,12.2355 5.6702498,11.9485 C5.4702498,11.8875 5.2692498,11.9855 5.2092498,12.1795 C5.1912498,12.2325 5.1862498,12.2895 5.1942498,12.3605 C5.1212498,12.2955 5.0462498,12.2145 4.9702498,12.1465 C4.9062498,12.0905 4.8392498,12.0565 4.7652498,12.0625 C4.7582498,12.0625 4.7462498,12.1215 4.6942498,12.1885 C4.6762498,12.2075 4.5952498,12.2775 4.5952498,12.2775 C4.5992498,12.3235 4.6402498,12.3745 4.6582498,12.3855 C4.7212498,12.4455 4.8432498,12.4755 4.8952498,12.5575 C4.9112498,12.5815 4.9172498,12.6125 4.9132498,12.6535 C4.8592498,12.6705 4.8082498,12.6685 4.7642498,12.6565 C4.6092498,12.6205 4.4942498,12.4835 4.3162498,12.4735 C4.2432498,12.4675 4.1682498,12.4815 4.1332498,12.5325 C4.1812498,12.5955 4.1712498,12.7235 4.1272498,12.7985 C4.1552498,12.8615 4.2152498,12.8875 4.2802498,12.8955 C4.3832498,12.9065 4.5042498,12.8875 4.6002498,12.9035 C4.6522498,12.9045 4.6972498,12.9205 4.7272498,12.9555 C4.6672498,12.9965 4.6222498,13.0255 4.5572498,13.0405 C4.4162498,13.0705 4.2472498,12.9685 4.1262498,13.0335 C4.1262498,13.0335 4.1542498,13.0905 4.1342498,13.1565 C4.1192498,13.2175 4.0862498,13.2725 4.0862498,13.2725 C4.1492498,13.3305 4.2152498,13.3505 4.2792498,13.3545 C4.4082498,13.3545 4.5432498,13.2765 4.6702498,13.2305 C4.7322498,13.2075 4.7892498,13.1905 4.8452498,13.1905 C4.7422498,13.3265 4.5782498,13.4535 4.3862498,13.4725 C4.3622498,13.4745 4.3272498,13.4745 4.3272498,13.4745 C4.3292498,13.4955 4.3752498,13.5175 4.3902498,13.5255 C4.4332498,13.5485 4.5042498,13.5685 4.5622498,13.5705 C4.8192498,13.5815 5.0282498,13.4945 5.2062498,13.3925 C5.1262498,13.5525 4.9822498,13.6425 4.7992498,13.6995 C4.8182498,13.7235 4.8622498,13.7295 4.8972498,13.7355 C5.2912498,13.7995 5.6462498,13.5335 5.6462498,13.5335 C5.6382498,13.6095 5.5812498,13.7215 5.4552498,13.7995 C5.3892498,13.8365 5.3192498,13.8465 5.3192498,13.8465 C5.3722498,13.9035 5.5182498,13.9105 5.6162498,13.8995 C5.7302498,13.8925 5.8652498,13.8445 5.9762498,13.8215 C6.1562498,13.7905 6.2672498,13.7985 6.3752498,13.7725 C6.2542498,13.8215 6.1272498,13.8705 5.9982498,13.9195 C5.8402498,13.9765 5.6962498,14.0525 5.5582498,14.1285 C5.4102498,14.2065 5.2862498,14.3125 5.1492498,14.3785 C5.0032498,14.4545 4.8322498,14.4205 4.7642498,14.3045 C4.7322498,14.2435 4.7332498,14.1825 4.7192498,14.1205 C4.6862498,13.9745 4.5772498,13.8495 4.4112498,13.8535 C4.3972498,13.9785 4.2892498,14.0605 4.2382498,14.0995 C4.2592498,14.3295 4.5572498,14.3255 4.5902498,14.5625 C4.5642498,14.5775 4.5072498,14.5835 4.4502498,14.5675 C4.3292498,14.5315 4.2482498,14.4845 4.1352498,14.4825 C4.0692498,14.4805 4.0082498,14.4915 3.9512498,14.5315 C3.9742498,14.5545 3.9902498,14.5795 4.0022498,14.6215 C4.0212498,14.6915 3.9972498,14.7735 3.9642498,14.8245 C4.0082498,14.8705 4.0652498,14.8865 4.1282498,14.8865 C4.2372498,14.8865 4.3612498,14.8465 4.4572498,14.8385 C4.5132498,14.8345 4.5822498,14.8345 4.6352498,14.8615 C4.5742498,15.0085 4.3572498,14.9985 4.1912498,15.0385 C4.1132498,15.0585 4.0482498,15.0945 4.0152498,15.1605 C4.1282498,15.1955 4.2062498,15.2795 4.1992498,15.4335 C4.2562498,15.4355 4.3042498,15.4235 4.3492498,15.4075 C4.4902498,15.3435 4.5742498,15.1905 4.7152498,15.1405 C4.7112498,15.2985 4.6132498,15.3865 4.5912498,15.5255 C4.5832498,15.5675 4.5852498,15.6125 4.5962498,15.6675 C4.5962498,15.6675 4.6662498,15.6365 4.7412498,15.6365 C4.8072498,15.6385 4.8422498,15.6595 4.8802498,15.6835 C4.9192498,15.6465 4.9422498,15.5955 4.9562498,15.5415 C4.9792498,15.4365 4.9712498,15.3145 4.9752498,15.2115 C4.9862498,15.1565 4.9822498,15.1315 5.0252498,15.1235 C5.2202498,15.1235 5.4292498,15.0165 5.5052498,14.9335 C5.4742498,15.0545 5.4322498,15.1245 5.3612498,15.2055 C5.3382498,15.2325 5.2852498,15.2835 5.2632498,15.3035 C5.3832498,15.3215 5.5052498,15.2835 5.6022498,15.2215 C5.8032498,15.0905 5.9742498,14.9205 6.0602498,14.7075 C6.0832498,14.7985 6.0772498,14.9105 6.0452498,14.9985 C6.0232498,15.0645 5.9822498,15.1275 5.9542498,15.1605 C5.9872498,15.1685 6.0522498,15.1545 6.0902498,15.1375 C6.2382498,15.0735 6.3452498,14.9465 6.4242498,14.7835 C6.4642498,14.7015 6.5042498,14.5925 6.5192498,14.4915 C6.6032498,14.5795 6.6212498,14.7275 6.5582498,14.8905 C6.5442498,14.9275 6.5202498,14.9615 6.5142498,14.9705 C6.6122498,14.9615 6.6882498,14.8925 6.7562498,14.8285 C6.8712498,14.7185 6.9722498,14.4995 6.9482498,14.3045 C7.0572498,14.4005 7.0872498,14.6585 7.0192498,14.8035 C7.1162498,14.7775 7.1992498,14.7145 7.2662498,14.6415 C7.3462498,14.5585 7.3942498,14.4915 7.4412498,14.3345 C7.4872498,14.1845 7.4562498,14.0775 7.4562498,14.0775 C7.4772498,14.0965 7.5072498,14.1475 7.5172498,14.1955 C7.5622498,14.3865 7.5072498,14.6045 7.3472498,14.7575 C7.3212498,14.7825 7.2682498,14.8235 7.2612498,14.8275 C7.3682498,14.9715 7.5582498,15.0315 7.7692498,15.0405 C8.1252498,15.0605 8.3352498,14.9115 8.6672498,14.8755 C8.5312498,14.9385 8.4042498,15.0205 8.3212498,15.0565 C8.1282498,15.1465 7.9542498,15.2045 7.8012498,15.1995 C7.7152498,15.1955 7.6122498,15.1975 7.5192498,15.1505 C7.4542498,15.2325 7.4412498,15.3275 7.4542498,15.4635 C7.4742498,15.6425 7.5732498,15.7595 7.5292498,15.9425 C7.4362498,16.2925 6.8232498,16.2375 6.5952498,16.0695 C6.4092498,15.9325 6.4262498,15.6065 6.2592498,15.4665 C6.2092498,15.4235 6.1462498,15.4015 6.0552498,15.4015 C6.0232498,15.5065 5.9512498,15.5715 5.8672498,15.6285 C5.8782498,15.6945 5.9112498,15.7415 5.9502498,15.7825 C6.0162498,15.8545 6.1142498,15.8995 6.1712498,15.9855 C6.1942498,16.0185 6.2142498,16.0615 6.2182498,16.1125 C6.1562498,16.1165 6.1032498,16.1025 6.0572498,16.0795 C5.9312498,16.0185 5.8372498,15.8975 5.6952498,15.8625 C5.6432498,15.8545 5.5872498,15.8565 5.5172498,15.8705 C5.5422498,15.9425 5.5002498,16.0615 5.4332498,16.1125 C5.4852498,16.2555 5.6282498,16.3355 5.8132498,16.3445 C5.9162498,16.3505 6.0352498,16.3405 6.0962498,16.4165 C5.9512498,16.5705 5.7242498,16.4185 5.5262498,16.4185 C5.4732498,16.4185 5.4222498,16.4305 5.3732498,16.4615 C5.3802498,16.4735 5.4052498,16.5215 5.4092498,16.5685 C5.4162498,16.6365 5.3682498,16.7325 5.3682498,16.7325 C5.3752498,16.7895 5.4892498,16.8185 5.5532498,16.8265 C5.5972498,16.8325 5.6472498,16.8285 5.6892498,16.8205 C5.8362498,16.7975 5.9962498,16.6915 6.1452498,16.7055 C6.1672498,16.7055 6.2072498,16.7175 6.2152498,16.7365 C6.1672498,16.8535 6.0472498,16.8695 5.9752498,16.9475 C5.9512498,16.9745 5.9302498,17.0115 5.9222498,17.0625 C6.0452498,17.0315 6.0882498,17.0805 6.1482498,17.1585 C6.2052498,17.1645 6.2542498,17.1485 6.2922498,17.1195 C6.3692498,17.0605 6.4222498,16.9375 6.4722498,16.8795 C6.4902498,16.8545 6.5082498,16.8205 6.5512498,16.8285 C6.5742498,16.8325 6.6022498,16.8835 6.6312498,16.9205 C6.7352498,17.0515 6.9182498,17.1565 7.1442498,17.1295 C7.2092498,17.1235 7.2782498,17.0905 7.3222498,17.0415 C7.1762498,17.0165 7.0732498,16.9165 7.0252498,16.7815 C7.1522498,16.8755 7.3752498,16.9555 7.5582498,16.9245 C7.5812498,16.9205 7.6382498,16.8995 7.6462498,16.8795 C7.5042498,16.8425 7.3892498,16.6975 7.4422498,16.5255 C7.5072498,16.6325 7.6402498,16.7325 7.7992498,16.7465 C7.8492498,16.7525 7.9092498,16.7525 7.9522498,16.7195 C7.9292498,16.6965 7.8982498,16.6685 7.8812498,16.6315 C7.8622498,16.5925 7.8512498,16.5375 7.8562498,16.4845 C7.8752498,16.3575 8.0542498,16.3205 8.1682498,16.3105 C8.3182498,16.2905 8.4802498,16.3265 8.6142498,16.2755 C8.7102498,16.2345 8.7962498,16.1625 8.7862498,16.0605 C8.7372498,16.0955 8.6702498,16.1265 8.5852498,16.1195 C8.4562498,16.1075 8.4152498,16.0005 8.4152498,15.9205 C8.4152498,15.7685 8.5082498,15.6905 8.6932498,15.6785 C8.7772498,15.6725 8.9032498,15.6945 8.9792498,15.7255 C8.9772498,15.7235 9.1002498,15.7705 9.1002498,15.7685 C9.0482498,15.6635 9.1072498,15.4775 9.1412498,15.3925 C9.2062498,15.2485 9.2762498,15.1655 9.3132498,15.0325 C9.3212498,15.0585 9.3252498,15.0885 9.3212498,15.1195 C9.3082498,15.2695 9.2452498,15.3595 9.2302498,15.5315 C9.2202498,15.6225 9.2552498,15.7495 9.3332498,15.8115 C9.4812498,15.9285 9.7182498,15.9695 9.8002498,16.1625 C9.8572498,16.3115 9.8002498,16.4375 9.7272498,16.5315 C9.6232498,16.6795 9.4662498,16.8035 9.2932498,16.8835 C9.2452498,16.9085 9.1602498,16.9475 9.0752498,16.9205 C8.9252498,16.8695 8.8692498,16.5865 8.7382498,16.4965 C8.6862498,16.4635 8.6202498,16.4535 8.5512498,16.4675 C8.5412498,16.5225 8.5312498,16.5455 8.4962498,16.5905 C8.4712498,16.6195 8.4152498,16.6585 8.4152498,16.6645 C8.4232498,16.7235 8.4612498,16.7775 8.4792498,16.7955 C8.5522498,16.8615 8.7052498,16.9045 8.7382498,16.9925 C8.7202498,17.0155 8.6852498,17.0195 8.6552498,17.0235 C8.4922498,17.0295 8.4162498,16.8825 8.2622498,16.8695 C8.2262498,16.8675 8.1602498,16.8695 8.1222498,16.8985 C8.1302498,16.9415 8.1292498,16.9585 8.1172498,16.9985 C8.1022498,17.0455 8.0892498,17.0615 8.0682498,17.0945 C8.0942498,17.2155 8.3002498,17.2275 8.4652498,17.2415 C8.5172498,17.2475 8.5712498,17.2555 8.5942498,17.2905 C8.5532498,17.3275 8.5002498,17.3605 8.4392498,17.3745 C8.3162498,17.3915 8.2052498,17.3235 8.0862498,17.3135 C8.0462498,17.3115 7.9942498,17.3275 7.9512498,17.3545 C7.9622498,17.3815 7.9692498,17.4385 7.9582498,17.4835 C7.9462498,17.5405 7.9432498,17.5695 7.9242498,17.5945 C7.9462498,17.6105 8.0042498,17.6455 8.0692498,17.6455 C8.2372498,17.6555 8.3762498,17.5185 8.5532498,17.5795 C8.4822498,17.6875 8.3622498,17.6945 8.2612498,17.7595 C8.2212498,17.7845 8.1782498,17.8275 8.1532498,17.8765 C8.1892498,17.8925 8.2192498,17.9175 8.2412498,17.9505 C8.2612498,17.9815 8.2762498,18.0135 8.2812498,18.0615 C8.4912498,18.0755 8.5882498,17.9365 8.6882498,17.8255 C8.8362498,17.6655 9.0422498,17.5615 9.3242498,17.5385 C9.6332498,17.5195 10.02725,17.6655 10.16525,17.3995 C9.9952498,17.3915 9.7922498,17.3605 9.7332498,17.2415 C10.03225,17.3275 10.40125,17.2455 10.55325,17.0555 C10.34625,17.0945 10.13525,17.0455 10.05325,16.9165 C10.28225,16.9775 10.53325,16.9405 10.70925,16.8365 C10.82425,16.7685 10.95025,16.6605 10.98225,16.5315 C10.96525,16.5315 10.92825,16.5475 10.90025,16.5605 C10.75225,16.6265 10.49325,16.6155 10.43225,16.4965 C10.56525,16.5045 10.68625,16.4805 10.78225,16.4305 C10.90925,16.3585 10.97525,16.2485 11.01825,16.1765 C11.06825,16.0825 11.11625,15.9875 11.18225,15.9085 C11.21025,15.8775 11.24125,15.8595 11.26725,15.8495 C11.24525,15.8245 11.18825,15.8205 11.15225,15.8275 C10.96325,15.8605 10.88125,16.0365 10.70425,16.0755 C10.77225,15.8875 10.80025,15.6395 10.80525,15.4245 C11.16425,15.5625 11.47925,15.4555 11.63925,15.2405 C11.73525,15.1085 11.75925,14.9485 11.75925,14.8365 C11.75925,14.6115 11.63925,14.4455 11.52725,14.3245 C11.31325,14.0965 11.04625,13.9305 10.79025,13.7525 C10.61425,13.6335 10.43325,13.5075 10.28525,13.3695 C10.18025,13.2745 10.06425,13.1415 10.03825,12.9805 C9.99825,12.7395 10.14625,12.5525 10.31325,12.5015 C10.85025,12.3375 11.40425,12.9195 11.66425,13.2265 C11.72425,13.2965 11.93825,13.5465 11.85425,13.7105 C11.82825,13.7535 11.76525,13.7805 11.72125,13.7765 C11.64525,13.7685 11.58125,13.6965 11.63625,13.5785 C11.49325,13.6105 11.43425,13.8235 11.51825,13.9405 C11.57725,14.0295 11.68125,14.0425 11.75925,14.0275 C11.82825,14.0145 11.89125,13.9735 11.92325,13.9235 C11.82725,14.2105 11.93725,14.5155 12.08125,14.6735 C12.25125,14.8655 12.49725,14.9095 12.60025,14.9175 C12.86525,14.9335 13.13225,14.8675 13.30625,14.6465 C13.42125,14.4955 13.48125,14.2735 13.42125,14.0825 L13.42125,14.0825 Z M7.9522498,10.9585 C7.9092498,10.8955 7.8972498,10.7925 7.9402498,10.7255 C8.0472498,10.7915 8.1412498,10.8045 8.2622498,10.8255 C8.1602498,10.8555 8.0392498,10.8955 7.9522498,10.9585 L7.9522498,10.9585 Z" id="path87" fill="#EE3124" sketch:type="MSShapeGroup"></path>
        <g id="g89" sketch:type="MSLayerGroup" transform="translate(1.906250, 1.062500)" fill="#FFEF00">
            <path d="M11.126,0.237 L9.616,1.937 L11.126,3.641 L12.601,1.937 L11.126,0.237 L11.126,0.237 Z M10.221,1.936 L11.118,0.931 L12,1.953 L11.133,2.953 L10.221,1.936 L10.221,1.936 Z" id="path91" sketch:type="MSShapeGroup"></path>
            <path d="M-0.064,1.937 L1.449,3.641 L2.924,1.937 L1.449,0.237 L-0.064,1.937 L-0.064,1.937 Z M1.454,2.953 L0.544,1.936 L1.442,0.931 L2.324,1.953 L1.454,2.953 L1.454,2.953 Z" id="path93" sketch:type="MSShapeGroup"></path>
        </g>
        <path d="M9.0262498,6.9375 C8.7622498,6.8675 8.4852498,6.8045 8.2452498,6.9445 L8.2452498,7.0135 C8.4722498,6.8565 8.7392498,6.9225 9.0132498,6.9905 C9.2472498,7.0505 9.4842498,7.1085 9.7082498,7.0225 L9.7082498,6.9615 C9.4982498,7.0525 9.2722498,6.9955 9.0262498,6.9375 L9.0262498,6.9375 Z" id="path95" fill="#00539B" sketch:type="MSShapeGroup"></path>
        <path d="M7.1802498,6.3965 C6.9372498,6.4585 6.7032498,6.5155 6.4992498,6.4245 L6.4992498,6.4875 C6.7172498,6.5725 6.9592498,6.5115 7.1952498,6.4545 C7.4692498,6.3865 7.7302498,6.3225 7.9622498,6.4765 L7.9622498,6.4065 C7.7212498,6.2655 7.4452498,6.3315 7.1802498,6.3965 L7.1802498,6.3965 Z" id="path97" fill="#00539B" sketch:type="MSShapeGroup"></path>
        <path d="M7.1802498,5.8655 C6.9372498,5.9285 6.7032498,5.9815 6.4992498,5.8945 L6.4992498,5.9545 C6.7172498,6.0395 6.9592498,5.9795 7.1952498,5.9245 C7.4682498,5.8545 7.7302498,5.7895 7.9622498,5.9445 L7.9622498,5.8745 C7.7212498,5.7305 7.4452498,5.7995 7.1802498,5.8655 L7.1802498,5.8655 Z" id="path99" fill="#00539B" sketch:type="MSShapeGroup"></path>
        <path d="M7.1802498,6.9375 C6.9372498,6.9955 6.7052498,7.0525 6.4992498,6.9615 L6.4992498,7.0225 C6.7172498,7.1085 6.9592498,7.0505 7.1952498,6.9905 C7.4692498,6.9225 7.7302498,6.8565 7.9622498,7.0135 L7.9622498,6.9445 C7.7212498,6.8035 7.4452498,6.8675 7.1802498,6.9375 L7.1802498,6.9375 Z" id="path101" fill="#00539B" sketch:type="MSShapeGroup"></path>
        <path d="M9.0262498,5.8655 C8.7632498,5.7995 8.4852498,5.7305 8.2452498,5.8735 L8.2452498,5.9435 C8.4722498,5.7885 8.7382498,5.8535 9.0132498,5.9235 C9.2472498,5.9785 9.4842498,6.0385 9.7082498,5.9535 L9.7082498,5.8935 C9.4982498,5.9815 9.2722498,5.9285 9.0262498,5.8655 L9.0262498,5.8655 Z" id="path103" fill="#00539B" sketch:type="MSShapeGroup"></path>
        <path d="M9.0262498,6.3965 C8.7622498,6.3315 8.4852498,6.2655 8.2452498,6.4065 L8.2452498,6.4755 C8.4722498,6.3225 8.7392498,6.3865 9.0132498,6.4545 C9.2472498,6.5115 9.4842498,6.5725 9.7082498,6.4875 L9.7082498,6.4245 C9.4982498,6.5155 9.2722498,6.4585 9.0262498,6.3965 L9.0262498,6.3965 Z" id="path105" fill="#00539B" sketch:type="MSShapeGroup"></path>
        <g id="g107" sketch:type="MSLayerGroup" transform="translate(-0.093750, 0.062500)" fill="#00539B">
            <path d="M5.198,16.738 C5.346,16.593 5.465,16.668 5.465,16.668 C5.535,16.596 5.523,16.436 5.47,16.397 C5.321,16.433 5.193,16.548 5.198,16.738 L5.198,16.738 Z" id="path109" sketch:type="MSShapeGroup"></path>
            <path d="M5.203,16.05 C5.203,16.05 5.274,16.021 5.381,16.021 C5.462,16.025 5.531,16.046 5.531,16.046 C5.595,16.017 5.665,15.876 5.615,15.804 C5.42,15.816 5.251,15.914 5.203,16.05 L5.203,16.05 Z" id="path111" sketch:type="MSShapeGroup"></path>
            <path d="M4.691,15.601 C4.691,15.601 4.701,15.783 4.827,15.89 C4.862,15.923 4.913,15.958 4.973,15.955 C4.901,15.869 4.923,15.717 4.976,15.617 C4.912,15.556 4.768,15.556 4.691,15.601 L4.691,15.601 Z" id="path113" sketch:type="MSShapeGroup"></path>
            <path d="M4.859,12 C4.652,11.942 4.437,12.058 4.382,12.212 C4.382,12.212 4.545,12.148 4.689,12.215 C4.688,12.214 4.835,12.127 4.859,12 L4.859,12 Z" id="path115" sketch:type="MSShapeGroup"></path>
            <path d="M5.46,11.928 C5.54,11.881 5.655,11.865 5.765,11.889 C5.758,11.825 5.676,11.763 5.633,11.745 C5.536,11.698 5.478,11.679 5.362,11.68 C5.281,11.686 5.234,11.71 5.234,11.71 C5.317,11.761 5.43,11.815 5.46,11.928 L5.46,11.928 Z" id="path117" sketch:type="MSShapeGroup"></path>
            <path d="M6.151,15.335 C6.025,15.293 5.863,15.32 5.763,15.367 C5.675,15.413 5.617,15.482 5.617,15.482 C5.851,15.459 5.964,15.561 5.964,15.561 C6.035,15.546 6.161,15.432 6.151,15.335 L6.151,15.335 Z" id="path119" sketch:type="MSShapeGroup"></path>
            <path d="M4.11,15.094 C4.035,15.17 3.967,15.317 3.997,15.475 C4.012,15.548 4.07,15.583 4.07,15.583 C4.088,15.487 4.165,15.381 4.294,15.367 C4.324,15.197 4.176,15.094 4.11,15.094 L4.11,15.094 Z" id="path121" sketch:type="MSShapeGroup"></path>
            <path d="M4.047,14.465 C4.047,14.465 3.942,14.49 3.827,14.619 C3.78,14.672 3.725,14.779 3.746,14.867 C3.746,14.867 3.808,14.799 3.914,14.767 C3.978,14.746 4.027,14.746 4.059,14.757 C4.118,14.726 4.145,14.526 4.047,14.465 L4.047,14.465 Z" id="path123" sketch:type="MSShapeGroup"></path>
            <path d="M8.199,7.99 C8.449,7.99 8.557,7.779 8.557,7.779 C8.908,7.784 10.476,7.779 10.476,7.779 L10.471,5.51 L10.23,5.51 L10.231,7.549 C10.231,7.549 10.102,7.669 9.813,7.669 C9.466,7.669 9.074,7.521 8.721,7.521 C8.374,7.521 8.236,7.694 8.199,7.724 C8.199,7.724 8.023,7.521 7.689,7.521 C7.343,7.521 6.93,7.664 6.524,7.664 C6.313,7.664 6.194,7.562 6.163,7.55 L6.167,5.51 L5.934,5.51 L5.934,7.779 L7.839,7.779 C7.839,7.779 7.936,7.99 8.199,7.99 L8.199,7.99 Z" id="path125" sketch:type="MSShapeGroup"></path>
            <path d="M4.18,13.209 C4.18,13.209 4.286,13.066 4.22,12.97 C4.014,12.993 3.883,13.105 3.819,13.241 C3.819,13.241 4.012,13.168 4.18,13.209 L4.18,13.209 Z" id="path127" sketch:type="MSShapeGroup"></path>
            <path d="M6.018,16.998 C6.018,16.998 5.948,17.262 6.135,17.342 C6.135,17.342 6.101,17.201 6.243,17.094 C6.207,17.007 6.098,16.951 6.018,16.998 L6.018,16.998 Z" id="path129" sketch:type="MSShapeGroup"></path>
            <path d="M3.994,13.991 C4.098,13.972 4.254,13.964 4.334,14.034 C4.462,13.965 4.523,13.839 4.507,13.788 C4.492,13.776 4.415,13.776 4.393,13.776 C4.18,13.772 4.058,13.866 3.994,13.991 L3.994,13.991 Z" id="path131" sketch:type="MSShapeGroup"></path>
            <path d="M4.22,12.735 C4.22,12.735 4.323,12.585 4.226,12.469 C4.068,12.504 3.938,12.627 3.913,12.805 C3.913,12.805 3.967,12.768 4.022,12.749 C4.104,12.723 4.176,12.729 4.22,12.735 L4.22,12.735 Z" id="path133" sketch:type="MSShapeGroup"></path>
            <path d="M8.201,9.29 L14.656,13.075 C15.398,11.087 15.385,8.612 15.258,5.128 L8.201,9.29 L8.201,9.29 Z" id="path135" sketch:type="MSShapeGroup"></path>
            <path d="M8.199,11.575 C8.176,11.628 8.163,11.735 8.138,11.79 C8.19,11.802 8.248,11.758 8.288,11.737 C8.259,11.691 8.227,11.622 8.199,11.575 L8.199,11.575 Z" id="path137" sketch:type="MSShapeGroup"></path>
            <path d="M7.692,17.601 C7.692,17.601 7.737,17.562 7.811,17.535 C7.864,17.506 7.964,17.492 8.018,17.529 C8.067,17.502 8.087,17.322 8.045,17.289 C7.893,17.304 7.711,17.429 7.692,17.601 L7.692,17.601 Z" id="path139" sketch:type="MSShapeGroup"></path>
            <path d="M7.742,11.607 C7.724,11.635 7.699,11.702 7.671,11.739 C7.711,11.751 7.777,11.769 7.807,11.765 C7.789,11.727 7.763,11.641 7.742,11.607 L7.742,11.607 Z" id="path141" sketch:type="MSShapeGroup"></path>
            <path d="M16.134,3.374 L16.013,0.001 L0.421,0 L0.301,3.377 C-0.051,12.443 -0.182,15.837 8.096,19.82 L8.217,19.879 L8.34,19.82 C16.621,15.837 16.486,12.443 16.134,3.374 L16.134,3.374 Z M8.217,19.326 C1.801,16.215 0.687,13.586 0.687,7.817 C0.687,6.506 0.744,5.035 0.81,3.358 C0.81,3.358 0.896,0.952 0.913,0.496 L15.527,0.496 C15.542,0.952 15.627,3.356 15.627,3.356 C15.693,5.035 15.75,6.51 15.75,7.822 C15.749,13.585 14.634,16.214 8.217,19.326 L8.217,19.326 Z" id="path143" sketch:type="MSShapeGroup"></path>
            <path d="M1.777,13.075 L8.201,9.29 L1.173,5.165 C1.049,8.626 1.039,11.091 1.777,13.075 L1.777,13.075 Z" id="path145" sketch:type="MSShapeGroup"></path>
            <path d="M8.275,16.58 C8.346,16.555 8.45,16.549 8.511,16.6 C8.592,16.549 8.648,16.479 8.647,16.403 C8.49,16.359 8.302,16.425 8.275,16.58 L8.275,16.58 Z" id="path147" sketch:type="MSShapeGroup"></path>
            <path d="M8.246,17.81 C8.177,17.863 8.07,18.029 8.089,18.162 C8.101,18.228 8.154,18.26 8.154,18.26 C8.181,18.145 8.286,18.032 8.375,17.996 C8.395,17.927 8.297,17.81 8.246,17.81 L8.246,17.81 Z" id="path149" sketch:type="MSShapeGroup"></path>
            <path d="M7.767,11.196 C7.787,11.236 7.821,11.352 7.822,11.352 C7.847,11.3 7.885,11.228 7.909,11.171 C7.858,11.171 7.799,11.183 7.767,11.196 L7.767,11.196 Z" id="path151" sketch:type="MSShapeGroup"></path>
            <path d="M7.539,11.262 C7.539,11.262 7.596,11.35 7.612,11.388 L7.664,11.221 C7.634,11.221 7.57,11.245 7.539,11.262 L7.539,11.262 Z" id="path153" sketch:type="MSShapeGroup"></path>
            <path d="M7.991,11.162 C7.991,11.162 8.042,11.284 8.064,11.331 C8.084,11.281 8.136,11.213 8.162,11.163 C8.108,11.15 8.046,11.145 7.991,11.162 L7.991,11.162 Z" id="path155" sketch:type="MSShapeGroup"></path>
            <path d="M7.898,11.792 C7.95,11.802 7.998,11.817 8.046,11.808 C8.023,11.758 7.981,11.656 7.969,11.608 C7.957,11.657 7.911,11.755 7.898,11.792 L7.898,11.792 Z" id="path157" sketch:type="MSShapeGroup"></path>
            <path d="M7.835,17.039 C7.896,16.996 8.051,16.961 8.163,17.029 C8.197,17.011 8.247,16.898 8.217,16.834 C8.046,16.783 7.87,16.894 7.835,17.039 L7.835,17.039 Z" id="path159" sketch:type="MSShapeGroup"></path>
            <path d="M8.377,11.384 C8.313,11.372 8.225,11.378 8.148,11.392 C7.882,11.436 7.555,11.481 7.347,11.468 C7.18,11.456 6.942,11.404 6.94,11.171 C6.937,11.085 6.983,11.004 6.983,11.004 C6.89,11.024 6.772,11.145 6.785,11.297 C6.804,11.479 6.968,11.585 7.29,11.594 C7.558,11.605 7.913,11.522 8.141,11.469 C8.299,11.43 8.377,11.384 8.377,11.384 L8.377,11.384 Z" id="path161" sketch:type="MSShapeGroup"></path>
            <path d="M7.729,7.384 C7.998,7.384 8.169,7.583 8.169,7.583 L8.232,7.583 C8.347,7.458 8.485,7.384 8.666,7.384 C8.955,7.384 9.273,7.509 9.54,7.506 C9.79,7.503 9.951,7.377 9.974,7.362 L9.974,5.219 L9.924,5.256 C9.689,5.442 9.412,5.376 9.123,5.303 C8.803,5.223 8.477,5.15 8.199,5.431 C7.924,5.155 7.591,5.223 7.277,5.303 C6.983,5.376 6.71,5.441 6.472,5.256 L6.426,5.219 L6.426,7.359 C6.447,7.374 6.593,7.512 6.855,7.512 C7.121,7.512 7.45,7.384 7.729,7.384 L7.729,7.384 Z M8.227,5.475 C8.478,5.218 8.781,5.278 9.107,5.359 C9.384,5.426 9.67,5.489 9.921,5.328 L9.921,7.338 C9.695,7.498 9.412,7.46 9.125,7.393 C8.816,7.324 8.499,7.267 8.227,7.51 L8.227,5.475 L8.227,5.475 Z M6.472,7.334 L6.472,5.327 C6.723,5.489 7.015,5.425 7.29,5.358 C7.616,5.278 7.919,5.201 8.171,5.48 L8.171,7.512 C7.905,7.266 7.586,7.324 7.277,7.392 C6.983,7.46 6.712,7.52 6.472,7.334 L6.472,7.334 Z" id="path163" sketch:type="MSShapeGroup"></path>
            <path d="M7.289,6.392 C7.563,6.324 7.824,6.26 8.056,6.414 L8.056,6.344 C7.815,6.203 7.539,6.269 7.274,6.334 C7.031,6.396 6.797,6.453 6.593,6.362 L6.593,6.425 C6.811,6.51 7.053,6.449 7.289,6.392 L7.289,6.392 Z" id="path165" sketch:type="MSShapeGroup"></path>
            <path d="M7.289,5.861 C7.562,5.791 7.824,5.726 8.056,5.881 L8.056,5.811 C7.815,5.668 7.539,5.737 7.274,5.803 C7.031,5.866 6.797,5.919 6.593,5.832 L6.593,5.892 C6.811,5.977 7.053,5.917 7.289,5.861 L7.289,5.861 Z" id="path167" sketch:type="MSShapeGroup"></path>
            <path d="M8.056,6.951 L8.056,6.882 C7.815,6.741 7.539,6.805 7.274,6.875 C7.031,6.933 6.799,6.99 6.593,6.899 L6.593,6.96 C6.811,7.046 7.053,6.988 7.289,6.928 C7.563,6.86 7.824,6.794 8.056,6.951 L8.056,6.951 Z" id="path169" sketch:type="MSShapeGroup"></path>
            <path d="M9.107,6.392 C9.341,6.449 9.578,6.51 9.802,6.425 L9.802,6.362 C9.592,6.453 9.366,6.396 9.12,6.334 C8.856,6.269 8.579,6.203 8.339,6.344 L8.339,6.413 C8.566,6.26 8.833,6.324 9.107,6.392 L9.107,6.392 Z" id="path171" sketch:type="MSShapeGroup"></path>
            <path d="M9.107,5.861 C9.341,5.916 9.578,5.976 9.802,5.891 L9.802,5.831 C9.592,5.919 9.366,5.866 9.12,5.803 C8.857,5.737 8.579,5.668 8.339,5.811 L8.339,5.881 C8.566,5.726 8.833,5.791 9.107,5.861 L9.107,5.861 Z" id="path173" sketch:type="MSShapeGroup"></path>
            <path d="M9.107,6.928 C9.341,6.988 9.578,7.046 9.802,6.96 L9.802,6.899 C9.592,6.99 9.366,6.933 9.12,6.875 C8.856,6.805 8.579,6.742 8.339,6.882 L8.339,6.951 C8.566,6.794 8.833,6.86 9.107,6.928 L9.107,6.928 Z" id="path175" sketch:type="MSShapeGroup"></path>
        </g>
    </g>
</svg>