<?xml version="1.0" encoding="UTF-8" standalone="no"?>
<svg width="105px" height="20px" viewBox="0 0 107 20" version="1.1" xmlns="http://www.w3.org/2000/svg" xmlns:xlink="http://www.w3.org/1999/xlink" xmlns:sketch="http://www.bohemiancoding.com/sketch/ns">
    <title>logo-foundation</title>
    <description>Created with Sketch (http://www.bohemiancoding.com/sketch)</description>
    <defs></defs>
    <g id="Page-1" stroke="none" stroke-width="1" fill="none" fill-rule="evenodd" sketch:type="MSPage">
        <g id="logo-foundation" sketch:type="MSLayerGroup">
            <g id="Group" transform="translate(20.000000, 10.000000)" fill="#000000" sketch:type="MSShapeGroup">
                <path d="M-0.116,6.626 C-0.063,6.313 -0.032,5.806 -0.023,5.105 L0.306,5.105 C0.322,5.581 0.349,5.863 0.386,5.949 C0.424,6.037 0.514,6.129 0.657,6.226 C0.802,6.324 0.994,6.41 1.235,6.487 C1.478,6.564 1.712,6.602 1.936,6.602 C2.266,6.602 2.57,6.527 2.848,6.375 C3.125,6.223 3.327,6.023 3.455,5.775 C3.583,5.528 3.646,5.265 3.646,4.984 C3.646,4.771 3.615,4.583 3.55,4.426 C3.486,4.27 3.39,4.144 3.259,4.047 C3.129,3.951 2.967,3.883 2.775,3.845 C2.654,3.826 2.414,3.791 2.051,3.745 C1.689,3.697 1.381,3.646 1.126,3.592 C0.786,3.486 0.537,3.364 0.377,3.225 C0.217,3.085 0.087,2.901 -0.013,2.673 C-0.113,2.444 -0.162,2.199 -0.162,1.935 C-0.162,1.551 -0.06,1.189 0.14,0.848 C0.34,0.508 0.637,0.243 1.03,0.054 C1.424,-0.134 1.85,-0.229 2.31,-0.229 C2.587,-0.229 2.889,-0.192 3.218,-0.119 C3.545,-0.046 3.852,0.062 4.135,0.202 C4.089,0.408 4.057,0.6 4.037,0.777 C4.018,0.954 4.003,1.216 3.992,1.561 L3.665,1.561 C3.655,1.059 3.641,0.786 3.621,0.74 C3.539,0.622 3.428,0.516 3.287,0.422 C2.951,0.233 2.599,0.138 2.233,0.138 C1.759,0.138 1.38,0.281 1.099,0.57 C0.816,0.858 0.674,1.231 0.674,1.69 C0.674,1.966 0.725,2.181 0.826,2.333 C0.927,2.485 1.108,2.606 1.369,2.697 C1.549,2.76 1.843,2.818 2.25,2.873 C2.657,2.928 3.025,2.985 3.351,3.048 C3.659,3.14 3.884,3.248 4.032,3.373 C4.18,3.499 4.3,3.664 4.393,3.868 C4.488,4.071 4.535,4.311 4.535,4.585 C4.535,5.235 4.265,5.802 3.727,6.286 C3.189,6.768 2.492,7.01 1.637,7.01 C0.996,7.008 0.41,6.879 -0.116,6.626 L-0.116,6.626 Z" id="Shape"></path>
                <path d="M5.052,3.03 L5.052,2.824 C5.365,2.699 5.615,2.589 5.801,2.492 L5.801,1.004 C6.14,0.886 6.415,0.761 6.628,0.627 L6.744,0.725 C6.709,0.996 6.67,1.593 6.628,2.516 C6.889,2.52 7.045,2.522 7.097,2.522 C7.126,2.522 7.295,2.518 7.602,2.512 C7.771,2.508 7.898,2.502 7.983,2.493 L8.017,2.526 L7.914,2.981 C7.709,2.978 7.52,2.977 7.347,2.977 C7.174,2.977 6.934,2.978 6.628,2.981 L6.603,4.973 C6.593,5.458 6.597,5.749 6.613,5.844 C6.63,5.939 6.661,6.02 6.706,6.09 C6.752,6.161 6.81,6.217 6.884,6.259 C6.958,6.303 7.082,6.334 7.257,6.358 C7.391,6.358 7.498,6.353 7.582,6.34 C7.664,6.328 7.77,6.301 7.897,6.254 L7.956,6.445 C7.802,6.565 7.654,6.692 7.511,6.822 C7.387,6.868 7.272,6.897 7.163,6.913 C7.056,6.928 6.932,6.935 6.792,6.935 C6.619,6.935 6.482,6.916 6.379,6.875 C6.277,6.837 6.183,6.783 6.098,6.712 C6.014,6.642 5.943,6.553 5.887,6.445 C5.831,6.338 5.794,6.168 5.778,5.936 C5.782,5.714 5.788,5.47 5.799,5.207 C5.802,5.155 5.804,5.099 5.804,5.037 L5.804,3.005 L5.6,3.005 C5.437,3.004 5.255,3.013 5.052,3.03 L5.052,3.03 Z" id="Shape"></path>
                <path d="M10.407,6.866 L10.407,6.534 C10.666,6.53 10.826,6.52 10.889,6.502 C10.954,6.484 11.012,6.45 11.066,6.399 C11.12,6.347 11.198,6.216 11.299,6.005 C11.358,5.884 11.57,5.427 11.936,4.63 L13.161,1.87 C13.295,1.567 13.581,0.89 14.019,-0.156 L14.332,-0.156 L16.424,4.752 C16.765,5.548 16.99,6.048 17.102,6.249 C17.164,6.364 17.231,6.439 17.305,6.475 C17.377,6.511 17.544,6.531 17.802,6.535 L17.802,6.867 C17.292,6.836 16.936,6.819 16.734,6.819 L15.157,6.867 L15.157,6.535 C15.522,6.528 15.744,6.517 15.823,6.5 C15.9,6.484 15.953,6.46 15.981,6.429 C16.009,6.399 16.023,6.361 16.023,6.314 C16.023,6.243 16.001,6.15 15.955,6.038 L15.353,4.539 L12.52,4.539 L11.988,5.796 C11.893,6.022 11.845,6.186 11.845,6.292 C11.845,6.336 11.859,6.374 11.885,6.403 C11.92,6.447 11.976,6.474 12.051,6.49 C12.172,6.518 12.384,6.532 12.688,6.536 L12.688,6.868 C12.136,6.839 11.723,6.824 11.449,6.824 C11.13,6.822 10.784,6.836 10.407,6.866 L10.407,6.866 Z M12.687,4.121 L15.154,4.121 L13.935,1.176 L12.687,4.121 L12.687,4.121 Z" id="Shape"></path>
                <path d="M18.173,6.866 L18.173,6.587 L18.641,6.582 C18.71,6.579 18.763,6.567 18.801,6.546 C18.838,6.524 18.867,6.498 18.887,6.466 C18.923,6.4 18.947,6.285 18.955,6.118 C18.955,6.076 18.964,5.606 18.98,4.713 L18.98,4.13 C18.98,3.868 18.975,3.589 18.965,3.288 C18.954,3.096 18.94,2.981 18.918,2.945 C18.897,2.91 18.86,2.882 18.809,2.864 C18.756,2.846 18.544,2.839 18.172,2.842 L18.172,2.564 C18.831,2.472 19.312,2.353 19.615,2.206 C19.68,2.175 19.724,2.157 19.747,2.157 C19.77,2.157 19.789,2.167 19.802,2.182 C19.815,2.198 19.821,2.221 19.821,2.255 C19.821,2.278 19.82,2.304 19.816,2.333 C19.807,2.45 19.797,2.697 19.787,3.077 L20.697,2.298 C20.965,2.201 21.218,2.151 21.457,2.151 C21.721,2.151 21.971,2.205 22.208,2.313 C22.444,2.42 22.622,2.556 22.741,2.719 C22.86,2.882 22.938,3.087 22.978,3.335 C23,3.481 23.012,3.891 23.012,4.564 L23.012,5.429 C23.012,5.855 23.023,6.143 23.046,6.296 C23.062,6.394 23.087,6.461 23.122,6.499 C23.156,6.536 23.209,6.561 23.281,6.569 L23.803,6.584 L23.803,6.863 C23.484,6.839 23.218,6.83 23.006,6.83 C22.822,6.83 22.521,6.84 22.096,6.863 C22.142,6.056 22.164,5.548 22.164,5.337 L22.164,4.515 C22.164,4.002 22.144,3.666 22.105,3.507 C22.049,3.288 21.923,3.113 21.728,2.978 C21.532,2.844 21.296,2.778 21.018,2.778 C20.774,2.778 20.55,2.836 20.348,2.952 C20.146,3.067 20.001,3.202 19.915,3.352 C19.828,3.504 19.784,3.759 19.784,4.117 L19.784,4.711 C19.801,5.56 19.809,6.018 19.809,6.087 C19.815,6.248 19.835,6.37 19.868,6.443 C19.881,6.472 19.9,6.498 19.927,6.519 C19.953,6.54 19.994,6.557 20.049,6.57 C20.07,6.573 20.249,6.578 20.592,6.585 L20.592,6.864 C20.194,6.84 19.833,6.831 19.51,6.831 C19.24,6.833 18.794,6.842 18.173,6.866 L18.173,6.866 Z" id="Shape"></path>
                <path d="M27.192,0.22 L27.192,-0.059 C27.554,-0.098 27.86,-0.144 28.11,-0.198 C28.359,-0.252 28.603,-0.318 28.842,-0.396 L28.905,-0.352 C28.892,-0.075 28.877,0.461 28.861,1.254 L28.842,2.037 L28.842,5.1 C28.842,5.431 28.847,5.72 28.859,5.964 C28.871,6.205 28.891,6.352 28.921,6.399 C28.95,6.446 28.999,6.484 29.067,6.514 C29.135,6.543 29.339,6.572 29.679,6.601 L29.679,6.866 C29.281,6.842 29,6.833 28.837,6.833 C28.696,6.833 28.409,6.843 27.976,6.866 C27.986,6.641 27.993,6.338 28,5.957 C27.869,6.052 27.693,6.194 27.474,6.382 C27.253,6.57 27.081,6.726 26.958,6.847 C26.696,6.913 26.467,6.945 26.268,6.945 C25.9,6.945 25.56,6.853 25.25,6.672 C24.939,6.489 24.701,6.225 24.533,5.876 C24.365,5.528 24.28,5.139 24.28,4.705 C24.28,4.378 24.332,4.069 24.434,3.777 C24.538,3.485 24.667,3.26 24.824,3.099 C24.912,3.007 25.112,2.868 25.426,2.682 C25.739,2.496 25.992,2.362 26.187,2.279 C26.381,2.196 26.592,2.154 26.821,2.154 C27.026,2.154 27.228,2.18 27.425,2.23 C27.622,2.281 27.814,2.358 28,2.462 L28,1.175 C28,0.722 27.98,0.446 27.941,0.349 C27.927,0.313 27.903,0.286 27.868,0.27 C27.802,0.24 27.577,0.224 27.192,0.22 L27.192,0.22 Z M28,3.297 C27.777,3.053 27.546,2.875 27.302,2.762 C27.06,2.65 26.821,2.594 26.585,2.594 C26.318,2.594 26.071,2.662 25.847,2.8 C25.622,2.936 25.451,3.143 25.331,3.419 C25.211,3.696 25.152,4.028 25.152,4.416 C25.152,5.013 25.3,5.477 25.596,5.814 C25.893,6.149 26.25,6.317 26.667,6.317 C26.886,6.317 27.082,6.272 27.254,6.18 C27.428,6.088 27.579,5.955 27.71,5.779 C27.84,5.603 27.924,5.408 27.96,5.192 C27.987,5.05 28,4.697 28,4.132 L28,3.297 L28,3.297 Z" id="Shape"></path>
                <path d="M30.22,6.866 L30.22,6.587 C30.592,6.58 30.792,6.574 30.821,6.568 C30.878,6.558 30.919,6.543 30.947,6.522 C30.975,6.501 30.997,6.471 31.013,6.43 C31.046,6.357 31.066,6.238 31.073,6.079 C31.089,5.207 31.096,4.752 31.096,4.713 L31.096,4.13 C31.096,3.868 31.092,3.589 31.082,3.288 C31.075,3.096 31.061,2.981 31.04,2.945 C31.019,2.91 30.981,2.882 30.928,2.864 C30.874,2.846 30.66,2.839 30.289,2.842 L30.289,2.564 C30.948,2.472 31.43,2.353 31.732,2.206 C31.797,2.175 31.841,2.157 31.865,2.157 C31.887,2.157 31.905,2.167 31.919,2.182 C31.932,2.198 31.939,2.221 31.939,2.255 C31.939,2.278 31.937,2.304 31.933,2.333 C31.917,2.531 31.908,2.84 31.905,3.258 C32.051,3.088 32.187,2.92 32.31,2.754 C32.434,2.587 32.524,2.481 32.58,2.431 C32.678,2.346 32.791,2.279 32.918,2.228 C33.045,2.178 33.177,2.152 33.314,2.152 C33.452,2.152 33.587,2.182 33.721,2.241 L33.749,2.308 C33.7,2.743 33.673,3.124 33.666,3.454 L33.446,3.454 C33.371,3.297 33.284,3.182 33.184,3.111 C33.084,3.04 32.959,3.003 32.81,3.003 C32.558,3.003 32.345,3.107 32.168,3.314 C31.992,3.52 31.904,3.832 31.904,4.246 L31.904,4.75 C31.904,4.966 31.912,5.358 31.927,5.93 C31.931,6.133 31.94,6.261 31.952,6.317 C31.965,6.373 31.981,6.413 32.003,6.437 C32.024,6.461 32.06,6.482 32.108,6.498 C32.206,6.527 32.47,6.557 32.901,6.586 L32.901,6.865 C32.327,6.841 31.837,6.832 31.433,6.832 C31.016,6.833 30.612,6.842 30.22,6.866 L30.22,6.866 Z" id="Shape"></path>
                <path d="M38.105,6.106 L37.949,6.459 C37.724,6.601 37.559,6.692 37.455,6.737 C37.302,6.806 37.126,6.864 36.93,6.913 C36.732,6.961 36.524,6.983 36.306,6.983 C35.874,6.983 35.485,6.893 35.136,6.714 C34.786,6.534 34.515,6.266 34.321,5.908 C34.128,5.552 34.03,5.133 34.03,4.652 C34.03,4.277 34.082,3.94 34.184,3.637 C34.288,3.334 34.404,3.114 34.534,2.969 C34.63,2.865 34.776,2.745 34.974,2.61 C35.173,2.475 35.37,2.368 35.566,2.289 C35.825,2.183 36.103,2.129 36.404,2.129 C36.769,2.129 37.099,2.212 37.394,2.378 C37.69,2.544 37.906,2.772 38.043,3.059 C38.18,3.346 38.248,3.669 38.248,4.032 C38.248,4.124 38.239,4.236 38.224,4.365 C37.99,4.412 37.779,4.439 37.594,4.454 C37.241,4.479 36.89,4.493 36.538,4.493 L34.969,4.493 C34.976,4.96 35.057,5.34 35.211,5.628 C35.366,5.917 35.58,6.131 35.853,6.268 C36.125,6.406 36.409,6.475 36.702,6.475 C36.901,6.475 37.099,6.444 37.297,6.379 C37.494,6.313 37.738,6.196 38.029,6.023 L38.105,6.106 L38.105,6.106 Z M34.968,4.105 C35.06,4.115 35.233,4.125 35.488,4.135 C35.974,4.152 36.308,4.16 36.491,4.16 C36.925,4.16 37.211,4.151 37.347,4.135 C37.35,4.058 37.352,3.996 37.352,3.953 C37.352,3.438 37.248,3.059 37.039,2.819 C36.829,2.577 36.551,2.456 36.201,2.456 C35.833,2.456 35.536,2.588 35.31,2.852 C35.087,3.118 34.972,3.536 34.968,4.105 L34.968,4.105 Z" id="Shape"></path>
                <path d="M40.679,6.92 L40.473,6.238 L40.018,4.725 C39.888,4.286 39.755,3.864 39.62,3.456 C39.485,3.048 39.395,2.812 39.351,2.75 C39.307,2.688 39.253,2.644 39.19,2.617 C39.127,2.592 38.97,2.567 38.722,2.544 L38.722,2.266 C39.081,2.288 39.467,2.299 39.877,2.299 C40.315,2.299 40.722,2.288 41.1,2.266 L41.1,2.544 C40.797,2.547 40.6,2.56 40.508,2.578 C40.446,2.592 40.402,2.615 40.374,2.649 C40.347,2.684 40.332,2.724 40.332,2.769 C40.332,2.844 40.379,3.045 40.474,3.373 L40.929,4.949 C41.004,5.214 41.095,5.499 41.202,5.806 L41.574,4.954 L42.294,3.345 C42.464,2.965 42.624,2.579 42.774,2.192 L43.013,2.192 C43.229,2.788 43.375,3.182 43.453,3.375 L44.016,4.794 C44.208,5.27 44.353,5.628 44.451,5.869 L44.818,4.905 C45.055,4.284 45.241,3.757 45.375,3.318 C45.45,3.08 45.487,2.912 45.487,2.814 C45.487,2.722 45.456,2.656 45.392,2.615 C45.329,2.574 45.117,2.551 44.758,2.544 L44.758,2.266 C45.254,2.288 45.597,2.299 45.786,2.299 C46.015,2.299 46.325,2.288 46.718,2.266 L46.718,2.544 C46.529,2.547 46.402,2.565 46.336,2.596 C46.271,2.627 46.213,2.679 46.164,2.75 C46.079,2.86 45.947,3.122 45.768,3.533 L45.254,4.758 L45.034,5.307 C44.992,5.415 44.866,5.746 44.657,6.302 C44.565,6.536 44.497,6.742 44.451,6.92 L43.991,6.92 L43.757,6.308 L42.641,3.504 L42.171,4.516 L41.618,5.745 C41.491,6.029 41.388,6.27 41.31,6.471 L41.148,6.921 L40.679,6.921 L40.679,6.92 Z" id="Shape"></path>
                <path d="M47.388,5.388 L47.682,5.388 C47.685,5.577 47.695,5.727 47.71,5.839 C47.728,5.948 47.755,6.058 47.795,6.163 C47.834,6.268 47.894,6.359 47.976,6.433 C48.058,6.505 48.147,6.563 48.244,6.605 C48.34,6.644 48.438,6.672 48.538,6.684 C48.638,6.699 48.789,6.704 48.992,6.704 C49.325,6.704 49.598,6.617 49.813,6.441 C50.026,6.264 50.134,6.023 50.134,5.714 C50.134,5.578 50.1,5.457 50.033,5.353 C49.965,5.251 49.869,5.168 49.743,5.11 C49.617,5.05 49.347,4.973 48.931,4.88 C48.516,4.786 48.248,4.717 48.127,4.673 C47.944,4.606 47.799,4.523 47.69,4.424 C47.583,4.327 47.497,4.202 47.433,4.053 C47.369,3.904 47.337,3.739 47.337,3.563 C47.337,3.305 47.404,3.069 47.54,2.851 C47.676,2.635 47.889,2.458 48.18,2.324 C48.471,2.188 48.788,2.121 49.13,2.121 C49.337,2.121 49.575,2.148 49.847,2.206 C50.118,2.264 50.338,2.335 50.508,2.42 C50.486,2.781 50.469,3.149 50.459,3.526 L50.18,3.526 C50.164,3.288 50.145,3.13 50.124,3.056 C50.103,2.981 50.073,2.914 50.038,2.855 C50.002,2.796 49.939,2.734 49.851,2.667 C49.762,2.601 49.649,2.541 49.51,2.488 C49.371,2.436 49.199,2.411 48.997,2.411 C48.709,2.411 48.477,2.496 48.304,2.665 C48.128,2.834 48.041,3.034 48.041,3.262 C48.041,3.389 48.066,3.498 48.116,3.59 C48.167,3.681 48.235,3.756 48.32,3.813 C48.405,3.87 48.524,3.921 48.677,3.967 L49.491,4.167 C49.902,4.271 50.185,4.36 50.341,4.436 C50.496,4.512 50.621,4.628 50.716,4.787 C50.811,4.945 50.859,5.136 50.859,5.356 C50.859,5.796 50.677,6.181 50.312,6.508 C49.948,6.837 49.46,7.001 48.849,7.001 C48.569,7.001 48.195,6.957 47.727,6.872 C47.469,6.824 47.331,6.79 47.311,6.77 C47.297,6.76 47.291,6.744 47.291,6.721 C47.291,6.698 47.294,6.67 47.301,6.638 C47.33,6.497 47.35,6.361 47.36,6.227 C47.374,6.091 47.381,5.812 47.388,5.388 L47.388,5.388 Z" id="Shape"></path>
            </g>
            <g id="Group" transform="translate(74.000000, 0.000000)" fill="#000000" sketch:type="MSShapeGroup">
                <path d="M-0.143,19.251 L-0.143,0.449 L0.339,0.449 L0.339,19.251 L-0.17,19.251 L-0.143,19.251 Z" id="Shape"></path>
                <path d="M32.362,19.251 L32.362,0.449 L32.844,0.449 L32.844,19.251 L32.334,19.251 L32.362,19.251 Z" id="Shape"></path>
                <path d="M3.769,2.72 L3.769,2.565 C4.016,2.576 4.225,2.583 4.398,2.583 C4.519,2.583 4.738,2.579 5.053,2.571 C5.368,2.564 5.581,2.56 5.691,2.56 C5.81,2.56 5.919,2.561 6.017,2.564 C6.115,2.566 6.204,2.571 6.284,2.578 C6.243,2.715 6.218,2.962 6.206,3.315 L6.053,3.315 C6.038,3.119 6.019,2.967 5.993,2.862 C5.908,2.834 5.802,2.811 5.679,2.799 C5.554,2.784 5.41,2.777 5.246,2.777 C5.082,2.777 4.912,2.787 4.736,2.806 C4.726,2.894 4.72,2.976 4.716,3.052 C4.715,3.095 4.711,3.282 4.704,3.609 L4.704,4.148 C4.887,4.153 5.047,4.156 5.186,4.156 C5.392,4.156 5.557,4.145 5.68,4.125 C5.728,4.116 5.758,4.102 5.772,4.085 C5.786,4.066 5.8,3.997 5.817,3.879 L5.836,3.728 L5.991,3.728 L5.973,4.285 L5.991,4.882 L5.836,4.882 L5.82,4.727 C5.802,4.548 5.789,4.454 5.782,4.441 C5.768,4.419 5.737,4.401 5.688,4.39 C5.595,4.369 5.386,4.358 5.059,4.358 C4.945,4.358 4.826,4.362 4.704,4.368 L4.704,4.86 C4.704,5.081 4.707,5.296 4.714,5.506 C4.718,5.659 4.729,5.752 4.746,5.78 C4.766,5.809 4.796,5.831 4.839,5.844 C4.88,5.859 4.998,5.868 5.19,5.87 L5.19,6.026 C4.983,6.014 4.777,6.009 4.573,6.009 C4.389,6.009 4.122,6.015 3.769,6.026 L3.769,5.87 C3.959,5.867 4.076,5.858 4.119,5.844 C4.16,5.83 4.189,5.811 4.207,5.787 C4.226,5.755 4.236,5.676 4.242,5.551 C4.244,5.518 4.248,5.286 4.255,4.859 L4.255,3.732 C4.255,3.51 4.252,3.294 4.247,3.083 C4.242,2.93 4.229,2.839 4.212,2.81 C4.193,2.783 4.163,2.761 4.121,2.747 C4.08,2.732 3.962,2.724 3.769,2.72" id="Shape"></path>
                <path d="M6.556,4.318 C6.556,4.06 6.594,3.824 6.671,3.606 C6.748,3.387 6.877,3.192 7.056,3.019 C7.234,2.844 7.437,2.713 7.662,2.624 C7.888,2.535 8.146,2.491 8.436,2.491 C8.706,2.491 8.949,2.529 9.167,2.604 C9.388,2.679 9.566,2.78 9.707,2.904 C9.848,3.028 9.959,3.164 10.04,3.312 C10.102,3.422 10.15,3.552 10.187,3.703 C10.223,3.851 10.242,4.012 10.242,4.182 C10.242,4.73 10.057,5.184 9.691,5.549 C9.321,5.913 8.858,6.095 8.296,6.095 C8.041,6.095 7.804,6.053 7.582,5.97 C7.361,5.888 7.174,5.765 7.02,5.601 C6.869,5.438 6.752,5.24 6.672,5.007 C6.596,4.775 6.556,4.544 6.556,4.318 M7.063,4.115 C7.063,4.269 7.078,4.426 7.109,4.586 C7.14,4.745 7.18,4.882 7.226,4.998 C7.304,5.192 7.407,5.356 7.533,5.489 C7.659,5.621 7.799,5.718 7.954,5.781 C8.108,5.844 8.282,5.875 8.47,5.875 C8.732,5.875 8.96,5.811 9.153,5.685 C9.346,5.557 9.49,5.377 9.586,5.145 C9.681,4.914 9.729,4.647 9.729,4.344 C9.729,4.086 9.696,3.849 9.627,3.631 C9.584,3.497 9.527,3.376 9.459,3.268 C9.389,3.161 9.304,3.067 9.208,2.986 C9.111,2.906 8.986,2.839 8.832,2.784 C8.676,2.726 8.509,2.7 8.33,2.7 C8.073,2.7 7.846,2.757 7.651,2.872 C7.456,2.987 7.309,3.154 7.211,3.373 C7.113,3.591 7.063,3.838 7.063,4.115" id="Shape"></path>
                <path d="M10.435,2.72 L10.435,2.565 C10.699,2.576 10.946,2.583 11.172,2.583 C11.402,2.583 11.633,2.576 11.86,2.565 L11.86,2.72 C11.671,2.724 11.552,2.732 11.511,2.746 C11.468,2.76 11.441,2.778 11.426,2.803 C11.405,2.835 11.392,2.914 11.387,3.039 C11.384,3.072 11.38,3.303 11.375,3.731 L11.375,4.631 C11.375,4.98 11.397,5.21 11.442,5.321 C11.486,5.432 11.558,5.524 11.655,5.596 C11.73,5.652 11.831,5.697 11.958,5.73 C12.084,5.763 12.225,5.78 12.382,5.78 C12.564,5.78 12.725,5.757 12.867,5.714 C13.008,5.669 13.114,5.614 13.184,5.551 C13.255,5.486 13.308,5.414 13.343,5.335 C13.378,5.255 13.401,5.147 13.417,5.008 C13.432,4.867 13.44,4.693 13.44,4.481 L13.44,3.731 C13.44,3.509 13.436,3.293 13.428,3.082 C13.424,2.929 13.414,2.838 13.395,2.809 C13.377,2.782 13.347,2.76 13.305,2.746 C13.263,2.731 13.146,2.724 12.954,2.72 L12.954,2.565 C13.223,2.576 13.418,2.583 13.542,2.583 C13.653,2.583 13.855,2.576 14.146,2.565 L14.146,2.72 C13.955,2.724 13.836,2.732 13.795,2.746 C13.754,2.76 13.726,2.778 13.709,2.803 C13.689,2.836 13.678,2.914 13.673,3.039 C13.67,3.072 13.667,3.303 13.662,3.731 L13.662,4.545 C13.662,4.946 13.634,5.228 13.579,5.386 C13.521,5.546 13.42,5.686 13.27,5.807 C13.161,5.9 13.018,5.97 12.841,6.021 C12.665,6.071 12.469,6.096 12.254,6.096 C12.005,6.096 11.787,6.066 11.604,6.006 C11.42,5.947 11.281,5.87 11.185,5.773 C11.09,5.677 11.024,5.578 10.988,5.478 C10.942,5.344 10.92,5.121 10.92,4.808 L10.92,3.732 C10.92,3.51 10.917,3.295 10.913,3.083 C10.907,2.93 10.895,2.839 10.879,2.81 C10.859,2.783 10.828,2.761 10.787,2.747 C10.746,2.732 10.628,2.724 10.435,2.72" id="Shape"></path>
                <path d="M14.382,6.026 L14.382,5.87 C14.554,5.869 14.666,5.855 14.721,5.831 C14.743,5.821 14.76,5.807 14.77,5.785 C14.787,5.753 14.797,5.668 14.804,5.53 C14.812,5.315 14.817,5.131 14.817,4.974 L14.817,2.994 C14.817,2.939 14.813,2.905 14.806,2.889 C14.793,2.86 14.764,2.826 14.719,2.786 C14.69,2.76 14.656,2.742 14.618,2.736 C14.579,2.728 14.494,2.723 14.361,2.721 L14.361,2.564 C14.644,2.571 14.82,2.575 14.892,2.575 C15.014,2.575 15.136,2.571 15.258,2.564 C15.394,2.745 15.494,2.878 15.557,2.962 L16.055,3.583 L16.783,4.467 C17.014,4.749 17.203,4.971 17.343,5.134 C17.432,5.24 17.507,5.325 17.569,5.386 L17.569,3.612 C17.569,3.454 17.564,3.267 17.551,3.053 C17.545,2.918 17.535,2.835 17.519,2.802 C17.508,2.782 17.492,2.767 17.468,2.757 C17.416,2.734 17.303,2.722 17.136,2.72 L17.136,2.564 C17.326,2.571 17.52,2.575 17.717,2.575 C17.903,2.575 18.071,2.571 18.221,2.564 L18.221,2.72 C18.051,2.722 17.94,2.735 17.886,2.757 C17.862,2.767 17.847,2.783 17.836,2.806 C17.821,2.836 17.809,2.922 17.802,3.061 C17.794,3.275 17.79,3.46 17.79,3.614 L17.79,4.785 C17.79,5.021 17.794,5.464 17.802,6.111 L17.551,6.038 L17.493,6.026 C17.483,6.023 17.473,6.017 17.466,6.01 C17.455,6.002 17.423,5.97 17.374,5.912 C17.238,5.758 17.14,5.64 17.077,5.561 L16.762,5.16 L15.033,3.073 L15.033,4.963 C15.033,5.124 15.04,5.314 15.052,5.531 C15.058,5.668 15.069,5.752 15.083,5.783 C15.094,5.805 15.111,5.822 15.134,5.832 C15.188,5.854 15.299,5.868 15.468,5.869 L15.468,6.025 C15.325,6.013 15.167,6.008 14.995,6.008 C14.807,6.008 14.603,6.014 14.382,6.026" id="Shape"></path>
                <path d="M18.614,6.026 L18.614,5.909 C18.706,5.855 18.784,5.806 18.847,5.762 C18.857,5.652 18.865,5.497 18.871,5.302 C18.882,4.968 18.888,4.737 18.888,4.607 L18.888,3.614 C18.888,3.455 18.884,3.268 18.877,3.055 C18.87,2.92 18.857,2.837 18.841,2.804 C18.831,2.782 18.813,2.768 18.791,2.758 C18.735,2.735 18.624,2.723 18.454,2.721 L18.454,2.565 C18.69,2.573 18.9,2.577 19.083,2.577 C19.222,2.577 19.414,2.574 19.655,2.569 C19.896,2.563 20.084,2.559 20.217,2.559 C20.613,2.559 20.935,2.611 21.178,2.712 C21.42,2.813 21.624,2.983 21.794,3.222 C21.962,3.461 22.046,3.751 22.046,4.096 C22.046,4.343 22.006,4.574 21.929,4.79 C21.849,5.007 21.739,5.195 21.602,5.356 C21.467,5.518 21.322,5.645 21.166,5.74 C21.01,5.834 20.846,5.905 20.675,5.953 C20.503,6.001 20.268,6.025 19.968,6.025 C19.869,6.025 19.737,6.022 19.568,6.016 C19.347,6.01 19.203,6.007 19.133,6.007 C19.036,6.008 18.861,6.014 18.614,6.026 M19.367,5.76 C19.546,5.79 19.733,5.806 19.932,5.806 C20.136,5.806 20.316,5.788 20.474,5.752 C20.63,5.717 20.765,5.666 20.875,5.601 C20.986,5.537 21.093,5.441 21.198,5.315 C21.302,5.188 21.383,5.026 21.438,4.828 C21.494,4.631 21.522,4.428 21.522,4.217 C21.522,3.914 21.468,3.655 21.36,3.439 C21.251,3.222 21.089,3.056 20.871,2.942 C20.654,2.826 20.354,2.768 19.974,2.768 C19.776,2.768 19.573,2.784 19.367,2.814 C19.361,2.894 19.357,3.035 19.354,3.238 L19.344,3.591 L19.344,4.563 L19.352,5.318 C19.353,5.432 19.357,5.579 19.367,5.76" id="Shape"></path>
                <path d="M22.426,6.026 L22.426,5.87 C22.595,5.869 22.707,5.855 22.761,5.831 C22.784,5.821 22.8,5.807 22.809,5.785 C22.828,5.753 22.837,5.668 22.844,5.529 C22.853,5.315 22.857,5.13 22.857,4.974 L22.857,3.731 C22.857,3.51 22.855,3.293 22.849,3.084 C22.847,2.93 22.835,2.839 22.816,2.811 C22.798,2.782 22.768,2.761 22.725,2.747 C22.684,2.733 22.568,2.725 22.372,2.722 L22.372,2.564 L23.068,2.58 L23.803,2.567 C24.156,2.562 24.41,2.559 24.571,2.559 C24.731,2.559 24.884,2.568 25.028,2.586 C25.001,2.679 24.982,2.759 24.972,2.827 C24.97,2.842 24.956,3.011 24.929,3.334 L24.777,3.334 C24.779,3.169 24.766,3.018 24.745,2.882 C24.656,2.844 24.556,2.819 24.449,2.806 C24.267,2.784 24.087,2.771 23.903,2.771 C23.863,2.771 23.777,2.776 23.642,2.782 C23.509,2.788 23.411,2.795 23.353,2.799 C23.347,2.98 23.342,3.148 23.337,3.304 L23.326,4.125 C23.517,4.137 23.694,4.143 23.85,4.143 C24.043,4.143 24.21,4.133 24.345,4.116 C24.4,4.11 24.431,4.097 24.446,4.077 C24.461,4.057 24.473,3.99 24.483,3.877 L24.501,3.707 L24.646,3.707 L24.646,3.753 L24.634,4.26 L24.646,4.828 L24.476,4.828 L24.468,4.662 C24.466,4.542 24.454,4.467 24.436,4.438 C24.416,4.409 24.383,4.387 24.329,4.376 C24.237,4.356 24.059,4.347 23.792,4.347 C23.682,4.347 23.528,4.351 23.327,4.359 C23.319,4.522 23.315,4.763 23.315,5.084 C23.315,5.385 23.319,5.612 23.327,5.769 C23.56,5.787 23.824,5.796 24.115,5.796 C24.319,5.796 24.469,5.789 24.555,5.776 C24.641,5.763 24.723,5.741 24.798,5.711 C24.817,5.66 24.836,5.593 24.856,5.506 C24.893,5.362 24.918,5.253 24.926,5.18 L25.091,5.18 C25.049,5.508 25.028,5.78 25.028,5.996 C24.888,6.017 24.717,6.028 24.516,6.028 L23.062,6.011 C23.042,6.008 22.83,6.014 22.426,6.026" id="Shape"></path>
                <path d="M25.525,6.026 L25.525,5.909 C25.618,5.855 25.695,5.806 25.76,5.762 C25.768,5.652 25.778,5.497 25.781,5.302 C25.797,4.968 25.8,4.737 25.8,4.607 L25.8,3.614 C25.8,3.455 25.797,3.268 25.789,3.055 C25.78,2.92 25.768,2.837 25.754,2.804 C25.742,2.782 25.723,2.768 25.701,2.758 C25.647,2.735 25.534,2.723 25.366,2.721 L25.366,2.565 C25.602,2.573 25.811,2.577 25.995,2.577 C26.134,2.577 26.324,2.574 26.566,2.569 C26.807,2.563 26.996,2.559 27.128,2.559 C27.524,2.559 27.846,2.611 28.09,2.712 C28.331,2.813 28.536,2.983 28.705,3.222 C28.875,3.461 28.959,3.751 28.959,4.096 C28.959,4.343 28.918,4.574 28.839,4.79 C28.759,5.007 28.65,5.195 28.514,5.356 C28.377,5.518 28.234,5.645 28.077,5.74 C27.921,5.834 27.757,5.905 27.587,5.953 C27.415,6.001 27.178,6.025 26.881,6.025 C26.78,6.025 26.648,6.022 26.478,6.016 C26.259,6.01 26.115,6.007 26.047,6.007 C25.947,6.008 25.773,6.014 25.525,6.026 M26.279,5.76 C26.456,5.79 26.644,5.806 26.844,5.806 C27.047,5.806 27.228,5.788 27.384,5.752 C27.542,5.717 27.674,5.666 27.787,5.601 C27.896,5.537 28.006,5.441 28.11,5.315 C28.214,5.188 28.295,5.026 28.349,4.828 C28.407,4.631 28.433,4.428 28.433,4.217 C28.433,3.914 28.378,3.655 28.272,3.439 C28.164,3.222 28.002,3.056 27.784,2.942 C27.565,2.826 27.264,2.768 26.885,2.768 C26.688,2.768 26.485,2.784 26.279,2.814 C26.273,2.894 26.268,3.035 26.265,3.238 L26.256,3.591 L26.256,4.563 L26.263,5.318 C26.263,5.432 26.27,5.579 26.279,5.76" id="Shape"></path>
                <path d="M4.288,10.344 L4.183,10.315 L4.123,9.835 L4.183,9.776 C4.6,9.655 5.053,9.489 5.545,9.279 C6.271,8.97 6.736,8.764 6.942,8.659 L7.094,8.717 C7.031,10.504 7,11.53 7,11.794 L7,13.963 C7,14.829 7.01,15.486 7.029,15.929 C7.041,16.191 7.073,16.356 7.126,16.426 C7.179,16.491 7.257,16.54 7.36,16.57 C7.464,16.6 7.801,16.627 8.375,16.649 L8.375,17.006 C7.388,16.979 6.771,16.964 6.521,16.964 C6.334,16.964 5.672,16.979 4.539,17.006 L4.539,16.649 C5.131,16.614 5.474,16.586 5.564,16.564 C5.657,16.543 5.724,16.511 5.769,16.467 C5.814,16.426 5.846,16.365 5.867,16.286 C5.898,16.164 5.925,15.816 5.949,15.243 C5.972,14.667 5.983,14.231 5.983,13.934 L5.983,11.63 C5.983,10.692 5.981,10.102 5.977,9.863 C5.977,9.759 5.963,9.692 5.936,9.666 C5.92,9.649 5.899,9.642 5.873,9.642 C5.837,9.642 5.748,9.673 5.603,9.736 C4.94,10.033 4.501,10.235 4.288,10.344" id="Shape"></path>
                <path d="M11.857,17.006 L11.857,16.66 C12.466,16.648 12.823,16.633 12.928,16.611 C13.033,16.59 13.107,16.555 13.15,16.508 C13.205,16.441 13.244,16.323 13.267,16.152 C13.302,15.864 13.32,15.564 13.32,15.257 L13.32,14.823 L12.039,14.823 C11.333,14.823 10.704,14.838 10.15,14.865 L10.05,14.549 C10.351,13.983 10.751,13.291 11.255,12.471 C11.988,11.276 12.719,10.126 13.447,9.022 C13.491,9.003 13.596,8.958 13.763,8.887 C14.06,8.77 14.229,8.703 14.272,8.689 L14.418,8.759 C14.391,9.227 14.373,9.803 14.365,10.49 C14.345,11.936 14.336,12.729 14.336,12.871 L14.336,14.081 C14.866,14.077 15.302,14.063 15.641,14.04 C15.628,14.236 15.623,14.366 15.623,14.428 L15.641,14.866 C15.244,14.839 14.908,14.824 14.635,14.824 L14.336,14.824 L14.336,15.217 C14.336,15.871 14.365,16.272 14.424,16.414 C14.448,16.474 14.494,16.522 14.565,16.557 C14.712,16.622 15.072,16.659 15.641,16.661 L15.641,17.007 C14.799,16.98 14.151,16.965 13.7,16.965 C13.213,16.964 12.598,16.979 11.857,17.006 M10.822,14.082 L13.32,14.082 L13.373,9.923 C12.948,10.535 12.468,11.283 11.931,12.169 C11.395,13.054 11.024,13.691 10.822,14.082" id="Shape"></path>
                <path d="M17.464,10.344 L17.36,10.315 L17.3,9.835 L17.36,9.776 C17.777,9.655 18.231,9.489 18.723,9.279 C19.447,8.97 19.913,8.764 20.12,8.659 L20.272,8.717 C20.209,10.504 20.178,11.53 20.178,11.794 L20.178,13.963 C20.178,14.829 20.189,15.486 20.207,15.929 C20.219,16.191 20.249,16.356 20.304,16.426 C20.356,16.491 20.435,16.54 20.537,16.57 C20.64,16.6 20.978,16.627 21.553,16.649 L21.553,17.006 C20.565,16.979 19.948,16.964 19.697,16.964 C19.511,16.964 18.851,16.979 17.716,17.006 L17.716,16.649 C18.309,16.614 18.651,16.586 18.741,16.564 C18.834,16.543 18.901,16.511 18.945,16.467 C18.992,16.426 19.024,16.365 19.044,16.286 C19.074,16.164 19.102,15.816 19.125,15.243 C19.149,14.667 19.16,14.231 19.16,13.934 L19.16,11.63 C19.16,10.692 19.159,10.102 19.154,9.863 C19.154,9.759 19.14,9.692 19.113,9.666 C19.098,9.649 19.076,9.642 19.049,9.642 C19.014,9.642 18.925,9.673 18.779,9.736 C18.117,10.033 17.678,10.235 17.464,10.344" id="Shape"></path>
                <path d="M23.765,16.824 C23.713,16.493 23.666,16.238 23.625,16.058 C23.599,15.946 23.508,15.624 23.355,15.094 L23.675,14.97 C23.92,15.624 24.2,16.07 24.519,16.301 C24.836,16.533 25.253,16.649 25.763,16.649 C26.137,16.649 26.453,16.574 26.71,16.426 C26.964,16.279 27.171,16.044 27.331,15.719 C27.491,15.395 27.572,15.031 27.572,14.624 C27.572,14.082 27.432,13.667 27.156,13.376 C26.881,13.085 26.509,12.942 26.04,12.942 C25.884,12.942 25.739,12.957 25.604,12.988 C25.47,13.019 25.27,13.09 25.005,13.199 L24.936,13.139 L25.064,12.502 C25.377,12.521 25.585,12.53 25.689,12.53 C26.164,12.53 26.532,12.364 26.791,12.031 C27.05,11.697 27.179,11.32 27.179,10.899 C27.179,10.52 27.041,10.199 26.767,9.934 C26.493,9.668 26.145,9.537 25.724,9.537 C25.471,9.537 25.227,9.588 24.994,9.688 C24.762,9.79 24.556,9.925 24.375,10.097 C24.305,10.245 24.193,10.525 24.042,10.934 L23.681,10.934 L24.039,9.53 C24.301,9.258 24.546,9.066 24.777,8.957 C25.155,8.785 25.567,8.7 26.014,8.7 C26.675,8.7 27.197,8.873 27.58,9.222 C27.964,9.568 28.156,9.989 28.156,10.484 C28.156,10.82 28.055,11.15 27.859,11.476 C27.661,11.8 27.325,12.132 26.85,12.473 C27.29,12.531 27.637,12.632 27.892,12.773 C28.146,12.917 28.341,13.118 28.477,13.377 C28.614,13.637 28.681,13.927 28.681,14.245 C28.681,14.71 28.535,15.166 28.244,15.613 C27.951,16.062 27.54,16.432 27.008,16.726 C26.478,17.018 25.904,17.164 25.283,17.164 C25.011,17.164 24.762,17.14 24.534,17.088 C24.311,17.037 24.055,16.95 23.765,16.824" id="Shape"></path>
            </g>
            <g id="Group" transform="translate(20.000000, 1.000000)" fill="#000000" sketch:type="MSShapeGroup">
                <path d="M-0.317,0.173 L-0.317,-0.075 C0.104,-0.058 0.495,-0.049 0.857,-0.049 C1.223,-0.049 1.588,-0.058 1.949,-0.075 L1.949,0.173 C1.646,0.178 1.462,0.192 1.394,0.213 C1.328,0.234 1.283,0.266 1.259,0.304 C1.226,0.356 1.205,0.482 1.197,0.68 C1.194,0.731 1.187,1.098 1.177,1.779 L1.177,3.212 C1.177,3.768 1.213,4.133 1.284,4.31 C1.354,4.487 1.467,4.633 1.622,4.749 C1.741,4.837 1.901,4.906 2.103,4.96 C2.304,5.013 2.53,5.039 2.777,5.039 C3.067,5.039 3.324,5.004 3.548,4.933 C3.772,4.862 3.941,4.776 4.054,4.673 C4.165,4.571 4.25,4.457 4.305,4.331 C4.361,4.204 4.401,4.031 4.425,3.81 C4.45,3.589 4.462,3.31 4.462,2.971 L4.462,1.779 C4.462,1.428 4.456,1.086 4.443,0.75 C4.437,0.505 4.421,0.359 4.39,0.314 C4.36,0.269 4.312,0.235 4.245,0.213 C4.179,0.192 3.993,0.178 3.689,0.173 L3.689,-0.075 C4.115,-0.058 4.425,-0.049 4.622,-0.049 C4.8,-0.049 5.121,-0.058 5.585,-0.075 L5.585,0.173 C5.278,0.178 5.093,0.192 5.027,0.213 C4.961,0.234 4.917,0.266 4.89,0.304 C4.86,0.356 4.84,0.482 4.832,0.68 C4.829,0.731 4.824,1.098 4.816,1.78 L4.816,3.076 C4.816,3.714 4.771,4.16 4.682,4.412 C4.593,4.665 4.43,4.889 4.192,5.082 C4.014,5.226 3.785,5.339 3.504,5.419 C3.225,5.499 2.913,5.539 2.572,5.539 C2.175,5.539 1.83,5.492 1.538,5.397 C1.246,5.303 1.023,5.179 0.871,5.025 C0.719,4.873 0.614,4.715 0.558,4.555 C0.486,4.343 0.45,3.989 0.45,3.491 L0.45,1.78 C0.45,1.428 0.446,1.086 0.438,0.75 C0.43,0.505 0.412,0.359 0.382,0.314 C0.352,0.269 0.305,0.235 0.238,0.213 C0.177,0.192 -0.009,0.178 -0.317,0.173 L-0.317,0.173 Z" id="Shape"></path>
                <path d="M5.846,5.426 L5.846,5.206 L6.216,5.202 C6.272,5.199 6.313,5.189 6.344,5.173 C6.373,5.156 6.396,5.135 6.411,5.11 C6.44,5.057 6.458,4.967 6.466,4.835 C6.466,4.802 6.473,4.431 6.486,3.723 L6.486,3.26 C6.486,3.054 6.482,2.831 6.474,2.594 C6.466,2.442 6.453,2.351 6.437,2.323 C6.42,2.295 6.392,2.273 6.35,2.259 C6.309,2.245 6.14,2.239 5.846,2.242 L5.846,2.021 C6.368,1.949 6.749,1.854 6.99,1.738 C7.042,1.713 7.076,1.699 7.094,1.699 C7.113,1.699 7.127,1.706 7.137,1.719 C7.148,1.732 7.153,1.751 7.153,1.777 C7.153,1.795 7.152,1.816 7.149,1.84 C7.142,1.933 7.133,2.129 7.126,2.428 L7.848,1.813 C8.059,1.735 8.259,1.697 8.448,1.697 C8.657,1.697 8.856,1.739 9.043,1.824 C9.229,1.91 9.371,2.017 9.466,2.146 C9.56,2.275 9.622,2.438 9.654,2.634 C9.671,2.75 9.681,3.074 9.681,3.607 L9.681,4.292 C9.681,4.628 9.69,4.857 9.707,4.977 C9.721,5.055 9.74,5.109 9.768,5.138 C9.795,5.168 9.837,5.186 9.894,5.195 L10.308,5.207 L10.308,5.428 C10.055,5.41 9.844,5.401 9.677,5.401 C9.533,5.401 9.292,5.41 8.956,5.428 C8.992,4.789 9.01,4.387 9.01,4.219 L9.01,3.569 C9.01,3.163 8.994,2.897 8.964,2.77 C8.92,2.597 8.82,2.457 8.665,2.352 C8.51,2.245 8.323,2.193 8.103,2.193 C7.91,2.193 7.733,2.239 7.573,2.331 C7.412,2.423 7.299,2.528 7.23,2.648 C7.161,2.768 7.126,2.97 7.126,3.254 L7.126,3.723 C7.14,4.395 7.147,4.758 7.147,4.812 C7.152,4.941 7.168,5.036 7.193,5.094 C7.204,5.119 7.219,5.138 7.24,5.155 C7.26,5.172 7.293,5.185 7.338,5.196 C7.354,5.199 7.496,5.203 7.767,5.208 L7.767,5.429 C7.452,5.411 7.166,5.402 6.912,5.402 C6.691,5.399 6.337,5.408 5.846,5.426 L5.846,5.426 Z" id="Shape"></path>
                <path d="M10.53,2.238 L10.53,2.017 C11.031,1.96 11.453,1.852 11.794,1.692 L11.879,1.753 C11.859,2.304 11.849,2.724 11.849,3.017 L11.849,3.721 C11.862,4.393 11.868,4.756 11.871,4.81 C11.874,4.939 11.888,5.034 11.914,5.092 C11.927,5.117 11.943,5.136 11.965,5.153 C11.985,5.17 12.016,5.183 12.058,5.194 C12.073,5.197 12.216,5.201 12.488,5.206 L12.488,5.427 C12.095,5.409 11.782,5.4 11.547,5.4 C11.34,5.4 11.002,5.409 10.531,5.427 L10.531,5.206 L10.902,5.202 C10.956,5.199 10.999,5.189 11.029,5.173 C11.058,5.156 11.081,5.135 11.097,5.11 C11.124,5.057 11.143,4.967 11.151,4.835 C11.151,4.802 11.158,4.431 11.172,3.723 L11.172,3.04 C11.172,2.655 11.158,2.427 11.133,2.355 C11.116,2.316 11.089,2.287 11.049,2.268 C11.007,2.248 10.835,2.238 10.53,2.238 L10.53,2.238 Z M11.475,-0.029 C11.597,-0.029 11.7,0.014 11.784,0.099 C11.867,0.184 11.91,0.287 11.91,0.409 C11.91,0.527 11.867,0.629 11.782,0.715 C11.697,0.8 11.594,0.843 11.475,0.843 C11.354,0.843 11.251,0.8 11.165,0.715 C11.08,0.629 11.037,0.527 11.037,0.409 C11.037,0.287 11.08,0.183 11.165,0.099 C11.252,0.014 11.354,-0.029 11.475,-0.029 L11.475,-0.029 Z" id="Shape"></path>
                <path d="M14.64,5.465 C14.539,5.201 14.469,5.024 14.431,4.934 L14.113,4.194 L13.32,2.346 C13.268,2.23 13.223,2.153 13.188,2.113 C13.152,2.074 13.112,2.05 13.068,2.04 C13.032,2.029 12.936,2.021 12.781,2.017 L12.781,1.785 C13.21,1.803 13.522,1.812 13.719,1.812 C13.936,1.812 14.234,1.802 14.611,1.785 L14.611,2.017 C14.332,2.025 14.168,2.042 14.119,2.071 C14.07,2.099 14.045,2.138 14.045,2.187 C14.045,2.265 14.097,2.431 14.2,2.687 L14.673,3.864 L14.786,4.127 C14.912,4.434 14.999,4.64 15.046,4.742 L15.432,3.864 C15.457,3.812 15.574,3.522 15.785,2.994 C15.909,2.685 15.992,2.451 16.033,2.289 C16.044,2.244 16.05,2.206 16.05,2.173 C16.05,2.129 16.033,2.098 15.999,2.079 C15.936,2.046 15.771,2.025 15.503,2.017 L15.503,1.785 C15.888,1.803 16.134,1.812 16.242,1.812 C16.333,1.812 16.58,1.802 16.982,1.785 L16.982,2.017 C16.822,2.025 16.715,2.043 16.663,2.073 C16.61,2.103 16.559,2.164 16.506,2.258 C16.471,2.32 16.33,2.599 16.088,3.095 L15.716,3.889 C15.652,4.031 15.428,4.557 15.045,5.466 L14.64,5.466 L14.64,5.465 Z" id="Shape"></path>
                <path d="M20.572,4.825 L20.448,5.104 C20.269,5.215 20.139,5.288 20.056,5.325 C19.935,5.38 19.795,5.426 19.639,5.463 C19.484,5.501 19.319,5.52 19.146,5.52 C18.805,5.52 18.497,5.449 18.22,5.306 C17.944,5.164 17.729,4.953 17.574,4.669 C17.421,4.386 17.344,4.056 17.344,3.675 C17.344,3.379 17.385,3.111 17.466,2.872 C17.548,2.633 17.64,2.456 17.743,2.343 C17.818,2.26 17.934,2.165 18.092,2.058 C18.25,1.951 18.406,1.867 18.561,1.805 C18.765,1.72 18.986,1.677 19.223,1.677 C19.512,1.677 19.774,1.743 20.008,1.874 C20.241,2.006 20.412,2.186 20.521,2.412 C20.629,2.639 20.684,2.897 20.684,3.183 C20.684,3.255 20.677,3.343 20.664,3.446 C20.478,3.482 20.311,3.507 20.165,3.516 C19.887,3.537 19.607,3.547 19.33,3.547 L18.088,3.547 C18.094,3.917 18.157,4.217 18.279,4.446 C18.401,4.675 18.571,4.844 18.787,4.953 C19.003,5.06 19.226,5.116 19.459,5.116 C19.616,5.116 19.773,5.09 19.93,5.039 C20.086,4.987 20.28,4.895 20.509,4.759 L20.572,4.825 L20.572,4.825 Z M18.089,3.241 C18.161,3.249 18.298,3.257 18.499,3.264 C18.884,3.277 19.148,3.284 19.294,3.284 C19.637,3.284 19.863,3.277 19.972,3.264 C19.974,3.201 19.976,3.155 19.976,3.12 C19.976,2.713 19.893,2.412 19.728,2.222 C19.563,2.031 19.342,1.936 19.066,1.936 C18.774,1.936 18.539,2.041 18.36,2.249 C18.181,2.459 18.091,2.79 18.089,3.241 L18.089,3.241 Z" id="Shape"></path>
                <path d="M21.13,5.426 L21.13,5.206 C21.424,5.201 21.582,5.195 21.606,5.19 C21.651,5.182 21.683,5.169 21.706,5.153 C21.727,5.136 21.745,5.113 21.759,5.082 C21.784,5.022 21.8,4.93 21.805,4.803 C21.819,4.114 21.825,3.753 21.825,3.722 L21.825,3.26 C21.825,3.054 21.822,2.831 21.813,2.594 C21.808,2.442 21.797,2.351 21.781,2.323 C21.763,2.295 21.734,2.273 21.692,2.259 C21.648,2.245 21.48,2.239 21.186,2.242 L21.186,2.021 C21.707,1.949 22.088,1.854 22.328,1.738 C22.38,1.713 22.415,1.699 22.432,1.699 C22.451,1.699 22.464,1.706 22.475,1.719 C22.485,1.732 22.491,1.751 22.491,1.777 C22.491,1.795 22.489,1.816 22.487,1.84 C22.473,1.997 22.466,2.241 22.464,2.571 C22.58,2.437 22.688,2.304 22.785,2.173 C22.884,2.041 22.954,1.955 22.999,1.917 C23.076,1.85 23.165,1.796 23.266,1.756 C23.367,1.716 23.472,1.696 23.579,1.696 C23.688,1.696 23.795,1.719 23.901,1.765 L23.924,1.819 C23.885,2.163 23.863,2.465 23.858,2.725 L23.684,2.725 C23.624,2.602 23.555,2.511 23.476,2.454 C23.398,2.397 23.298,2.368 23.18,2.368 C22.981,2.368 22.812,2.451 22.672,2.614 C22.532,2.779 22.463,3.025 22.463,3.352 L22.463,3.751 C22.463,3.922 22.47,4.232 22.483,4.685 C22.485,4.845 22.492,4.947 22.502,4.992 C22.513,5.036 22.526,5.067 22.543,5.087 C22.561,5.105 22.588,5.122 22.626,5.135 C22.704,5.158 22.913,5.182 23.254,5.205 L23.254,5.426 C22.8,5.408 22.412,5.399 22.092,5.399 C21.759,5.399 21.44,5.408 21.13,5.426 L21.13,5.426 Z" id="Shape"></path>
                <path d="M24.438,4.255 L24.67,4.255 C24.673,4.406 24.68,4.525 24.693,4.611 C24.706,4.699 24.728,4.785 24.759,4.869 C24.79,4.953 24.838,5.024 24.903,5.083 C24.968,5.141 25.039,5.185 25.115,5.218 C25.191,5.251 25.269,5.273 25.348,5.283 C25.426,5.293 25.546,5.299 25.706,5.299 C25.971,5.299 26.186,5.23 26.356,5.089 C26.526,4.949 26.611,4.759 26.611,4.517 C26.611,4.409 26.584,4.312 26.531,4.23 C26.478,4.147 26.402,4.082 26.302,4.036 C26.201,3.99 25.988,3.93 25.659,3.854 C25.33,3.78 25.118,3.725 25.022,3.692 C24.877,3.637 24.762,3.572 24.676,3.495 C24.591,3.417 24.523,3.318 24.473,3.199 C24.422,3.081 24.397,2.952 24.397,2.812 C24.397,2.608 24.451,2.42 24.558,2.249 C24.665,2.077 24.834,1.937 25.065,1.831 C25.295,1.724 25.545,1.67 25.817,1.67 C25.98,1.67 26.17,1.692 26.383,1.737 C26.598,1.782 26.773,1.839 26.907,1.906 C26.89,2.192 26.876,2.484 26.868,2.782 L26.65,2.782 C26.637,2.593 26.622,2.469 26.605,2.41 C26.588,2.35 26.566,2.297 26.538,2.25 C26.509,2.203 26.46,2.153 26.389,2.1 C26.32,2.047 26.23,2 26.119,1.959 C26.01,1.917 25.874,1.896 25.714,1.896 C25.485,1.896 25.303,1.963 25.164,2.097 C25.025,2.232 24.956,2.389 24.956,2.57 C24.956,2.671 24.977,2.758 25.017,2.83 C25.058,2.902 25.111,2.961 25.178,3.006 C25.245,3.052 25.339,3.093 25.461,3.128 L26.106,3.287 C26.431,3.37 26.656,3.44 26.779,3.5 C26.902,3.56 27.001,3.652 27.076,3.777 C27.151,3.902 27.189,4.052 27.189,4.228 C27.189,4.577 27.044,4.881 26.756,5.14 C26.467,5.4 26.081,5.53 25.598,5.53 C25.375,5.53 25.08,5.496 24.709,5.429 C24.505,5.39 24.396,5.363 24.38,5.348 C24.368,5.339 24.364,5.326 24.364,5.309 C24.364,5.291 24.366,5.269 24.372,5.243 C24.395,5.132 24.41,5.023 24.418,4.918 C24.426,4.812 24.433,4.591 24.438,4.255 L24.438,4.255 Z" id="Shape"></path>
                <path d="M27.618,2.238 L27.618,2.017 C28.12,1.96 28.541,1.852 28.882,1.692 L28.967,1.753 C28.946,2.304 28.937,2.724 28.937,3.017 L28.937,3.721 C28.95,4.393 28.958,4.756 28.959,4.81 C28.962,4.939 28.976,5.034 29.002,5.092 C29.015,5.117 29.031,5.136 29.053,5.153 C29.073,5.17 29.104,5.183 29.146,5.194 C29.162,5.197 29.304,5.201 29.576,5.206 L29.576,5.427 C29.183,5.409 28.87,5.4 28.635,5.4 C28.429,5.4 28.09,5.409 27.619,5.427 L27.619,5.206 L27.99,5.202 C28.045,5.199 28.087,5.189 28.117,5.173 C28.146,5.156 28.17,5.135 28.185,5.11 C28.213,5.057 28.232,4.967 28.239,4.835 C28.239,4.802 28.246,4.431 28.26,3.723 L28.26,3.04 C28.26,2.655 28.246,2.427 28.221,2.355 C28.205,2.316 28.178,2.287 28.138,2.268 C28.096,2.248 27.923,2.238 27.618,2.238 L27.618,2.238 Z M28.564,-0.029 C28.685,-0.029 28.788,0.014 28.872,0.099 C28.956,0.184 28.998,0.287 28.998,0.409 C28.998,0.527 28.955,0.629 28.87,0.715 C28.785,0.8 28.682,0.843 28.564,0.843 C28.442,0.843 28.339,0.8 28.253,0.715 C28.168,0.629 28.125,0.527 28.125,0.409 C28.125,0.287 28.168,0.183 28.253,0.099 C28.339,0.014 28.442,-0.029 28.564,-0.029 L28.564,-0.029 Z" id="Shape"></path>
                <path d="M29.931,2.389 L29.931,2.226 C30.18,2.128 30.377,2.041 30.524,1.962 L30.524,0.784 C30.793,0.691 31.011,0.592 31.178,0.486 L31.272,0.563 C31.244,0.778 31.212,1.251 31.178,1.981 C31.385,1.984 31.509,1.985 31.55,1.985 C31.573,1.985 31.706,1.982 31.949,1.977 C32.084,1.975 32.184,1.969 32.252,1.961 L32.278,1.988 L32.197,2.348 C32.034,2.345 31.884,2.344 31.748,2.344 C31.61,2.344 31.421,2.345 31.178,2.348 L31.16,3.927 C31.152,4.311 31.155,4.541 31.168,4.615 C31.181,4.69 31.205,4.756 31.241,4.811 C31.277,4.867 31.324,4.912 31.382,4.944 C31.44,4.978 31.538,5.005 31.677,5.022 C31.782,5.022 31.868,5.018 31.934,5.008 C31.999,4.999 32.082,4.977 32.183,4.941 L32.23,5.091 C32.108,5.188 31.991,5.286 31.877,5.39 C31.779,5.426 31.688,5.451 31.602,5.461 C31.518,5.473 31.419,5.478 31.309,5.478 C31.172,5.478 31.063,5.463 30.982,5.432 C30.901,5.401 30.827,5.358 30.759,5.302 C30.693,5.246 30.636,5.176 30.592,5.09 C30.547,5.005 30.519,4.871 30.505,4.688 C30.508,4.512 30.513,4.32 30.521,4.111 C30.524,4.069 30.525,4.024 30.525,3.975 L30.525,2.369 L30.367,2.369 C30.236,2.369 30.091,2.376 29.931,2.389 L29.931,2.389 Z" id="Shape"></path>
                <path d="M32.515,7.499 L32.713,6.903 L32.806,6.903 C32.855,6.943 32.897,6.976 32.932,7.001 C32.966,7.026 33.004,7.044 33.044,7.058 C33.084,7.071 33.143,7.076 33.22,7.076 C33.3,7.076 33.379,7.059 33.454,7.024 C33.53,6.99 33.601,6.934 33.667,6.859 C33.733,6.785 33.812,6.656 33.902,6.472 C34.039,6.195 34.161,5.913 34.269,5.626 C34.187,5.394 34.086,5.133 33.97,4.844 L33.353,3.319 C33.169,2.865 33.02,2.517 32.904,2.275 C32.858,2.18 32.808,2.117 32.754,2.084 C32.701,2.052 32.583,2.025 32.4,2.005 L32.4,1.785 C32.72,1.803 33.038,1.812 33.35,1.812 C33.655,1.812 33.949,1.802 34.231,1.785 L34.231,2.006 C33.965,2.024 33.812,2.04 33.774,2.056 C33.707,2.081 33.673,2.127 33.673,2.195 C33.673,2.236 33.694,2.32 33.738,2.448 C33.839,2.766 33.934,3.038 34.025,3.264 L34.27,3.869 C34.416,4.231 34.541,4.525 34.642,4.75 L34.846,4.293 C34.926,4.11 35.067,3.768 35.268,3.261 C35.469,2.753 35.587,2.441 35.621,2.322 C35.632,2.281 35.637,2.245 35.637,2.214 C35.637,2.165 35.616,2.127 35.576,2.1 C35.536,2.073 35.381,2.046 35.109,2.021 L35.109,1.785 C35.409,1.803 35.674,1.812 35.904,1.812 C36.136,1.812 36.366,1.802 36.592,1.785 L36.554,2.017 C36.422,2.022 36.321,2.05 36.248,2.102 C36.176,2.154 36.066,2.328 35.92,2.623 C35.774,2.918 35.504,3.5 35.108,4.368 L34.215,6.46 C34.071,6.798 33.945,7.04 33.84,7.185 C33.734,7.33 33.608,7.439 33.46,7.514 C33.313,7.588 33.151,7.626 32.977,7.626 C32.891,7.626 32.814,7.616 32.747,7.597 C32.677,7.579 32.6,7.545 32.515,7.499 L32.515,7.499 Z" id="Shape"></path>
                <path d="M39.001,3.642 C39.001,3.063 39.186,2.59 39.553,2.225 C39.921,1.859 40.393,1.676 40.969,1.676 C41.512,1.676 41.953,1.846 42.294,2.188 C42.635,2.529 42.806,2.969 42.806,3.51 C42.806,3.887 42.718,4.233 42.542,4.545 C42.366,4.858 42.118,5.103 41.798,5.28 C41.478,5.457 41.125,5.546 40.74,5.546 C40.441,5.546 40.187,5.495 39.979,5.395 C39.771,5.293 39.602,5.167 39.473,5.015 C39.344,4.862 39.245,4.705 39.179,4.545 C39.06,4.264 39.001,3.963 39.001,3.642 L39.001,3.642 Z M39.733,3.355 C39.733,3.673 39.786,3.997 39.892,4.325 C39.997,4.653 40.151,4.893 40.351,5.045 C40.551,5.196 40.768,5.272 41.003,5.272 C41.303,5.272 41.553,5.154 41.755,4.915 C41.956,4.677 42.057,4.311 42.057,3.817 C42.057,3.405 41.997,3.05 41.877,2.752 C41.757,2.453 41.604,2.243 41.418,2.12 C41.231,1.997 41.026,1.936 40.802,1.936 C40.485,1.936 40.227,2.05 40.029,2.281 C39.832,2.511 39.733,2.87 39.733,3.355 L39.733,3.355 Z" id="Shape"></path>
                <path d="M43.363,2.397 L43.363,2.24 C43.564,2.155 43.742,2.065 43.897,1.971 L43.897,1.738 C43.897,1.403 43.918,1.166 43.961,1.027 C44.003,0.889 44.063,0.766 44.141,0.657 C44.257,0.497 44.441,0.294 44.691,0.046 C44.859,-0.117 44.983,-0.219 45.064,-0.261 C45.169,-0.315 45.293,-0.342 45.435,-0.342 C45.536,-0.342 45.639,-0.325 45.745,-0.292 L45.762,0.352 L45.672,0.387 C45.592,0.32 45.513,0.271 45.434,0.239 C45.355,0.208 45.263,0.192 45.158,0.192 C45.017,0.192 44.904,0.22 44.816,0.277 C44.729,0.335 44.665,0.416 44.625,0.522 C44.585,0.627 44.565,0.843 44.565,1.169 L44.565,1.97 L44.975,1.97 C45.181,1.97 45.385,1.961 45.583,1.943 L45.621,1.967 L45.545,2.368 C45.319,2.358 45.154,2.353 45.049,2.353 C44.94,2.353 44.778,2.358 44.565,2.368 L44.565,3.754 C44.565,3.925 44.571,4.234 44.584,4.687 C44.587,4.847 44.594,4.949 44.604,4.993 C44.615,5.037 44.628,5.068 44.645,5.088 C44.662,5.106 44.69,5.123 44.728,5.137 C44.806,5.16 45.014,5.183 45.356,5.206 L45.356,5.427 C44.754,5.409 44.387,5.4 44.255,5.4 C44.137,5.4 43.805,5.409 43.26,5.427 L43.26,5.206 L43.63,5.202 C43.685,5.199 43.727,5.189 43.756,5.173 C43.786,5.156 43.81,5.135 43.824,5.11 C43.853,5.057 43.871,4.967 43.88,4.835 C43.88,4.802 43.886,4.432 43.899,3.725 L43.899,2.369 L43.363,2.397 L43.363,2.397 Z" id="Shape"></path>
            </g>
            <path d="M0.913,0.496 C0.896,0.952 0.81,3.358 0.81,3.358 C0.744,5.035 0.687,6.506 0.687,7.817 C0.687,13.585 1.801,16.214 8.217,19.326 C14.634,16.215 15.749,13.586 15.749,7.822 C15.749,6.51 15.692,5.035 15.626,3.356 C15.626,3.356 15.542,0.952 15.526,0.496 L0.913,0.496 L0.913,0.496 Z" id="Shape" fill="#FFFFFF" sketch:type="MSShapeGroup"></path>
            <g id="Group" transform="translate(1.000000, 1.000000)" fill="#EE3124" sketch:type="MSShapeGroup">
                <path d="M14.074,-0.009 L0.38,-0.009 L0.235,3.811 L14.231,3.811 L14.074,-0.009 L14.074,-0.009 Z M7.68,3.553 L7.666,3.52 C7.666,3.52 7.768,3.476 7.904,3.393 C8.17,3.23 8.389,2.894 8.389,2.574 C8.389,2.01 7.864,1.551 7.2,1.551 C6.543,1.551 5.999,2.009 5.999,2.574 C5.999,2.894 6.222,3.23 6.484,3.392 C6.622,3.475 6.724,3.52 6.724,3.52 L6.711,3.553 C6.711,3.553 6.597,3.511 6.459,3.424 C5.997,3.143 5.751,2.68 5.751,2.263 C5.751,1.554 6.41,0.977 7.198,0.977 C7.99,0.977 8.641,1.554 8.641,2.263 C8.641,2.68 8.391,3.143 7.931,3.425 C7.794,3.511 7.68,3.553 7.68,3.553 L7.68,3.553 Z M8.017,3.48 L8.009,3.444 C8.436,3.164 8.716,2.707 8.716,2.262 C8.716,1.512 8.032,0.901 7.199,0.901 C6.37,0.901 5.675,1.512 5.675,2.262 C5.675,2.707 5.953,3.164 6.382,3.444 L6.372,3.48 C5.744,3.191 5.289,2.6 5.289,1.983 C5.289,1.098 6.171,0.362 7.202,0.362 C8.234,0.362 9.101,1.097 9.101,1.983 C9.1,2.6 8.648,3.191 8.017,3.48 L8.017,3.48 Z" id="Shape"></path>
                <path d="M8.974,4.219 L8.974,6.362 C8.951,6.377 8.791,6.503 8.54,6.506 C8.274,6.509 7.955,6.384 7.666,6.384 C7.485,6.384 7.347,6.458 7.232,6.583 L7.169,6.583 C7.169,6.583 6.998,6.384 6.729,6.384 C6.45,6.384 6.121,6.512 5.855,6.512 C5.592,6.512 5.447,6.374 5.426,6.359 L5.426,4.219 C5.37,4.327 5.25,4.441 5.155,4.442 L5.155,6.56 C5.263,6.646 5.397,6.679 5.541,6.683 C5.892,6.695 6.309,6.534 6.674,6.534 C6.873,6.534 7.059,6.588 7.199,6.741 C7.345,6.587 7.521,6.533 7.72,6.533 C8.083,6.533 8.507,6.694 8.856,6.682 C8.999,6.678 9.13,6.645 9.241,6.559 L9.241,4.442 C9.143,4.452 9.012,4.333 8.974,4.219 L8.974,4.219 Z" id="Shape"></path>
            </g>
            <path d="M13.515,14.02 C13.475,13.883 13.351,13.768 13.231,13.76 C13.254,13.784 13.276,13.805 13.297,13.827 C13.424,13.972 13.348,14.297 13.218,14.375 C13.272,14.182 13.123,14.027 12.926,14.08 C12.999,14.124 13.045,14.246 13.012,14.362 C12.98,14.474 12.854,14.577 12.731,14.554 C12.563,14.521 12.657,14.3 12.651,14.16 C12.645,13.963 12.519,13.869 12.424,13.823 C12.413,13.817 12.423,13.804 12.423,13.804 C12.488,13.821 12.552,13.849 12.643,13.847 C12.766,13.847 12.865,13.779 12.904,13.724 C12.954,13.661 12.973,13.556 12.946,13.48 C12.924,13.512 12.896,13.554 12.866,13.582 C12.794,13.648 12.653,13.658 12.552,13.607 C12.447,13.556 12.346,13.449 12.265,13.347 C11.994,12.977 11.667,12.604 11.328,12.381 C11.121,12.243 10.844,12.132 10.578,12.124 C10.419,12.12 10.258,12.153 10.121,12.241 C9.937,12.358 9.825,12.561 9.802,12.754 C9.774,12.983 9.854,13.207 9.992,13.382 C10.176,13.618 10.434,13.792 10.681,13.948 C10.864,14.065 11.043,14.19 11.213,14.325 C11.345,14.429 11.459,14.552 11.495,14.723 C11.532,14.882 11.463,14.993 11.399,15.046 C11.285,15.139 10.982,15.131 10.872,15.036 C10.8,14.49 10.423,14.25 9.932,14.132 C9.699,14.076 9.451,14.018 9.256,13.908 C9.08,13.813 8.921,13.717 8.842,13.486 C8.813,13.494 8.729,13.478 8.668,13.451 C8.522,13.398 8.474,13.299 8.448,13.216 C8.532,13.299 8.606,13.353 8.825,13.365 C8.956,13.369 9.132,13.303 9.2,13.194 C9.065,13.211 8.955,13.203 8.879,13.157 C8.804,13.11 8.729,13.005 8.744,12.891 C8.874,13.028 9.118,13.075 9.336,12.969 C9.366,12.955 9.466,12.881 9.472,12.844 C9.354,12.858 9.248,12.837 9.179,12.778 C9.108,12.721 9.063,12.633 9.065,12.511 C9.139,12.589 9.276,12.63 9.407,12.624 C9.538,12.618 9.663,12.565 9.707,12.457 C9.609,12.476 9.511,12.453 9.431,12.405 C9.359,12.36 9.304,12.286 9.3,12.194 C9.17,12.184 9.069,12.128 9.007,12.055 C8.934,12.159 8.909,12.403 8.922,12.569 C8.715,12.561 8.541,12.419 8.509,12.222 C8.419,12.323 8.405,12.576 8.451,12.717 C8.204,12.7 8.054,12.569 7.996,12.363 C7.961,12.437 7.943,12.537 7.944,12.646 C7.946,12.676 7.951,12.738 7.959,12.781 C7.959,12.781 7.898,12.777 7.812,12.717 C7.702,12.645 7.605,12.459 7.612,12.37 C7.676,12.469 7.757,12.553 7.85,12.613 C7.841,12.388 7.943,12.214 8.064,12.127 C8.067,12.37 8.146,12.512 8.339,12.563 C8.307,12.42 8.348,12.304 8.382,12.214 C8.416,12.133 8.505,12.018 8.556,11.983 C8.557,12.181 8.649,12.378 8.818,12.424 C8.811,12.27 8.842,12.094 8.899,11.983 C8.926,11.933 8.96,11.877 9.005,11.853 C9.053,12.011 9.252,12.089 9.435,12.095 C9.927,12.111 9.952,11.706 9.952,11.706 C9.886,11.737 9.797,11.792 9.633,11.792 C9.432,11.792 9.375,11.632 9.375,11.632 C9.492,11.678 9.726,11.619 9.835,11.533 C9.904,11.479 9.99,11.363 9.998,11.262 C10.006,11.165 9.983,11.075 9.916,11.029 C9.835,11.241 9.37,11.353 9.208,11.14 C9.384,11.153 9.548,11.075 9.607,10.963 C9.625,10.935 9.641,10.848 9.627,10.81 C9.627,10.81 9.499,10.893 9.33,10.9 C9.148,10.908 9.049,10.833 9.049,10.833 C9.17,10.825 9.403,10.701 9.386,10.552 C9.386,10.552 9.311,10.579 9.259,10.583 C9.125,10.597 8.956,10.58 8.867,10.514 C8.872,10.493 8.92,10.148 8.881,10.105 C8.728,10.175 8.586,10.288 8.5,10.434 C8.409,10.419 8.301,10.406 8.175,10.409 C8.049,10.411 7.908,10.434 7.841,10.468 C7.811,10.484 7.755,10.522 7.725,10.562 C7.691,10.603 7.681,10.653 7.643,10.677 C7.554,10.727 7.411,10.747 7.294,10.756 C7.205,10.766 7.087,10.751 7.059,10.821 C7.03,10.896 7.089,10.938 7.116,10.973 C7.134,10.999 7.154,11.041 7.168,11.076 C7.181,11.11 7.192,11.164 7.211,11.191 C7.325,11.376 7.441,11.294 7.568,11.254 C7.709,11.204 7.899,11.157 8.066,11.157 C8.167,11.157 8.274,11.17 8.358,11.225 C8.433,11.271 8.473,11.377 8.468,11.466 C8.466,11.548 8.431,11.63 8.367,11.684 C8.335,11.714 8.205,11.788 8.032,11.788 C7.82,11.788 7.609,11.691 7.424,11.687 C7.369,11.683 7.313,11.702 7.295,11.723 C7.235,11.78 7.235,11.858 7.288,11.928 C7.474,11.924 7.467,12.136 7.439,12.231 C7.35,12.467 7.164,12.479 7.076,12.471 C6.967,12.457 6.857,12.412 6.808,12.356 C6.718,12.624 6.901,12.838 7.143,12.852 C6.975,12.991 6.641,12.881 6.609,12.698 C6.584,12.725 6.564,12.784 6.561,12.837 C6.54,13.165 6.805,13.296 7.137,13.283 C6.943,13.363 6.696,13.323 6.469,13.257 C6.263,13.197 6.15,13.144 6.008,13.072 C5.833,12.989 5.65,12.838 5.559,12.68 C5.53,12.624 5.497,12.528 5.501,12.455 C5.514,12.206 5.803,12.173 5.764,11.886 C5.564,11.825 5.363,11.923 5.303,12.117 C5.285,12.17 5.28,12.227 5.288,12.298 C5.215,12.233 5.14,12.152 5.064,12.084 C5,12.028 4.933,11.994 4.859,12 C4.852,12 4.84,12.059 4.788,12.126 C4.77,12.145 4.689,12.215 4.689,12.215 C4.693,12.261 4.734,12.312 4.752,12.323 C4.815,12.383 4.937,12.413 4.989,12.495 C5.005,12.519 5.011,12.55 5.007,12.591 C4.953,12.608 4.902,12.606 4.858,12.594 C4.703,12.558 4.588,12.421 4.41,12.411 C4.337,12.405 4.262,12.419 4.227,12.47 C4.275,12.533 4.265,12.661 4.221,12.736 C4.249,12.799 4.309,12.825 4.374,12.833 C4.477,12.844 4.598,12.825 4.694,12.841 C4.746,12.842 4.791,12.858 4.821,12.893 C4.761,12.934 4.716,12.963 4.651,12.978 C4.51,13.008 4.341,12.906 4.22,12.971 C4.22,12.971 4.248,13.028 4.228,13.094 C4.213,13.155 4.18,13.21 4.18,13.21 C4.243,13.268 4.309,13.288 4.373,13.292 C4.502,13.292 4.637,13.214 4.764,13.168 C4.826,13.145 4.883,13.128 4.939,13.128 C4.836,13.264 4.672,13.391 4.48,13.41 C4.456,13.412 4.421,13.412 4.421,13.412 C4.423,13.433 4.469,13.455 4.484,13.463 C4.527,13.486 4.598,13.506 4.656,13.508 C4.913,13.519 5.122,13.432 5.3,13.33 C5.22,13.49 5.076,13.58 4.893,13.637 C4.912,13.661 4.956,13.667 4.991,13.673 C5.385,13.737 5.74,13.471 5.74,13.471 C5.732,13.547 5.675,13.659 5.549,13.737 C5.483,13.774 5.413,13.784 5.413,13.784 C5.466,13.841 5.612,13.848 5.71,13.837 C5.824,13.83 5.959,13.782 6.07,13.759 C6.25,13.728 6.361,13.736 6.469,13.71 C6.348,13.759 6.221,13.808 6.092,13.857 C5.934,13.914 5.79,13.99 5.652,14.066 C5.504,14.144 5.38,14.25 5.243,14.316 C5.097,14.392 4.926,14.358 4.858,14.242 C4.826,14.181 4.827,14.12 4.813,14.058 C4.78,13.912 4.671,13.787 4.505,13.791 C4.491,13.916 4.383,13.998 4.332,14.037 C4.353,14.267 4.651,14.263 4.684,14.5 C4.658,14.515 4.601,14.521 4.544,14.505 C4.423,14.469 4.342,14.422 4.229,14.42 C4.163,14.418 4.102,14.429 4.045,14.469 C4.068,14.492 4.084,14.517 4.096,14.559 C4.115,14.629 4.091,14.711 4.058,14.762 C4.102,14.808 4.159,14.824 4.222,14.824 C4.331,14.824 4.455,14.784 4.551,14.776 C4.607,14.772 4.676,14.772 4.729,14.799 C4.668,14.946 4.451,14.936 4.285,14.976 C4.207,14.996 4.142,15.032 4.109,15.098 C4.222,15.133 4.3,15.217 4.293,15.371 C4.35,15.373 4.398,15.361 4.443,15.345 C4.584,15.281 4.668,15.128 4.809,15.078 C4.805,15.236 4.707,15.324 4.685,15.463 C4.677,15.505 4.679,15.55 4.69,15.605 C4.69,15.605 4.76,15.574 4.835,15.574 C4.901,15.576 4.936,15.597 4.974,15.621 C5.013,15.584 5.036,15.533 5.05,15.479 C5.073,15.374 5.065,15.252 5.069,15.149 C5.08,15.094 5.076,15.069 5.119,15.061 C5.314,15.061 5.523,14.954 5.599,14.871 C5.568,14.992 5.526,15.062 5.455,15.143 C5.432,15.17 5.379,15.221 5.357,15.241 C5.477,15.259 5.599,15.221 5.696,15.159 C5.897,15.028 6.068,14.858 6.154,14.645 C6.177,14.736 6.171,14.848 6.139,14.936 C6.117,15.002 6.076,15.065 6.048,15.098 C6.081,15.106 6.146,15.092 6.184,15.075 C6.332,15.011 6.439,14.884 6.518,14.721 C6.558,14.639 6.598,14.53 6.613,14.429 C6.697,14.517 6.715,14.665 6.652,14.828 C6.638,14.865 6.614,14.899 6.608,14.908 C6.706,14.899 6.782,14.83 6.85,14.766 C6.965,14.656 7.066,14.437 7.042,14.242 C7.151,14.338 7.181,14.596 7.113,14.741 C7.21,14.715 7.293,14.652 7.36,14.579 C7.44,14.496 7.488,14.429 7.535,14.272 C7.581,14.122 7.55,14.015 7.55,14.015 C7.571,14.034 7.601,14.085 7.611,14.133 C7.656,14.324 7.601,14.542 7.441,14.695 C7.415,14.72 7.362,14.761 7.355,14.765 C7.462,14.909 7.652,14.969 7.863,14.978 C8.219,14.998 8.429,14.849 8.761,14.813 C8.625,14.876 8.498,14.958 8.415,14.994 C8.222,15.084 8.048,15.142 7.895,15.137 C7.809,15.133 7.706,15.135 7.613,15.088 C7.548,15.17 7.535,15.265 7.548,15.401 C7.568,15.58 7.667,15.697 7.623,15.88 C7.53,16.23 6.917,16.175 6.689,16.007 C6.503,15.87 6.52,15.544 6.353,15.404 C6.303,15.361 6.24,15.339 6.149,15.339 C6.117,15.444 6.045,15.509 5.961,15.566 C5.972,15.632 6.005,15.679 6.044,15.72 C6.11,15.792 6.208,15.837 6.265,15.923 C6.288,15.956 6.308,15.999 6.312,16.05 C6.25,16.054 6.197,16.04 6.151,16.017 C6.025,15.956 5.931,15.835 5.789,15.8 C5.737,15.792 5.681,15.794 5.611,15.808 C5.636,15.88 5.594,15.999 5.527,16.05 C5.579,16.193 5.722,16.273 5.907,16.282 C6.01,16.288 6.129,16.278 6.19,16.354 C6.045,16.508 5.818,16.356 5.62,16.356 C5.567,16.356 5.516,16.368 5.467,16.399 C5.474,16.411 5.499,16.459 5.503,16.506 C5.51,16.574 5.462,16.67 5.462,16.67 C5.469,16.727 5.583,16.756 5.647,16.764 C5.691,16.77 5.741,16.766 5.783,16.758 C5.93,16.735 6.09,16.629 6.239,16.643 C6.261,16.643 6.301,16.655 6.309,16.674 C6.261,16.791 6.141,16.807 6.069,16.885 C6.045,16.912 6.024,16.949 6.016,17 C6.139,16.969 6.182,17.018 6.242,17.096 C6.299,17.102 6.348,17.086 6.386,17.057 C6.463,16.998 6.516,16.875 6.566,16.817 C6.584,16.792 6.602,16.758 6.645,16.766 C6.668,16.77 6.696,16.821 6.725,16.858 C6.829,16.989 7.012,17.094 7.238,17.067 C7.303,17.061 7.372,17.028 7.416,16.979 C7.27,16.954 7.167,16.854 7.119,16.719 C7.246,16.813 7.469,16.893 7.652,16.862 C7.675,16.858 7.732,16.837 7.74,16.817 C7.598,16.78 7.483,16.635 7.536,16.463 C7.601,16.57 7.734,16.67 7.893,16.684 C7.943,16.69 8.003,16.69 8.046,16.657 C8.023,16.634 7.992,16.606 7.975,16.569 C7.956,16.53 7.945,16.475 7.95,16.422 C7.969,16.295 8.148,16.258 8.262,16.248 C8.412,16.228 8.574,16.264 8.708,16.213 C8.804,16.172 8.89,16.1 8.88,15.998 C8.831,16.033 8.764,16.064 8.679,16.057 C8.55,16.045 8.509,15.938 8.509,15.858 C8.509,15.706 8.602,15.628 8.787,15.616 C8.871,15.61 8.997,15.632 9.073,15.663 C9.071,15.661 9.194,15.708 9.194,15.706 C9.142,15.601 9.201,15.415 9.235,15.33 C9.3,15.186 9.37,15.103 9.407,14.97 C9.415,14.996 9.419,15.026 9.415,15.057 C9.402,15.207 9.339,15.297 9.324,15.469 C9.314,15.56 9.349,15.687 9.427,15.749 C9.575,15.866 9.812,15.907 9.894,16.1 C9.951,16.249 9.894,16.375 9.821,16.469 C9.717,16.617 9.56,16.741 9.387,16.821 C9.339,16.846 9.254,16.885 9.169,16.858 C9.019,16.807 8.963,16.524 8.832,16.434 C8.78,16.401 8.714,16.391 8.645,16.405 C8.635,16.46 8.625,16.483 8.59,16.528 C8.565,16.557 8.509,16.596 8.509,16.602 C8.517,16.661 8.555,16.715 8.573,16.733 C8.646,16.799 8.799,16.842 8.832,16.93 C8.814,16.953 8.779,16.957 8.749,16.961 C8.586,16.967 8.51,16.82 8.356,16.807 C8.32,16.805 8.254,16.807 8.216,16.836 C8.224,16.879 8.223,16.896 8.211,16.936 C8.196,16.983 8.183,16.999 8.162,17.032 C8.188,17.153 8.394,17.165 8.559,17.179 C8.611,17.185 8.665,17.193 8.688,17.228 C8.647,17.265 8.594,17.298 8.533,17.312 C8.41,17.329 8.299,17.261 8.18,17.251 C8.14,17.249 8.088,17.265 8.045,17.292 C8.056,17.319 8.063,17.376 8.052,17.421 C8.04,17.478 8.037,17.507 8.018,17.532 C8.04,17.548 8.098,17.583 8.163,17.583 C8.331,17.593 8.47,17.456 8.647,17.517 C8.576,17.625 8.456,17.632 8.355,17.697 C8.315,17.722 8.272,17.765 8.247,17.814 C8.283,17.83 8.313,17.855 8.335,17.888 C8.355,17.919 8.37,17.951 8.375,17.999 C8.585,18.013 8.682,17.874 8.782,17.763 C8.93,17.603 9.136,17.499 9.418,17.476 C9.727,17.457 10.121,17.603 10.259,17.337 C10.089,17.329 9.886,17.298 9.827,17.179 C10.126,17.265 10.495,17.183 10.647,16.993 C10.44,17.032 10.229,16.983 10.147,16.854 C10.376,16.915 10.627,16.878 10.803,16.774 C10.918,16.706 11.044,16.598 11.076,16.469 C11.059,16.469 11.022,16.485 10.994,16.498 C10.846,16.564 10.587,16.553 10.526,16.434 C10.659,16.442 10.78,16.418 10.876,16.368 C11.003,16.296 11.069,16.186 11.112,16.114 C11.162,16.02 11.21,15.925 11.276,15.846 C11.304,15.815 11.335,15.797 11.361,15.787 C11.339,15.762 11.282,15.758 11.246,15.765 C11.057,15.798 10.975,15.974 10.798,16.013 C10.866,15.825 10.894,15.577 10.899,15.362 C11.258,15.5 11.573,15.393 11.733,15.178 C11.829,15.046 11.853,14.886 11.853,14.774 C11.853,14.549 11.733,14.383 11.621,14.262 C11.407,14.034 11.14,13.868 10.884,13.69 C10.708,13.571 10.527,13.445 10.379,13.307 C10.274,13.212 10.158,13.079 10.132,12.918 C10.092,12.677 10.24,12.49 10.407,12.439 C10.944,12.275 11.498,12.857 11.758,13.164 C11.818,13.234 12.032,13.484 11.948,13.648 C11.922,13.691 11.859,13.718 11.815,13.714 C11.739,13.706 11.675,13.634 11.73,13.516 C11.587,13.548 11.528,13.761 11.612,13.878 C11.671,13.967 11.775,13.98 11.853,13.965 C11.922,13.952 11.985,13.911 12.017,13.861 C11.921,14.148 12.031,14.453 12.175,14.611 C12.345,14.803 12.591,14.847 12.694,14.855 C12.959,14.871 13.226,14.805 13.4,14.584 C13.515,14.433 13.575,14.211 13.515,14.02 L13.515,14.02 Z M8.046,10.896 C8.003,10.833 7.991,10.73 8.034,10.663 C8.141,10.729 8.235,10.742 8.356,10.763 C8.254,10.793 8.133,10.833 8.046,10.896 L8.046,10.896 Z" id="Shape" fill="#EE3124" sketch:type="MSShapeGroup"></path>
            <g id="Group" transform="translate(2.000000, 1.000000)" fill="#FFEF00" sketch:type="MSShapeGroup">
                <path d="M11.126,0.237 L9.616,1.937 L11.126,3.641 L12.601,1.937 L11.126,0.237 L11.126,0.237 Z M10.221,1.936 L11.118,0.931 L12,1.953 L11.133,2.953 L10.221,1.936 L10.221,1.936 Z" id="Shape"></path>
                <path d="M-0.064,1.937 L1.449,3.641 L2.924,1.937 L1.449,0.237 L-0.064,1.937 L-0.064,1.937 Z M1.454,2.953 L0.544,1.936 L1.442,0.931 L2.324,1.953 L1.454,2.953 L1.454,2.953 Z" id="Shape"></path>
            </g>
            <path d="M9.12,6.875 C8.856,6.805 8.579,6.742 8.339,6.882 L8.339,6.951 C8.566,6.794 8.833,6.86 9.107,6.928 C9.341,6.988 9.578,7.046 9.802,6.96 L9.802,6.899 C9.592,6.99 9.366,6.933 9.12,6.875 L9.12,6.875 Z" id="Shape" fill="#00539B" sketch:type="MSShapeGroup"></path>
            <path d="M7.274,6.334 C7.031,6.396 6.797,6.453 6.593,6.362 L6.593,6.425 C6.811,6.51 7.053,6.449 7.289,6.392 C7.563,6.324 7.824,6.26 8.056,6.414 L8.056,6.344 C7.815,6.203 7.539,6.269 7.274,6.334 L7.274,6.334 Z" id="Shape" fill="#00539B" sketch:type="MSShapeGroup"></path>
            <path d="M7.274,5.803 C7.031,5.866 6.797,5.919 6.593,5.832 L6.593,5.892 C6.811,5.977 7.053,5.917 7.289,5.862 C7.562,5.792 7.824,5.727 8.056,5.882 L8.056,5.812 C7.815,5.668 7.539,5.737 7.274,5.803 L7.274,5.803 Z" id="Shape" fill="#00539B" sketch:type="MSShapeGroup"></path>
            <path d="M7.274,6.875 C7.031,6.933 6.799,6.99 6.593,6.899 L6.593,6.96 C6.811,7.046 7.053,6.988 7.289,6.928 C7.563,6.86 7.824,6.794 8.056,6.951 L8.056,6.882 C7.815,6.741 7.539,6.805 7.274,6.875 L7.274,6.875 Z" id="Shape" fill="#00539B" sketch:type="MSShapeGroup"></path>
            <path d="M9.12,5.803 C8.857,5.737 8.579,5.668 8.339,5.811 L8.339,5.881 C8.566,5.726 8.832,5.791 9.107,5.861 C9.341,5.916 9.578,5.976 9.802,5.891 L9.802,5.831 C9.592,5.919 9.366,5.866 9.12,5.803 L9.12,5.803 Z" id="Shape" fill="#00539B" sketch:type="MSShapeGroup"></path>
            <path d="M9.12,6.334 C8.856,6.269 8.579,6.203 8.339,6.344 L8.339,6.413 C8.566,6.26 8.833,6.324 9.107,6.392 C9.341,6.449 9.578,6.51 9.802,6.425 L9.802,6.362 C9.592,6.453 9.366,6.396 9.12,6.334 L9.12,6.334 Z" id="Shape" fill="#00539B" sketch:type="MSShapeGroup"></path>
            <g id="Group" fill="#00539B" sketch:type="MSShapeGroup">
                <path d="M5.198,16.738 C5.346,16.593 5.465,16.668 5.465,16.668 C5.535,16.596 5.523,16.436 5.47,16.397 C5.321,16.433 5.193,16.548 5.198,16.738 L5.198,16.738 Z" id="Shape"></path>
                <path d="M5.203,16.05 C5.203,16.05 5.274,16.021 5.381,16.021 C5.462,16.025 5.531,16.046 5.531,16.046 C5.595,16.017 5.665,15.876 5.615,15.804 C5.42,15.816 5.251,15.914 5.203,16.05 L5.203,16.05 Z" id="Shape"></path>
                <path d="M4.691,15.601 C4.691,15.601 4.701,15.783 4.827,15.89 C4.862,15.923 4.913,15.958 4.973,15.955 C4.901,15.869 4.923,15.717 4.976,15.617 C4.912,15.556 4.768,15.556 4.691,15.601 L4.691,15.601 Z" id="Shape"></path>
                <path d="M4.859,12 C4.652,11.942 4.437,12.058 4.382,12.212 C4.382,12.212 4.545,12.148 4.689,12.215 C4.688,12.214 4.835,12.127 4.859,12 L4.859,12 Z" id="Shape"></path>
                <path d="M5.46,11.928 C5.54,11.881 5.655,11.865 5.765,11.889 C5.758,11.825 5.676,11.763 5.633,11.745 C5.536,11.698 5.478,11.679 5.362,11.68 C5.281,11.686 5.234,11.71 5.234,11.71 C5.317,11.761 5.43,11.815 5.46,11.928 L5.46,11.928 Z" id="Shape"></path>
                <path d="M6.151,15.335 C6.025,15.293 5.863,15.32 5.763,15.367 C5.675,15.413 5.617,15.482 5.617,15.482 C5.851,15.459 5.964,15.561 5.964,15.561 C6.035,15.546 6.161,15.432 6.151,15.335 L6.151,15.335 Z" id="Shape"></path>
                <path d="M4.11,15.094 C4.035,15.17 3.967,15.317 3.997,15.475 C4.012,15.548 4.07,15.583 4.07,15.583 C4.088,15.487 4.165,15.381 4.294,15.367 C4.324,15.197 4.176,15.094 4.11,15.094 L4.11,15.094 Z" id="Shape"></path>
                <path d="M4.047,14.465 C4.047,14.465 3.942,14.49 3.827,14.619 C3.78,14.672 3.725,14.779 3.746,14.867 C3.746,14.867 3.808,14.799 3.914,14.767 C3.978,14.746 4.027,14.746 4.059,14.757 C4.118,14.726 4.145,14.526 4.047,14.465 L4.047,14.465 Z" id="Shape"></path>
                <path d="M8.199,7.99 C8.449,7.99 8.557,7.779 8.557,7.779 C8.908,7.784 10.476,7.779 10.476,7.779 L10.471,5.51 L10.23,5.51 L10.231,7.549 C10.231,7.549 10.102,7.669 9.813,7.669 C9.466,7.669 9.074,7.521 8.721,7.521 C8.374,7.521 8.236,7.694 8.199,7.724 C8.199,7.724 8.023,7.521 7.689,7.521 C7.343,7.521 6.93,7.664 6.524,7.664 C6.313,7.664 6.194,7.562 6.163,7.55 L6.167,5.51 L5.934,5.51 L5.934,7.779 L7.839,7.779 C7.839,7.779 7.936,7.99 8.199,7.99 L8.199,7.99 Z" id="Shape"></path>
                <path d="M4.18,13.209 C4.18,13.209 4.286,13.066 4.22,12.97 C4.014,12.993 3.883,13.105 3.819,13.241 C3.819,13.241 4.012,13.168 4.18,13.209 L4.18,13.209 Z" id="Shape"></path>
                <path d="M6.018,16.998 C6.018,16.998 5.948,17.262 6.135,17.342 C6.135,17.342 6.101,17.201 6.243,17.094 C6.207,17.007 6.098,16.951 6.018,16.998 L6.018,16.998 Z" id="Shape"></path>
                <path d="M3.994,13.991 C4.098,13.972 4.254,13.964 4.334,14.034 C4.462,13.965 4.523,13.839 4.507,13.788 C4.492,13.776 4.415,13.776 4.393,13.776 C4.18,13.772 4.058,13.866 3.994,13.991 L3.994,13.991 Z" id="Shape"></path>
                <path d="M4.22,12.735 C4.22,12.735 4.323,12.585 4.226,12.469 C4.068,12.504 3.938,12.627 3.913,12.805 C3.913,12.805 3.967,12.768 4.022,12.749 C4.104,12.723 4.176,12.729 4.22,12.735 L4.22,12.735 Z" id="Shape"></path>
                <path d="M8.201,9.29 L14.656,13.075 C15.398,11.087 15.385,8.612 15.258,5.128 L8.201,9.29 L8.201,9.29 Z" id="Shape"></path>
                <path d="M8.199,11.575 C8.176,11.628 8.163,11.735 8.138,11.79 C8.19,11.802 8.248,11.758 8.288,11.737 C8.259,11.691 8.227,11.622 8.199,11.575 L8.199,11.575 Z" id="Shape"></path>
                <path d="M7.692,17.601 C7.692,17.601 7.737,17.562 7.811,17.535 C7.864,17.506 7.964,17.492 8.018,17.529 C8.067,17.502 8.087,17.322 8.045,17.289 C7.893,17.304 7.711,17.429 7.692,17.601 L7.692,17.601 Z" id="Shape"></path>
                <path d="M7.742,11.607 C7.724,11.635 7.699,11.702 7.671,11.739 C7.711,11.751 7.777,11.769 7.807,11.765 C7.789,11.727 7.763,11.641 7.742,11.607 L7.742,11.607 Z" id="Shape"></path>
                <path d="M16.134,3.374 L16.013,0.001 L0.421,0 L0.301,3.377 C-0.051,12.443 -0.182,15.837 8.096,19.82 L8.217,19.879 L8.34,19.82 C16.621,15.837 16.486,12.443 16.134,3.374 L16.134,3.374 Z M8.217,19.326 C1.801,16.215 0.687,13.586 0.687,7.817 C0.687,6.506 0.744,5.035 0.81,3.358 C0.81,3.358 0.896,0.952 0.913,0.496 L15.527,0.496 C15.542,0.952 15.627,3.356 15.627,3.356 C15.693,5.035 15.75,6.51 15.75,7.822 C15.749,13.585 14.634,16.214 8.217,19.326 L8.217,19.326 Z" id="Shape"></path>
                <path d="M1.777,13.075 L8.201,9.29 L1.173,5.165 C1.049,8.626 1.039,11.091 1.777,13.075 L1.777,13.075 Z" id="Shape"></path>
                <path d="M8.275,16.58 C8.346,16.555 8.45,16.549 8.511,16.6 C8.592,16.549 8.648,16.479 8.647,16.403 C8.49,16.359 8.302,16.425 8.275,16.58 L8.275,16.58 Z" id="Shape"></path>
                <path d="M8.246,17.81 C8.177,17.863 8.07,18.029 8.089,18.162 C8.101,18.228 8.154,18.26 8.154,18.26 C8.181,18.145 8.286,18.032 8.375,17.996 C8.395,17.927 8.297,17.81 8.246,17.81 L8.246,17.81 Z" id="Shape"></path>
                <path d="M7.767,11.196 C7.787,11.236 7.821,11.352 7.822,11.352 C7.847,11.3 7.885,11.228 7.909,11.171 C7.858,11.171 7.799,11.183 7.767,11.196 L7.767,11.196 Z" id="Shape"></path>
                <path d="M7.539,11.262 C7.539,11.262 7.596,11.35 7.612,11.388 L7.664,11.221 C7.634,11.221 7.57,11.245 7.539,11.262 L7.539,11.262 Z" id="Shape"></path>
                <path d="M7.991,11.162 C7.991,11.162 8.042,11.284 8.064,11.331 C8.084,11.281 8.136,11.213 8.162,11.163 C8.108,11.15 8.046,11.145 7.991,11.162 L7.991,11.162 Z" id="Shape"></path>
                <path d="M7.898,11.792 C7.95,11.802 7.998,11.817 8.046,11.808 C8.023,11.758 7.981,11.656 7.969,11.608 C7.957,11.657 7.911,11.755 7.898,11.792 L7.898,11.792 Z" id="Shape"></path>
                <path d="M7.835,17.039 C7.896,16.996 8.051,16.961 8.163,17.029 C8.197,17.011 8.247,16.898 8.217,16.834 C8.046,16.783 7.87,16.894 7.835,17.039 L7.835,17.039 Z" id="Shape"></path>
                <path d="M8.377,11.384 C8.313,11.372 8.225,11.378 8.148,11.392 C7.882,11.436 7.555,11.481 7.347,11.468 C7.18,11.456 6.942,11.404 6.94,11.171 C6.937,11.085 6.983,11.004 6.983,11.004 C6.89,11.024 6.772,11.145 6.785,11.297 C6.804,11.479 6.968,11.585 7.29,11.594 C7.558,11.605 7.913,11.522 8.141,11.469 C8.299,11.43 8.377,11.384 8.377,11.384 L8.377,11.384 Z" id="Shape"></path>
                <path d="M7.729,7.384 C7.998,7.384 8.169,7.583 8.169,7.583 L8.232,7.583 C8.347,7.458 8.485,7.384 8.666,7.384 C8.955,7.384 9.273,7.509 9.54,7.506 C9.79,7.503 9.951,7.377 9.974,7.362 L9.974,5.219 L9.924,5.256 C9.689,5.442 9.412,5.376 9.123,5.303 C8.803,5.223 8.477,5.15 8.199,5.431 C7.924,5.155 7.591,5.223 7.277,5.303 C6.983,5.376 6.71,5.441 6.472,5.256 L6.426,5.219 L6.426,7.359 C6.447,7.374 6.593,7.512 6.855,7.512 C7.121,7.512 7.45,7.384 7.729,7.384 L7.729,7.384 Z M8.227,5.475 C8.478,5.218 8.781,5.278 9.107,5.359 C9.384,5.426 9.67,5.489 9.921,5.328 L9.921,7.338 C9.695,7.498 9.412,7.46 9.125,7.393 C8.816,7.324 8.499,7.267 8.227,7.51 L8.227,5.475 L8.227,5.475 Z M6.472,7.334 L6.472,5.327 C6.723,5.489 7.015,5.425 7.29,5.358 C7.616,5.278 7.919,5.201 8.171,5.48 L8.171,7.512 C7.905,7.266 7.586,7.324 7.277,7.392 C6.983,7.46 6.712,7.52 6.472,7.334 L6.472,7.334 Z" id="Shape"></path>
                <path d="M7.289,6.392 C7.563,6.324 7.824,6.26 8.056,6.414 L8.056,6.344 C7.815,6.203 7.539,6.269 7.274,6.334 C7.031,6.396 6.797,6.453 6.593,6.362 L6.593,6.425 C6.811,6.51 7.053,6.449 7.289,6.392 L7.289,6.392 Z" id="Shape"></path>
                <path d="M7.289,5.861 C7.562,5.791 7.824,5.726 8.056,5.881 L8.056,5.811 C7.815,5.668 7.539,5.737 7.274,5.803 C7.031,5.866 6.797,5.919 6.593,5.832 L6.593,5.892 C6.811,5.977 7.053,5.917 7.289,5.861 L7.289,5.861 Z" id="Shape"></path>
                <path d="M8.056,6.951 L8.056,6.882 C7.815,6.741 7.539,6.805 7.274,6.875 C7.031,6.933 6.799,6.99 6.593,6.899 L6.593,6.96 C6.811,7.046 7.053,6.988 7.289,6.928 C7.563,6.86 7.824,6.794 8.056,6.951 L8.056,6.951 Z" id="Shape"></path>
                <path d="M9.107,6.392 C9.341,6.449 9.578,6.51 9.802,6.425 L9.802,6.362 C9.592,6.453 9.366,6.396 9.12,6.334 C8.856,6.269 8.579,6.203 8.339,6.344 L8.339,6.413 C8.566,6.26 8.833,6.324 9.107,6.392 L9.107,6.392 Z" id="Shape"></path>
                <path d="M9.107,5.861 C9.341,5.916 9.578,5.976 9.802,5.891 L9.802,5.831 C9.592,5.919 9.366,5.866 9.12,5.803 C8.857,5.737 8.579,5.668 8.339,5.811 L8.339,5.881 C8.566,5.726 8.833,5.791 9.107,5.861 L9.107,5.861 Z" id="Shape"></path>
                <path d="M9.107,6.928 C9.341,6.988 9.578,7.046 9.802,6.96 L9.802,6.899 C9.592,6.99 9.366,6.933 9.12,6.875 C8.856,6.805 8.579,6.742 8.339,6.882 L8.339,6.951 C8.566,6.794 8.833,6.86 9.107,6.928 L9.107,6.928 Z" id="Shape"></path>
            </g>
        </g>
    </g>
</svg>