<?xml version="1.0" encoding="utf-8"?>
<svg version="1.1" id="a_x2F_w" xmlns="http://www.w3.org/2000/svg" xmlns:xlink="http://www.w3.org/1999/xlink" x="0px" y="0px"
	 viewBox="0 339.1 612 113.9" enable-background="new 0 339.1 612 113.9" xml:space="preserve">
<rect x="-55.8" y="282.3" fill="none" width="729.3" height="227.8"/>
<g>
	<path d="M113.9,434.3c0.3-1.8,0.5-4.7,0.5-8.7h1.9c0.1,2.7,0.2,4.3,0.5,4.8c0.2,0.5,0.7,1,1.6,1.6c0.8,0.6,1.9,1.1,3.3,1.5
		c1.4,0.4,2.7,0.7,4,0.7c1.9,0,3.6-0.4,5.2-1.3c1.6-0.9,2.7-2,3.5-3.4c0.7-1.4,1.1-2.9,1.1-4.5c0-1.2-0.2-2.3-0.5-3.2
		c-0.4-0.9-0.9-1.6-1.7-2.2c-0.7-0.5-1.7-0.9-2.8-1.2c-0.7-0.1-2.1-0.3-4.1-0.6c-2.1-0.3-3.8-0.6-5.3-0.9c-1.9-0.6-3.4-1.3-4.3-2.1
		c-0.9-0.8-1.7-1.9-2.2-3.2c-0.6-1.3-0.9-2.7-0.9-4.2c0-2.2,0.6-4.3,1.7-6.2c1.1-1.9,2.8-3.5,5.1-4.5c2.3-1.1,4.7-1.6,7.3-1.6
		c1.6,0,3.3,0.2,5.2,0.6c1.9,0.4,3.6,1,5.3,1.8c-0.3,1.2-0.4,2.3-0.6,3.3c-0.1,1-0.2,2.5-0.3,4.5h-1.9c-0.1-2.9-0.1-4.4-0.3-4.7
		c-0.5-0.7-1.1-1.3-1.9-1.8c-1.9-1.1-3.9-1.6-6-1.6c-2.7,0-4.9,0.8-6.5,2.5c-1.6,1.6-2.4,3.8-2.4,6.4c0,1.6,0.3,2.8,0.9,3.7
		c0.6,0.9,1.6,1.6,3.1,2.1c1,0.4,2.7,0.7,5,1c2.3,0.3,4.4,0.6,6.3,1c1.8,0.5,3.1,1.1,3.9,1.9c0.8,0.7,1.5,1.7,2.1,2.8
		c0.5,1.2,0.8,2.5,0.8,4.1c0,3.7-1.5,7-4.6,9.7c-3.1,2.8-7.1,4.1-12,4.1C120.3,436.5,116.9,435.8,113.9,434.3z"/>
	<path d="M143.5,413.7v-1.2c1.8-0.7,3.2-1.3,4.3-1.9c0-4.5,0-7.3,0-8.5c1.9-0.7,3.5-1.4,4.7-2.2l0.7,0.6c-0.2,1.6-0.4,5-0.7,10.3
		c1.5,0,2.4,0,2.7,0c0.2,0,1.1,0,2.9-0.1c1,0,1.7-0.1,2.2-0.1l0.2,0.2l-0.6,2.6c-1.2,0-2.3,0-3.2,0c-1,0-2.4,0-4.1,0l-0.1,11.4
		c-0.1,2.8,0,4.4,0.1,5c0.1,0.5,0.3,1,0.5,1.4c0.3,0.4,0.6,0.7,1,1c0.4,0.3,1.1,0.4,2.1,0.6c0.8,0,1.4,0,1.9-0.1
		c0.5-0.1,1.1-0.2,1.8-0.5l0.3,1.1c-0.9,0.7-1.7,1.4-2.5,2.2c-0.7,0.3-1.4,0.4-2,0.5c-0.6,0.1-1.3,0.1-2.1,0.1c-1,0-1.8-0.1-2.4-0.3
		c-0.6-0.2-1.1-0.5-1.6-0.9c-0.5-0.4-0.9-0.9-1.2-1.5c-0.3-0.6-0.5-1.6-0.6-2.9c0-1.3,0.1-2.7,0.1-4.2c0-0.3,0-0.6,0-1v-11.6h-1.2
		C145.7,413.6,144.7,413.6,143.5,413.7z"/>
	<path d="M174.2,435.7v-1.9c1.5,0,2.4-0.1,2.8-0.2c0.4-0.1,0.7-0.3,1-0.6c0.3-0.3,0.8-1,1.3-2.3c0.3-0.7,1.6-3.3,3.6-7.9l7-15.8
		c0.8-1.7,2.4-5.6,4.9-11.6h1.8l12,28.1c2,4.6,3.2,7.4,3.9,8.6c0.4,0.7,0.7,1.1,1.2,1.3c0.4,0.2,1.4,0.3,2.8,0.3v1.9
		c-2.9-0.2-5-0.3-6.1-0.3l-9,0.3v-1.9c2.1,0,3.4-0.1,3.8-0.2c0.4-0.1,0.7-0.2,0.9-0.4c0.2-0.2,0.2-0.4,0.2-0.7
		c0-0.4-0.1-0.9-0.4-1.6l-3.4-8.6h-16.2l-3,7.2c-0.5,1.3-0.8,2.2-0.8,2.8c0,0.3,0.1,0.5,0.2,0.6c0.2,0.3,0.5,0.4,1,0.5
		c0.7,0.2,1.9,0.2,3.6,0.3v1.9c-3.2-0.2-5.5-0.3-7.1-0.3C178.3,435.4,176.3,435.5,174.2,435.7z M187.2,420h14.1l-7-16.9L187.2,420z"
		/>
	<path d="M218.7,435.7v-1.6l2.7,0c0.4,0,0.7-0.1,0.9-0.2c0.2-0.1,0.4-0.3,0.5-0.5c0.2-0.4,0.3-1,0.4-2c0-0.2,0.1-2.9,0.1-8V420
		c0-1.5,0-3.1-0.1-4.8c-0.1-1.1-0.1-1.8-0.3-2c-0.1-0.2-0.3-0.4-0.6-0.5c-0.3-0.1-1.5-0.1-3.6-0.1V411c3.8-0.5,6.5-1.2,8.3-2.1
		c0.4-0.2,0.6-0.3,0.8-0.3c0.1,0,0.2,0.1,0.3,0.1c0.1,0.1,0.1,0.2,0.1,0.4c0,0.1,0,0.3,0,0.4c-0.1,0.7-0.1,2.1-0.2,4.3l5.2-4.5
		c1.5-0.6,3-0.8,4.4-0.8c1.5,0,2.9,0.3,4.3,0.9c1.4,0.6,2.4,1.4,3.1,2.3c0.7,0.9,1.1,2.1,1.4,3.5c0.1,0.8,0.2,3.2,0.2,7v5
		c0,2.4,0.1,4.1,0.2,5c0.1,0.6,0.2,0.9,0.4,1.2c0.2,0.2,0.5,0.4,0.9,0.4l3,0.1v1.6c-1.8-0.1-3.4-0.2-4.6-0.2c-1.1,0-2.8,0.1-5.2,0.2
		c0.3-4.6,0.4-7.5,0.4-8.7v-4.7c0-2.9-0.1-4.9-0.3-5.8c-0.3-1.3-1-2.3-2.2-3c-1.1-0.8-2.5-1.1-4.1-1.1c-1.4,0-2.7,0.3-3.8,1
		c-1.2,0.7-2,1.4-2.5,2.3c-0.5,0.9-0.8,2.3-0.8,4.4v3.4c0.1,4.9,0.1,7.5,0.1,7.9c0,0.9,0.1,1.6,0.3,2c0.1,0.2,0.2,0.3,0.3,0.4
		c0.1,0.1,0.4,0.2,0.7,0.3c0.1,0,1.1,0,3.1,0.1v1.6c-2.3-0.1-4.3-0.2-6.2-0.2C224.8,435.5,222.2,435.5,218.7,435.7z"/>
	<path d="M270.3,397.6V396c2.1-0.2,3.8-0.5,5.3-0.8c1.4-0.3,2.8-0.7,4.2-1.1l0.4,0.3c-0.1,1.6-0.2,4.7-0.3,9.2l-0.1,4.5v17.5
		c0,1.9,0,3.6,0.1,4.9c0.1,1.4,0.2,2.2,0.4,2.5c0.2,0.3,0.4,0.5,0.8,0.7c0.4,0.2,1.6,0.3,3.5,0.5v1.5c-2.3-0.1-3.9-0.2-4.8-0.2
		c-0.8,0-2.5,0.1-4.9,0.2c0.1-1.3,0.1-3,0.1-5.2c-0.8,0.5-1.8,1.4-3,2.4c-1.3,1.1-2.3,2-3,2.7c-1.5,0.4-2.8,0.6-4,0.6
		c-2.1,0-4.1-0.5-5.8-1.6c-1.8-1-3.1-2.6-4.1-4.6c-1-2-1.4-4.2-1.4-6.7c0-1.9,0.3-3.6,0.9-5.3c0.6-1.7,1.3-3,2.2-3.9
		c0.5-0.5,1.6-1.3,3.4-2.4c1.8-1.1,3.2-1.8,4.4-2.3c1.1-0.5,2.3-0.7,3.6-0.7c1.2,0,2.3,0.1,3.5,0.4c1.1,0.3,2.2,0.7,3.3,1.3v-7.4
		c0-2.6-0.1-4.2-0.3-4.7c-0.1-0.2-0.2-0.4-0.4-0.5C273.8,397.7,272.5,397.6,270.3,397.6z M274.9,415.2c-1.3-1.4-2.6-2.4-4-3.1
		c-1.4-0.6-2.8-1-4.1-1c-1.5,0-2.9,0.4-4.2,1.2c-1.3,0.8-2.3,2-3,3.5c-0.7,1.6-1,3.5-1,5.7c0,3.4,0.8,6.1,2.5,8
		c1.7,1.9,3.7,2.9,6.1,2.9c1.3,0,2.4-0.3,3.4-0.8c1-0.5,1.9-1.3,2.6-2.3c0.7-1,1.2-2.1,1.4-3.4c0.2-0.8,0.2-2.8,0.2-6.1V415.2z"/>
	<path d="M287.7,435.7v-1.6c2.1,0,3.3-0.1,3.4-0.1c0.3-0.1,0.6-0.1,0.7-0.3c0.2-0.1,0.3-0.3,0.4-0.5c0.2-0.4,0.3-1.1,0.3-2
		c0.1-5,0.1-7.6,0.1-7.8V420c0-1.5,0-3.1-0.1-4.8c0-1.1-0.1-1.8-0.2-2c-0.1-0.2-0.3-0.4-0.6-0.5c-0.3-0.1-1.5-0.1-3.7-0.1V411
		c3.8-0.5,6.5-1.2,8.3-2.1c0.4-0.2,0.6-0.3,0.8-0.3c0.1,0,0.2,0.1,0.3,0.1c0.1,0.1,0.1,0.2,0.1,0.4c0,0.1,0,0.3,0,0.4
		c-0.1,1.1-0.1,2.9-0.2,5.3c0.8-1,1.6-1.9,2.3-2.9c0.7-1,1.2-1.6,1.5-1.9c0.6-0.5,1.2-0.9,1.9-1.2c0.7-0.3,1.5-0.4,2.3-0.4
		c0.8,0,1.6,0.2,2.3,0.5l0.2,0.4c-0.3,2.5-0.4,4.7-0.5,6.6h-1.3c-0.4-0.9-0.9-1.6-1.5-2c-0.6-0.4-1.3-0.6-2.1-0.6
		c-1.4,0-2.7,0.6-3.7,1.8c-1,1.2-1.5,3-1.5,5.3v2.9c0,1.2,0,3.5,0.1,6.8c0,1.2,0.1,1.9,0.1,2.2c0.1,0.3,0.2,0.5,0.3,0.7
		c0.1,0.1,0.3,0.3,0.6,0.3c0.6,0.2,2.1,0.3,4.5,0.5v1.6c-3.3-0.1-6.1-0.2-8.4-0.2C292.2,435.5,289.9,435.5,287.7,435.7z"/>
	<path d="M332.8,431.3l-0.9,2c-1.3,0.8-2.2,1.3-2.8,1.6c-0.9,0.4-1.9,0.7-3,1c-1.1,0.3-2.3,0.4-3.6,0.4c-2.5,0-4.7-0.5-6.7-1.5
		c-2-1-3.6-2.6-4.7-4.6c-1.1-2-1.7-4.4-1.7-7.2c0-2.1,0.3-4.1,0.9-5.8c0.6-1.7,1.3-3,2-3.8c0.5-0.6,1.4-1.3,2.5-2.1
		c1.1-0.8,2.3-1.4,3.4-1.8c1.5-0.6,3.1-0.9,4.8-0.9c2.1,0,4,0.5,5.7,1.4c1.7,1,2.9,2.3,3.7,3.9s1.2,3.5,1.2,5.6
		c0,0.5-0.1,1.2-0.1,1.9c-1.3,0.3-2.5,0.4-3.6,0.5c-2,0.1-4,0.2-6,0.2h-9c0,2.7,0.5,4.9,1.4,6.5c0.9,1.7,2.1,2.9,3.7,3.7
		c1.6,0.8,3.2,1.2,4.9,1.2c1.1,0,2.3-0.2,3.4-0.5c1.1-0.4,2.5-1,4.2-2L332.8,431.3z M314.9,419.9c0.5,0.1,1.5,0.1,3,0.2
		c2.8,0.1,4.7,0.1,5.7,0.1c2.5,0,4.1-0.1,4.9-0.1c0-0.4,0-0.8,0-1c0-2.9-0.6-5.1-1.8-6.5c-1.2-1.4-2.8-2.1-4.8-2.1
		c-2.1,0-3.8,0.8-5.1,2.3C315.5,414.2,314.9,416.6,314.9,419.9z"/>
	<path d="M347.6,436l-1.2-3.9l-2.6-8.7c-0.7-2.5-1.5-4.9-2.3-7.3c-0.8-2.3-1.3-3.7-1.5-4s-0.6-0.6-0.9-0.8c-0.4-0.1-1.3-0.3-2.7-0.4
		v-1.6c2.1,0.1,4.3,0.2,6.6,0.2c2.5,0,4.8-0.1,7-0.2v1.6c-1.7,0-2.9,0.1-3.4,0.2c-0.4,0.1-0.6,0.2-0.8,0.4c-0.2,0.2-0.2,0.4-0.2,0.7
		c0,0.4,0.3,1.6,0.8,3.5l2.6,9c0.4,1.5,1,3.2,1.6,4.9l2.1-4.9l4.1-9.2c1-2.2,1.9-4.4,2.7-6.6h1.4c1.2,3.4,2.1,5.7,2.5,6.8l3.2,8.1
		c1.1,2.7,1.9,4.8,2.5,6.2l2.1-5.5c1.4-3.6,2.4-6.6,3.2-9.1c0.4-1.4,0.6-2.3,0.6-2.9c0-0.5-0.2-0.9-0.5-1.1
		c-0.4-0.2-1.6-0.4-3.6-0.4v-1.6c2.8,0.1,4.8,0.2,5.9,0.2c1.3,0,3.1-0.1,5.3-0.2v1.6c-1.1,0-1.8,0.1-2.2,0.3c-0.4,0.2-0.7,0.5-1,0.9
		c-0.5,0.6-1.2,2.1-2.3,4.5l-2.9,7l-1.3,3.1c-0.2,0.6-1,2.5-2.2,5.7c-0.5,1.3-0.9,2.5-1.2,3.5h-2.6l-1.3-3.5l-6.4-16.1l-2.7,5.8
		l-3.2,7c-0.7,1.6-1.3,3-1.8,4.2l-0.9,2.6L347.6,436L347.6,436z"/>
	<path d="M386,427.2h1.7c0,1.1,0.1,1.9,0.2,2.6c0.1,0.6,0.3,1.3,0.5,1.9c0.2,0.6,0.6,1.1,1,1.5c0.5,0.4,1,0.7,1.5,1
		c0.5,0.2,1.1,0.4,1.7,0.5c0.6,0.1,1.4,0.1,2.6,0.1c1.9,0,3.5-0.5,4.7-1.5c1.2-1,1.8-2.4,1.8-4.2c0-0.8-0.2-1.5-0.6-2.1
		c-0.4-0.6-0.9-1.1-1.7-1.4c-0.7-0.3-2.3-0.8-4.7-1.3c-2.4-0.5-3.9-0.9-4.6-1.2c-1-0.4-1.9-0.9-2.5-1.4c-0.6-0.6-1.1-1.3-1.5-2.1
		c-0.4-0.9-0.5-1.8-0.5-2.8c0-1.5,0.4-2.8,1.2-4.1c0.8-1.2,2-2.3,3.7-3c1.7-0.8,3.5-1.2,5.4-1.2c1.2,0,2.5,0.2,4.1,0.5
		c1.6,0.3,2.8,0.7,3.8,1.2c-0.1,2.1-0.2,4.2-0.3,6.3H402c-0.1-1.4-0.2-2.3-0.3-2.7c-0.1-0.4-0.3-0.8-0.5-1.2
		c-0.2-0.3-0.6-0.7-1.1-1.1c-0.5-0.4-1.2-0.7-2-1c-0.8-0.3-1.8-0.4-2.9-0.4c-1.6,0-3,0.5-4,1.5c-1,1-1.5,2.1-1.5,3.4
		c0,0.7,0.1,1.4,0.4,1.9c0.3,0.5,0.7,1,1.2,1.3c0.5,0.3,1.2,0.6,2,0.9l4.7,1.1c2.4,0.6,4,1.1,4.9,1.5c0.9,0.4,1.6,1.1,2.1,2
		c0.5,0.9,0.8,2,0.8,3.3c0,2.5-1,4.7-3.1,6.6c-2.1,1.9-4.9,2.8-8.4,2.8c-1.6,0-3.7-0.3-6.4-0.7c-1.5-0.3-2.3-0.5-2.4-0.6
		c-0.1-0.1-0.1-0.1-0.1-0.3s0-0.3,0.1-0.5c0.2-0.8,0.3-1.6,0.3-2.4C385.9,431.2,386,429.6,386,427.2z"/>
</g>
<g>
	<polygon points="423.1,449.3 423.1,341.6 425.8,341.6 425.8,449.3 422.9,449.3 	"/>
	<polygon points="609.2,449.3 609.2,341.6 612,341.6 612,449.3 609.1,449.3 	"/>
	<path d="M445.5,354.6v-0.9c1.4,0.1,2.6,0.1,3.6,0.1c0.7,0,1.9,0,3.8-0.1c1.8,0,3-0.1,3.7-0.1c0.7,0,1.3,0,1.9,0
		c0.6,0,1.1,0,1.5,0.1c-0.2,0.8-0.4,2.2-0.4,4.2h-0.9c-0.1-1.1-0.2-2-0.3-2.6c-0.5-0.2-1.1-0.3-1.8-0.4c-0.7-0.1-1.5-0.1-2.5-0.1
		s-1.9,0.1-2.9,0.2c-0.1,0.5-0.1,1-0.1,1.4c0,0.2,0,1.3-0.1,3.2v3.1c1,0,2,0,2.8,0c1.2,0,2.1-0.1,2.8-0.2c0.3-0.1,0.4-0.1,0.5-0.2
		c0.1-0.1,0.2-0.5,0.3-1.2l0.1-0.9h0.9l-0.1,3.2l0.1,3.4h-0.9l-0.1-0.9c-0.1-1-0.2-1.6-0.2-1.6c-0.1-0.1-0.3-0.2-0.5-0.3
		c-0.5-0.1-1.7-0.2-3.6-0.2c-0.7,0-1.3,0-2,0.1v2.8c0,1.3,0,2.5,0.1,3.7c0,0.9,0.1,1.4,0.2,1.6c0.1,0.2,0.3,0.3,0.5,0.4
		c0.2,0.1,0.9,0.1,2,0.1v0.9c-1.2-0.1-2.4-0.1-3.5-0.1c-1.1,0-2.6,0-4.6,0.1v-0.9c1.1,0,1.8-0.1,2-0.1c0.2-0.1,0.4-0.2,0.5-0.3
		c0.1-0.2,0.2-0.6,0.2-1.4c0-0.2,0-1.5,0.1-4v-6.5c0-1.3,0-2.5,0-3.7c0-0.9-0.1-1.4-0.2-1.6c-0.1-0.2-0.3-0.3-0.5-0.4
		C447.2,354.7,446.6,354.7,445.5,354.6"/>
	<path d="M461.4,363.8c0-1.5,0.2-2.8,0.7-4.1c0.4-1.3,1.2-2.4,2.2-3.4c1-1,2.2-1.8,3.5-2.3c1.3-0.5,2.8-0.8,4.4-0.8
		c1.5,0,2.9,0.2,4.2,0.6c1.3,0.4,2.3,1,3.1,1.7c0.8,0.7,1.4,1.5,1.9,2.3c0.4,0.6,0.6,1.4,0.8,2.2c0.2,0.8,0.3,1.8,0.3,2.7
		c0,3.1-1.1,5.7-3.2,7.8c-2.1,2.1-4.8,3.1-8,3.1c-1.5,0-2.8-0.2-4.1-0.7c-1.3-0.5-2.3-1.2-3.2-2.1c-0.9-0.9-1.5-2.1-2-3.4
		C461.7,366.4,461.4,365.1,461.4,363.8 M464.3,362.6c0,0.9,0.1,1.8,0.3,2.7c0.2,0.9,0.4,1.7,0.7,2.4c0.4,1.1,1,2.1,1.8,2.8
		c0.7,0.8,1.5,1.3,2.4,1.7c0.9,0.4,1.9,0.5,3,0.5c1.5,0,2.8-0.4,3.9-1.1c1.1-0.7,1.9-1.8,2.5-3.1c0.5-1.3,0.8-2.9,0.8-4.6
		c0-1.5-0.2-2.8-0.6-4.1c-0.2-0.8-0.6-1.5-1-2.1c-0.4-0.6-0.9-1.2-1.4-1.6c-0.6-0.5-1.3-0.8-2.2-1.2c-0.9-0.3-1.9-0.5-2.9-0.5
		c-1.5,0-2.8,0.3-3.9,1c-1.1,0.7-2,1.6-2.5,2.9C464.6,359.6,464.3,361.1,464.3,362.6"/>
	<path d="M483.6,354.6v-0.9c1.5,0.1,2.9,0.1,4.2,0.1c1.3,0,2.6,0,3.9-0.1v0.9c-1.1,0-1.8,0.1-2,0.1c-0.2,0.1-0.4,0.2-0.5,0.3
		c-0.1,0.2-0.2,0.6-0.2,1.4c0,0.2,0,1.5-0.1,4v5.2c0,2,0.1,3.3,0.4,4c0.3,0.6,0.7,1.2,1.2,1.6c0.4,0.3,1,0.6,1.7,0.8
		c0.7,0.2,1.5,0.3,2.4,0.3c1,0,2-0.1,2.8-0.4c0.8-0.3,1.4-0.6,1.8-0.9c0.4-0.4,0.7-0.8,0.9-1.2c0.2-0.5,0.3-1.1,0.4-1.9
		c0.1-0.8,0.1-1.8,0.1-3v-4.3c0-1.3,0-2.5-0.1-3.7c0-0.9-0.1-1.4-0.2-1.6c-0.1-0.2-0.3-0.3-0.5-0.4c-0.2-0.1-0.9-0.1-2-0.1v-0.9
		c1.5,0.1,2.7,0.1,3.4,0.1c0.6,0,1.8,0,3.5-0.1v0.9c-1.1,0-1.8,0.1-2,0.1c-0.2,0.1-0.4,0.2-0.5,0.3c-0.1,0.2-0.2,0.6-0.2,1.4
		c0,0.2,0,1.5-0.1,4v4.7c0,2.3-0.2,3.9-0.5,4.8c-0.3,0.9-0.9,1.7-1.8,2.4c-0.6,0.5-1.4,0.9-2.5,1.2c-1,0.3-2.1,0.4-3.4,0.4
		c-1.4,0-2.7-0.2-3.7-0.5c-1.1-0.3-1.9-0.8-2.4-1.3c-0.5-0.5-0.9-1.1-1.1-1.7c-0.3-0.8-0.4-2-0.4-3.8v-6.2c0-1.3,0-2.5,0-3.7
		c0-0.9-0.1-1.4-0.2-1.6c-0.1-0.2-0.3-0.3-0.5-0.4C485.4,354.7,484.7,354.7,483.6,354.6"/>
	<path d="M506.3,373.6v-0.9c1,0,1.6-0.1,1.9-0.2c0.1-0.1,0.2-0.1,0.3-0.3c0.1-0.2,0.2-0.7,0.2-1.5c0-1.2,0.1-2.3,0.1-3.2v-11.3
		c0-0.3,0-0.5-0.1-0.6c-0.1-0.2-0.2-0.4-0.5-0.6c-0.2-0.1-0.4-0.3-0.6-0.3c-0.2,0-0.7-0.1-1.5-0.1v-0.9c1.6,0,2.6,0.1,3,0.1
		c0.7,0,1.4,0,2.1-0.1c0.8,1,1.4,1.8,1.7,2.3l2.9,3.6l4.2,5.1c1.3,1.6,2.4,2.9,3.2,3.8c0.5,0.6,0.9,1.1,1.3,1.4v-10.2
		c0-0.9,0-2-0.1-3.2c0-0.8-0.1-1.2-0.2-1.4c-0.1-0.1-0.2-0.2-0.3-0.3c-0.3-0.1-0.9-0.2-1.9-0.2v-0.9c1.1,0,2.2,0.1,3.3,0.1
		c1.1,0,2,0,2.9-0.1v0.9c-1,0-1.6,0.1-1.9,0.2c-0.1,0.1-0.2,0.1-0.3,0.3c-0.1,0.2-0.2,0.7-0.2,1.5c0,1.2-0.1,2.3-0.1,3.2v6.7
		c0,1.4,0,3.9,0.1,7.6l-1.4-0.4l-0.3-0.1c-0.1,0-0.1-0.1-0.2-0.1c-0.1,0-0.2-0.2-0.5-0.6c-0.8-0.9-1.3-1.6-1.7-2l-1.8-2.3l-9.9-12
		v10.8c0,0.9,0,2,0.1,3.3c0,0.8,0.1,1.3,0.2,1.4c0.1,0.1,0.2,0.2,0.3,0.3c0.3,0.1,0.9,0.2,1.9,0.2v0.9c-0.8-0.1-1.7-0.1-2.7-0.1
		C508.7,373.5,507.5,373.5,506.3,373.6"/>
	<path d="M530.5,373.6v-0.7c0.5-0.3,1-0.6,1.3-0.8c0.1-0.6,0.1-1.5,0.1-2.6c0.1-1.9,0.1-3.2,0.1-4v-5.7c0-0.9,0-2-0.1-3.2
		c0-0.8-0.1-1.2-0.2-1.4c-0.1-0.1-0.2-0.2-0.3-0.3c-0.3-0.1-1-0.2-1.9-0.2v-0.9c1.4,0,2.6,0.1,3.6,0.1c0.8,0,1.9,0,3.3,0
		c1.4,0,2.5-0.1,3.2-0.1c2.3,0,4.1,0.3,5.5,0.9c1.4,0.6,2.6,1.6,3.5,2.9c1,1.4,1.4,3,1.4,5c0,1.4-0.2,2.7-0.7,4
		c-0.5,1.2-1.1,2.3-1.9,3.2c-0.8,0.9-1.6,1.7-2.5,2.2c-0.9,0.5-1.8,0.9-2.8,1.2c-1,0.3-2.3,0.4-4,0.4c-0.6,0-1.3,0-2.3-0.1
		c-1.3,0-2.1-0.1-2.5-0.1C532.9,373.5,531.9,373.5,530.5,373.6 M534.8,372.1c1,0.2,2.1,0.3,3.2,0.3c1.2,0,2.2-0.1,3.1-0.3
		c0.9-0.2,1.7-0.5,2.3-0.9c0.6-0.4,1.2-0.9,1.9-1.6c0.6-0.7,1.1-1.7,1.4-2.8c0.3-1.1,0.5-2.3,0.5-3.5c0-1.7-0.3-3.2-0.9-4.5
		c-0.6-1.2-1.6-2.2-2.8-2.8c-1.2-0.7-3-1-5.1-1c-1.1,0-2.3,0.1-3.5,0.3c0,0.5-0.1,1.3-0.1,2.4l-0.1,2v5.6l0,4.3
		C534.7,370.2,534.7,371,534.8,372.1"/>
	<path d="M552.3,373.6v-0.9c1,0,1.6-0.1,1.9-0.2c0.1-0.1,0.2-0.1,0.3-0.3c0.1-0.2,0.2-0.7,0.2-1.5c0.1-1.2,0.1-2.3,0.1-3.2v-7.1
		c0-1.3,0-2.5,0-3.7c0-0.9-0.1-1.4-0.2-1.6c-0.1-0.2-0.3-0.3-0.5-0.4c-0.2-0.1-0.9-0.1-2-0.1v-0.9l4,0.1l4.2-0.1c2,0,3.5,0,4.4,0
		c0.9,0,1.8,0.1,2.6,0.2c-0.2,0.5-0.3,1-0.3,1.4c0,0.1-0.1,1.1-0.2,2.9h-0.9c0-0.9-0.1-1.8-0.2-2.6c-0.5-0.2-1.1-0.4-1.7-0.4
		c-1-0.1-2.1-0.2-3.1-0.2c-0.2,0-0.7,0-1.5,0.1c-0.8,0-1.3,0.1-1.7,0.1c0,1-0.1,2-0.1,2.9l-0.1,4.7c1.1,0.1,2.1,0.1,3,0.1
		c1.1,0,2.1-0.1,2.8-0.2c0.3,0,0.5-0.1,0.6-0.2s0.2-0.5,0.2-1.1l0.1-1h0.8v0.3l-0.1,2.9l0.1,3.3h-1l0-1c0-0.7-0.1-1.1-0.2-1.3
		c-0.1-0.2-0.3-0.3-0.6-0.4c-0.5-0.1-1.5-0.2-3.1-0.2c-0.6,0-1.5,0-2.7,0.1c0,0.9-0.1,2.3-0.1,4.2c0,1.7,0,3,0.1,3.9
		c1.3,0.1,2.8,0.2,4.5,0.2c1.2,0,2,0,2.5-0.1c0.5-0.1,1-0.2,1.4-0.4c0.1-0.3,0.2-0.7,0.3-1.2c0.2-0.8,0.4-1.4,0.4-1.9h0.9
		c-0.2,1.9-0.4,3.4-0.4,4.7c-0.8,0.1-1.8,0.2-2.9,0.2l-8.3-0.1C555.9,373.5,554.6,373.5,552.3,373.6"/>
	<path d="M570.1,373.6v-0.7c0.5-0.3,1-0.6,1.3-0.8c0-0.6,0.1-1.5,0.1-2.6c0.1-1.9,0.1-3.2,0.1-4v-5.7c0-0.9,0-2-0.1-3.2
		c-0.1-0.8-0.1-1.2-0.2-1.4c-0.1-0.1-0.2-0.2-0.3-0.3c-0.3-0.1-1-0.2-1.9-0.2v-0.9c1.4,0,2.5,0.1,3.6,0.1c0.8,0,1.9,0,3.3,0
		c1.4,0,2.5-0.1,3.2-0.1c2.3,0,4.1,0.3,5.5,0.9c1.4,0.6,2.6,1.6,3.5,2.9c1,1.4,1.5,3,1.5,5c0,1.4-0.2,2.7-0.7,4
		c-0.5,1.2-1.1,2.3-1.9,3.2c-0.8,0.9-1.6,1.7-2.5,2.2c-0.9,0.5-1.8,0.9-2.8,1.2c-1,0.3-2.3,0.4-4,0.4c-0.6,0-1.3,0-2.3-0.1
		c-1.3,0-2.1-0.1-2.5-0.1C572.5,373.5,571.5,373.5,570.1,373.6 M574.4,372.1c1,0.2,2.1,0.3,3.2,0.3c1.2,0,2.2-0.1,3.1-0.3
		c0.9-0.2,1.7-0.5,2.3-0.9c0.6-0.4,1.3-0.9,1.9-1.6c0.6-0.7,1.1-1.7,1.4-2.8c0.3-1.1,0.5-2.3,0.5-3.5c0-1.7-0.3-3.2-0.9-4.5
		c-0.6-1.2-1.5-2.2-2.8-2.8c-1.3-0.7-3-1-5.1-1c-1.1,0-2.3,0.1-3.5,0.3c0,0.5-0.1,1.3-0.1,2.4l-0.1,2v5.6l0,4.3
		C574.3,370.2,574.3,371,574.4,372.1"/>
	<path d="M448.4,398.3l-0.6-0.2l-0.3-2.7l0.3-0.3c2.4-0.7,5-1.6,7.8-2.8c4.2-1.8,6.8-2.9,8-3.6l0.9,0.3c-0.4,10.2-0.5,16.1-0.5,17.6
		V419c0,5,0.1,8.7,0.2,11.3c0.1,1.5,0.3,2.4,0.6,2.8c0.3,0.4,0.8,0.7,1.3,0.8c0.6,0.2,2.5,0.3,5.8,0.5v2c-5.7-0.2-9.2-0.2-10.6-0.2
		c-1.1,0-4.9,0.1-11.4,0.2v-2c3.4-0.2,5.4-0.4,5.9-0.5c0.5-0.1,0.9-0.3,1.2-0.6c0.3-0.2,0.4-0.6,0.6-1c0.2-0.7,0.3-2.7,0.5-6
		c0.1-3.3,0.2-5.8,0.2-7.5v-13.2c0-5.4,0-8.8,0-10.1c0-0.6-0.1-1-0.2-1.1c-0.1-0.1-0.2-0.1-0.4-0.1c-0.2,0-0.7,0.2-1.5,0.5
		C452.2,396.5,449.7,397.7,448.4,398.3"/>
	<path d="M491.8,436.5v-2c3.5-0.1,5.5-0.2,6.1-0.3c0.6-0.1,1-0.3,1.3-0.6c0.3-0.4,0.5-1.1,0.7-2c0.2-1.6,0.3-3.4,0.3-5.1V424h-7.3
		c-4,0-7.6,0.1-10.8,0.2l-0.6-1.8c1.7-3.2,4-7.2,6.9-11.9c4.2-6.8,8.4-13.4,12.6-19.8c0.3-0.1,0.9-0.4,1.8-0.8
		c1.7-0.7,2.7-1.1,2.9-1.1l0.8,0.4c-0.2,2.7-0.3,6-0.3,9.9c-0.1,8.3-0.2,12.8-0.2,13.6v6.9c3,0,5.5-0.1,7.5-0.2
		c-0.1,1.1-0.1,1.9-0.1,2.2l0.1,2.5c-2.3-0.2-4.2-0.2-5.8-0.2H506v2.3c0,3.7,0.2,6,0.5,6.9c0.1,0.3,0.4,0.6,0.8,0.8
		c0.8,0.4,2.9,0.6,6.2,0.6v2c-4.8-0.2-8.5-0.2-11.1-0.2C499.6,436.2,496,436.3,491.8,436.5 M485.9,419.7h14.3l0.3-23.8
		c-2.4,3.5-5.2,7.8-8.3,12.9C489.1,413.8,487,417.5,485.9,419.7"/>
	<path d="M523.9,398.3l-0.6-0.2l-0.3-2.7l0.3-0.3c2.4-0.7,5-1.6,7.8-2.8c4.1-1.8,6.8-2.9,8-3.6l0.9,0.3c-0.4,10.2-0.5,16.1-0.5,17.6
		V419c0,5,0.1,8.7,0.2,11.3c0.1,1.5,0.2,2.4,0.6,2.8c0.3,0.4,0.8,0.7,1.3,0.8c0.6,0.2,2.5,0.3,5.8,0.5v2c-5.7-0.2-9.2-0.2-10.6-0.2
		c-1.1,0-4.8,0.1-11.3,0.2v-2c3.4-0.2,5.4-0.4,5.9-0.5c0.5-0.1,0.9-0.3,1.2-0.6c0.3-0.2,0.5-0.6,0.6-1c0.2-0.7,0.3-2.7,0.5-6
		c0.1-3.3,0.2-5.8,0.2-7.5v-13.2c0-5.4,0-8.8,0-10.1c0-0.6-0.1-1-0.2-1.1c-0.1-0.1-0.2-0.1-0.4-0.1c-0.2,0-0.7,0.2-1.5,0.5
		C527.6,396.5,525.1,397.7,523.9,398.3"/>
	<path d="M560,435.4c-0.3-1.9-0.6-3.4-0.8-4.4c-0.1-0.6-0.7-2.5-1.5-5.5l1.8-0.7c1.4,3.7,3,6.3,4.8,7.6c1.8,1.3,4.2,2,7.1,2
		c2.1,0,4-0.4,5.4-1.3c1.5-0.8,2.6-2.2,3.6-4c0.9-1.9,1.4-3.9,1.4-6.3c0-3.1-0.8-5.5-2.4-7.1c-1.6-1.7-3.7-2.5-6.4-2.5
		c-0.9,0-1.7,0.1-2.5,0.3c-0.8,0.2-1.9,0.6-3.4,1.2l-0.4-0.3l0.7-3.6c1.8,0.1,3,0.2,3.6,0.2c2.7,0,4.8-1,6.3-2.9
		c1.5-1.9,2.2-4.1,2.2-6.5c0-2.2-0.8-4-2.4-5.5c-1.6-1.5-3.6-2.3-6-2.3c-1.4,0-2.8,0.3-4.2,0.9c-1.3,0.6-2.5,1.4-3.5,2.3
		c-0.4,0.8-1,2.5-1.9,4.8h-2.1l2.1-8c1.5-1.6,2.9-2.7,4.2-3.3c2.2-1,4.5-1.5,7.1-1.5c3.8,0,6.8,1,9,3c2.2,2,3.3,4.4,3.3,7.2
		c0,1.9-0.6,3.8-1.7,5.7c-1.1,1.9-3.1,3.8-5.8,5.7c2.5,0.3,4.5,0.9,6,1.7c1.5,0.8,2.6,2,3.4,3.5c0.8,1.5,1.2,3.2,1.2,5
		c0,2.7-0.8,5.3-2.5,7.8c-1.7,2.6-4,4.7-7.1,6.4c-3,1.7-6.3,2.5-9.9,2.5c-1.6,0-3-0.1-4.3-0.4C563.1,436.7,561.7,436.2,560,435.4"/>
</g>
<g>
	<path d="M112.7,345.8v-1.4c2.4,0.1,4.7,0.1,6.7,0.1c2.1,0,4.2-0.1,6.3-0.1v1.4c-1.7,0-2.8,0.1-3.2,0.2c-0.4,0.1-0.6,0.3-0.8,0.5
		c-0.2,0.3-0.3,1-0.4,2.2c0,0.3-0.1,2.4-0.1,6.3v8.2c0,3.2,0.2,5.3,0.6,6.3c0.4,1,1,1.9,1.9,2.5c0.7,0.5,1.6,0.9,2.8,1.2
		c1.2,0.3,2.4,0.5,3.9,0.5c1.7,0,3.1-0.2,4.4-0.6c1.3-0.4,2.3-0.9,2.9-1.5c0.6-0.6,1.1-1.2,1.4-2c0.3-0.7,0.5-1.7,0.7-3
		c0.1-1.3,0.2-2.9,0.2-4.8V355c0-2,0-4-0.1-5.9c0-1.4-0.1-2.2-0.3-2.5c-0.2-0.3-0.4-0.5-0.8-0.6c-0.4-0.1-1.4-0.2-3.2-0.2v-1.4
		c2.4,0.1,4.2,0.1,5.3,0.1c1,0,2.9-0.1,5.5-0.1v1.4c-1.8,0-2.8,0.1-3.2,0.2c-0.4,0.1-0.6,0.3-0.8,0.5c-0.2,0.3-0.3,1-0.3,2.2
		c0,0.3,0,2.4-0.1,6.3v7.4c0,3.7-0.3,6.2-0.8,7.7c-0.5,1.4-1.4,2.7-2.8,3.8c-1,0.8-2.3,1.5-3.9,1.9c-1.6,0.5-3.4,0.7-5.3,0.7
		c-2.3,0-4.3-0.3-5.9-0.8c-1.7-0.5-2.9-1.2-3.8-2.1c-0.9-0.9-1.5-1.8-1.8-2.7c-0.4-1.2-0.6-3.2-0.6-6.1V355c0-2,0-4-0.1-5.9
		c0-1.4-0.1-2.2-0.3-2.5c-0.2-0.3-0.4-0.5-0.8-0.6C115.6,345.9,114.5,345.8,112.7,345.8z"/>
	<path d="M148,375.9v-1.3l2.1,0c0.3,0,0.6-0.1,0.7-0.2c0.2-0.1,0.3-0.2,0.4-0.4c0.2-0.3,0.3-0.8,0.3-1.6c0-0.2,0-2.3,0.1-6.4v-2.7
		c0-1.2,0-2.5-0.1-3.8c0-0.9-0.1-1.4-0.2-1.6c-0.1-0.2-0.3-0.3-0.5-0.4c-0.2-0.1-1.2-0.1-2.9-0.1v-1.3c3-0.4,5.2-1,6.6-1.6
		c0.3-0.1,0.5-0.2,0.6-0.2c0.1,0,0.2,0,0.2,0.1c0.1,0.1,0.1,0.2,0.1,0.3c0,0.1,0,0.2,0,0.4c0,0.5-0.1,1.7-0.1,3.4l4.1-3.5
		c1.2-0.4,2.4-0.7,3.4-0.7c1.2,0,2.3,0.2,3.4,0.7c1.1,0.5,1.9,1.1,2.4,1.8c0.5,0.7,0.9,1.7,1.1,2.8c0.1,0.7,0.2,2.5,0.2,5.6v3.9
		c0,1.9,0.1,3.2,0.1,3.9c0.1,0.4,0.2,0.8,0.3,0.9c0.2,0.2,0.4,0.3,0.7,0.3l2.4,0.1v1.3c-1.4-0.1-2.7-0.2-3.6-0.2
		c-0.8,0-2.2,0.1-4.1,0.2c0.2-3.7,0.3-6,0.3-6.9v-3.7c0-2.3-0.1-3.8-0.3-4.6c-0.3-1-0.8-1.8-1.7-2.4c-0.9-0.6-2-0.9-3.2-0.9
		c-1.1,0-2.1,0.3-3,0.8c-0.9,0.5-1.6,1.1-2,1.8s-0.6,1.8-0.6,3.5v2.7c0.1,3.8,0.1,5.9,0.1,6.2c0,0.7,0.1,1.3,0.3,1.6
		c0.1,0.1,0.1,0.3,0.3,0.3c0.1,0.1,0.3,0.2,0.6,0.2c0.1,0,0.9,0,2.5,0.1v1.3c-1.8-0.1-3.4-0.2-4.9-0.2
		C152.9,375.7,150.9,375.8,148,375.9z"/>
	<path d="M174.9,357.6v-1.3c2.9-0.3,5.3-0.9,7.2-1.9l0.5,0.3c-0.1,3.2-0.2,5.6-0.2,7.2v4c0.1,3.8,0.1,5.9,0.1,6.2
		c0,0.7,0.1,1.3,0.2,1.6c0.1,0.1,0.2,0.3,0.3,0.3c0.1,0.1,0.3,0.2,0.5,0.2c0.1,0,0.9,0,2.5,0.1v1.3c-2.3-0.1-4-0.2-5.4-0.2
		c-1.2,0-3.1,0.1-5.8,0.2v-1.3l2.1,0c0.3,0,0.6-0.1,0.7-0.2c0.2-0.1,0.3-0.2,0.4-0.4c0.2-0.3,0.3-0.8,0.3-1.6c0-0.2,0-2.3,0.1-6.4
		v-3.9c0-2.2-0.1-3.5-0.2-3.9c-0.1-0.2-0.3-0.4-0.5-0.5C177.6,357.7,176.6,357.6,174.9,357.6z M180.3,344.6c0.7,0,1.3,0.2,1.8,0.7
		c0.5,0.5,0.7,1.1,0.7,1.8c0,0.7-0.2,1.3-0.7,1.8c-0.5,0.5-1.1,0.7-1.8,0.7c-0.7,0-1.3-0.2-1.8-0.7c-0.5-0.5-0.7-1.1-0.7-1.8
		c0-0.7,0.2-1.3,0.7-1.8C179,344.9,179.6,344.6,180.3,344.6z"/>
	<path d="M198.4,376.1c-0.6-1.5-1-2.5-1.2-3l-1.8-4.2l-4.5-10.6c-0.3-0.7-0.6-1.1-0.8-1.3c-0.2-0.2-0.4-0.4-0.7-0.4
		c-0.2-0.1-0.8-0.1-1.6-0.1V355c2.5,0.1,4.2,0.2,5.4,0.2c1.2,0,2.9-0.1,5.1-0.2v1.3c-1.6,0-2.5,0.1-2.8,0.3
		c-0.3,0.2-0.4,0.4-0.4,0.7c0,0.4,0.3,1.4,0.9,2.9l2.7,6.7l0.6,1.5c0.7,1.8,1.2,2.9,1.5,3.5l2.2-5c0.1-0.3,0.8-2,2-5
		c0.7-1.8,1.2-3.1,1.4-4c0.1-0.3,0.1-0.5,0.1-0.7c0-0.3-0.1-0.4-0.3-0.5c-0.4-0.2-1.3-0.3-2.8-0.4V355c2.2,0.1,3.6,0.2,4.2,0.2
		c0.5,0,1.9-0.1,4.2-0.2v1.3c-0.9,0-1.5,0.1-1.8,0.3c-0.3,0.2-0.6,0.5-0.9,1.1c-0.2,0.4-1,2-2.4,4.8l-2.1,4.5
		c-0.4,0.8-1.6,3.8-3.8,9L198.4,376.1L198.4,376.1z"/>
	<path d="M232.4,372.4l-0.7,1.6c-1,0.6-1.8,1.1-2.2,1.3c-0.7,0.3-1.5,0.6-2.4,0.8c-0.9,0.2-1.8,0.3-2.8,0.3c-2,0-3.7-0.4-5.3-1.2
		c-1.6-0.8-2.8-2-3.7-3.6c-0.9-1.6-1.3-3.5-1.3-5.7c0-1.7,0.2-3.2,0.7-4.6c0.5-1.4,1-2.4,1.6-3c0.4-0.5,1.1-1,2-1.6
		c0.9-0.6,1.8-1.1,2.7-1.4c1.2-0.5,2.4-0.7,3.8-0.7c1.7,0,3.2,0.4,4.5,1.1c1.3,0.8,2.3,1.8,2.9,3.1c0.6,1.3,0.9,2.8,0.9,4.4
		c0,0.4,0,0.9-0.1,1.5c-1.1,0.2-2,0.3-2.9,0.4c-1.6,0.1-3.2,0.2-4.8,0.2h-7.1c0,2.1,0.4,3.8,1.1,5.1c0.7,1.3,1.7,2.3,2.9,2.9
		c1.2,0.6,2.5,0.9,3.8,0.9c0.9,0,1.8-0.1,2.7-0.4c0.9-0.3,2-0.8,3.3-1.6L232.4,372.4z M218.2,363.4c0.4,0,1.2,0.1,2.3,0.1
		c2.2,0.1,3.7,0.1,4.6,0.1c2,0,3.3,0,3.9-0.1c0-0.4,0-0.6,0-0.8c0-2.3-0.5-4.1-1.4-5.1c-0.9-1.1-2.2-1.6-3.8-1.6c-1.7,0-3,0.6-4,1.8
		C218.7,358.9,218.2,360.8,218.2,363.4z"/>
	<path d="M235.6,375.9v-1.3c1.7,0,2.6-0.1,2.7-0.1c0.3,0,0.4-0.1,0.6-0.2c0.1-0.1,0.2-0.2,0.3-0.4c0.1-0.3,0.2-0.9,0.3-1.6
		c0.1-3.9,0.1-6,0.1-6.2v-2.6c0-1.2,0-2.5-0.1-3.8c0-0.9-0.1-1.4-0.2-1.6c-0.1-0.2-0.3-0.3-0.5-0.4c-0.3-0.1-1.2-0.1-2.9-0.1v-1.3
		c3-0.4,5.2-1,6.5-1.6c0.3-0.1,0.5-0.2,0.6-0.2c0.1,0,0.2,0,0.2,0.1c0.1,0.1,0.1,0.2,0.1,0.3c0,0.1,0,0.2,0,0.4
		c-0.1,0.9-0.1,2.3-0.1,4.2c0.7-0.8,1.3-1.5,1.8-2.3c0.6-0.8,1-1.2,1.2-1.5c0.4-0.4,1-0.7,1.5-0.9c0.6-0.2,1.2-0.3,1.8-0.3
		c0.6,0,1.2,0.1,1.8,0.4l0.1,0.3c-0.2,2-0.3,3.7-0.4,5.2h-1c-0.3-0.7-0.7-1.2-1.2-1.6c-0.4-0.3-1-0.5-1.7-0.5
		c-1.1,0-2.1,0.5-2.9,1.4c-0.8,0.9-1.2,2.4-1.2,4.2v2.3c0,1,0,2.8,0.1,5.3c0,0.9,0.1,1.5,0.1,1.8c0.1,0.3,0.1,0.4,0.2,0.5
		c0.1,0.1,0.3,0.2,0.5,0.3c0.4,0.1,1.6,0.3,3.6,0.4v1.3c-2.6-0.1-4.8-0.2-6.7-0.2C239.2,375.7,237.4,375.8,235.6,375.9z"/>
	<path d="M254.5,369.2h1.3c0,0.9,0.1,1.5,0.1,2c0.1,0.5,0.2,1,0.4,1.5c0.2,0.5,0.5,0.9,0.8,1.2c0.4,0.3,0.8,0.6,1.2,0.8
		c0.4,0.2,0.9,0.3,1.3,0.4c0.4,0.1,1.1,0.1,2.1,0.1c1.5,0,2.7-0.4,3.7-1.2c1-0.8,1.5-1.9,1.5-3.3c0-0.6-0.2-1.2-0.5-1.6
		c-0.3-0.5-0.7-0.8-1.3-1.1c-0.6-0.3-1.8-0.6-3.7-1c-1.9-0.4-3.1-0.7-3.6-0.9c-0.8-0.3-1.5-0.7-2-1.1c-0.5-0.4-0.9-1-1.2-1.7
		c-0.3-0.7-0.4-1.4-0.4-2.2c0-1.2,0.3-2.2,0.9-3.2c0.6-1,1.6-1.8,2.9-2.4c1.3-0.6,2.7-0.9,4.3-0.9c0.9,0,2,0.1,3.2,0.4
		c1.2,0.3,2.2,0.6,3,1c-0.1,1.6-0.2,3.3-0.2,5h-1.2c-0.1-1.1-0.2-1.8-0.3-2.1c-0.1-0.3-0.2-0.6-0.4-0.9c-0.2-0.3-0.4-0.6-0.9-0.9
		c-0.4-0.3-0.9-0.6-1.5-0.8c-0.6-0.2-1.4-0.4-2.3-0.4c-1.3,0-2.4,0.4-3.2,1.2c-0.8,0.8-1.2,1.7-1.2,2.7c0,0.6,0.1,1.1,0.3,1.5
		c0.2,0.4,0.5,0.8,0.9,1c0.4,0.3,0.9,0.5,1.6,0.7l3.7,0.9c1.9,0.5,3.2,0.9,3.9,1.2c0.7,0.3,1.3,0.9,1.7,1.6c0.4,0.7,0.6,1.6,0.6,2.6
		c0,2-0.8,3.7-2.5,5.2c-1.7,1.5-3.9,2.2-6.6,2.2c-1.3,0-3-0.2-5.1-0.6c-1.2-0.2-1.8-0.4-1.9-0.5c-0.1-0.1-0.1-0.1-0.1-0.2
		c0-0.1,0-0.2,0-0.4c0.1-0.6,0.2-1.3,0.3-1.9C254.5,372.4,254.5,371.1,254.5,369.2z"/>
	<path d="M272.8,357.6v-1.3c2.9-0.3,5.3-0.9,7.2-1.9l0.5,0.3c-0.1,3.2-0.2,5.6-0.2,7.2v4c0.1,3.8,0.1,5.9,0.1,6.2
		c0,0.7,0.1,1.3,0.2,1.6c0.1,0.1,0.2,0.3,0.3,0.3c0.1,0.1,0.3,0.2,0.5,0.2c0.1,0,0.9,0,2.5,0.1v1.3c-2.3-0.1-4-0.2-5.4-0.2
		c-1.2,0-3.1,0.1-5.8,0.2v-1.3l2.1,0c0.3,0,0.6-0.1,0.7-0.2c0.2-0.1,0.3-0.2,0.4-0.4c0.2-0.3,0.3-0.8,0.3-1.6c0-0.2,0-2.3,0.1-6.4
		v-3.9c0-2.2-0.1-3.5-0.2-3.9c-0.1-0.2-0.2-0.4-0.5-0.5C275.5,357.7,274.5,357.6,272.8,357.6z M278.2,344.6c0.7,0,1.3,0.2,1.8,0.7
		c0.5,0.5,0.7,1.1,0.7,1.8c0,0.7-0.2,1.3-0.7,1.8c-0.5,0.5-1.1,0.7-1.8,0.7c-0.7,0-1.3-0.2-1.8-0.7c-0.5-0.5-0.7-1.1-0.7-1.8
		c0-0.7,0.2-1.3,0.7-1.8C276.9,344.9,277.5,344.6,278.2,344.6z"/>
	<path d="M286,358.5v-0.9c1.4-0.6,2.6-1.1,3.4-1.5c0-3.5,0-5.8,0-6.7c1.5-0.5,2.8-1.1,3.7-1.7l0.5,0.4c-0.2,1.2-0.3,3.9-0.5,8.1
		c1.2,0,1.9,0,2.1,0c0.1,0,0.9,0,2.3,0c0.8,0,1.3,0,1.7-0.1l0.1,0.2l-0.5,2.1c-0.9,0-1.8,0-2.6,0c-0.8,0-1.9,0-3.3,0l-0.1,9
		c0,2.2,0,3.5,0,3.9c0.1,0.4,0.2,0.8,0.4,1.1c0.2,0.3,0.5,0.6,0.8,0.8c0.3,0.2,0.9,0.3,1.7,0.4c0.6,0,1.1,0,1.5-0.1
		c0.4-0.1,0.8-0.2,1.4-0.4l0.3,0.9c-0.7,0.6-1.4,1.1-2,1.7c-0.6,0.2-1.1,0.3-1.6,0.4c-0.5,0.1-1,0.1-1.7,0.1c-0.8,0-1.4-0.1-1.9-0.3
		c-0.5-0.2-0.9-0.4-1.3-0.7c-0.4-0.3-0.7-0.7-1-1.2c-0.3-0.5-0.4-1.3-0.5-2.3c0-1,0-2.1,0.1-3.3c0-0.2,0-0.5,0-0.8v-9.2h-0.9
		C287.8,358.4,286.9,358.4,286,358.5z"/>
	<path d="M300.8,387.8l1.1-3.4h0.5c0.3,0.2,0.5,0.4,0.7,0.6c0.2,0.1,0.4,0.2,0.6,0.3c0.2,0.1,0.6,0.1,1,0.1c0.5,0,0.9-0.1,1.3-0.3
		c0.4-0.2,0.8-0.5,1.2-0.9c0.4-0.4,0.8-1.2,1.3-2.2c0.8-1.6,1.5-3.2,2.1-4.8c-0.5-1.3-1-2.8-1.7-4.5l-3.5-8.7
		c-1.1-2.6-1.9-4.6-2.6-6c-0.3-0.5-0.5-0.9-0.9-1.1c-0.3-0.2-1-0.3-2-0.5V355c1.8,0.1,3.7,0.2,5.4,0.2c1.7,0,3.4-0.1,5-0.2v1.3
		c-1.5,0.1-2.4,0.2-2.6,0.3c-0.4,0.1-0.6,0.4-0.6,0.8c0,0.2,0.1,0.7,0.4,1.4c0.6,1.8,1.1,3.4,1.6,4.7l1.4,3.5c0.8,2.1,1.6,3.8,2.1,5
		l1.2-2.6c0.5-1,1.3-3,2.4-5.9c1.2-2.9,1.8-4.7,2-5.4c0.1-0.2,0.1-0.4,0.1-0.6c0-0.3-0.1-0.5-0.3-0.7c-0.2-0.2-1.1-0.3-2.7-0.5V355
		c1.7,0.1,3.2,0.2,4.6,0.2c1.3,0,2.6-0.1,3.9-0.2l-0.2,1.3c-0.8,0-1.3,0.2-1.8,0.5c-0.4,0.3-1,1.3-1.9,3c-0.8,1.7-2.4,5-4.7,10
		l-5.1,12c-0.8,1.9-1.5,3.3-2.1,4.2c-0.6,0.8-1.3,1.5-2.2,1.9c-0.8,0.4-1.8,0.6-2.8,0.6c-0.5,0-0.9-0.1-1.3-0.2
		C301.7,388.2,301.3,388,300.8,387.8z"/>
	<path d="M338,365.7c0-3.3,1.1-6,3.2-8.1c2.1-2.1,4.8-3.1,8.1-3.1c3.1,0,5.6,1,7.6,2.9c2,2,2.9,4.5,2.9,7.6c0,2.2-0.5,4.1-1.5,5.9
		c-1,1.8-2.4,3.2-4.3,4.2s-3.9,1.5-6.1,1.5c-1.7,0-3.2-0.3-4.4-0.9c-1.2-0.6-2.2-1.3-2.9-2.2c-0.7-0.9-1.3-1.8-1.7-2.7
		C338.3,369.2,338,367.5,338,365.7z M342.1,364c0,1.8,0.3,3.7,0.9,5.6c0.6,1.9,1.5,3.3,2.6,4.1c1.1,0.9,2.4,1.3,3.7,1.3
		c1.7,0,3.2-0.7,4.3-2c1.2-1.4,1.7-3.5,1.7-6.3c0-2.4-0.3-4.4-1-6.1c-0.7-1.7-1.6-2.9-2.6-3.6c-1.1-0.7-2.2-1.1-3.5-1.1
		c-1.8,0-3.3,0.7-4.4,2C342.7,359.2,342.1,361.2,342.1,364z"/>
	<path d="M362.9,358.5v-0.9c1.2-0.5,2.2-1,3.1-1.5v-1.3c0-1.9,0.1-3.3,0.4-4.1c0.2-0.8,0.6-1.5,1-2.1c0.7-0.9,1.7-2.1,3.2-3.5
		c1-0.9,1.7-1.5,2.1-1.8c0.6-0.3,1.3-0.5,2.1-0.5c0.6,0,1.2,0.1,1.8,0.3l0.1,3.7l-0.5,0.2c-0.5-0.4-0.9-0.7-1.4-0.8
		c-0.5-0.2-1-0.3-1.6-0.3c-0.8,0-1.5,0.2-2,0.5c-0.5,0.3-0.9,0.8-1.1,1.4c-0.2,0.6-0.3,1.8-0.3,3.7v4.6h2.3c1.2,0,2.3-0.1,3.5-0.2
		l0.2,0.1l-0.4,2.3c-1.3-0.1-2.2-0.1-2.8-0.1c-0.6,0-1.6,0-2.8,0.1v7.9c0,1,0,2.7,0.1,5.3c0,0.9,0.1,1.5,0.1,1.8
		c0.1,0.3,0.1,0.4,0.2,0.5c0.1,0.1,0.3,0.2,0.5,0.3c0.4,0.1,1.6,0.3,3.6,0.4v1.3c-3.4-0.1-5.6-0.2-6.3-0.2c-0.7,0-2.6,0.1-5.7,0.2
		v-1.3l2.1,0c0.3,0,0.6-0.1,0.7-0.2c0.2-0.1,0.3-0.2,0.4-0.4c0.2-0.3,0.3-0.8,0.3-1.6c0-0.2,0-2.3,0.1-6.4v-7.8L362.9,358.5z"/>
</g>
<path fill="#FFFFFF" d="M5.2,341.9c-0.1,2.6-0.6,16.4-0.6,16.4c-0.4,9.6-0.7,18-0.7,25.5c0,33,6.4,48.1,43.1,65.9
	c36.8-17.8,43.1-32.9,43.1-65.9c0-7.5-0.3-16-0.7-25.6c0,0-0.5-13.8-0.6-16.4C88.9,341.9,5.2,341.9,5.2,341.9z"/>
<g>
	<path fill="#EE3124" d="M86.3,344.7H7.9l-0.8,21.9h80.2L86.3,344.7z M49.7,365.1l-0.1-0.2c0,0,0.6-0.3,1.4-0.7
		c1.5-0.9,2.8-2.9,2.8-4.7c0-3.2-3-5.9-6.8-5.9c-3.8,0-6.9,2.6-6.9,5.9c0,1.8,1.3,3.8,2.8,4.7c0.8,0.5,1.4,0.7,1.4,0.7l-0.1,0.2
		c0,0-0.7-0.2-1.4-0.7c-2.6-1.6-4.1-4.3-4.1-6.7c0-4.1,3.8-7.4,8.3-7.4c4.5,0,8.3,3.3,8.3,7.4c0,2.4-1.4,5-4.1,6.7
		C50.4,364.9,49.7,365.1,49.7,365.1z M51.6,364.7l0-0.2c2.4-1.6,4-4.2,4-6.8c0-4.3-3.9-7.8-8.7-7.8c-4.7,0-8.7,3.5-8.7,7.8
		c0,2.5,1.6,5.2,4,6.8l-0.1,0.2c-3.6-1.7-6.2-5-6.2-8.6c0-5.1,5.1-9.3,11-9.3c5.9,0,10.9,4.2,10.9,9.3
		C57.9,359.7,55.3,363.1,51.6,364.7z"/>
	<path fill="#EE3124" d="M57.1,369v12.3c-0.1,0.1-1,0.8-2.5,0.8c-1.5,0-3.4-0.7-5-0.7c-1,0-1.8,0.4-2.5,1.1h-0.4c0,0-1-1.1-2.5-1.1
		c-1.6,0-3.5,0.7-5,0.7c-1.5,0-2.3-0.8-2.5-0.9V369c-0.3,0.6-1,1.3-1.6,1.3v12.1c0.6,0.5,1.4,0.7,2.2,0.7c2,0.1,4.4-0.9,6.5-0.9
		c1.1,0,2.2,0.3,3,1.2c0.8-0.9,1.8-1.2,3-1.2c2.1,0,4.5,0.9,6.5,0.9c0.8,0,1.6-0.2,2.2-0.7v-12.1C58.1,370.3,57.3,369.6,57.1,369z"
		/>
</g>
<path fill="#EE3124" d="M77.4,419.4c-0.2-0.8-0.9-1.4-1.6-1.5c0.1,0.1,0.3,0.3,0.4,0.4c0.7,0.8,0.3,2.7-0.5,3.1
	c0.3-1.1-0.5-2-1.7-1.7c0.4,0.3,0.7,1,0.5,1.6c-0.2,0.6-0.9,1.2-1.6,1.1c-1-0.2-0.4-1.5-0.5-2.3c0-1.1-0.8-1.7-1.3-1.9
	c-0.1,0,0-0.1,0-0.1c0.4,0.1,0.7,0.3,1.3,0.2c0.7,0,1.3-0.4,1.5-0.7c0.3-0.4,0.4-1,0.2-1.4c-0.1,0.2-0.3,0.4-0.5,0.6
	c-0.4,0.4-1.2,0.4-1.8,0.1c-0.6-0.3-1.2-0.9-1.6-1.5c-1.6-2.1-3.4-4.3-5.4-5.5c-1.2-0.8-2.8-1.4-4.3-1.5c-0.9,0-1.8,0.2-2.6,0.7
	c-1.1,0.7-1.7,1.8-1.8,2.9c-0.2,1.3,0.3,2.6,1.1,3.6c1.1,1.4,2.5,2.3,3.9,3.2c1,0.7,2.1,1.4,3,2.2c0.8,0.6,1.4,1.3,1.6,2.3
	c0.2,0.9-0.2,1.5-0.5,1.9c-0.7,0.5-2.4,0.5-3-0.1c-0.4-3.1-2.6-4.5-5.4-5.2c-1.3-0.3-2.8-0.7-3.9-1.3c-1-0.5-1.9-1.1-2.4-2.4
	c-0.2,0-0.6,0-1-0.2c-0.8-0.3-1.1-0.9-1.3-1.3c0.5,0.5,0.9,0.8,2.2,0.9c0.8,0,1.8-0.4,2.1-1c-0.8,0.1-1.4,0.1-1.8-0.2
	c-0.4-0.3-0.9-0.9-0.8-1.5c0.7,0.8,2.1,1.1,3.4,0.4c0.2-0.1,0.7-0.5,0.8-0.7c-0.7,0.1-1.3,0-1.7-0.4c-0.4-0.3-0.7-0.8-0.7-1.5
	c0.4,0.4,1.2,0.7,2,0.6s1.5-0.3,1.7-1c-0.6,0.1-1.1,0-1.6-0.3c-0.4-0.3-0.7-0.7-0.8-1.2c-0.7-0.1-1.3-0.4-1.7-0.8
	c-0.4,0.6-0.6,2-0.5,2.9c-1.2,0-2.2-0.9-2.4-2c-0.5,0.6-0.6,2-0.3,2.8c-1.4-0.1-2.3-0.8-2.6-2c-0.2,0.4-0.3,1-0.3,1.6
	c0,0.2,0,0.5,0.1,0.8c0,0-0.3,0-0.8-0.4c-0.6-0.4-1.2-1.5-1.1-2c0.4,0.6,0.8,1,1.4,1.4c-0.1-1.3,0.5-2.3,1.2-2.8
	c0,1.4,0.5,2.2,1.6,2.5c-0.2-0.8,0.1-1.5,0.2-2c0.2-0.5,0.7-1.1,1-1.3c0,1.1,0.5,2.3,1.5,2.5c0-0.9,0.1-1.9,0.5-2.5
	c0.2-0.3,0.3-0.6,0.6-0.7c0.3,0.9,1.4,1.4,2.5,1.4c2.8,0.1,3-2.2,3-2.2c-0.4,0.2-0.9,0.5-1.8,0.5c-1.2,0-1.5-0.9-1.5-0.9
	c0.7,0.3,2-0.1,2.6-0.6c0.4-0.3,0.9-1,0.9-1.6c0-0.6-0.1-1.1-0.5-1.3c-0.5,1.2-3.1,1.9-4.1,0.6c1,0.1,1.9-0.4,2.3-1
	c0.1-0.2,0.2-0.7,0.1-0.9c0,0-0.7,0.5-1.7,0.5c-1,0-1.6-0.4-1.6-0.4c0.7,0,2-0.8,1.9-1.6c0,0-0.4,0.2-0.7,0.2
	c-0.8,0.1-1.7,0-2.2-0.4c0-0.1,0.3-2.1,0.1-2.3c-0.9,0.4-1.7,1-2.2,1.9c-0.5-0.1-1.1-0.2-1.9-0.1c-0.7,0-1.5,0.1-1.9,0.3
	c-0.2,0.1-0.5,0.3-0.7,0.5c-0.2,0.2-0.3,0.5-0.5,0.7c-0.5,0.3-1.3,0.4-2,0.5c-0.5,0.1-1.2,0-1.3,0.4c-0.2,0.4,0.2,0.7,0.3,0.9
	c0.1,0.1,0.2,0.4,0.3,0.6c0.1,0.2,0.1,0.5,0.2,0.7c0.7,1.1,1.3,0.6,2,0.4c0.8-0.3,1.9-0.6,2.9-0.6c0.6,0,1.2,0.1,1.7,0.4
	c0.4,0.3,0.7,0.9,0.6,1.4c0,0.5-0.2,0.9-0.6,1.2c-0.2,0.2-0.9,0.6-1.9,0.6c-1.2,0-2.4-0.6-3.5-0.6c-0.3,0-0.6,0.1-0.7,0.2
	c-0.3,0.3-0.3,0.8,0,1.2c1.1,0,1,1.2,0.9,1.7c-0.5,1.4-1.6,1.4-2.1,1.4c-0.6-0.1-1.3-0.3-1.5-0.7c-0.5,1.5,0.5,2.8,1.9,2.8
	c-1,0.8-2.9,0.2-3.1-0.9c-0.1,0.2-0.3,0.5-0.3,0.8c-0.1,1.9,1.4,2.6,3.3,2.6c-1.1,0.5-2.5,0.2-3.8-0.1c-1.2-0.3-1.8-0.6-2.6-1.1
	c-1-0.5-2.1-1.3-2.6-2.2c-0.2-0.3-0.4-0.9-0.3-1.3c0.1-1.4,1.7-1.6,1.5-3.3c-1.1-0.3-2.3,0.2-2.6,1.3c-0.1,0.3-0.1,0.6-0.1,1
	c-0.4-0.4-0.8-0.8-1.3-1.2c-0.4-0.3-0.8-0.5-1.2-0.5c0,0-0.1,0.3-0.4,0.7c-0.1,0.1-0.6,0.5-0.6,0.5c0,0.3,0.3,0.6,0.4,0.6
	c0.4,0.3,1.1,0.5,1.4,1c0.1,0.1,0.1,0.3,0.1,0.5c-0.3,0.1-0.6,0.1-0.9,0c-0.9-0.2-1.5-1-2.6-1c-0.4,0-0.8,0-1,0.3
	c0.3,0.4,0.2,1.1,0,1.5c0.2,0.4,0.5,0.5,0.9,0.6c0.6,0.1,1.3,0,1.8,0c0.3,0,0.6,0.1,0.7,0.3c-0.3,0.2-0.6,0.4-1,0.5
	c-0.8,0.2-1.8-0.4-2.5,0c0,0,0.2,0.3,0,0.7c-0.1,0.3-0.3,0.7-0.3,0.7c0.4,0.3,0.7,0.4,1.1,0.5c0.7,0,1.5-0.4,2.2-0.7
	c0.4-0.1,0.7-0.2,1-0.2c-0.6,0.8-1.5,1.5-2.6,1.6c-0.1,0-0.3,0-0.3,0c0,0.1,0.3,0.2,0.4,0.3c0.2,0.1,0.7,0.2,1,0.3
	c1.5,0.1,2.7-0.4,3.7-1c-0.5,0.9-1.3,1.4-2.3,1.8c0.1,0.1,0.4,0.2,0.6,0.2c2.3,0.4,4.3-1.2,4.3-1.2c0,0.4-0.4,1.1-1.1,1.5
	C31.4,418,31,418,31,418c0.3,0.3,1.1,0.4,1.7,0.3c0.7,0,1.4-0.3,2.1-0.4c1-0.2,1.7-0.1,2.3-0.3c-0.7,0.3-1.4,0.6-2.2,0.8
	c-0.9,0.3-1.7,0.8-2.5,1.2c-0.8,0.4-1.6,1.1-2.3,1.4c-0.8,0.4-1.8,0.2-2.2-0.4c-0.2-0.3-0.2-0.7-0.3-1.1c-0.2-0.8-0.8-1.6-1.8-1.5
	c-0.1,0.7-0.7,1.2-1,1.4c0.1,1.3,1.8,1.3,2,2.7c-0.1,0.1-0.5,0.1-0.8,0c-0.7-0.2-1.2-0.5-1.8-0.5c-0.4,0-0.7,0.1-1.1,0.3
	c0.1,0.1,0.2,0.3,0.3,0.5c0.1,0.4,0,0.9-0.2,1.2c0.3,0.3,0.6,0.4,0.9,0.4c0.6,0,1.3-0.2,1.9-0.3c0.3,0,0.7,0,1,0.1
	c-0.3,0.8-1.6,0.8-2.5,1c-0.4,0.1-0.8,0.3-1,0.7c0.6,0.2,1.1,0.7,1.1,1.6c0.3,0,0.6-0.1,0.9-0.1c0.8-0.4,1.3-1.2,2.1-1.5
	c0,0.9-0.6,1.4-0.7,2.2c0,0.2,0,0.5,0,0.8c0,0,0.4-0.2,0.8-0.2c0.4,0,0.6,0.1,0.8,0.3c0.2-0.2,0.4-0.5,0.4-0.8
	c0.1-0.6,0.1-1.3,0.1-1.9c0.1-0.3,0-0.5,0.3-0.5c1.1,0,2.3-0.6,2.7-1.1c-0.2,0.7-0.4,1.1-0.8,1.6c-0.1,0.2-0.4,0.4-0.6,0.6
	c0.7,0.1,1.4-0.1,1.9-0.5c1.2-0.8,2.1-1.7,2.6-2.9c0.1,0.5,0.1,1.2-0.1,1.7c-0.1,0.4-0.4,0.7-0.5,0.9c0.2,0,0.6,0,0.8-0.1
	c0.8-0.4,1.5-1.1,1.9-2c0.2-0.5,0.5-1.1,0.5-1.7c0.5,0.5,0.6,1.4,0.2,2.3c-0.1,0.2-0.2,0.4-0.3,0.5c0.6-0.1,1-0.4,1.4-0.8
	c0.7-0.6,1.2-1.9,1.1-3c0.6,0.5,0.8,2,0.4,2.9c0.6-0.1,1-0.5,1.4-0.9c0.5-0.5,0.7-0.9,1-1.8c0.3-0.9,0.1-1.5,0.1-1.5
	c0.1,0.1,0.3,0.4,0.3,0.7c0.3,1.1-0.1,2.3-1,3.2c-0.1,0.1-0.5,0.4-0.5,0.4c0.6,0.8,1.7,1.2,2.9,1.2c2,0.1,3.2-0.7,5.1-0.9
	c-0.8,0.4-1.5,0.8-2,1c-1.1,0.5-2.1,0.8-3,0.8c-0.5,0-1.1,0-1.6-0.3c-0.4,0.5-0.4,1-0.4,1.8c0.1,1,0.7,1.7,0.4,2.7
	c-0.5,2-4,1.7-5.3,0.7c-1.1-0.8-1-2.7-1.9-3.5c-0.3-0.2-0.6-0.4-1.2-0.4c-0.2,0.6-0.6,1-1.1,1.3c0.1,0.4,0.3,0.6,0.5,0.9
	c0.4,0.4,0.9,0.7,1.3,1.2c0.1,0.2,0.2,0.4,0.3,0.7c-0.4,0-0.7-0.1-0.9-0.2c-0.7-0.3-1.3-1-2.1-1.2c-0.3,0-0.6,0-1,0
	c0.1,0.4-0.1,1.1-0.5,1.4c0.3,0.8,1.1,1.3,2.2,1.3c0.6,0,1.3,0,1.6,0.4c-0.8,0.9-2.1,0-3.3,0c-0.3,0-0.6,0.1-0.9,0.2
	c0,0.1,0.2,0.3,0.2,0.6c0,0.4-0.2,0.9-0.2,0.9c0,0.3,0.7,0.5,1.1,0.5c0.3,0,0.5,0,0.8,0c0.8-0.1,1.8-0.7,2.6-0.7
	c0.1,0,0.4,0.1,0.4,0.2c-0.3,0.7-1,0.8-1.4,1.2c-0.1,0.2-0.3,0.4-0.3,0.7c0.7-0.2,1,0.1,1.3,0.5c0.3,0,0.6-0.1,0.8-0.2
	c0.4-0.3,0.7-1,1-1.4c0.1-0.1,0.2-0.3,0.5-0.3c0.1,0,0.3,0.3,0.5,0.5c0.6,0.8,1.6,1.4,2.9,1.2c0.4,0,0.8-0.2,1-0.5
	c-0.8-0.1-1.4-0.7-1.7-1.5c0.7,0.5,2,1,3.1,0.8c0.1,0,0.5-0.1,0.5-0.3c-0.8-0.2-1.5-1-1.2-2c0.4,0.6,1.1,1.2,2,1.3
	c0.3,0,0.6,0,0.9-0.2c-0.1-0.1-0.3-0.3-0.4-0.5c-0.1-0.2-0.2-0.5-0.1-0.8c0.1-0.7,1.1-0.9,1.8-1c0.9-0.1,1.8,0.1,2.6-0.2
	c0.5-0.2,1-0.6,1-1.2c-0.3,0.2-0.7,0.4-1.2,0.3c-0.7-0.1-1-0.7-1-1.1c0-0.9,0.5-1.3,1.6-1.4c0.5,0,1.2,0.1,1.6,0.3
	c0,0,0.7,0.3,0.7,0.2c-0.3-0.6,0-1.7,0.2-2.2c0.4-0.8,0.8-1.3,1-2.1c0,0.1,0.1,0.3,0,0.5c-0.1,0.9-0.4,1.4-0.5,2.4
	c-0.1,0.5,0.1,1.2,0.6,1.6c0.8,0.7,2.2,0.9,2.7,2c0.3,0.9,0,1.6-0.4,2.1c-0.6,0.8-1.5,1.6-2.5,2c-0.3,0.1-0.8,0.4-1.2,0.2
	c-0.9-0.3-1.2-1.9-1.9-2.4c-0.3-0.2-0.7-0.2-1.1-0.2c-0.1,0.3-0.1,0.4-0.3,0.7c-0.1,0.2-0.5,0.4-0.5,0.4c0,0.3,0.3,0.6,0.4,0.8
	c0.4,0.4,1.3,0.6,1.5,1.1c-0.1,0.1-0.3,0.2-0.5,0.2c-0.9,0-1.4-0.8-2.3-0.9c-0.2,0-0.6,0-0.8,0.2c0,0.2,0,0.3,0,0.6
	c-0.1,0.3-0.2,0.4-0.3,0.5c0.1,0.7,1.3,0.8,2.3,0.8c0.3,0,0.6,0.1,0.7,0.3c-0.2,0.2-0.5,0.4-0.9,0.5c-0.7,0.1-1.3-0.3-2-0.3
	c-0.2,0-0.5,0.1-0.8,0.2c0.1,0.2,0.1,0.5,0,0.7c-0.1,0.3-0.1,0.5-0.2,0.6c0.1,0.1,0.5,0.3,0.8,0.3c1,0.1,1.8-0.7,2.8-0.4
	c-0.4,0.6-1.1,0.7-1.7,1c-0.2,0.1-0.5,0.4-0.6,0.7c0.2,0.1,0.4,0.2,0.5,0.4c0.1,0.2,0.2,0.4,0.2,0.6c1.2,0.1,1.8-0.7,2.3-1.4
	c0.8-0.9,2-1.5,3.6-1.6c1.8-0.1,4,0.7,4.8-0.8c-1,0-2.1-0.2-2.5-0.9c1.7,0.5,3.8,0,4.7-1.1c-1.2,0.2-2.4-0.1-2.9-0.8
	c1.3,0.3,2.7,0.1,3.8-0.5c0.7-0.4,1.4-1,1.6-1.7c-0.1,0-0.3,0.1-0.5,0.2c-0.8,0.4-2.3,0.3-2.7-0.4c0.8,0,1.5-0.1,2-0.4
	c0.7-0.4,1.1-1,1.4-1.5c0.3-0.5,0.6-1.1,0.9-1.5c0.2-0.2,0.3-0.3,0.5-0.3c-0.1-0.1-0.5-0.2-0.7-0.1c-1.1,0.2-1.6,1.2-2.6,1.4
	c0.4-1.1,0.5-2.5,0.6-3.7c2.1,0.8,3.9,0.2,4.8-1.1c0.5-0.8,0.7-1.7,0.7-2.3c0-1.3-0.7-2.2-1.3-2.9c-1.2-1.3-2.8-2.3-4.2-3.3
	c-1-0.7-2-1.4-2.9-2.2c-0.6-0.5-1.3-1.3-1.4-2.2c-0.2-1.4,0.6-2.5,1.6-2.7c3.1-0.9,6.2,2.4,7.7,4.2c0.3,0.4,1.6,1.8,1.1,2.8
	c-0.1,0.2-0.5,0.4-0.8,0.4c-0.4,0-0.8-0.5-0.5-1.1c-0.8,0.2-1.2,1.4-0.7,2.1c0.3,0.5,0.9,0.6,1.4,0.5c0.4-0.1,0.8-0.3,0.9-0.6
	c-0.5,1.6,0.1,3.4,0.9,4.3c1,1.1,2.4,1.4,3,1.4c1.5,0.1,3-0.3,4-1.6C77.4,421.7,77.8,420.5,77.4,419.4z M46.1,401.5
	c-0.2-0.4-0.3-1-0.1-1.3c0.6,0.4,1.2,0.5,1.8,0.6C47.3,400.9,46.6,401.1,46.1,401.5z"/>
<g>
	<path fill="#FFEF00" d="M75.2,346.2l-8.6,9.7l8.6,9.8l8.4-9.8L75.2,346.2z M70,355.9l5.1-5.8l5.1,5.9l-5,5.7L70,355.9z"/>
	<path fill="#FFEF00" d="M11.1,355.9l8.7,9.8l8.4-9.8l-8.4-9.7L11.1,355.9z M19.8,361.7l-5.2-5.8l5.1-5.8l5.1,5.9L19.8,361.7z"/>
</g>
<path fill="#00539B" d="M52.2,378.4c-1.5-0.4-3.1-0.8-4.5,0v0.4c1.3-0.9,2.8-0.5,4.4-0.1c1.3,0.3,2.7,0.7,4,0.2v-0.3
	C54.9,379.1,53.6,378.8,52.2,378.4z"/>
<path fill="#00539B" d="M41.7,375.4c-1.4,0.4-2.7,0.7-3.9,0.2v0.4c1.2,0.5,2.6,0.1,4-0.2c1.6-0.4,3.1-0.8,4.4,0.1v-0.4
	C44.8,374.6,43.2,375,41.7,375.4z"/>
<path fill="#00539B" d="M41.7,372.3c-1.4,0.4-2.7,0.7-3.9,0.2v0.3c1.2,0.5,2.6,0.1,4-0.2c1.6-0.4,3.1-0.8,4.4,0.1v-0.4
	C44.8,371.5,43.2,371.9,41.7,372.3z"/>
<path fill="#00539B" d="M41.7,378.4c-1.4,0.3-2.7,0.7-3.9,0.1v0.3c1.2,0.5,2.6,0.2,4-0.2c1.6-0.4,3.1-0.8,4.4,0.1v-0.4
	C44.8,377.7,43.2,378,41.7,378.4z"/>
<path fill="#00539B" d="M52.2,372.3c-1.5-0.4-3.1-0.8-4.5,0v0.4c1.3-0.9,2.8-0.5,4.4-0.1c1.3,0.3,2.7,0.7,4,0.2v-0.3
	C54.9,373,53.6,372.7,52.2,372.3z"/>
<path fill="#00539B" d="M52.2,375.4c-1.5-0.4-3.1-0.8-4.5,0.1v0.4c1.3-0.9,2.8-0.5,4.4-0.1c1.3,0.3,2.7,0.7,4,0.2v-0.4
	C54.9,376,53.6,375.7,52.2,375.4z"/>
<g>
	<path fill="#00539B" d="M29.8,434.9c0.8-0.8,1.5-0.4,1.5-0.4c0.4-0.4,0.3-1.3,0-1.6C30.5,433.2,29.7,433.9,29.8,434.9z"/>
	<path fill="#00539B" d="M29.8,431c0,0,0.4-0.2,1-0.2c0.5,0,0.9,0.1,0.9,0.1c0.4-0.2,0.8-1,0.5-1.4C31,429.7,30.1,430.2,29.8,431z"
		/>
	<path fill="#00539B" d="M26.9,428.4c0,0,0.1,1,0.8,1.7c0.2,0.2,0.5,0.4,0.8,0.4c-0.4-0.5-0.3-1.4,0-1.9
		C28.1,428.2,27.3,428.2,26.9,428.4z"/>
	<path fill="#00539B" d="M27.8,407.8c-1.2-0.3-2.4,0.3-2.7,1.2c0,0,0.9-0.4,1.8,0C26.9,409,27.7,408.5,27.8,407.8z"/>
	<path fill="#00539B" d="M31.3,407.4c0.5-0.3,1.1-0.4,1.7-0.2c0-0.4-0.5-0.7-0.8-0.8c-0.6-0.3-0.9-0.4-1.6-0.4
		c-0.5,0-0.7,0.2-0.7,0.2C30.5,406.4,31.1,406.7,31.3,407.4z"/>
	<path fill="#00539B" d="M35.2,426.9c-0.7-0.2-1.6-0.1-2.2,0.2c-0.5,0.3-0.8,0.7-0.8,0.7c1.3-0.1,2,0.5,2,0.5
		C34.6,428.1,35.3,427.5,35.2,426.9z"/>
	<path fill="#00539B" d="M23.5,425.5c-0.4,0.4-0.8,1.3-0.6,2.2c0.1,0.4,0.4,0.6,0.4,0.6c0.1-0.5,0.5-1.2,1.3-1.2
		C24.8,426.1,23.9,425.5,23.5,425.5z"/>
	<path fill="#00539B" d="M23.2,421.9c0,0-0.6,0.1-1.3,0.9c-0.3,0.3-0.6,0.9-0.5,1.4c0,0,0.4-0.4,1-0.6c0.4-0.1,0.6-0.1,0.8-0.1
		C23.6,423.4,23.7,422.3,23.2,421.9z"/>
	<path fill="#00539B" d="M47,384.8c1.4,0,2.1-1.2,2.1-1.2c2,0,11,0,11,0l0-13h-1.4l0,11.7c0,0-0.7,0.7-2.4,0.7c-2,0-4.2-0.8-6.3-0.8
		c-2,0-2.8,1-3,1.2c0,0-1-1.2-2.9-1.2c-2,0-4.3,0.8-6.7,0.8c-1.2,0-1.9-0.6-2.1-0.7l0-11.7H34v13h10.9
		C44.9,383.6,45.5,384.8,47,384.8z"/>
	<path fill="#00539B" d="M23.9,414.7c0,0,0.6-0.8,0.2-1.4c-1.2,0.1-1.9,0.8-2.3,1.6C21.9,414.9,23,414.5,23.9,414.7z"/>
	<path fill="#00539B" d="M34.5,436.4c0,0-0.4,1.5,0.7,2c0,0-0.2-0.8,0.6-1.4C35.6,436.5,34.9,436.2,34.5,436.4z"/>
	<path fill="#00539B" d="M22.9,419.2c0.6-0.1,1.5-0.2,1.9,0.2c0.7-0.4,1.1-1.1,1-1.4c-0.1-0.1-0.5-0.1-0.7-0.1
		C23.9,418,23.2,418.5,22.9,419.2z"/>
	<path fill="#00539B" d="M24.2,412c0,0,0.6-0.9,0-1.5c-0.9,0.2-1.6,0.9-1.8,1.9c0,0,0.3-0.2,0.6-0.3C23.5,411.9,23.9,412,24.2,412z"
		/>
	<path fill="#00539B" d="M47,392.3l37,21.7c4.3-11.4,4.2-25.6,3.4-45.5L47,392.3z"/>
	<path fill="#00539B" d="M47,405.4c-0.1,0.3-0.2,0.9-0.3,1.2c0.3,0.1,0.6-0.2,0.9-0.3C47.3,406,47.1,405.6,47,405.4z"/>
	<path fill="#00539B" d="M44.1,439.9c0,0,0.3-0.2,0.7-0.4c0.3-0.2,0.9-0.2,1.2,0c0.3-0.2,0.4-1.2,0.2-1.4
		C45.2,438.2,44.2,438.9,44.1,439.9z"/>
	<path fill="#00539B" d="M44.3,405.6c-0.1,0.2-0.2,0.5-0.4,0.8c0.2,0.1,0.6,0.2,0.8,0.1C44.6,406.2,44.5,405.7,44.3,405.6z"/>
	<path fill="#00539B" d="M92.4,358.4l-0.7-19.3l-89.3,0l-0.7,19.3c-2,51.9-2.8,71.4,44.6,94.2l0.7,0.3l0.7-0.3
		C95.2,429.8,94.4,410.3,92.4,358.4z M47.1,449.8c-36.8-17.8-43.1-32.9-43.1-65.9c0-7.5,0.3-15.9,0.7-25.5c0,0,0.5-13.8,0.6-16.4
		h83.7c0.1,2.6,0.6,16.4,0.6,16.4c0.4,9.6,0.7,18.1,0.7,25.6C90.2,416.9,83.8,431.9,47.1,449.8z"/>
	<path fill="#00539B" d="M10.2,414L47,392.3L6.7,368.7C6,388.5,6,402.6,10.2,414z"/>
	<path fill="#00539B" d="M47.4,434c0.4-0.1,1-0.2,1.4,0.1c0.5-0.3,0.8-0.7,0.8-1.1C48.6,432.8,47.6,433.2,47.4,434z"/>
	<path fill="#00539B" d="M47.2,441.1c-0.4,0.3-1,1.3-0.9,2c0.1,0.4,0.4,0.6,0.4,0.6c0.2-0.7,0.8-1.3,1.3-1.5
		C48.1,441.8,47.5,441.1,47.2,441.1z"/>
	<path fill="#00539B" d="M44.5,403.2c0.1,0.2,0.3,0.9,0.3,0.9c0.1-0.3,0.4-0.7,0.5-1C45,403.1,44.7,403.1,44.5,403.2z"/>
	<path fill="#00539B" d="M43.2,403.6c0,0,0.3,0.5,0.4,0.7l0.3-1C43.7,403.3,43.4,403.5,43.2,403.6z"/>
	<path fill="#00539B" d="M45.8,403c0,0,0.3,0.7,0.4,1c0.1-0.3,0.4-0.7,0.6-1C46.4,402.9,46.1,402.9,45.8,403z"/>
	<path fill="#00539B" d="M45.2,406.6c0.3,0.1,0.6,0.1,0.8,0.1c-0.1-0.3-0.4-0.9-0.4-1.1C45.6,405.8,45.3,406.4,45.2,406.6z"/>
	<path fill="#00539B" d="M44.9,436.7c0.3-0.2,1.2-0.4,1.9-0.1c0.2-0.1,0.5-0.8,0.3-1.1C46.1,435.2,45.1,435.8,44.9,436.7z"/>
	<path fill="#00539B" d="M48,404.3c-0.4-0.1-0.9,0-1.3,0c-1.5,0.3-3.4,0.5-4.6,0.4c-1-0.1-2.3-0.4-2.3-1.7c0-0.5,0.2-1,0.2-1
		c-0.5,0.1-1.2,0.8-1.1,1.7c0.1,1,1,1.6,2.9,1.7c1.5,0.1,3.6-0.4,4.9-0.7C47.5,404.5,48,404.3,48,404.3z"/>
	<path fill="#00539B" d="M44.3,381.4c1.5,0,2.5,1.1,2.5,1.1h0.4c0.7-0.7,1.4-1.1,2.5-1.1c1.7,0,3.5,0.7,5,0.7c1.4,0,2.4-0.7,2.5-0.8
		V369l-0.3,0.2c-1.3,1.1-2.9,0.7-4.6,0.3c-1.8-0.5-3.7-0.9-5.3,0.7c-1.6-1.6-3.5-1.2-5.3-0.7c-1.7,0.4-3.2,0.8-4.6-0.3l-0.3-0.2
		v12.3c0.1,0.1,1,0.9,2.5,0.9C40.8,382.1,42.7,381.4,44.3,381.4z M47.1,370.4c1.4-1.5,3.2-1.1,5-0.7c1.6,0.4,3.2,0.7,4.7-0.2v11.5
		c-1.3,0.9-2.9,0.7-4.6,0.3c-1.8-0.4-3.6-0.7-5.1,0.7V370.4z M37.1,381.1v-11.5c1.4,0.9,3.1,0.6,4.7,0.2c1.9-0.5,3.6-0.9,5,0.7v11.6
		c-1.5-1.4-3.4-1.1-5.1-0.7C40,381.8,38.4,382.1,37.1,381.1z"/>
	<path fill="#00539B" d="M41.8,375.7c1.6-0.4,3.1-0.8,4.4,0.1v-0.4c-1.4-0.8-3-0.4-4.5-0.1c-1.4,0.4-2.7,0.7-3.9,0.2v0.4
		C39,376.4,40.4,376,41.8,375.7z"/>
	<path fill="#00539B" d="M41.8,372.6c1.6-0.4,3.1-0.8,4.4,0.1v-0.4c-1.4-0.8-3-0.4-4.5,0c-1.4,0.4-2.7,0.7-3.9,0.2v0.3
		C39,373.3,40.4,373,41.8,372.6z"/>
	<path fill="#00539B" d="M46.1,378.9v-0.4c-1.4-0.8-3-0.4-4.5,0c-1.4,0.3-2.7,0.7-3.9,0.1v0.3c1.2,0.5,2.6,0.2,4-0.2
		C43.3,378.4,44.8,378,46.1,378.9z"/>
	<path fill="#00539B" d="M52.2,375.7c1.3,0.3,2.7,0.7,4,0.2v-0.4c-1.2,0.5-2.5,0.2-3.9-0.2c-1.5-0.4-3.1-0.8-4.5,0.1v0.4
		C49.1,374.9,50.6,375.3,52.2,375.7z"/>
	<path fill="#00539B" d="M52.2,372.6c1.3,0.3,2.7,0.7,4,0.2v-0.3c-1.2,0.5-2.5,0.2-3.9-0.2c-1.5-0.4-3.1-0.8-4.5,0v0.4
		C49.1,371.9,50.6,372.2,52.2,372.6z"/>
	<path fill="#00539B" d="M52.2,378.8c1.3,0.3,2.7,0.7,4,0.2v-0.3c-1.2,0.5-2.5,0.2-3.9-0.1c-1.5-0.4-3.1-0.8-4.5,0v0.4
		C49.1,378,50.6,378.4,52.2,378.8z"/>
</g>
</svg>
