<?xml version="1.0" encoding="utf-8"?>
<!-- Generator: Adobe Illustrator 17.0.1, SVG Export Plug-In . SVG Version: 6.00 Build 0)  -->
<!DOCTYPE svg PUBLIC "-//W3C//DTD SVG 1.1//EN" "http://www.w3.org/Graphics/SVG/1.1/DTD/svg11.dtd">
<svg version="1.1"
	 id="svg2" xmlns:dc="http://purl.org/dc/elements/1.1/" xmlns:cc="http://creativecommons.org/ns#" xmlns:rdf="http://www.w3.org/1999/02/22-rdf-syntax-ns#" xmlns:svg="http://www.w3.org/2000/svg" xmlns:sodipodi="http://sodipodi.sourceforge.net/DTD/sodipodi-0.dtd" xmlns:inkscape="http://www.inkscape.org/namespaces/inkscape" sodipodi:docname="New document 1" inkscape:version="0.48.2 r9819"
	 xmlns="http://www.w3.org/2000/svg" xmlns:xlink="http://www.w3.org/1999/xlink" x="0px" y="0px" width="32px" height="32px"
	 viewBox="484 484 32 32" enable-background="new 484 484 32 32" xml:space="preserve">
<sodipodi:namedview  id="base" fit-margin-top="0.5" fit-margin-left="0.5" showgrid="false" inkscape:cy="-8.1858472" inkscape:cx="1268.2181" inkscape:zoom="0.49497475" borderopacity="1.0" bordercolor="#666666" pagecolor="#ffffff" inkscape:pageopacity="0.0" inkscape:current-layer="layer1" inkscape:document-units="px" inkscape:pageshadow="2" inkscape:window-maximized="1" inkscape:window-y="-8" inkscape:window-x="-8" inkscape:window-height="1028" inkscape:window-width="1920" fit-margin-right="0.5" fit-margin-bottom="0.5">
	<inkscape:grid  type="xygrid" id="grid2996" enabled="true" visible="true" empspacing="5" snapvisiblegridlinesonly="true">
		</inkscape:grid>
</sodipodi:namedview>
<path fill="#FFFFFF" d="M514.272,484h-28.544c-0.957,0-1.728,0.771-1.728,1.728v28.544c0,0.957,0.771,1.728,1.728,1.728h15.359
	v-12.404h-4.181v-4.822h4.181v-3.679c0-3.857,2.391-6.254,6.158-6.254c2.267,0,3.794,0.178,3.794,0.178v4.348h-2.555
	c-1.619,0-2.379,0.569-2.379,2.286v3.122h4.767l-0.613,4.822h-4.153V516h8.167c0.957,0,1.728-0.771,1.728-1.728v-28.544
	C516,484.771,515.229,484,514.272,484z"/>
</svg>
