<svg enable-background="new 0 339.1 612 113.9" viewBox="0 339.1 612 113.9" xmlns="http://www.w3.org/2000/svg"><path d="m-55.8 282.3h729.3v227.8h-729.3z" fill="none"/><path d="m113.9 434.3c.3-1.8.5-4.7.5-8.7h1.9c.1 2.7.2 4.3.5 4.8.2.5.7 1 1.6 1.6.8.6 1.9 1.1 3.3 1.5s2.7.7 4 .7c1.9 0 3.6-.4 5.2-1.3s2.7-2 3.5-3.4c.7-1.4 1.1-2.9 1.1-4.5 0-1.2-.2-2.3-.5-3.2-.4-.9-.9-1.6-1.7-2.2-.7-.5-1.7-.9-2.8-1.2-.7-.1-2.1-.3-4.1-.6-2.1-.3-3.8-.6-5.3-.9-1.9-.6-3.4-1.3-4.3-2.1s-1.7-1.9-2.2-3.2c-.6-1.3-.9-2.7-.9-4.2 0-2.2.6-4.3 1.7-6.2s2.8-3.5 5.1-4.5c2.3-1.1 4.7-1.6 7.3-1.6 1.6 0 3.3.2 5.2.6s3.6 1 5.3 1.8c-.3 1.2-.4 2.3-.6 3.3-.1 1-.2 2.5-.3 4.5h-1.9c-.1-2.9-.1-4.4-.3-4.7-.5-.7-1.1-1.3-1.9-1.8-1.9-1.1-3.9-1.6-6-1.6-2.7 0-4.9.8-6.5 2.5-1.6 1.6-2.4 3.8-2.4 6.4 0 1.6.3 2.8.9 3.7s1.6 1.6 3.1 2.1c1 .4 2.7.7 5 1s4.4.6 6.3 1c1.8.5 3.1 1.1 3.9 1.9.8.7 1.5 1.7 2.1 2.8.5 1.2.8 2.5.8 4.1 0 3.7-1.5 7-4.6 9.7-3.1 2.8-7.1 4.1-12 4.1-3.6 0-7-.7-10-2.2z"/><path d="m143.5 413.7v-1.2c1.8-.7 3.2-1.3 4.3-1.9 0-4.5 0-7.3 0-8.5 1.9-.7 3.5-1.4 4.7-2.2l.7.6c-.2 1.6-.4 5-.7 10.3h2.7c.2 0 1.1 0 2.9-.1 1 0 1.7-.1 2.2-.1l.2.2-.6 2.6c-1.2 0-2.3 0-3.2 0-1 0-2.4 0-4.1 0l-.1 11.4c-.1 2.8 0 4.4.1 5 .1.5.3 1 .5 1.4.3.4.6.7 1 1s1.1.4 2.1.6c.8 0 1.4 0 1.9-.1s1.1-.2 1.8-.5l.3 1.1c-.9.7-1.7 1.4-2.5 2.2-.7.3-1.4.4-2 .5s-1.3.1-2.1.1c-1 0-1.8-.1-2.4-.3s-1.1-.5-1.6-.9-.9-.9-1.2-1.5-.5-1.6-.6-2.9c0-1.3.1-2.7.1-4.2 0-.3 0-.6 0-1v-11.6h-1.2c-1-.1-2-.1-3.2 0z"/><path d="m174.2 435.7v-1.9c1.5 0 2.4-.1 2.8-.2s.7-.3 1-.6.8-1 1.3-2.3c.3-.7 1.6-3.3 3.6-7.9l7-15.8c.8-1.7 2.4-5.6 4.9-11.6h1.8l12 28.1c2 4.6 3.2 7.4 3.9 8.6.4.7.7 1.1 1.2 1.3.4.2 1.4.3 2.8.3v1.9c-2.9-.2-5-.3-6.1-.3l-9 .3v-1.9c2.1 0 3.4-.1 3.8-.2s.7-.2.9-.4.2-.4.2-.7c0-.4-.1-.9-.4-1.6l-3.4-8.6h-16.2l-3 7.2c-.5 1.3-.8 2.2-.8 2.8 0 .3.1.5.2.6.2.3.5.4 1 .5.7.2 1.9.2 3.6.3v1.9c-3.2-.2-5.5-.3-7.1-.3-1.9.2-3.9.3-6 .5zm13-15.7h14.1l-7-16.9z"/><path d="m218.7 435.7v-1.6h2.7c.4 0 .7-.1.9-.2s.4-.3.5-.5c.2-.4.3-1 .4-2 0-.2.1-2.9.1-8v-3.4c0-1.5 0-3.1-.1-4.8-.1-1.1-.1-1.8-.3-2-.1-.2-.3-.4-.6-.5s-1.5-.1-3.6-.1v-1.6c3.8-.5 6.5-1.2 8.3-2.1.4-.2.6-.3.8-.3.1 0 .2.1.3.1.1.1.1.2.1.4v.4c-.1.7-.1 2.1-.2 4.3l5.2-4.5c1.5-.6 3-.8 4.4-.8 1.5 0 2.9.3 4.3.9s2.4 1.4 3.1 2.3 1.1 2.1 1.4 3.5c.1.8.2 3.2.2 7v5c0 2.4.1 4.1.2 5 .1.6.2.9.4 1.2.2.2.5.4.9.4l3 .1v1.6c-1.8-.1-3.4-.2-4.6-.2-1.1 0-2.8.1-5.2.2.3-4.6.4-7.5.4-8.7v-4.7c0-2.9-.1-4.9-.3-5.8-.3-1.3-1-2.3-2.2-3-1.1-.8-2.5-1.1-4.1-1.1-1.4 0-2.7.3-3.8 1-1.2.7-2 1.4-2.5 2.3s-.8 2.3-.8 4.4v3.4c.1 4.9.1 7.5.1 7.9 0 .9.1 1.6.3 2 .1.2.2.3.3.4s.4.2.7.3c.1 0 1.1 0 3.1.1v1.6c-2.3-.1-4.3-.2-6.2-.2-1.5.1-4.1.1-7.6.3z"/><path d="m270.3 397.6v-1.6c2.1-.2 3.8-.5 5.3-.8 1.4-.3 2.8-.7 4.2-1.1l.4.3c-.1 1.6-.2 4.7-.3 9.2l-.1 4.5v17.5c0 1.9 0 3.6.1 4.9.1 1.4.2 2.2.4 2.5s.4.5.8.7 1.6.3 3.5.5v1.5c-2.3-.1-3.9-.2-4.8-.2-.8 0-2.5.1-4.9.2.1-1.3.1-3 .1-5.2-.8.5-1.8 1.4-3 2.4-1.3 1.1-2.3 2-3 2.7-1.5.4-2.8.6-4 .6-2.1 0-4.1-.5-5.8-1.6-1.8-1-3.1-2.6-4.1-4.6s-1.4-4.2-1.4-6.7c0-1.9.3-3.6.9-5.3s1.3-3 2.2-3.9c.5-.5 1.6-1.3 3.4-2.4s3.2-1.8 4.4-2.3c1.1-.5 2.3-.7 3.6-.7 1.2 0 2.3.1 3.5.4 1.1.3 2.2.7 3.3 1.3v-7.4c0-2.6-.1-4.2-.3-4.7-.1-.2-.2-.4-.4-.5-.5-.1-1.8-.2-4-.2zm4.6 17.6c-1.3-1.4-2.6-2.4-4-3.1-1.4-.6-2.8-1-4.1-1-1.5 0-2.9.4-4.2 1.2s-2.3 2-3 3.5c-.7 1.6-1 3.5-1 5.7 0 3.4.8 6.1 2.5 8s3.7 2.9 6.1 2.9c1.3 0 2.4-.3 3.4-.8s1.9-1.3 2.6-2.3 1.2-2.1 1.4-3.4c.2-.8.2-2.8.2-6.1v-4.6z"/><path d="m287.7 435.7v-1.6c2.1 0 3.3-.1 3.4-.1.3-.1.6-.1.7-.3.2-.1.3-.3.4-.5.2-.4.3-1.1.3-2 .1-5 .1-7.6.1-7.8v-3.4c0-1.5 0-3.1-.1-4.8 0-1.1-.1-1.8-.2-2s-.3-.4-.6-.5-1.5-.1-3.7-.1v-1.6c3.8-.5 6.5-1.2 8.3-2.1.4-.2.6-.3.8-.3.1 0 .2.1.3.1.1.1.1.2.1.4v.4c-.1 1.1-.1 2.9-.2 5.3.8-1 1.6-1.9 2.3-2.9s1.2-1.6 1.5-1.9c.6-.5 1.2-.9 1.9-1.2s1.5-.4 2.3-.4 1.6.2 2.3.5l.2.4c-.3 2.5-.4 4.7-.5 6.6h-1.3c-.4-.9-.9-1.6-1.5-2s-1.3-.6-2.1-.6c-1.4 0-2.7.6-3.7 1.8s-1.5 3-1.5 5.3v2.9c0 1.2 0 3.5.1 6.8 0 1.2.1 1.9.1 2.2.1.3.2.5.3.7.1.1.3.3.6.3.6.2 2.1.3 4.5.5v1.6c-3.3-.1-6.1-.2-8.4-.2-2.2.3-4.5.3-6.7.5z"/><path d="m332.8 431.3-.9 2c-1.3.8-2.2 1.3-2.8 1.6-.9.4-1.9.7-3 1s-2.3.4-3.6.4c-2.5 0-4.7-.5-6.7-1.5s-3.6-2.6-4.7-4.6-1.7-4.4-1.7-7.2c0-2.1.3-4.1.9-5.8s1.3-3 2-3.8c.5-.6 1.4-1.3 2.5-2.1s2.3-1.4 3.4-1.8c1.5-.6 3.1-.9 4.8-.9 2.1 0 4 .5 5.7 1.4 1.7 1 2.9 2.3 3.7 3.9s1.2 3.5 1.2 5.6c0 .5-.1 1.2-.1 1.9-1.3.3-2.5.4-3.6.5-2 .1-4 .2-6 .2h-9c0 2.7.5 4.9 1.4 6.5.9 1.7 2.1 2.9 3.7 3.7s3.2 1.2 4.9 1.2c1.1 0 2.3-.2 3.4-.5 1.1-.4 2.5-1 4.2-2zm-17.9-11.4c.5.1 1.5.1 3 .2 2.8.1 4.7.1 5.7.1 2.5 0 4.1-.1 4.9-.1 0-.4 0-.8 0-1 0-2.9-.6-5.1-1.8-6.5s-2.8-2.1-4.8-2.1c-2.1 0-3.8.8-5.1 2.3-1.3 1.4-1.9 3.8-1.9 7.1z"/><path d="m347.6 436-1.2-3.9-2.6-8.7c-.7-2.5-1.5-4.9-2.3-7.3-.8-2.3-1.3-3.7-1.5-4s-.6-.6-.9-.8c-.4-.1-1.3-.3-2.7-.4v-1.6c2.1.1 4.3.2 6.6.2 2.5 0 4.8-.1 7-.2v1.6c-1.7 0-2.9.1-3.4.2-.4.1-.6.2-.8.4s-.2.4-.2.7c0 .4.3 1.6.8 3.5l2.6 9c.4 1.5 1 3.2 1.6 4.9l2.1-4.9 4.1-9.2c1-2.2 1.9-4.4 2.7-6.6h1.4c1.2 3.4 2.1 5.7 2.5 6.8l3.2 8.1c1.1 2.7 1.9 4.8 2.5 6.2l2.1-5.5c1.4-3.6 2.4-6.6 3.2-9.1.4-1.4.6-2.3.6-2.9 0-.5-.2-.9-.5-1.1-.4-.2-1.6-.4-3.6-.4v-1.6c2.8.1 4.8.2 5.9.2 1.3 0 3.1-.1 5.3-.2v1.6c-1.1 0-1.8.1-2.2.3s-.7.5-1 .9c-.5.6-1.2 2.1-2.3 4.5l-2.9 7-1.3 3.1c-.2.6-1 2.5-2.2 5.7-.5 1.3-.9 2.5-1.2 3.5h-2.6l-1.3-3.5-6.4-16.1-2.7 5.8-3.2 7c-.7 1.6-1.3 3-1.8 4.2l-.9 2.6z"/><path d="m386 427.2h1.7c0 1.1.1 1.9.2 2.6.1.6.3 1.3.5 1.9s.6 1.1 1 1.5c.5.4 1 .7 1.5 1 .5.2 1.1.4 1.7.5s1.4.1 2.6.1c1.9 0 3.5-.5 4.7-1.5s1.8-2.4 1.8-4.2c0-.8-.2-1.5-.6-2.1s-.9-1.1-1.7-1.4c-.7-.3-2.3-.8-4.7-1.3s-3.9-.9-4.6-1.2c-1-.4-1.9-.9-2.5-1.4-.6-.6-1.1-1.3-1.5-2.1-.4-.9-.5-1.8-.5-2.8 0-1.5.4-2.8 1.2-4.1.8-1.2 2-2.3 3.7-3 1.7-.8 3.5-1.2 5.4-1.2 1.2 0 2.5.2 4.1.5s2.8.7 3.8 1.2c-.1 2.1-.2 4.2-.3 6.3h-1.5c-.1-1.4-.2-2.3-.3-2.7s-.3-.8-.5-1.2c-.2-.3-.6-.7-1.1-1.1s-1.2-.7-2-1-1.8-.4-2.9-.4c-1.6 0-3 .5-4 1.5s-1.5 2.1-1.5 3.4c0 .7.1 1.4.4 1.9s.7 1 1.2 1.3 1.2.6 2 .9l4.7 1.1c2.4.6 4 1.1 4.9 1.5s1.6 1.1 2.1 2 .8 2 .8 3.3c0 2.5-1 4.7-3.1 6.6s-4.9 2.8-8.4 2.8c-1.6 0-3.7-.3-6.4-.7-1.5-.3-2.3-.5-2.4-.6s-.1-.1-.1-.3 0-.3.1-.5c.2-.8.3-1.6.3-2.4.1-.7.2-2.3.2-4.7z"/><path d="m423.1 449.3v-107.7h2.7v107.7h-2.9z"/><path d="m609.2 449.3v-107.7h2.8v107.7h-2.9z"/><path d="m445.5 354.6v-.9c1.4.1 2.6.1 3.6.1.7 0 1.9 0 3.8-.1 1.8 0 3-.1 3.7-.1h1.9c.6 0 1.1 0 1.5.1-.2.8-.4 2.2-.4 4.2h-.9c-.1-1.1-.2-2-.3-2.6-.5-.2-1.1-.3-1.8-.4s-1.5-.1-2.5-.1-1.9.1-2.9.2c-.1.5-.1 1-.1 1.4 0 .2 0 1.3-.1 3.2v3.1h2.8c1.2 0 2.1-.1 2.8-.2.3-.1.4-.1.5-.2s.2-.5.3-1.2l.1-.9h.9l-.1 3.2.1 3.4h-.9l-.1-.9c-.1-1-.2-1.6-.2-1.6-.1-.1-.3-.2-.5-.3-.5-.1-1.7-.2-3.6-.2-.7 0-1.3 0-2 .1v2.8c0 1.3 0 2.5.1 3.7 0 .9.1 1.4.2 1.6s.3.3.5.4.9.1 2 .1v.9c-1.2-.1-2.4-.1-3.5-.1s-2.6 0-4.6.1v-.9c1.1 0 1.8-.1 2-.1.2-.1.4-.2.5-.3.1-.2.2-.6.2-1.4 0-.2 0-1.5.1-4v-6.5c0-1.3 0-2.5 0-3.7 0-.9-.1-1.4-.2-1.6s-.3-.3-.5-.4c-.7.2-1.3.2-2.4.1"/><path d="m461.4 363.8c0-1.5.2-2.8.7-4.1.4-1.3 1.2-2.4 2.2-3.4s2.2-1.8 3.5-2.3 2.8-.8 4.4-.8c1.5 0 2.9.2 4.2.6s2.3 1 3.1 1.7 1.4 1.5 1.9 2.3c.4.6.6 1.4.8 2.2s.3 1.8.3 2.7c0 3.1-1.1 5.7-3.2 7.8s-4.8 3.1-8 3.1c-1.5 0-2.8-.2-4.1-.7s-2.3-1.2-3.2-2.1-1.5-2.1-2-3.4c-.3-1-.6-2.3-.6-3.6m2.9-1.2c0 .9.1 1.8.3 2.7s.4 1.7.7 2.4c.4 1.1 1 2.1 1.8 2.8.7.8 1.5 1.3 2.4 1.7s1.9.5 3 .5c1.5 0 2.8-.4 3.9-1.1s1.9-1.8 2.5-3.1c.5-1.3.8-2.9.8-4.6 0-1.5-.2-2.8-.6-4.1-.2-.8-.6-1.5-1-2.1s-.9-1.2-1.4-1.6c-.6-.5-1.3-.8-2.2-1.2-.9-.3-1.9-.5-2.9-.5-1.5 0-2.8.3-3.9 1s-2 1.6-2.5 2.9c-.6 1.3-.9 2.8-.9 4.3"/><path d="m483.6 354.6v-.9c1.5.1 2.9.1 4.2.1s2.6 0 3.9-.1v.9c-1.1 0-1.8.1-2 .1-.2.1-.4.2-.5.3-.1.2-.2.6-.2 1.4 0 .2 0 1.5-.1 4v5.2c0 2 .1 3.3.4 4 .3.6.7 1.2 1.2 1.6.4.3 1 .6 1.7.8s1.5.3 2.4.3c1 0 2-.1 2.8-.4s1.4-.6 1.8-.9c.4-.4.7-.8.9-1.2.2-.5.3-1.1.4-1.9s.1-1.8.1-3v-4.3c0-1.3 0-2.5-.1-3.7 0-.9-.1-1.4-.2-1.6s-.3-.3-.5-.4-.9-.1-2-.1v-.9c1.5.1 2.7.1 3.4.1.6 0 1.8 0 3.5-.1v.9c-1.1 0-1.8.1-2 .1-.2.1-.4.2-.5.3-.1.2-.2.6-.2 1.4 0 .2 0 1.5-.1 4v4.7c0 2.3-.2 3.9-.5 4.8s-.9 1.7-1.8 2.4c-.6.5-1.4.9-2.5 1.2-1 .3-2.1.4-3.4.4-1.4 0-2.7-.2-3.7-.5-1.1-.3-1.9-.8-2.4-1.3s-.9-1.1-1.1-1.7c-.3-.8-.4-2-.4-3.8v-6.2c0-1.3 0-2.5 0-3.7 0-.9-.1-1.4-.2-1.6s-.3-.3-.5-.4c0-.2-.7-.2-1.8-.3"/><path d="m506.3 373.6v-.9c1 0 1.6-.1 1.9-.2.1-.1.2-.1.3-.3s.2-.7.2-1.5c0-1.2.1-2.3.1-3.2v-11.3c0-.3 0-.5-.1-.6-.1-.2-.2-.4-.5-.6-.2-.1-.4-.3-.6-.3s-.7-.1-1.5-.1v-.9c1.6 0 2.6.1 3 .1.7 0 1.4 0 2.1-.1.8 1 1.4 1.8 1.7 2.3l2.9 3.6 4.2 5.1c1.3 1.6 2.4 2.9 3.2 3.8.5.6.9 1.1 1.3 1.4v-10.2c0-.9 0-2-.1-3.2 0-.8-.1-1.2-.2-1.4-.1-.1-.2-.2-.3-.3-.3-.1-.9-.2-1.9-.2v-.9c1.1 0 2.2.1 3.3.1s2 0 2.9-.1v.9c-1 0-1.6.1-1.9.2-.1.1-.2.1-.3.3s-.2.7-.2 1.5c0 1.2-.1 2.3-.1 3.2v6.7c0 1.4 0 3.9.1 7.6l-1.4-.4-.3-.1c-.1 0-.1-.1-.2-.1s-.2-.2-.5-.6c-.8-.9-1.3-1.6-1.7-2l-1.8-2.3-9.9-12v10.8c0 .9 0 2 .1 3.3 0 .8.1 1.3.2 1.4l.3.3c.3.1.9.2 1.9.2v.9c-.8-.1-1.7-.1-2.7-.1-1.1.1-2.3.1-3.5.2"/><path d="m530.5 373.6v-.7c.5-.3 1-.6 1.3-.8.1-.6.1-1.5.1-2.6.1-1.9.1-3.2.1-4v-5.7c0-.9 0-2-.1-3.2 0-.8-.1-1.2-.2-1.4-.1-.1-.2-.2-.3-.3-.3-.1-1-.2-1.9-.2v-.9c1.4 0 2.6.1 3.6.1h3.3c1.4 0 2.5-.1 3.2-.1 2.3 0 4.1.3 5.5.9s2.6 1.6 3.5 2.9c1 1.4 1.4 3 1.4 5 0 1.4-.2 2.7-.7 4-.5 1.2-1.1 2.3-1.9 3.2s-1.6 1.7-2.5 2.2-1.8.9-2.8 1.2-2.3.4-4 .4c-.6 0-1.3 0-2.3-.1-1.3 0-2.1-.1-2.5-.1-.4.1-1.4.1-2.8.2m4.3-1.5c1 .2 2.1.3 3.2.3 1.2 0 2.2-.1 3.1-.3s1.7-.5 2.3-.9 1.2-.9 1.9-1.6c.6-.7 1.1-1.7 1.4-2.8s.5-2.3.5-3.5c0-1.7-.3-3.2-.9-4.5-.6-1.2-1.6-2.2-2.8-2.8-1.2-.7-3-1-5.1-1-1.1 0-2.3.1-3.5.3 0 .5-.1 1.3-.1 2.4l-.1 2v5.6 4.3c0 .6 0 1.4.1 2.5"/><path d="m552.3 373.6v-.9c1 0 1.6-.1 1.9-.2.1-.1.2-.1.3-.3s.2-.7.2-1.5c.1-1.2.1-2.3.1-3.2v-7.1c0-1.3 0-2.5 0-3.7 0-.9-.1-1.4-.2-1.6s-.3-.3-.5-.4-.9-.1-2-.1v-.9l4 .1 4.2-.1h4.4c.9 0 1.8.1 2.6.2-.2.5-.3 1-.3 1.4 0 .1-.1 1.1-.2 2.9h-.9c0-.9-.1-1.8-.2-2.6-.5-.2-1.1-.4-1.7-.4-1-.1-2.1-.2-3.1-.2-.2 0-.7 0-1.5.1-.8 0-1.3.1-1.7.1 0 1-.1 2-.1 2.9l-.1 4.7c1.1.1 2.1.1 3 .1 1.1 0 2.1-.1 2.8-.2.3 0 .5-.1.6-.2s.2-.5.2-1.1l.1-1h.8v.3l-.1 2.9.1 3.3h-1v-1c0-.7-.1-1.1-.2-1.3s-.3-.3-.6-.4c-.5-.1-1.5-.2-3.1-.2-.6 0-1.5 0-2.7.1 0 .9-.1 2.3-.1 4.2 0 1.7 0 3 .1 3.9 1.3.1 2.8.2 4.5.2 1.2 0 2 0 2.5-.1s1-.2 1.4-.4c.1-.3.2-.7.3-1.2.2-.8.4-1.4.4-1.9h.9c-.2 1.9-.4 3.4-.4 4.7-.8.1-1.8.2-2.9.2l-8.3-.1c.1-.1-1.2-.1-3.5 0"/><path d="m570.1 373.6v-.7c.5-.3 1-.6 1.3-.8 0-.6.1-1.5.1-2.6.1-1.9.1-3.2.1-4v-5.7c0-.9 0-2-.1-3.2-.1-.8-.1-1.2-.2-1.4-.1-.1-.2-.2-.3-.3-.3-.1-1-.2-1.9-.2v-.9c1.4 0 2.5.1 3.6.1h3.3c1.4 0 2.5-.1 3.2-.1 2.3 0 4.1.3 5.5.9s2.6 1.6 3.5 2.9c1 1.4 1.5 3 1.5 5 0 1.4-.2 2.7-.7 4-.5 1.2-1.1 2.3-1.9 3.2s-1.6 1.7-2.5 2.2-1.8.9-2.8 1.2-2.3.4-4 .4c-.6 0-1.3 0-2.3-.1-1.3 0-2.1-.1-2.5-.1-.5.1-1.5.1-2.9.2m4.3-1.5c1 .2 2.1.3 3.2.3 1.2 0 2.2-.1 3.1-.3s1.7-.5 2.3-.9 1.3-.9 1.9-1.6 1.1-1.7 1.4-2.8.5-2.3.5-3.5c0-1.7-.3-3.2-.9-4.5-.6-1.2-1.5-2.2-2.8-2.8-1.3-.7-3-1-5.1-1-1.1 0-2.3.1-3.5.3 0 .5-.1 1.3-.1 2.4l-.1 2v5.6 4.3c0 .6 0 1.4.1 2.5"/><path d="m448.4 398.3-.6-.2-.3-2.7.3-.3c2.4-.7 5-1.6 7.8-2.8 4.2-1.8 6.8-2.9 8-3.6l.9.3c-.4 10.2-.5 16.1-.5 17.6v12.4c0 5 .1 8.7.2 11.3.1 1.5.3 2.4.6 2.8s.8.7 1.3.8c.6.2 2.5.3 5.8.5v2c-5.7-.2-9.2-.2-10.6-.2-1.1 0-4.9.1-11.4.2v-2c3.4-.2 5.4-.4 5.9-.5s.9-.3 1.2-.6c.3-.2.4-.6.6-1 .2-.7.3-2.7.5-6 .1-3.3.2-5.8.2-7.5v-13.2c0-5.4 0-8.8 0-10.1 0-.6-.1-1-.2-1.1s-.2-.1-.4-.1-.7.2-1.5.5c-4 1.7-6.5 2.9-7.8 3.5"/><path d="m491.8 436.5v-2c3.5-.1 5.5-.2 6.1-.3s1-.3 1.3-.6c.3-.4.5-1.1.7-2 .2-1.6.3-3.4.3-5.1v-2.5h-7.3c-4 0-7.6.1-10.8.2l-.6-1.8c1.7-3.2 4-7.2 6.9-11.9 4.2-6.8 8.4-13.4 12.6-19.8.3-.1.9-.4 1.8-.8 1.7-.7 2.7-1.1 2.9-1.1l.8.4c-.2 2.7-.3 6-.3 9.9-.1 8.3-.2 12.8-.2 13.6v6.9c3 0 5.5-.1 7.5-.2-.1 1.1-.1 1.9-.1 2.2l.1 2.5c-2.3-.2-4.2-.2-5.8-.2h-1.7v2.3c0 3.7.2 6 .5 6.9.1.3.4.6.8.8.8.4 2.9.6 6.2.6v2c-4.8-.2-8.5-.2-11.1-.2-2.8-.1-6.4 0-10.6.2m-5.9-16.8h14.3l.3-23.8c-2.4 3.5-5.2 7.8-8.3 12.9-3.1 5-5.2 8.7-6.3 10.9"/><path d="m523.9 398.3-.6-.2-.3-2.7.3-.3c2.4-.7 5-1.6 7.8-2.8 4.1-1.8 6.8-2.9 8-3.6l.9.3c-.4 10.2-.5 16.1-.5 17.6v12.4c0 5 .1 8.7.2 11.3.1 1.5.2 2.4.6 2.8.3.4.8.7 1.3.8.6.2 2.5.3 5.8.5v2c-5.7-.2-9.2-.2-10.6-.2-1.1 0-4.8.1-11.3.2v-2c3.4-.2 5.4-.4 5.9-.5s.9-.3 1.2-.6c.3-.2.5-.6.6-1 .2-.7.3-2.7.5-6 .1-3.3.2-5.8.2-7.5v-13.2c0-5.4 0-8.8 0-10.1 0-.6-.1-1-.2-1.1s-.2-.1-.4-.1-.7.2-1.5.5c-4.2 1.7-6.7 2.9-7.9 3.5"/><path d="m560 435.4c-.3-1.9-.6-3.4-.8-4.4-.1-.6-.7-2.5-1.5-5.5l1.8-.7c1.4 3.7 3 6.3 4.8 7.6s4.2 2 7.1 2c2.1 0 4-.4 5.4-1.3 1.5-.8 2.6-2.2 3.6-4 .9-1.9 1.4-3.9 1.4-6.3 0-3.1-.8-5.5-2.4-7.1-1.6-1.7-3.7-2.5-6.4-2.5-.9 0-1.7.1-2.5.3s-1.9.6-3.4 1.2l-.4-.3.7-3.6c1.8.1 3 .2 3.6.2 2.7 0 4.8-1 6.3-2.9s2.2-4.1 2.2-6.5c0-2.2-.8-4-2.4-5.5s-3.6-2.3-6-2.3c-1.4 0-2.8.3-4.2.9-1.3.6-2.5 1.4-3.5 2.3-.4.8-1 2.5-1.9 4.8h-2.1l2.1-8c1.5-1.6 2.9-2.7 4.2-3.3 2.2-1 4.5-1.5 7.1-1.5 3.8 0 6.8 1 9 3s3.3 4.4 3.3 7.2c0 1.9-.6 3.8-1.7 5.7s-3.1 3.8-5.8 5.7c2.5.3 4.5.9 6 1.7s2.6 2 3.4 3.5 1.2 3.2 1.2 5c0 2.7-.8 5.3-2.5 7.8-1.7 2.6-4 4.7-7.1 6.4-3 1.7-6.3 2.5-9.9 2.5-1.6 0-3-.1-4.3-.4-1.3-.4-2.7-.9-4.4-1.7"/><path d="m112.7 345.8v-1.4c2.4.1 4.7.1 6.7.1 2.1 0 4.2-.1 6.3-.1v1.4c-1.7 0-2.8.1-3.2.2s-.6.3-.8.5c-.2.3-.3 1-.4 2.2 0 .3-.1 2.4-.1 6.3v8.2c0 3.2.2 5.3.6 6.3s1 1.9 1.9 2.5c.7.5 1.6.9 2.8 1.2s2.4.5 3.9.5c1.7 0 3.1-.2 4.4-.6s2.3-.9 2.9-1.5 1.1-1.2 1.4-2c.3-.7.5-1.7.7-3 .1-1.3.2-2.9.2-4.8v-6.8c0-2 0-4-.1-5.9 0-1.4-.1-2.2-.3-2.5s-.4-.5-.8-.6-1.4-.2-3.2-.2v-1.4c2.4.1 4.2.1 5.3.1 1 0 2.9-.1 5.5-.1v1.4c-1.8 0-2.8.1-3.2.2s-.6.3-.8.5c-.2.3-.3 1-.3 2.2 0 .3 0 2.4-.1 6.3v7.4c0 3.7-.3 6.2-.8 7.7-.5 1.4-1.4 2.7-2.8 3.8-1 .8-2.3 1.5-3.9 1.9-1.6.5-3.4.7-5.3.7-2.3 0-4.3-.3-5.9-.8-1.7-.5-2.9-1.2-3.8-2.1s-1.5-1.8-1.8-2.7c-.4-1.2-.6-3.2-.6-6.1v-9.8c0-2 0-4-.1-5.9 0-1.4-.1-2.2-.3-2.5s-.4-.5-.8-.6c-.3-.1-1.4-.2-3.2-.2z"/><path d="m148 375.9v-1.3h2.1c.3 0 .6-.1.7-.2.2-.1.3-.2.4-.4.2-.3.3-.8.3-1.6 0-.2 0-2.3.1-6.4v-2.7c0-1.2 0-2.5-.1-3.8 0-.9-.1-1.4-.2-1.6s-.3-.3-.5-.4-1.2-.1-2.9-.1v-1.3c3-.4 5.2-1 6.6-1.6.3-.1.5-.2.6-.2s.2 0 .2.1c.1.1.1.2.1.3v.4c0 .5-.1 1.7-.1 3.4l4.1-3.5c1.2-.4 2.4-.7 3.4-.7 1.2 0 2.3.2 3.4.7s1.9 1.1 2.4 1.8.9 1.7 1.1 2.8c.1.7.2 2.5.2 5.6v3.9c0 1.9.1 3.2.1 3.9.1.4.2.8.3.9.2.2.4.3.7.3l2.4.1v1.3c-1.4-.1-2.7-.2-3.6-.2-.8 0-2.2.1-4.1.2.2-3.7.3-6 .3-6.9v-3.7c0-2.3-.1-3.8-.3-4.6-.3-1-.8-1.8-1.7-2.4s-2-.9-3.2-.9c-1.1 0-2.1.3-3 .8s-1.6 1.1-2 1.8-.6 1.8-.6 3.5v2.7c.1 3.8.1 5.9.1 6.2 0 .7.1 1.3.3 1.6.1.1.1.3.3.3.1.1.3.2.6.2.1 0 .9 0 2.5.1v1.3c-1.8-.1-3.4-.2-4.9-.2-1.2.3-3.2.4-6.1.5z"/><path d="m174.9 357.6v-1.3c2.9-.3 5.3-.9 7.2-1.9l.5.3c-.1 3.2-.2 5.6-.2 7.2v4c.1 3.8.1 5.9.1 6.2 0 .7.1 1.3.2 1.6.1.1.2.3.3.3.1.1.3.2.5.2.1 0 .9 0 2.5.1v1.3c-2.3-.1-4-.2-5.4-.2-1.2 0-3.1.1-5.8.2v-1.3h2.1c.3 0 .6-.1.7-.2.2-.1.3-.2.4-.4.2-.3.3-.8.3-1.6 0-.2 0-2.3.1-6.4v-3.9c0-2.2-.1-3.5-.2-3.9-.1-.2-.3-.4-.5-.5-.1.3-1.1.2-2.8.2zm5.4-13c.7 0 1.3.2 1.8.7s.7 1.1.7 1.8-.2 1.3-.7 1.8-1.1.7-1.8.7-1.3-.2-1.8-.7-.7-1.1-.7-1.8.2-1.3.7-1.8c.5-.4 1.1-.7 1.8-.7z"/><path d="m198.4 376.1c-.6-1.5-1-2.5-1.2-3l-1.8-4.2-4.5-10.6c-.3-.7-.6-1.1-.8-1.3s-.4-.4-.7-.4c-.2-.1-.8-.1-1.6-.1v-1.5c2.5.1 4.2.2 5.4.2s2.9-.1 5.1-.2v1.3c-1.6 0-2.5.1-2.8.3s-.4.4-.4.7c0 .4.3 1.4.9 2.9l2.7 6.7.6 1.5c.7 1.8 1.2 2.9 1.5 3.5l2.2-5c.1-.3.8-2 2-5 .7-1.8 1.2-3.1 1.4-4 .1-.3.1-.5.1-.7 0-.3-.1-.4-.3-.5-.4-.2-1.3-.3-2.8-.4v-1.3c2.2.1 3.6.2 4.2.2.5 0 1.9-.1 4.2-.2v1.3c-.9 0-1.5.1-1.8.3s-.6.5-.9 1.1c-.2.4-1 2-2.4 4.8l-2.1 4.5c-.4.8-1.6 3.8-3.8 9z"/><path d="m232.4 372.4-.7 1.6c-1 .6-1.8 1.1-2.2 1.3-.7.3-1.5.6-2.4.8s-1.8.3-2.8.3c-2 0-3.7-.4-5.3-1.2s-2.8-2-3.7-3.6-1.3-3.5-1.3-5.7c0-1.7.2-3.2.7-4.6s1-2.4 1.6-3c.4-.5 1.1-1 2-1.6s1.8-1.1 2.7-1.4c1.2-.5 2.4-.7 3.8-.7 1.7 0 3.2.4 4.5 1.1 1.3.8 2.3 1.8 2.9 3.1s.9 2.8.9 4.4c0 .4 0 .9-.1 1.5-1.1.2-2 .3-2.9.4-1.6.1-3.2.2-4.8.2h-7.1c0 2.1.4 3.8 1.1 5.1s1.7 2.3 2.9 2.9 2.5.9 3.8.9c.9 0 1.8-.1 2.7-.4s2-.8 3.3-1.6zm-14.2-9c.4 0 1.2.1 2.3.1 2.2.1 3.7.1 4.6.1 2 0 3.3 0 3.9-.1 0-.4 0-.6 0-.8 0-2.3-.5-4.1-1.4-5.1-.9-1.1-2.2-1.6-3.8-1.6-1.7 0-3 .6-4 1.8-1.1 1.1-1.6 3-1.6 5.6z"/><path d="m235.6 375.9v-1.3c1.7 0 2.6-.1 2.7-.1.3 0 .4-.1.6-.2.1-.1.2-.2.3-.4.1-.3.2-.9.3-1.6.1-3.9.1-6 .1-6.2v-2.6c0-1.2 0-2.5-.1-3.8 0-.9-.1-1.4-.2-1.6s-.3-.3-.5-.4c-.3-.1-1.2-.1-2.9-.1v-1.3c3-.4 5.2-1 6.5-1.6.3-.1.5-.2.6-.2s.2 0 .2.1c.1.1.1.2.1.3v.4c-.1.9-.1 2.3-.1 4.2.7-.8 1.3-1.5 1.8-2.3.6-.8 1-1.2 1.2-1.5.4-.4 1-.7 1.5-.9.6-.2 1.2-.3 1.8-.3s1.2.1 1.8.4l.1.3c-.2 2-.3 3.7-.4 5.2h-1c-.3-.7-.7-1.2-1.2-1.6-.4-.3-1-.5-1.7-.5-1.1 0-2.1.5-2.9 1.4s-1.2 2.4-1.2 4.2v2.3c0 1 0 2.8.1 5.3 0 .9.1 1.5.1 1.8.1.3.1.4.2.5s.3.2.5.3c.4.1 1.6.3 3.6.4v1.3c-2.6-.1-4.8-.2-6.7-.2-1.6.1-3.4.2-5.2.3z"/><path d="m254.5 369.2h1.3c0 .9.1 1.5.1 2 .1.5.2 1 .4 1.5s.5.9.8 1.2c.4.3.8.6 1.2.8s.9.3 1.3.4 1.1.1 2.1.1c1.5 0 2.7-.4 3.7-1.2s1.5-1.9 1.5-3.3c0-.6-.2-1.2-.5-1.6-.3-.5-.7-.8-1.3-1.1s-1.8-.6-3.7-1-3.1-.7-3.6-.9c-.8-.3-1.5-.7-2-1.1s-.9-1-1.2-1.7-.4-1.4-.4-2.2c0-1.2.3-2.2.9-3.2s1.6-1.8 2.9-2.4 2.7-.9 4.3-.9c.9 0 2 .1 3.2.4s2.2.6 3 1c-.1 1.6-.2 3.3-.2 5h-1.2c-.1-1.1-.2-1.8-.3-2.1s-.2-.6-.4-.9-.4-.6-.9-.9c-.4-.3-.9-.6-1.5-.8s-1.4-.4-2.3-.4c-1.3 0-2.4.4-3.2 1.2s-1.2 1.7-1.2 2.7c0 .6.1 1.1.3 1.5s.5.8.9 1c.4.3.9.5 1.6.7l3.7.9c1.9.5 3.2.9 3.9 1.2s1.3.9 1.7 1.6.6 1.6.6 2.6c0 2-.8 3.7-2.5 5.2s-3.9 2.2-6.6 2.2c-1.3 0-3-.2-5.1-.6-1.2-.2-1.8-.4-1.9-.5s-.1-.1-.1-.2 0-.2 0-.4c.1-.6.2-1.3.3-1.9.4-.7.4-2 .4-3.9z"/><path d="m272.8 357.6v-1.3c2.9-.3 5.3-.9 7.2-1.9l.5.3c-.1 3.2-.2 5.6-.2 7.2v4c.1 3.8.1 5.9.1 6.2 0 .7.1 1.3.2 1.6.1.1.2.3.3.3.1.1.3.2.5.2.1 0 .9 0 2.5.1v1.3c-2.3-.1-4-.2-5.4-.2-1.2 0-3.1.1-5.8.2v-1.3h2.1c.3 0 .6-.1.7-.2.2-.1.3-.2.4-.4.2-.3.3-.8.3-1.6 0-.2 0-2.3.1-6.4v-3.9c0-2.2-.1-3.5-.2-3.9-.1-.2-.2-.4-.5-.5-.1.3-1.1.2-2.8.2zm5.4-13c.7 0 1.3.2 1.8.7s.7 1.1.7 1.8-.2 1.3-.7 1.8-1.1.7-1.8.7-1.3-.2-1.8-.7-.7-1.1-.7-1.8.2-1.3.7-1.8c.5-.4 1.1-.7 1.8-.7z"/><path d="m286 358.5v-.9c1.4-.6 2.6-1.1 3.4-1.5 0-3.5 0-5.8 0-6.7 1.5-.5 2.8-1.1 3.7-1.7l.5.4c-.2 1.2-.3 3.9-.5 8.1h2.1 2.3c.8 0 1.3 0 1.7-.1l.1.2-.5 2.1c-.9 0-1.8 0-2.6 0s-1.9 0-3.3 0l-.1 9v3.9c.1.4.2.8.4 1.1s.5.6.8.8.9.3 1.7.4c.6 0 1.1 0 1.5-.1s.8-.2 1.4-.4l.3.9c-.7.6-1.4 1.1-2 1.7-.6.2-1.1.3-1.6.4s-1 .1-1.7.1c-.8 0-1.4-.1-1.9-.3s-.9-.4-1.3-.7-.7-.7-1-1.2-.4-1.3-.5-2.3c0-1 0-2.1.1-3.3 0-.2 0-.5 0-.8v-9.2h-.9c-.3 0-1.2 0-2.1.1z"/><path d="m300.8 387.8 1.1-3.4h.5c.3.2.5.4.7.6.2.1.4.2.6.3s.6.1 1 .1c.5 0 .9-.1 1.3-.3s.8-.5 1.2-.9.8-1.2 1.3-2.2c.8-1.6 1.5-3.2 2.1-4.8-.5-1.3-1-2.8-1.7-4.5l-3.5-8.7c-1.1-2.6-1.9-4.6-2.6-6-.3-.5-.5-.9-.9-1.1-.3-.2-1-.3-2-.5v-1.4c1.8.1 3.7.2 5.4.2s3.4-.1 5-.2v1.3c-1.5.1-2.4.2-2.6.3-.4.1-.6.4-.6.8 0 .2.1.7.4 1.4.6 1.8 1.1 3.4 1.6 4.7l1.4 3.5c.8 2.1 1.6 3.8 2.1 5l1.2-2.6c.5-1 1.3-3 2.4-5.9 1.2-2.9 1.8-4.7 2-5.4.1-.2.1-.4.1-.6 0-.3-.1-.5-.3-.7s-1.1-.3-2.7-.5v-1.3c1.7.1 3.2.2 4.6.2 1.3 0 2.6-.1 3.9-.2l-.2 1.3c-.8 0-1.3.2-1.8.5-.4.3-1 1.3-1.9 3-.8 1.7-2.4 5-4.7 10l-5.1 12c-.8 1.9-1.5 3.3-2.1 4.2-.6.8-1.3 1.5-2.2 1.9-.8.4-1.8.6-2.8.6-.5 0-.9-.1-1.3-.2 0-.1-.4-.3-.9-.5z"/><path d="m338 365.7c0-3.3 1.1-6 3.2-8.1s4.8-3.1 8.1-3.1c3.1 0 5.6 1 7.6 2.9 2 2 2.9 4.5 2.9 7.6 0 2.2-.5 4.1-1.5 5.9s-2.4 3.2-4.3 4.2-3.9 1.5-6.1 1.5c-1.7 0-3.2-.3-4.4-.9s-2.2-1.3-2.9-2.2-1.3-1.8-1.7-2.7c-.6-1.6-.9-3.3-.9-5.1zm4.1-1.7c0 1.8.3 3.7.9 5.6s1.5 3.3 2.6 4.1c1.1.9 2.4 1.3 3.7 1.3 1.7 0 3.2-.7 4.3-2 1.2-1.4 1.7-3.5 1.7-6.3 0-2.4-.3-4.4-1-6.1s-1.6-2.9-2.6-3.6c-1.1-.7-2.2-1.1-3.5-1.1-1.8 0-3.3.7-4.4 2s-1.7 3.3-1.7 6.1z"/><path d="m362.9 358.5v-.9c1.2-.5 2.2-1 3.1-1.5v-1.3c0-1.9.1-3.3.4-4.1.2-.8.6-1.5 1-2.1.7-.9 1.7-2.1 3.2-3.5 1-.9 1.7-1.5 2.1-1.8.6-.3 1.3-.5 2.1-.5.6 0 1.2.1 1.8.3l.1 3.7-.5.2c-.5-.4-.9-.7-1.4-.8-.5-.2-1-.3-1.6-.3-.8 0-1.5.2-2 .5s-.9.8-1.1 1.4-.3 1.8-.3 3.7v4.6h2.3c1.2 0 2.3-.1 3.5-.2l.2.1-.4 2.3c-1.3-.1-2.2-.1-2.8-.1s-1.6 0-2.8.1v7.9c0 1 0 2.7.1 5.3 0 .9.1 1.5.1 1.8.1.3.1.4.2.5s.3.2.5.3c.4.1 1.6.3 3.6.4v1.3c-3.4-.1-5.6-.2-6.3-.2s-2.6.1-5.7.2v-1.3h2.1c.3 0 .6-.1.7-.2.2-.1.3-.2.4-.4.2-.3.3-.8.3-1.6 0-.2 0-2.3.1-6.4v-7.8z"/><path d="m5.2 341.9c-.1 2.6-.6 16.4-.6 16.4-.4 9.6-.7 18-.7 25.5 0 33 6.4 48.1 43.1 65.9 36.8-17.8 43.1-32.9 43.1-65.9 0-7.5-.3-16-.7-25.6 0 0-.5-13.8-.6-16.4.1.1-83.6.1-83.6.1z" fill="#fff"/><path d="m86.3 344.7h-78.4l-.8 21.9h80.2zm-36.6 20.4-.1-.2s.6-.3 1.4-.7c1.5-.9 2.8-2.9 2.8-4.7 0-3.2-3-5.9-6.8-5.9s-6.9 2.6-6.9 5.9c0 1.8 1.3 3.8 2.8 4.7.8.5 1.4.7 1.4.7l-.1.2s-.7-.2-1.4-.7c-2.6-1.6-4.1-4.3-4.1-6.7 0-4.1 3.8-7.4 8.3-7.4s8.3 3.3 8.3 7.4c0 2.4-1.4 5-4.1 6.7-.8.5-1.5.7-1.5.7zm1.9-.4v-.2c2.4-1.6 4-4.2 4-6.8 0-4.3-3.9-7.8-8.7-7.8-4.7 0-8.7 3.5-8.7 7.8 0 2.5 1.6 5.2 4 6.8l-.1.2c-3.6-1.7-6.2-5-6.2-8.6 0-5.1 5.1-9.3 11-9.3s10.9 4.2 10.9 9.3c.1 3.6-2.5 7-6.2 8.6z" fill="#ee3124"/><path d="m57.1 369v12.3c-.1.1-1 .8-2.5.8s-3.4-.7-5-.7c-1 0-1.8.4-2.5 1.1h-.4s-1-1.1-2.5-1.1c-1.6 0-3.5.7-5 .7s-2.3-.8-2.5-.9v-12.2c-.3.6-1 1.3-1.6 1.3v12.1c.6.5 1.4.7 2.2.7 2 .1 4.4-.9 6.5-.9 1.1 0 2.2.3 3 1.2.8-.9 1.8-1.2 3-1.2 2.1 0 4.5.9 6.5.9.8 0 1.6-.2 2.2-.7v-12.1c-.4 0-1.2-.7-1.4-1.3z" fill="#ee3124"/><path d="m77.4 419.4c-.2-.8-.9-1.4-1.6-1.5.1.1.3.3.4.4.7.8.3 2.7-.5 3.1.3-1.1-.5-2-1.7-1.7.4.3.7 1 .5 1.6s-.9 1.2-1.6 1.1c-1-.2-.4-1.5-.5-2.3 0-1.1-.8-1.7-1.3-1.9-.1 0 0-.1 0-.1.4.1.7.3 1.3.2.7 0 1.3-.4 1.5-.7.3-.4.4-1 .2-1.4-.1.2-.3.4-.5.6-.4.4-1.2.4-1.8.1s-1.2-.9-1.6-1.5c-1.6-2.1-3.4-4.3-5.4-5.5-1.2-.8-2.8-1.4-4.3-1.5-.9 0-1.8.2-2.6.7-1.1.7-1.7 1.8-1.8 2.9-.2 1.3.3 2.6 1.1 3.6 1.1 1.4 2.5 2.3 3.9 3.2 1 .7 2.1 1.4 3 2.2.8.6 1.4 1.3 1.6 2.3.2.9-.2 1.5-.5 1.9-.7.5-2.4.5-3-.1-.4-3.1-2.6-4.5-5.4-5.2-1.3-.3-2.8-.7-3.9-1.3-1-.5-1.9-1.1-2.4-2.4-.2 0-.6 0-1-.2-.8-.3-1.1-.9-1.3-1.3.5.5.9.8 2.2.9.8 0 1.8-.4 2.1-1-.8.1-1.4.1-1.8-.2s-.9-.9-.8-1.5c.7.8 2.1 1.1 3.4.4.2-.1.7-.5.8-.7-.7.1-1.3 0-1.7-.4-.4-.3-.7-.8-.7-1.5.4.4 1.2.7 2 .6s1.5-.3 1.7-1c-.6.1-1.1 0-1.6-.3-.4-.3-.7-.7-.8-1.2-.7-.1-1.3-.4-1.7-.8-.4.6-.6 2-.5 2.9-1.2 0-2.2-.9-2.4-2-.5.6-.6 2-.3 2.8-1.4-.1-2.3-.8-2.6-2-.2.4-.3 1-.3 1.6 0 .2 0 .5.1.8 0 0-.3 0-.8-.4-.6-.4-1.2-1.5-1.1-2 .4.6.8 1 1.4 1.4-.1-1.3.5-2.3 1.2-2.8 0 1.4.5 2.2 1.6 2.5-.2-.8.1-1.5.2-2 .2-.5.7-1.1 1-1.3 0 1.1.5 2.3 1.5 2.5 0-.9.1-1.9.5-2.5.2-.3.3-.6.6-.7.3.9 1.4 1.4 2.5 1.4 2.8.1 3-2.2 3-2.2-.4.2-.9.5-1.8.5-1.2 0-1.5-.9-1.5-.9.7.3 2-.1 2.6-.6.4-.3.9-1 .9-1.6s-.1-1.1-.5-1.3c-.5 1.2-3.1 1.9-4.1.6 1 .1 1.9-.4 2.3-1 .1-.2.2-.7.1-.9 0 0-.7.5-1.7.5s-1.6-.4-1.6-.4c.7 0 2-.8 1.9-1.6 0 0-.4.2-.7.2-.8.1-1.7 0-2.2-.4 0-.1.3-2.1.1-2.3-.9.4-1.7 1-2.2 1.9-.5-.1-1.1-.2-1.9-.1-.7 0-1.5.1-1.9.3-.2.1-.5.3-.7.5s-.3.5-.5.7c-.5.3-1.3.4-2 .5-.5.1-1.2 0-1.3.4-.2.4.2.7.3.9.1.1.2.4.3.6s.1.5.2.7c.7 1.1 1.3.6 2 .4.8-.3 1.9-.6 2.9-.6.6 0 1.2.1 1.7.4.4.3.7.9.6 1.4 0 .5-.2.9-.6 1.2-.2.2-.9.6-1.9.6-1.2 0-2.4-.6-3.5-.6-.3 0-.6.1-.7.2-.3.3-.3.8 0 1.2 1.1 0 1 1.2.9 1.7-.5 1.4-1.6 1.4-2.1 1.4-.6-.1-1.3-.3-1.5-.7-.5 1.5.5 2.8 1.9 2.8-1 .8-2.9.2-3.1-.9-.1.2-.3.5-.3.8-.1 1.9 1.4 2.6 3.3 2.6-1.1.5-2.5.2-3.8-.1-1.2-.3-1.8-.6-2.6-1.1-1-.5-2.1-1.3-2.6-2.2-.2-.3-.4-.9-.3-1.3.1-1.4 1.7-1.6 1.5-3.3-1.1-.3-2.3.2-2.6 1.3-.1.3-.1.6-.1 1-.4-.4-.8-.8-1.3-1.2-.4-.3-.8-.5-1.2-.5 0 0-.1.3-.4.7-.1.1-.6.5-.6.5 0 .3.3.6.4.6.4.3 1.1.5 1.4 1 .1.1.1.3.1.5-.3.1-.6.1-.9 0-.9-.2-1.5-1-2.6-1-.4 0-.8 0-1 .3.3.4.2 1.1 0 1.5.2.4.5.5.9.6.6.1 1.3 0 1.8 0 .3 0 .6.1.7.3-.3.2-.6.4-1 .5-.8.2-1.8-.4-2.5 0 0 0 .2.3 0 .7-.1.3-.3.7-.3.7.4.3.7.4 1.1.5.7 0 1.5-.4 2.2-.7.4-.1.7-.2 1-.2-.6.8-1.5 1.5-2.6 1.6-.1 0-.3 0-.3 0 0 .1.3.2.4.3.2.1.7.2 1 .3 1.5.1 2.7-.4 3.7-1-.5.9-1.3 1.4-2.3 1.8.1.1.4.2.6.2 2.3.4 4.3-1.2 4.3-1.2 0 .4-.4 1.1-1.1 1.5-.2.3-.6.3-.6.3.3.3 1.1.4 1.7.3.7 0 1.4-.3 2.1-.4 1-.2 1.7-.1 2.3-.3-.7.3-1.4.6-2.2.8-.9.3-1.7.8-2.5 1.2s-1.6 1.1-2.3 1.4c-.8.4-1.8.2-2.2-.4-.2-.3-.2-.7-.3-1.1-.2-.8-.8-1.6-1.8-1.5-.1.7-.7 1.2-1 1.4.1 1.3 1.8 1.3 2 2.7-.1.1-.5.1-.8 0-.7-.2-1.2-.5-1.8-.5-.4 0-.7.1-1.1.3.1.1.2.3.3.5.1.4 0 .9-.2 1.2.3.3.6.4.9.4.6 0 1.3-.2 1.9-.3.3 0 .7 0 1 .1-.3.8-1.6.8-2.5 1-.4.1-.8.3-1 .7.6.2 1.1.7 1.1 1.6.3 0 .6-.1.9-.1.8-.4 1.3-1.2 2.1-1.5 0 .9-.6 1.4-.7 2.2v.8s.4-.2.8-.2.6.1.8.3c.2-.2.4-.5.4-.8.1-.6.1-1.3.1-1.9.1-.3 0-.5.3-.5 1.1 0 2.3-.6 2.7-1.1-.2.7-.4 1.1-.8 1.6-.1.2-.4.4-.6.6.7.1 1.4-.1 1.9-.5 1.2-.8 2.1-1.7 2.6-2.9.1.5.1 1.2-.1 1.7-.1.4-.4.7-.5.9.2 0 .6 0 .8-.1.8-.4 1.5-1.1 1.9-2 .2-.5.5-1.1.5-1.7.5.5.6 1.4.2 2.3-.1.2-.2.4-.3.5.6-.1 1-.4 1.4-.8.7-.6 1.2-1.9 1.1-3 .6.5.8 2 .4 2.9.6-.1 1-.5 1.4-.9.5-.5.7-.9 1-1.8s.1-1.5.1-1.5c.1.1.3.4.3.7.3 1.1-.1 2.3-1 3.2-.1.1-.5.4-.5.4.6.8 1.7 1.2 2.9 1.2 2 .1 3.2-.7 5.1-.9-.8.4-1.5.8-2 1-1.1.5-2.1.8-3 .8-.5 0-1.1 0-1.6-.3-.4.5-.4 1-.4 1.8.1 1 .7 1.7.4 2.7-.5 2-4 1.7-5.3.7-1.1-.8-1-2.7-1.9-3.5-.3-.2-.6-.4-1.2-.4-.2.6-.6 1-1.1 1.3.1.4.3.6.5.9.4.4.9.7 1.3 1.2.1.2.2.4.3.7-.4 0-.7-.1-.9-.2-.7-.3-1.3-1-2.1-1.2-.3 0-.6 0-1 0 .1.4-.1 1.1-.5 1.4.3.8 1.1 1.3 2.2 1.3.6 0 1.3 0 1.6.4-.8.9-2.1 0-3.3 0-.3 0-.6.1-.9.2 0 .1.2.3.2.6 0 .4-.2.9-.2.9 0 .3.7.5 1.1.5h.8c.8-.1 1.8-.7 2.6-.7.1 0 .4.1.4.2-.3.7-1 .8-1.4 1.2-.1.2-.3.4-.3.7.7-.2 1 .1 1.3.5.3 0 .6-.1.8-.2.4-.3.7-1 1-1.4.1-.1.2-.3.5-.3.1 0 .3.3.5.5.6.8 1.6 1.4 2.9 1.2.4 0 .8-.2 1-.5-.8-.1-1.4-.7-1.7-1.5.7.5 2 1 3.1.8.1 0 .5-.1.5-.3-.8-.2-1.5-1-1.2-2 .4.6 1.1 1.2 2 1.3.3 0 .6 0 .9-.2-.1-.1-.3-.3-.4-.5s-.2-.5-.1-.8c.1-.7 1.1-.9 1.8-1 .9-.1 1.8.1 2.6-.2.5-.2 1-.6 1-1.2-.3.2-.7.4-1.2.3-.7-.1-1-.7-1-1.1 0-.9.5-1.3 1.6-1.4.5 0 1.2.1 1.6.3 0 0 .7.3.7.2-.3-.6 0-1.7.2-2.2.4-.8.8-1.3 1-2.1 0 .1.1.3 0 .5-.1.9-.4 1.4-.5 2.4-.1.5.1 1.2.6 1.6.8.7 2.2.9 2.7 2 .3.9 0 1.6-.4 2.1-.6.8-1.5 1.6-2.5 2-.3.1-.8.4-1.2.2-.9-.3-1.2-1.9-1.9-2.4-.3-.2-.7-.2-1.1-.2-.1.3-.1.4-.3.7-.1.2-.5.4-.5.4 0 .3.3.6.4.8.4.4 1.3.6 1.5 1.1-.1.1-.3.2-.5.2-.9 0-1.4-.8-2.3-.9-.2 0-.6 0-.8.2v.6c-.1.3-.2.4-.3.5.1.7 1.3.8 2.3.8.3 0 .6.1.7.3-.2.2-.5.4-.9.5-.7.1-1.3-.3-2-.3-.2 0-.5.1-.8.2.1.2.1.5 0 .7-.1.3-.1.5-.2.6.1.1.5.3.8.3 1 .1 1.8-.7 2.8-.4-.4.6-1.1.7-1.7 1-.2.1-.5.4-.6.7.2.1.4.2.5.4s.2.4.2.6c1.2.1 1.8-.7 2.3-1.4.8-.9 2-1.5 3.6-1.6 1.8-.1 4 .7 4.8-.8-1 0-2.1-.2-2.5-.9 1.7.5 3.8 0 4.7-1.1-1.2.2-2.4-.1-2.9-.8 1.3.3 2.7.1 3.8-.5.7-.4 1.4-1 1.6-1.7-.1 0-.3.1-.5.2-.8.4-2.3.3-2.7-.4.8 0 1.5-.1 2-.4.7-.4 1.1-1 1.4-1.5s.6-1.1.9-1.5c.2-.2.3-.3.5-.3-.1-.1-.5-.2-.7-.1-1.1.2-1.6 1.2-2.6 1.4.4-1.1.5-2.5.6-3.7 2.1.8 3.9.2 4.8-1.1.5-.8.7-1.7.7-2.3 0-1.3-.7-2.2-1.3-2.9-1.2-1.3-2.8-2.3-4.2-3.3-1-.7-2-1.4-2.9-2.2-.6-.5-1.3-1.3-1.4-2.2-.2-1.4.6-2.5 1.6-2.7 3.1-.9 6.2 2.4 7.7 4.2.3.4 1.6 1.8 1.1 2.8-.1.2-.5.4-.8.4-.4 0-.8-.5-.5-1.1-.8.2-1.2 1.4-.7 2.1.3.5.9.6 1.4.5.4-.1.8-.3.9-.6-.5 1.6.1 3.4.9 4.3 1 1.1 2.4 1.4 3 1.4 1.5.1 3-.3 4-1.6 1.3-.7 1.7-1.9 1.3-3zm-31.3-17.9c-.2-.4-.3-1-.1-1.3.6.4 1.2.5 1.8.6-.5.1-1.2.3-1.7.7z" fill="#ee3124"/><path d="m75.2 346.2-8.6 9.7 8.6 9.8 8.4-9.8zm-5.2 9.7 5.1-5.8 5.1 5.9-5 5.7z" fill="#ffef00"/><path d="m11.1 355.9 8.7 9.8 8.4-9.8-8.4-9.7zm8.7 5.8-5.2-5.8 5.1-5.8 5.1 5.9z" fill="#ffef00"/><g fill="#00539b"><path d="m52.2 378.4c-1.5-.4-3.1-.8-4.5 0v.4c1.3-.9 2.8-.5 4.4-.1 1.3.3 2.7.7 4 .2v-.3c-1.2.5-2.5.2-3.9-.2z"/><path d="m41.7 375.4c-1.4.4-2.7.7-3.9.2v.4c1.2.5 2.6.1 4-.2 1.6-.4 3.1-.8 4.4.1v-.4c-1.4-.9-3-.5-4.5-.1z"/><path d="m41.7 372.3c-1.4.4-2.7.7-3.9.2v.3c1.2.5 2.6.1 4-.2 1.6-.4 3.1-.8 4.4.1v-.4c-1.4-.8-3-.4-4.5 0z"/><path d="m41.7 378.4c-1.4.3-2.7.7-3.9.1v.3c1.2.5 2.6.2 4-.2 1.6-.4 3.1-.8 4.4.1v-.4c-1.4-.6-3-.3-4.5.1z"/><path d="m52.2 372.3c-1.5-.4-3.1-.8-4.5 0v.4c1.3-.9 2.8-.5 4.4-.1 1.3.3 2.7.7 4 .2v-.3c-1.2.5-2.5.2-3.9-.2z"/><path d="m52.2 375.4c-1.5-.4-3.1-.8-4.5.1v.4c1.3-.9 2.8-.5 4.4-.1 1.3.3 2.7.7 4 .2v-.4c-1.2.4-2.5.1-3.9-.2z"/><path d="m29.8 434.9c.8-.8 1.5-.4 1.5-.4.4-.4.3-1.3 0-1.6-.8.3-1.6 1-1.5 2z"/><path d="m29.8 431s.4-.2 1-.2c.5 0 .9.1.9.1.4-.2.8-1 .5-1.4-1.2.2-2.1.7-2.4 1.5z"/><path d="m26.9 428.4s.1 1 .8 1.7c.2.2.5.4.8.4-.4-.5-.3-1.4 0-1.9-.4-.4-1.2-.4-1.6-.2z"/><path d="m27.8 407.8c-1.2-.3-2.4.3-2.7 1.2 0 0 .9-.4 1.8 0 0 0 .8-.5.9-1.2z"/><path d="m31.3 407.4c.5-.3 1.1-.4 1.7-.2 0-.4-.5-.7-.8-.8-.6-.3-.9-.4-1.6-.4-.5 0-.7.2-.7.2.6.2 1.2.5 1.4 1.2z"/><path d="m35.2 426.9c-.7-.2-1.6-.1-2.2.2-.5.3-.8.7-.8.7 1.3-.1 2 .5 2 .5.4-.2 1.1-.8 1-1.4z"/><path d="m23.5 425.5c-.4.4-.8 1.3-.6 2.2.1.4.4.6.4.6.1-.5.5-1.2 1.3-1.2.2-1-.7-1.6-1.1-1.6z"/><path d="m23.2 421.9s-.6.1-1.3.9c-.3.3-.6.9-.5 1.4 0 0 .4-.4 1-.6.4-.1.6-.1.8-.1.4-.1.5-1.2 0-1.6z"/><path d="m47 384.8c1.4 0 2.1-1.2 2.1-1.2h11v-13h-1.4v11.7s-.7.7-2.4.7c-2 0-4.2-.8-6.3-.8-2 0-2.8 1-3 1.2 0 0-1-1.2-2.9-1.2-2 0-4.3.8-6.7.8-1.2 0-1.9-.6-2.1-.7v-11.7h-1.3v13h10.9s.6 1.2 2.1 1.2z"/><path d="m23.9 414.7s.6-.8.2-1.4c-1.2.1-1.9.8-2.3 1.6.1 0 1.2-.4 2.1-.2z"/><path d="m34.5 436.4s-.4 1.5.7 2c0 0-.2-.8.6-1.4-.2-.5-.9-.8-1.3-.6z"/><path d="m22.9 419.2c.6-.1 1.5-.2 1.9.2.7-.4 1.1-1.1 1-1.4-.1-.1-.5-.1-.7-.1-1.2.1-1.9.6-2.2 1.3z"/><path d="m24.2 412s.6-.9 0-1.5c-.9.2-1.6.9-1.8 1.9 0 0 .3-.2.6-.3.5-.2.9-.1 1.2-.1z"/><path d="m47 392.3 37 21.7c4.3-11.4 4.2-25.6 3.4-45.5z"/><path d="m47 405.4c-.1.3-.2.9-.3 1.2.3.1.6-.2.9-.3-.3-.3-.5-.7-.6-.9z"/><path d="m44.1 439.9s.3-.2.7-.4c.3-.2.9-.2 1.2 0 .3-.2.4-1.2.2-1.4-1 .1-2 .8-2.1 1.8z"/><path d="m44.3 405.6c-.1.2-.2.5-.4.8.2.1.6.2.8.1-.1-.3-.2-.8-.4-.9z"/><path d="m92.4 358.4-.7-19.3h-89.3l-.7 19.3c-2 51.9-2.8 71.4 44.6 94.2l.7.3.7-.3c47.5-22.8 46.7-42.3 44.7-94.2zm-45.3 91.4c-36.8-17.8-43.1-32.9-43.1-65.9 0-7.5.3-15.9.7-25.5 0 0 .5-13.8.6-16.4h83.7c.1 2.6.6 16.4.6 16.4.4 9.6.7 18.1.7 25.6-.1 32.9-6.5 47.9-43.2 65.8z"/><path d="m10.2 414 36.8-21.7-40.3-23.6c-.7 19.8-.7 33.9 3.5 45.3z"/><path d="m47.4 434c.4-.1 1-.2 1.4.1.5-.3.8-.7.8-1.1-1-.2-2 .2-2.2 1z"/><path d="m47.2 441.1c-.4.3-1 1.3-.9 2 .1.4.4.6.4.6.2-.7.8-1.3 1.3-1.5.1-.4-.5-1.1-.8-1.1z"/><path d="m44.5 403.2c.1.2.3.9.3.9.1-.3.4-.7.5-1-.3 0-.6 0-.8.1z"/><path d="m43.2 403.6s.3.5.4.7l.3-1c-.2 0-.5.2-.7.3z"/><path d="m45.8 403s.3.7.4 1c.1-.3.4-.7.6-1-.4-.1-.7-.1-1 0z"/><path d="m45.2 406.6c.3.1.6.1.8.1-.1-.3-.4-.9-.4-1.1 0 .2-.3.8-.4 1z"/><path d="m44.9 436.7c.3-.2 1.2-.4 1.9-.1.2-.1.5-.8.3-1.1-1-.3-2 .3-2.2 1.2z"/><path d="m48 404.3c-.4-.1-.9 0-1.3 0-1.5.3-3.4.5-4.6.4-1-.1-2.3-.4-2.3-1.7 0-.5.2-1 .2-1-.5.1-1.2.8-1.1 1.7.1 1 1 1.6 2.9 1.7 1.5.1 3.6-.4 4.9-.7.8-.2 1.3-.4 1.3-.4z"/><path d="m44.3 381.4c1.5 0 2.5 1.1 2.5 1.1h.4c.7-.7 1.4-1.1 2.5-1.1 1.7 0 3.5.7 5 .7 1.4 0 2.4-.7 2.5-.8v-12.3l-.3.2c-1.3 1.1-2.9.7-4.6.3-1.8-.5-3.7-.9-5.3.7-1.6-1.6-3.5-1.2-5.3-.7-1.7.4-3.2.8-4.6-.3l-.3-.2v12.3c.1.1 1 .9 2.5.9 1.5-.1 3.4-.8 5-.8zm2.8-11c1.4-1.5 3.2-1.1 5-.7 1.6.4 3.2.7 4.7-.2v11.5c-1.3.9-2.9.7-4.6.3-1.8-.4-3.6-.7-5.1.7zm-10 10.7v-11.5c1.4.9 3.1.6 4.7.2 1.9-.5 3.6-.9 5 .7v11.6c-1.5-1.4-3.4-1.1-5.1-.7s-3.3.7-4.6-.3z"/><path d="m41.8 375.7c1.6-.4 3.1-.8 4.4.1v-.4c-1.4-.8-3-.4-4.5-.1-1.4.4-2.7.7-3.9.2v.4c1.2.5 2.6.1 4-.2z"/><path d="m41.8 372.6c1.6-.4 3.1-.8 4.4.1v-.4c-1.4-.8-3-.4-4.5 0-1.4.4-2.7.7-3.9.2v.3c1.2.5 2.6.2 4-.2z"/><path d="m46.1 378.9v-.4c-1.4-.8-3-.4-4.5 0-1.4.3-2.7.7-3.9.1v.3c1.2.5 2.6.2 4-.2 1.6-.3 3.1-.7 4.4.2z"/><path d="m52.2 375.7c1.3.3 2.7.7 4 .2v-.4c-1.2.5-2.5.2-3.9-.2-1.5-.4-3.1-.8-4.5.1v.4c1.3-.9 2.8-.5 4.4-.1z"/><path d="m52.2 372.6c1.3.3 2.7.7 4 .2v-.3c-1.2.5-2.5.2-3.9-.2-1.5-.4-3.1-.8-4.5 0v.4c1.3-.8 2.8-.5 4.4-.1z"/><path d="m52.2 378.8c1.3.3 2.7.7 4 .2v-.3c-1.2.5-2.5.2-3.9-.1-1.5-.4-3.1-.8-4.5 0v.4c1.3-1 2.8-.6 4.4-.2z"/></g></svg>