<?xml version="1.0" encoding="utf-8"?>
<!-- Generator: Adobe Illustrator 17.0.1, SVG Export Plug-In . SVG Version: 6.00 Build 0)  -->
<!DOCTYPE svg PUBLIC "-//W3C//DTD SVG 1.1//EN" "http://www.w3.org/Graphics/SVG/1.1/DTD/svg11.dtd">
<svg version="1.1" id="Layer_1" xmlns="http://www.w3.org/2000/svg" xmlns:xlink="http://www.w3.org/1999/xlink" x="0px" y="0px"
	 width="32px" height="26.006px" viewBox="0 0 32 26.006" enable-background="new 0 0 32 26.006" xml:space="preserve">
<path fill="#FFFFFF" d="M32,3.078c-1.177,0.522-2.443,0.875-3.771,1.034c1.356-0.812,2.397-2.099,2.887-3.632
	c-1.268,0.752-2.673,1.299-4.169,1.593C25.749,0.797,24.043,0,22.155,0c-3.626,0-6.565,2.939-6.565,6.565
	c0,0.515,0.058,1.016,0.17,1.496C10.303,7.787,5.466,5.174,2.228,1.202c-0.565,0.97-0.889,2.097-0.889,3.301
	c0,2.278,1.159,4.287,2.921,5.464C3.183,9.933,2.171,9.637,1.286,9.146c0,0.027-0.001,0.055-0.001,0.083
	c0,3.181,2.263,5.834,5.266,6.438c-0.551,0.15-1.131,0.23-1.73,0.23c-0.423,0-0.834-0.041-1.235-0.118
	c0.835,2.608,3.26,4.506,6.133,4.559c-2.247,1.761-5.078,2.81-8.154,2.81c-0.53,0-1.053-0.031-1.566-0.092
	c2.905,1.863,6.356,2.95,10.064,2.95c12.076,0,18.679-10.004,18.679-18.679c0-0.285-0.006-0.568-0.019-0.849
	C30.007,5.551,31.12,4.395,32,3.078z"/>
</svg>
