<svg id="a_w" data-name="a/w" xmlns="http://www.w3.org/2000/svg" viewBox="0 0 16.5 19.88"><defs><style>.cls-1{fill:none;}.cls-2{fill:#fff;}.cls-3{fill:#ee3124;}.cls-4{fill:#ffef00;}.cls-5{fill:#00539b;}</style></defs><title>university-of-st-andrews-crest5</title><rect class="cls-1" x="-9.74" y="-9.91" width="127.32" height="39.77"/><path class="cls-2" d="M.91.5C.9,1,.81,3.36.81,3.36.74,5,.69,6.51.69,7.82c0,5.77,1.11,8.4,7.53,11.51,6.42-3.11,7.53-5.74,7.53-11.5,0-1.31-.06-2.79-.12-4.47L15.53.5Z"/><path class="cls-3" d="M15.07,1H1.38L1.24,4.81h14ZM8.68,4.55v0a2.12,2.12,0,0,0,.24-.13,1,1,0,0,0,.48-.82,1.11,1.11,0,0,0-1.19-1,1.13,1.13,0,0,0-1.2,1,1,1,0,0,0,.49.82l.24.13v0a1.5,1.5,0,0,1-.25-.13,1.41,1.41,0,0,1-.71-1.16A1.38,1.38,0,0,1,8.2,2,1.38,1.38,0,0,1,9.64,3.26a1.42,1.42,0,0,1-.71,1.16A1.51,1.51,0,0,1,8.68,4.55ZM9,4.48v0a1.48,1.48,0,0,0,.71-1.18A1.45,1.45,0,0,0,8.2,1.9,1.46,1.46,0,0,0,6.67,3.26a1.48,1.48,0,0,0,.71,1.18v0A1.75,1.75,0,0,1,6.29,3,1.81,1.81,0,0,1,8.2,1.36,1.79,1.79,0,0,1,10.1,3,1.75,1.75,0,0,1,9,4.48Z"/><path class="cls-3" d="M10,5.22V7.36a.76.76,0,0,1-.43.14c-.27,0-.59-.12-.87-.12a.56.56,0,0,0-.43.2H8.17a.63.63,0,0,0-.44-.2c-.28,0-.61.13-.87.13a.65.65,0,0,1-.43-.15V5.22c-.06.11-.18.22-.27.22V7.56a.63.63,0,0,0,.39.12c.35,0,.77-.15,1.13-.15a.68.68,0,0,1,.53.21.68.68,0,0,1,.52-.21c.36,0,.79.16,1.14.15a.64.64,0,0,0,.39-.12V5.44C10.14,5.45,10,5.33,10,5.22Z"/><path class="cls-3" d="M13.52,14a.36.36,0,0,0-.28-.26l.07.07a.44.44,0,0,1-.08.55.23.23,0,0,0-.29-.3.26.26,0,0,1,.09.28.27.27,0,0,1-.28.19c-.17,0-.07-.25-.08-.39a.37.37,0,0,0-.23-.34s0,0,0,0a.71.71,0,0,0,.22,0,.33.33,0,0,0,.26-.12.28.28,0,0,0,0-.24.64.64,0,0,1-.08.1.3.3,0,0,1-.31,0,.94.94,0,0,1-.29-.26,4,4,0,0,0-.94-1,1.5,1.5,0,0,0-.75-.26.8.8,0,0,0-.46.12.72.72,0,0,0-.32.51.85.85,0,0,0,.19.63,2.62,2.62,0,0,0,.69.57,6.39,6.39,0,0,1,.53.38.7.7,0,0,1,.28.4.32.32,0,0,1-.1.32.53.53,0,0,1-.53,0,1.06,1.06,0,0,0-.94-.9,2.69,2.69,0,0,1-.68-.22.74.74,0,0,1-.41-.42.37.37,0,0,1-.17,0,.33.33,0,0,1-.22-.23.48.48,0,0,0,.38.15.46.46,0,0,0,.38-.17.51.51,0,0,1-.32,0,.29.29,0,0,1-.14-.27.52.52,0,0,0,.59.08s.13-.09.14-.12a.38.38,0,0,1-.29-.07.32.32,0,0,1-.11-.27.46.46,0,0,0,.34.11.32.32,0,0,0,.3-.17.39.39,0,0,1-.28-.05.26.26,0,0,1-.13-.21A.42.42,0,0,1,9,12.06a1,1,0,0,0-.09.51.43.43,0,0,1-.41-.35.62.62,0,0,0-.06.49A.47.47,0,0,1,8,12.36a.67.67,0,0,0-.05.28,1.35,1.35,0,0,0,0,.14.32.32,0,0,1-.15-.06.5.5,0,0,1-.2-.35.81.81,0,0,0,.24.24.57.57,0,0,1,.21-.49c0,.24.08.39.27.44a.58.58,0,0,1,0-.35A.68.68,0,0,1,8.56,12a.44.44,0,0,0,.26.44A1,1,0,0,1,8.9,12,.31.31,0,0,1,9,11.85a.44.44,0,0,0,.43.24.44.44,0,0,0,.52-.39.64.64,0,0,1-.32.09.27.27,0,0,1-.26-.16.59.59,0,0,0,.46-.1.45.45,0,0,0,.16-.27A.25.25,0,0,0,9.92,11a.48.48,0,0,1-.71.11.42.42,0,0,0,.4-.18.25.25,0,0,0,0-.15.65.65,0,0,1-.3.09A.46.46,0,0,1,9,10.83c.12,0,.35-.13.34-.28l-.13,0a.62.62,0,0,1-.39-.07,1.25,1.25,0,0,0,0-.41.85.85,0,0,0-.38.33,1.71,1.71,0,0,0-.32,0,.91.91,0,0,0-.33.06.4.4,0,0,0-.12.09s0,.09-.08.11a.93.93,0,0,1-.35.08c-.09,0-.21,0-.24.06s0,.12.06.15l.05.1a.62.62,0,0,0,0,.11c.11.19.23.1.36.06a1.6,1.6,0,0,1,.5-.1.53.53,0,0,1,.29.07.28.28,0,0,1,.11.24.3.3,0,0,1-.1.22.56.56,0,0,1-.34.1c-.21,0-.42-.1-.61-.1a.18.18,0,0,0-.13,0,.14.14,0,0,0,0,.2c.19,0,.18.21.15.3a.34.34,0,0,1-.36.24.46.46,0,0,1-.27-.11.36.36,0,0,0,.34.5.36.36,0,0,1-.53-.15.25.25,0,0,0,0,.14c0,.33.24.46.58.45a1.06,1.06,0,0,1-.67,0A2.34,2.34,0,0,1,6,13.07a1.08,1.08,0,0,1-.45-.39.5.5,0,0,1-.06-.23c0-.25.3-.28.26-.57a.36.36,0,0,0-.46.23.4.4,0,0,0,0,.18l-.22-.21A.28.28,0,0,0,4.86,12a.91.91,0,0,1-.07.13l-.1.09a.18.18,0,0,0,.06.11c.06.06.18.09.24.17a.14.14,0,0,1,0,.1.26.26,0,0,1-.15,0c-.16,0-.27-.17-.45-.18a.2.2,0,0,0-.18.06.27.27,0,0,1,0,.27.18.18,0,0,0,.15.1c.1,0,.22,0,.32,0a.16.16,0,0,1,.13.05.48.48,0,0,1-.17.09c-.14,0-.31-.07-.43,0a.18.18,0,0,1,0,.12.48.48,0,0,1,0,.12.3.3,0,0,0,.19.08,1.27,1.27,0,0,0,.39-.12.51.51,0,0,1,.18,0,.69.69,0,0,1-.46.28H4.42s0,0,.06.05a.44.44,0,0,0,.17,0,1.17,1.17,0,0,0,.64-.18.63.63,0,0,1-.41.31.17.17,0,0,0,.1,0,1.11,1.11,0,0,0,.75-.2.39.39,0,0,1-.19.27.44.44,0,0,1-.14,0,.42.42,0,0,0,.3.05,2.78,2.78,0,0,0,.36-.08c.18,0,.29,0,.4,0l-.38.15a3.08,3.08,0,0,0-.44.21c-.15.08-.27.18-.41.25a.29.29,0,0,1-.38-.07.68.68,0,0,1,0-.18.31.31,0,0,0-.31-.27.39.39,0,0,1-.17.25c0,.23.32.23.35.46a.2.2,0,0,1-.14,0,1.16,1.16,0,0,0-.32-.09.29.29,0,0,0-.18,0,.19.19,0,0,1,.05.09.27.27,0,0,1,0,.2.22.22,0,0,0,.16.06c.11,0,.23,0,.33,0a.35.35,0,0,1,.18,0c-.06.15-.28.14-.44.18a.25.25,0,0,0-.18.12.25.25,0,0,1,.18.27.39.39,0,0,0,.15,0c.14-.06.22-.22.37-.27,0,.16-.1.25-.12.39a.36.36,0,0,0,0,.14.41.41,0,0,1,.14,0,.24.24,0,0,1,.14,0,.29.29,0,0,0,.08-.14,1.94,1.94,0,0,0,0-.33c0-.06,0-.08.05-.09a.75.75,0,0,0,.48-.19.59.59,0,0,1-.14.27l-.1.1a.5.5,0,0,0,.34-.08,1.15,1.15,0,0,0,.46-.51.52.52,0,0,1,0,.29A.54.54,0,0,1,6,15.1a.27.27,0,0,0,.14,0,.69.69,0,0,0,.33-.35,1.06,1.06,0,0,0,.09-.29.37.37,0,0,1,0,.4.41.41,0,0,1,0,.08.43.43,0,0,0,.24-.14A.68.68,0,0,0,7,14.24a.5.5,0,0,1,.07.5.53.53,0,0,0,.25-.16.64.64,0,0,0,.18-.31.49.49,0,0,0,0-.26.26.26,0,0,1,.06.12.59.59,0,0,1-.17.56l-.09.07a.64.64,0,0,0,.51.21,4.69,4.69,0,0,0,.9-.16L8.42,15a1.2,1.2,0,0,1-.52.14.67.67,0,0,1-.28,0,.4.4,0,0,0-.07.31c0,.18.12.3.07.48-.09.35-.71.29-.93.13s-.17-.46-.34-.6a.29.29,0,0,0-.2-.06.42.42,0,0,1-.19.23.29.29,0,0,0,.08.15c.07.07.16.12.22.2a.26.26,0,0,1,0,.13.31.31,0,0,1-.16,0c-.13-.06-.22-.18-.36-.22a.5.5,0,0,0-.18,0,.25.25,0,0,1-.08.24.39.39,0,0,0,.38.23c.1,0,.22,0,.28.07-.14.15-.37,0-.57,0a.28.28,0,0,0-.15,0,.29.29,0,0,1,0,.11.38.38,0,0,1,0,.16c0,.06.12.09.18.09h.14c.15,0,.31-.13.46-.11s.06,0,.07,0-.17.13-.24.21A.22.22,0,0,0,6,17c.12,0,.17,0,.23.1a.2.2,0,0,0,.14,0,1.43,1.43,0,0,0,.18-.24s0-.06.08-.05.05.06.08.09a.57.57,0,0,0,.51.21A.28.28,0,0,0,7.42,17a.38.38,0,0,1-.3-.26.78.78,0,0,0,.53.14s.08,0,.09,0a.28.28,0,0,1-.2-.35.48.48,0,0,0,.36.22.21.21,0,0,0,.15,0A.32.32,0,0,1,8,16.57a.29.29,0,0,1,0-.15c0-.13.2-.16.31-.17a2.08,2.08,0,0,0,.45,0c.1,0,.18-.11.17-.22a.3.3,0,0,1-.2.06.19.19,0,0,1-.17-.2c0-.15.09-.23.28-.24a.75.75,0,0,1,.29,0l.12,0a.56.56,0,0,1,0-.38A2.59,2.59,0,0,0,9.41,15a.21.21,0,0,1,0,.09c0,.15-.08.24-.09.41a.34.34,0,0,0,.1.28c.15.12.39.16.47.35a.37.37,0,0,1-.07.37,1.1,1.1,0,0,1-.43.35.29.29,0,0,1-.22,0c-.15-.05-.21-.33-.34-.42a.25.25,0,0,0-.19,0,.23.23,0,0,1-.06.12l-.08.07a.26.26,0,0,0,.06.13c.07.07.23.11.26.2a.12.12,0,0,1-.08,0c-.16,0-.24-.14-.39-.15a.23.23,0,0,0-.14,0,.17.17,0,0,1,0,.1.33.33,0,0,1,0,.1c0,.12.23.13.4.15s.11,0,.13,0a.35.35,0,0,1-.15.08,1.57,1.57,0,0,1-.35-.06.25.25,0,0,0-.14,0,.24.24,0,0,1,0,.13.27.27,0,0,1,0,.11.27.27,0,0,0,.15.05c.17,0,.31-.13.48-.07-.07.11-.19.11-.29.18a.31.31,0,0,0-.11.12.2.2,0,0,1,.09.07.24.24,0,0,1,0,.11c.21,0,.31-.12.41-.24a.93.93,0,0,1,.64-.29c.31,0,.7.13.84-.14-.17,0-.37,0-.43-.16a.83.83,0,0,0,.82-.19.49.49,0,0,1-.5-.14.89.89,0,0,0,.66-.08.56.56,0,0,0,.27-.31l-.08,0c-.15.07-.41.06-.47-.06a.67.67,0,0,0,.35-.07.65.65,0,0,0,.24-.25,1.54,1.54,0,0,1,.16-.27.22.22,0,0,1,.09-.06.14.14,0,0,0-.11,0c-.19,0-.27.21-.45.25a2.19,2.19,0,0,0,.1-.65.64.64,0,0,0,1-.59.75.75,0,0,0-.23-.51,4.46,4.46,0,0,0-.74-.57,4.18,4.18,0,0,1-.51-.38.71.71,0,0,1-.25-.39.42.42,0,0,1,.27-.48c.54-.16,1.09.42,1.35.73.06.07.27.32.19.48a.16.16,0,0,1-.13.07c-.08,0-.14-.08-.09-.2a.24.24,0,0,0-.12.36.23.23,0,0,0,.24.09.26.26,0,0,0,.16-.1.8.8,0,0,0,1.38.72A.65.65,0,0,0,13.52,14ZM8,10.9a.23.23,0,0,1,0-.23.81.81,0,0,0,.32.1A1.05,1.05,0,0,0,8,10.9Z"/><path class="cls-4" d="M13.13,1.24l-1.51,1.7,1.51,1.7,1.48-1.7Zm-.91,1.7.9-1L14,3l-.87,1Z"/><path class="cls-4" d="M1.94,2.94l1.51,1.7,1.47-1.7L3.45,1.24ZM3.45,4l-.91-1,.9-1,.88,1Z"/><path class="cls-5" d="M9.12,6.88a1,1,0,0,0-.78,0V7a.91.91,0,0,1,.77,0A1.14,1.14,0,0,0,9.8,7V6.9A1.08,1.08,0,0,1,9.12,6.88Z"/><path class="cls-5" d="M7.27,6.33a1,1,0,0,1-.68,0v.06a1.17,1.17,0,0,0,.7,0,.92.92,0,0,1,.77,0V6.34A1,1,0,0,0,7.27,6.33Z"/><path class="cls-5" d="M7.27,5.8a1.07,1.07,0,0,1-.68,0v.06a1.19,1.19,0,0,0,.7,0,.91.91,0,0,1,.77,0V5.81A1,1,0,0,0,7.27,5.8Z"/><path class="cls-5" d="M7.27,6.88a1.07,1.07,0,0,1-.68,0V7a1.14,1.14,0,0,0,.7,0,.91.91,0,0,1,.77,0V6.88A1,1,0,0,0,7.27,6.88Z"/><path class="cls-5" d="M9.12,5.8a1,1,0,0,0-.78,0v.07a.91.91,0,0,1,.77,0,1.18,1.18,0,0,0,.69,0V5.83A1.07,1.07,0,0,1,9.12,5.8Z"/><path class="cls-5" d="M9.12,6.33a1,1,0,0,0-.78,0v.07a.93.93,0,0,1,.77,0,1.17,1.17,0,0,0,.69,0V6.36A1.05,1.05,0,0,1,9.12,6.33Z"/><path class="cls-5" d="M5.2,16.74c.15-.15.27-.07.27-.07a.22.22,0,0,0,0-.27A.33.33,0,0,0,5.2,16.74Z"/><path class="cls-5" d="M5.2,16a.51.51,0,0,1,.18,0l.15,0c.06,0,.13-.17.08-.24A.45.45,0,0,0,5.2,16Z"/><path class="cls-5" d="M4.69,15.6a.45.45,0,0,0,.14.29A.21.21,0,0,0,5,16a.33.33,0,0,1,0-.34A.27.27,0,0,0,4.69,15.6Z"/><path class="cls-5" d="M4.86,12a.4.4,0,0,0-.48.21.43.43,0,0,1,.31,0A.4.4,0,0,0,4.86,12Z"/><path class="cls-5" d="M5.46,11.93a.44.44,0,0,1,.3,0c0-.06-.09-.13-.13-.14a.52.52,0,0,0-.27-.06.36.36,0,0,0-.13,0C5.32,11.76,5.43,11.81,5.46,11.93Z"/><path class="cls-5" d="M6.15,15.34a.57.57,0,0,0-.39,0,.54.54,0,0,0-.15.11.46.46,0,0,1,.35.08C6,15.55,6.16,15.43,6.15,15.34Z"/><path class="cls-5" d="M4.11,15.09a.44.44,0,0,0-.11.38.18.18,0,0,0,.07.11.26.26,0,0,1,.22-.22A.23.23,0,0,0,4.11,15.09Z"/><path class="cls-5" d="M4,14.47a.48.48,0,0,0-.22.15.31.31,0,0,0-.08.25.4.4,0,0,1,.17-.1.24.24,0,0,1,.15,0A.21.21,0,0,0,4,14.47Z"/><path class="cls-5" d="M8.2,8a.42.42,0,0,0,.36-.21h1.92V5.51h-.24v2a.63.63,0,0,1-.42.12c-.35,0-.74-.15-1.09-.15a.68.68,0,0,0-.52.2.7.7,0,0,0-.51-.2c-.35,0-.76.14-1.16.14a.66.66,0,0,1-.36-.11v-2H5.93V7.78h1.9A.4.4,0,0,0,8.2,8Z"/><path class="cls-5" d="M4.18,13.21s.11-.14,0-.24a.48.48,0,0,0-.4.27A.71.71,0,0,1,4.18,13.21Z"/><path class="cls-5" d="M6,17s-.07.26.12.34a.25.25,0,0,1,.11-.25A.17.17,0,0,0,6,17Z"/><path class="cls-5" d="M4,14a.45.45,0,0,1,.34,0c.13-.07.19-.19.17-.25a.35.35,0,0,0-.11,0A.4.4,0,0,0,4,14Z"/><path class="cls-5" d="M4.22,12.73a.24.24,0,0,0,0-.27.4.4,0,0,0-.31.34L4,12.75A.44.44,0,0,1,4.22,12.73Z"/><path class="cls-5" d="M8.2,9.29l6.45,3.78c.74-2,.73-4.46.6-7.95Z"/><path class="cls-5" d="M8.2,11.57c0,.05,0,.16-.06.22s.11,0,.15-.05Z"/><path class="cls-5" d="M7.69,17.6a.41.41,0,0,1,.12-.07.23.23,0,0,1,.21,0,.23.23,0,0,0,0-.24A.4.4,0,0,0,7.69,17.6Z"/><path class="cls-5" d="M7.74,11.61s0,.1-.07.13l.14,0S7.76,11.64,7.74,11.61Z"/><path class="cls-5" d="M16.13,3.37,16,0H.42L.3,3.38C-.05,12.44-.18,15.84,8.1,19.82l.12.06.12-.06C16.62,15.84,16.49,12.44,16.13,3.37Zm-7.92,16C1.8,16.22.69,13.59.69,7.82.69,6.51.74,5,.81,3.36.81,3.36.9,1,.91.5H15.53c0,.46.1,2.86.1,2.86.07,1.68.12,3.15.12,4.47C15.75,13.59,14.63,16.21,8.22,19.33Z"/><path class="cls-5" d="M1.78,13.07,8.2,9.29l-7-4.12C1,8.63,1,11.09,1.78,13.07Z"/><path class="cls-5" d="M8.27,16.58a.26.26,0,0,1,.24,0,.25.25,0,0,0,.14-.2A.28.28,0,0,0,8.27,16.58Z"/><path class="cls-5" d="M8.25,17.81a.46.46,0,0,0-.16.35.15.15,0,0,0,.06.1A.42.42,0,0,1,8.38,18,.19.19,0,0,0,8.25,17.81Z"/><path class="cls-5" d="M7.77,11.2s.05.16.05.16l.09-.18Z"/><path class="cls-5" d="M7.54,11.26a1.3,1.3,0,0,1,.07.13l.05-.17Z"/><path class="cls-5" d="M8,11.16l.07.17c0-.05.07-.12.1-.17A.33.33,0,0,0,8,11.16Z"/><path class="cls-5" d="M7.9,11.79a.4.4,0,0,0,.15,0,1.6,1.6,0,0,1-.08-.2S7.91,11.76,7.9,11.79Z"/><path class="cls-5" d="M7.84,17a.34.34,0,0,1,.33,0,.2.2,0,0,0,.05-.19A.31.31,0,0,0,7.84,17Z"/><path class="cls-5" d="M8.38,11.38a.69.69,0,0,0-.23,0,4.2,4.2,0,0,1-.8.08c-.17,0-.41-.06-.41-.3A.36.36,0,0,1,7,11a.29.29,0,0,0-.2.29c0,.18.18.29.51.3a3.58,3.58,0,0,0,.85-.12A1,1,0,0,0,8.38,11.38Z"/><path class="cls-5" d="M7.73,7.38a.63.63,0,0,1,.44.2h.06a.56.56,0,0,1,.43-.2c.29,0,.61.13.87.12A.76.76,0,0,0,10,7.36V5.22l-.05,0a.87.87,0,0,1-.8,0,.87.87,0,0,0-.92.13.87.87,0,0,0-.92-.13.88.88,0,0,1-.8,0l0,0V7.36a.65.65,0,0,0,.43.15C7.12,7.51,7.45,7.38,7.73,7.38Zm.5-1.91c.25-.26.55-.2.88-.12a1,1,0,0,0,.81,0v2a1,1,0,0,1-.8.06.93.93,0,0,0-.9.12ZM6.47,7.33v-2a1,1,0,0,0,.82,0c.33-.08.63-.16.88.12v2a.92.92,0,0,0-.89-.12A.89.89,0,0,1,6.47,7.33Z"/><path class="cls-5" d="M7.29,6.39a.92.92,0,0,1,.77,0V6.34a1,1,0,0,0-.78,0,1,1,0,0,1-.68,0v.06A1.17,1.17,0,0,0,7.29,6.39Z"/><path class="cls-5" d="M7.29,5.86a.91.91,0,0,1,.77,0V5.81a1,1,0,0,0-.78,0,1.07,1.07,0,0,1-.68,0v.06A1.18,1.18,0,0,0,7.29,5.86Z"/><path class="cls-5" d="M8.06,7V6.88a1,1,0,0,0-.78,0,1.07,1.07,0,0,1-.68,0V7a1.14,1.14,0,0,0,.7,0A.91.91,0,0,1,8.06,7Z"/><path class="cls-5" d="M9.11,6.39a1.17,1.17,0,0,0,.69,0V6.36a1.05,1.05,0,0,1-.68,0,1,1,0,0,0-.78,0v.07A.93.93,0,0,1,9.11,6.39Z"/><path class="cls-5" d="M9.11,5.86a1.18,1.18,0,0,0,.69,0V5.83a1.07,1.07,0,0,1-.68,0,1,1,0,0,0-.78,0v.07A.91.91,0,0,1,9.11,5.86Z"/><path class="cls-5" d="M9.11,6.93A1.14,1.14,0,0,0,9.8,7V6.9a1.08,1.08,0,0,1-.68,0,1,1,0,0,0-.78,0V7A.91.91,0,0,1,9.11,6.93Z"/></svg>