<svg id="a_w" data-name="a/w" xmlns="http://www.w3.org/2000/svg" viewBox="0 0 154.42 19.89"><defs><style>.cls-1{fill:#fff;}.cls-2{fill:#e42313;}.cls-3{fill:#ffed00;}.cls-4{fill:#004b93;}.cls-5{fill:#1d1d1b;}</style></defs><title>UStA_1413_PR-longways</title><path class="cls-1" d="M1,.5.9,3.36C.84,5,.78,6.51.78,7.82c0,5.77,1.11,8.4,7.53,11.51,6.42-3.11,7.53-5.74,7.53-11.51,0-1.31-.06-2.79-.12-4.47L15.63.5Z" transform="translate(-0.28)"/><path class="cls-2" d="M15.18,1H1.48L1.33,4.81h14ZM8.78,4.56v0A2.16,2.16,0,0,0,9,4.4a1,1,0,0,0,.49-.82,1.11,1.11,0,0,0-1.19-1,1.13,1.13,0,0,0-1.2,1,1,1,0,0,0,.48.82l.24.13v0a1.58,1.58,0,0,1-.25-.13,1.41,1.41,0,0,1-.71-1.16A1.38,1.38,0,0,1,8.3,2,1.38,1.38,0,0,1,9.74,3.26,1.42,1.42,0,0,1,9,4.43,1.59,1.59,0,0,1,8.78,4.56Zm.34-.07v0a1.49,1.49,0,0,0,.71-1.18A1.45,1.45,0,0,0,8.3,1.9,1.46,1.46,0,0,0,6.77,3.26a1.48,1.48,0,0,0,.71,1.18v0A1.75,1.75,0,0,1,6.38,3,1.81,1.81,0,0,1,8.3,1.36,1.79,1.79,0,0,1,10.2,3,1.75,1.75,0,0,1,9.12,4.48Z" transform="translate(-0.28)"/><path class="cls-2" d="M6.25,5.45V7.56a.64.64,0,0,0,.39.12c.35,0,.77-.15,1.13-.15a.68.68,0,0,1,.53.21.67.67,0,0,1,.52-.21c.36,0,.79.16,1.14.15a.64.64,0,0,0,.39-.12V5.45c-.1,0-.23-.11-.27-.22V7.37a.75.75,0,0,1-.43.14c-.27,0-.58-.12-.87-.12a.57.57,0,0,0-.43.2H8.27a.63.63,0,0,0-.44-.2c-.28,0-.61.13-.87.13a.65.65,0,0,1-.43-.15V5.22A.4.4,0,0,1,6.25,5.45Z" transform="translate(-0.28)"/><path class="cls-2" d="M13.33,13.77l.07.07a.44.44,0,0,1-.08.55.23.23,0,0,0-.29-.29.25.25,0,0,1,.09.28.27.27,0,0,1-.28.19c-.17,0-.07-.25-.08-.39a.37.37,0,0,0-.23-.34s0,0,0,0a.71.71,0,0,0,.22,0,.34.34,0,0,0,.26-.12.27.27,0,0,0,0-.24.49.49,0,0,1-.08.1.3.3,0,0,1-.31,0,.86.86,0,0,1-.29-.26,4,4,0,0,0-.94-1,1.52,1.52,0,0,0-.75-.26.81.81,0,0,0-.46.12.73.73,0,0,0-.32.51.87.87,0,0,0,.19.63,2.64,2.64,0,0,0,.69.57c.18.12.36.24.53.38a.71.71,0,0,1,.28.4.32.32,0,0,1-.1.32A.53.53,0,0,1,11,15a1.06,1.06,0,0,0-.94-.91,2.83,2.83,0,0,1-.68-.22.74.74,0,0,1-.41-.42.4.4,0,0,1-.18,0,.34.34,0,0,1-.22-.24.47.47,0,0,0,.38.15.45.45,0,0,0,.37-.17.5.5,0,0,1-.32,0,.29.29,0,0,1-.13-.27.52.52,0,0,0,.59.08s.13-.09.13-.12a.39.39,0,0,1-.29-.07.31.31,0,0,1-.12-.27.47.47,0,0,0,.34.11.33.33,0,0,0,.3-.17.4.4,0,0,1-.28-.05.27.27,0,0,1-.13-.21.42.42,0,0,1-.29-.14,1,1,0,0,0-.08.52.43.43,0,0,1-.41-.35.61.61,0,0,0-.06.49.47.47,0,0,1-.46-.35.67.67,0,0,0-.05.28s0,.09,0,.13a.32.32,0,0,1-.14-.06.5.5,0,0,1-.2-.35.8.8,0,0,0,.24.24.56.56,0,0,1,.21-.49c0,.24.08.38.27.44a.58.58,0,0,1,0-.35A.63.63,0,0,1,8.65,12a.44.44,0,0,0,.26.44A1,1,0,0,1,9,12a.32.32,0,0,1,.11-.13.45.45,0,0,0,.43.24.44.44,0,0,0,.52-.39.64.64,0,0,1-.32.09.26.26,0,0,1-.26-.16.58.58,0,0,0,.46-.1.44.44,0,0,0,.16-.27A.26.26,0,0,0,10,11a.48.48,0,0,1-.71.11.42.42,0,0,0,.4-.18.25.25,0,0,0,0-.15.64.64,0,0,1-.3.09.46.46,0,0,1-.28-.07c.12,0,.35-.13.34-.28l-.13,0A.62.62,0,0,1,9,10.52s.05-.37,0-.41a.85.85,0,0,0-.38.33,1.93,1.93,0,0,0-.33,0,.89.89,0,0,0-.33.06.4.4,0,0,0-.12.09s0,.09-.08.12a.93.93,0,0,1-.35.08c-.09,0-.21,0-.24.07s0,.12.06.15a.51.51,0,0,1,.05.1.67.67,0,0,0,0,.12c.12.18.23.1.36.06a1.62,1.62,0,0,1,.5-.1.53.53,0,0,1,.29.07.28.28,0,0,1,.11.24.29.29,0,0,1-.1.22.54.54,0,0,1-.33.11c-.21,0-.42-.1-.61-.1a.2.2,0,0,0-.13,0,.15.15,0,0,0,0,.21c.19,0,.18.21.15.3a.34.34,0,0,1-.36.24.44.44,0,0,1-.27-.12.36.36,0,0,0,.33.5.36.36,0,0,1-.53-.15.23.23,0,0,0,0,.14c0,.33.24.46.58.45a1.07,1.07,0,0,1-.67,0,2.34,2.34,0,0,1-.46-.18,1.08,1.08,0,0,1-.45-.39.47.47,0,0,1-.06-.22c0-.25.3-.28.26-.57a.36.36,0,0,0-.46.23.42.42,0,0,0,0,.18l-.22-.21A.27.27,0,0,0,5,12a.73.73,0,0,1-.07.13l-.1.09a.19.19,0,0,0,.06.11c.06.06.19.09.24.17a.15.15,0,0,1,0,.09.29.29,0,0,1-.15,0c-.15,0-.27-.17-.45-.18a.2.2,0,0,0-.18.06.27.27,0,0,1,0,.27.18.18,0,0,0,.15.1c.1,0,.22,0,.32,0a.18.18,0,0,1,.13.05.46.46,0,0,1-.17.09c-.14,0-.31-.07-.43,0a.18.18,0,0,1,0,.12.63.63,0,0,1,0,.12.29.29,0,0,0,.19.08,1.19,1.19,0,0,0,.39-.12.54.54,0,0,1,.17,0,.69.69,0,0,1-.46.28H4.52s0,0,.06.05a.47.47,0,0,0,.17,0,1.16,1.16,0,0,0,.64-.18.61.61,0,0,1-.41.31s.06,0,.1,0a1.11,1.11,0,0,0,.75-.2.39.39,0,0,1-.19.26.41.41,0,0,1-.14,0,.43.43,0,0,0,.3.05,3.35,3.35,0,0,0,.36-.08c.18,0,.29,0,.4,0l-.38.15a3.33,3.33,0,0,0-.44.21c-.15.08-.27.18-.41.25A.29.29,0,0,1,5,14.24a.63.63,0,0,1,0-.18.32.32,0,0,0-.31-.27.37.37,0,0,1-.17.25c0,.23.32.23.35.46a.19.19,0,0,1-.14,0,1.13,1.13,0,0,0-.32-.09.31.31,0,0,0-.18,0,.19.19,0,0,1,.05.09.28.28,0,0,1,0,.2.21.21,0,0,0,.16.06c.11,0,.23,0,.33,0a.34.34,0,0,1,.18,0c-.06.15-.28.14-.44.18a.25.25,0,0,0-.18.12.25.25,0,0,1,.18.28.37.37,0,0,0,.15,0c.14-.06.23-.22.37-.27,0,.16-.1.25-.12.38a.39.39,0,0,0,0,.14.42.42,0,0,1,.15,0,.28.28,0,0,1,.14,0,.27.27,0,0,0,.07-.14,1.9,1.9,0,0,0,0-.33c0-.06,0-.08.05-.09a.75.75,0,0,0,.48-.19.62.62,0,0,1-.14.27l-.1.1a.5.5,0,0,0,.34-.08,1.15,1.15,0,0,0,.46-.51.52.52,0,0,1,0,.29.51.51,0,0,1-.09.16.29.29,0,0,0,.14,0,.69.69,0,0,0,.33-.35,1.09,1.09,0,0,0,.09-.29.37.37,0,0,1,0,.4.46.46,0,0,1,0,.08A.43.43,0,0,0,7,14.77a.69.69,0,0,0,.19-.53.5.5,0,0,1,.07.5.56.56,0,0,0,.25-.16.66.66,0,0,0,.18-.31.49.49,0,0,0,0-.26.26.26,0,0,1,.06.12.6.6,0,0,1-.17.56l-.09.07A.65.65,0,0,0,8,15a4.78,4.78,0,0,0,.9-.17L8.52,15a1.19,1.19,0,0,1-.52.14.66.66,0,0,1-.28,0,.39.39,0,0,0-.07.31c0,.18.12.3.07.48-.09.35-.71.29-.93.12s-.17-.46-.34-.6a.31.31,0,0,0-.2-.06.42.42,0,0,1-.19.23.28.28,0,0,0,.08.15c.07.07.16.12.22.21a.26.26,0,0,1,0,.13.34.34,0,0,1-.16,0c-.12-.06-.22-.18-.36-.21a.37.37,0,0,0-.18,0,.25.25,0,0,1-.09.24.4.4,0,0,0,.38.23c.1,0,.22,0,.28.07-.14.15-.37,0-.57,0a.28.28,0,0,0-.15,0,.26.26,0,0,1,0,.11.38.38,0,0,1,0,.16c0,.06.12.09.18.09h.14c.15,0,.31-.13.46-.12s.06,0,.07,0-.17.13-.24.21a.21.21,0,0,0-.06.12c.12,0,.17,0,.23.1a.2.2,0,0,0,.14,0,1.44,1.44,0,0,0,.18-.24s0-.06.08-.05.05.05.08.09a.56.56,0,0,0,.51.21A.28.28,0,0,0,7.52,17a.38.38,0,0,1-.3-.26.79.79,0,0,0,.53.14s.08,0,.09,0a.28.28,0,0,1-.21-.36.47.47,0,0,0,.36.22.23.23,0,0,0,.16,0,.29.29,0,0,1-.07-.09.27.27,0,0,1,0-.14c0-.13.2-.16.31-.18a1.84,1.84,0,0,0,.44,0c.1,0,.18-.11.17-.21a.28.28,0,0,1-.2.06.19.19,0,0,1-.17-.2c0-.15.09-.23.28-.24a.78.78,0,0,1,.28,0l.12,0a.54.54,0,0,1,0-.37A3.07,3.07,0,0,0,9.51,15a.21.21,0,0,1,0,.09c0,.15-.08.24-.09.41a.35.35,0,0,0,.1.28c.15.12.39.16.47.35a.37.37,0,0,1-.07.37,1.11,1.11,0,0,1-.44.35.3.3,0,0,1-.22,0c-.15,0-.2-.33-.34-.42a.24.24,0,0,0-.19,0,.22.22,0,0,1-.06.12l-.08.07a.24.24,0,0,0,.06.13c.07.07.22.11.26.2a.11.11,0,0,1-.08,0c-.16,0-.24-.14-.39-.15a.22.22,0,0,0-.14,0,.17.17,0,0,1,0,.1.33.33,0,0,1-.05.1c0,.12.23.13.4.15a.17.17,0,0,1,.13,0,.34.34,0,0,1-.16.08c-.12,0-.23,0-.35-.06a.24.24,0,0,0-.14,0,.26.26,0,0,1,0,.13.27.27,0,0,1,0,.11.25.25,0,0,0,.14.05c.17,0,.31-.13.48-.07-.07.11-.19.11-.29.18a.34.34,0,0,0-.11.12.23.23,0,0,1,.09.07.25.25,0,0,1,0,.11c.21,0,.31-.12.41-.24a.92.92,0,0,1,.64-.29c.31,0,.7.13.84-.14-.17,0-.37,0-.43-.16a.84.84,0,0,0,.82-.19.49.49,0,0,1-.5-.14.88.88,0,0,0,.66-.08.56.56,0,0,0,.27-.31l-.08,0c-.15.06-.41.05-.47-.07a.65.65,0,0,0,.35-.07.63.63,0,0,0,.24-.25,1.45,1.45,0,0,1,.17-.27.2.2,0,0,1,.08-.06.13.13,0,0,0-.11,0c-.19,0-.27.21-.45.25a2.16,2.16,0,0,0,.1-.65.64.64,0,0,0,1-.59.76.76,0,0,0-.23-.51A4.3,4.3,0,0,0,11,13.7a4.63,4.63,0,0,1-.5-.38.72.72,0,0,1-.25-.39.42.42,0,0,1,.27-.48c.54-.16,1.09.42,1.35.73.06.07.27.32.19.48a.15.15,0,0,1-.13.07c-.08,0-.14-.08-.08-.2a.25.25,0,0,0-.12.36A.23.23,0,0,0,12,14a.25.25,0,0,0,.16-.11.8.8,0,0,0,1.38.72.65.65,0,0,0,.12-.56A.36.36,0,0,0,13.33,13.77ZM8.15,10.9a.22.22,0,0,1,0-.23.8.8,0,0,0,.32.1A1.06,1.06,0,0,0,8.15,10.9Z" transform="translate(-0.28)"/><path class="cls-3" d="M13.23,1.24l-1.51,1.7,1.51,1.7,1.48-1.7Zm-.91,1.7.9-1,.88,1-.87,1Z" transform="translate(-0.28)"/><path class="cls-3" d="M2,2.94l1.51,1.7L5,2.94,3.54,1.24ZM3.55,4l-.91-1,.9-1,.88,1Z" transform="translate(-0.28)"/><path class="cls-4" d="M5.3,16.74c.15-.14.27-.07.27-.07a.22.22,0,0,0,0-.27A.34.34,0,0,0,5.3,16.74Z" transform="translate(-0.28)"/><path class="cls-4" d="M4.79,15.61a.47.47,0,0,0,.14.29.21.21,0,0,0,.15.07.33.33,0,0,1,0-.34A.27.27,0,0,0,4.79,15.61Z" transform="translate(-0.28)"/><path class="cls-4" d="M5,12a.4.4,0,0,0-.48.21.43.43,0,0,1,.31,0A.39.39,0,0,0,5,12Z" transform="translate(-0.28)"/><path class="cls-4" d="M6.25,15.34a.56.56,0,0,0-.39,0,.52.52,0,0,0-.15.12.46.46,0,0,1,.35.08C6.13,15.55,6.26,15.44,6.25,15.34Z" transform="translate(-0.28)"/><path class="cls-4" d="M5.3,16.06a.48.48,0,0,1,.18,0,.55.55,0,0,1,.15,0c.07,0,.13-.17.09-.24A.45.45,0,0,0,5.3,16.06Z" transform="translate(-0.28)"/><path class="cls-4" d="M5.56,11.94a.44.44,0,0,1,.31,0c0-.06-.09-.13-.13-.14a.51.51,0,0,0-.27-.06.32.32,0,0,0-.13,0C5.41,11.77,5.53,11.82,5.56,11.94Z" transform="translate(-0.28)"/><path class="cls-4" d="M4.14,14.47a.47.47,0,0,0-.22.15.31.31,0,0,0-.08.25.39.39,0,0,1,.17-.1.25.25,0,0,1,.14,0A.21.21,0,0,0,4.14,14.47Z" transform="translate(-0.28)"/><path class="cls-4" d="M6.11,17s-.07.26.12.34a.25.25,0,0,1,.11-.25A.17.17,0,0,0,6.11,17Z" transform="translate(-0.28)"/><path class="cls-4" d="M4.09,14a.45.45,0,0,1,.34,0c.13-.07.19-.2.17-.25H4.49A.41.41,0,0,0,4.09,14Z" transform="translate(-0.28)"/><path class="cls-4" d="M8.3,8a.42.42,0,0,0,.36-.21h1.92V5.51h-.24v2a.63.63,0,0,1-.42.12c-.35,0-.74-.15-1.09-.15a.68.68,0,0,0-.52.2.71.71,0,0,0-.51-.2c-.35,0-.76.14-1.17.14a.66.66,0,0,1-.36-.11v-2H6V7.78H7.94A.4.4,0,0,0,8.3,8Z" transform="translate(-0.28)"/><path class="cls-4" d="M4.28,13.22s.11-.14,0-.24a.48.48,0,0,0-.4.27A.71.71,0,0,1,4.28,13.22Z" transform="translate(-0.28)"/><path class="cls-4" d="M4.21,15.1a.44.44,0,0,0-.11.38.18.18,0,0,0,.07.11.26.26,0,0,1,.22-.21A.23.23,0,0,0,4.21,15.1Z" transform="translate(-0.28)"/><path class="cls-4" d="M4.32,12.74a.23.23,0,0,0,0-.27.4.4,0,0,0-.31.34l.11-.05A.43.43,0,0,1,4.32,12.74Z" transform="translate(-0.28)"/><path class="cls-4" d="M7.79,17.61a.45.45,0,0,1,.12-.07.26.26,0,0,1,.21,0,.23.23,0,0,0,0-.24A.4.4,0,0,0,7.79,17.61Z" transform="translate(-0.28)"/><path class="cls-4" d="M8.37,16.59a.25.25,0,0,1,.24,0,.25.25,0,0,0,.13-.2A.28.28,0,0,0,8.37,16.59Z" transform="translate(-0.28)"/><path class="cls-4" d="M8.34,17.82a.46.46,0,0,0-.16.35.16.16,0,0,0,.06.1A.42.42,0,0,1,8.47,18,.2.2,0,0,0,8.34,17.82Z" transform="translate(-0.28)"/><path class="cls-4" d="M7.84,11.61s0,.1-.07.13l.14,0S7.86,11.65,7.84,11.61Z" transform="translate(-0.28)"/><path class="cls-4" d="M8.3,11.58c0,.05,0,.16-.06.21s.11,0,.15-.05Z" transform="translate(-0.28)"/><path class="cls-4" d="M8.3,9.29l6.46,3.79c.74-2,.73-4.47.6-8Z" transform="translate(-0.28)"/><path class="cls-4" d="M1.87,13.08,8.3,9.29l-7-4.13C1.14,8.63,1.13,11.1,1.87,13.08Z" transform="translate(-0.28)"/><path class="cls-4" d="M16.24,3.38,16.12,0H.52L.4,3.38C0,12.45-.09,15.84,8.2,19.83l.12.06.12-.06C16.72,15.84,16.59,12.45,16.24,3.38Zm-7.92,16C1.9,16.22.78,13.59.78,7.82.78,6.51.84,5,.9,3.36L1,.5H15.63l.1,2.86c.07,1.68.12,3.15.12,4.47C15.85,13.59,14.74,16.22,8.32,19.33Z" transform="translate(-0.28)"/><path class="cls-4" d="M7.87,11.2s.05.16.06.16L8,11.18Z" transform="translate(-0.28)"/><path class="cls-4" d="M8,11.8a.38.38,0,0,0,.15,0,1.41,1.41,0,0,1-.08-.2A2,2,0,0,1,8,11.8Z" transform="translate(-0.28)"/><path class="cls-4" d="M7.64,11.27l.07.13.05-.17Z" transform="translate(-0.28)"/><path class="cls-4" d="M8.09,11.17l.07.17c0-.05.07-.12.1-.17A.33.33,0,0,0,8.09,11.17Z" transform="translate(-0.28)"/><path class="cls-4" d="M7.93,17a.33.33,0,0,1,.33,0,.2.2,0,0,0,.06-.2A.31.31,0,0,0,7.93,17Z" transform="translate(-0.28)"/><path class="cls-4" d="M8.47,11.39a.76.76,0,0,0-.23,0,4.21,4.21,0,0,1-.8.08c-.17,0-.41-.07-.41-.3a.37.37,0,0,1,0-.17.28.28,0,0,0-.2.29c0,.18.18.29.51.3a3.63,3.63,0,0,0,.85-.12A.88.88,0,0,0,8.47,11.39Z" transform="translate(-0.28)"/><path class="cls-4" d="M7.83,7.39a.63.63,0,0,1,.44.2h.06a.57.57,0,0,1,.43-.2c.29,0,.61.13.87.12a.75.75,0,0,0,.43-.14V5.22l0,0a.87.87,0,0,1-.8,0,.86.86,0,0,0-.92.13.88.88,0,0,0-.92-.13.88.88,0,0,1-.8,0l0,0V7.36A.65.65,0,0,0,7,7.52C7.22,7.52,7.55,7.39,7.83,7.39Zm.5-1.91c.25-.26.55-.2.88-.12a1,1,0,0,0,.81,0v2a1,1,0,0,1-.8.06.92.92,0,0,0-.9.12ZM6.57,7.34v-2a1,1,0,0,0,.82,0c.33-.08.63-.16.88.12v2a.91.91,0,0,0-.9-.12A.9.9,0,0,1,6.57,7.34Z" transform="translate(-0.28)"/><path class="cls-4" d="M7.39,6.4a.92.92,0,0,1,.77,0V6.35a1,1,0,0,0-.78,0,1.07,1.07,0,0,1-.68,0v.06A1.19,1.19,0,0,0,7.39,6.4Z" transform="translate(-0.28)"/><path class="cls-4" d="M7.39,5.86a.91.91,0,0,1,.77,0V5.81a1,1,0,0,0-.78,0,1.07,1.07,0,0,1-.68,0V5.9A1.2,1.2,0,0,0,7.39,5.86Z" transform="translate(-0.28)"/><path class="cls-4" d="M8.15,7V6.89a1,1,0,0,0-.78,0,1.08,1.08,0,0,1-.68,0V7a1.16,1.16,0,0,0,.7,0A.91.91,0,0,1,8.15,7Z" transform="translate(-0.28)"/><path class="cls-4" d="M9.2,6.4a1.18,1.18,0,0,0,.7,0V6.37a1.07,1.07,0,0,1-.68,0,1,1,0,0,0-.78,0v.07A.92.92,0,0,1,9.2,6.4Z" transform="translate(-0.28)"/><path class="cls-4" d="M9.2,5.86a1.2,1.2,0,0,0,.7,0V5.83a1.07,1.07,0,0,1-.68,0,1,1,0,0,0-.78,0v.07A.91.91,0,0,1,9.2,5.86Z" transform="translate(-0.28)"/><path class="cls-4" d="M9.2,6.93a1.15,1.15,0,0,0,.7,0V6.9a1.08,1.08,0,0,1-.68,0,1,1,0,0,0-.78,0V7A.91.91,0,0,1,9.2,6.93Z" transform="translate(-0.28)"/><path class="cls-5" d="M20.68,4.86V4.48q1,0,1.78,0t1.65,0v.38a4.18,4.18,0,0,0-.84.06.36.36,0,0,0-.21.14,1.38,1.38,0,0,0-.09.57q0,.12,0,1.66V9.46a5.4,5.4,0,0,0,.16,1.66,1.53,1.53,0,0,0,.51.67,2.13,2.13,0,0,0,.73.32,4,4,0,0,0,1,.12,3.87,3.87,0,0,0,1.17-.16,2.06,2.06,0,0,0,.76-.39,1.53,1.53,0,0,0,.38-.52,2.78,2.78,0,0,0,.18-.79,11.86,11.86,0,0,0,.06-1.27V7.29q0-.8,0-1.56a1.81,1.81,0,0,0-.08-.66.4.4,0,0,0-.22-.15,4.18,4.18,0,0,0-.84-.06V4.48l1.41,0,1.46,0v.38a4.17,4.17,0,0,0-.85.06.39.39,0,0,0-.21.14,1.49,1.49,0,0,0-.09.57q0,.12,0,1.66v2a6.89,6.89,0,0,1-.2,2,2.28,2.28,0,0,1-.74,1,2.89,2.89,0,0,1-1,.51,5.7,5.7,0,0,1-3,0,2.46,2.46,0,0,1-1-.56,2,2,0,0,1-.47-.71,5.54,5.54,0,0,1-.16-1.61V7.29q0-.8,0-1.56a1.84,1.84,0,0,0-.08-.66.4.4,0,0,0-.22-.15A4.17,4.17,0,0,0,20.68,4.86Z" transform="translate(-0.28)"/><path class="cls-5" d="M30,12.81v-.33h.56a.43.43,0,0,0,.19,0,.27.27,0,0,0,.1-.1,1.08,1.08,0,0,0,.08-.42q0-.08,0-1.68v-.7q0-.47,0-1a1.32,1.32,0,0,0-.06-.41.23.23,0,0,0-.13-.1A4.32,4.32,0,0,0,30,8V7.66a6.14,6.14,0,0,0,1.72-.43.46.46,0,0,1,.16-.06.08.08,0,0,1,.06,0,.14.14,0,0,1,0,.09.86.86,0,0,1,0,.09q0,.21,0,.89L33,7.34a2.65,2.65,0,0,1,.91-.18,2.15,2.15,0,0,1,.9.19,1.57,1.57,0,0,1,.64.49,1.67,1.67,0,0,1,.28.74,14.49,14.49,0,0,1,0,1.47v1a8.47,8.47,0,0,0,0,1,.49.49,0,0,0,.09.24.3.3,0,0,0,.19.08l.63,0v.33q-.57,0-1,0l-1.09,0q.08-1.45.08-1.83V10a6.39,6.39,0,0,0-.07-1.21,1.06,1.06,0,0,0-.45-.63,1.47,1.47,0,0,0-.85-.24,1.59,1.59,0,0,0-.8.21,1.34,1.34,0,0,0-.52.48,2,2,0,0,0-.16.92v.71q0,1.53,0,1.65a1.28,1.28,0,0,0,.07.43.24.24,0,0,0,.07.09.37.37,0,0,0,.15.06l.64,0v.33q-.71,0-1.29,0Z" transform="translate(-0.28)"/><path class="cls-5" d="M37.08,8V7.66A6.13,6.13,0,0,0,39,7.17l.13.09q0,1.25,0,1.91v1.07q0,1.52,0,1.65a1.21,1.21,0,0,0,.06.43.31.31,0,0,0,.08.09.36.36,0,0,0,.14.06l.65,0v.33q-.89,0-1.42,0l-1.54,0v-.33h.56a.43.43,0,0,0,.19,0,.27.27,0,0,0,.1-.1,1.07,1.07,0,0,0,.08-.42q0-.08,0-1.68v-1a4.86,4.86,0,0,0-.06-1A.24.24,0,0,0,37.87,8,3.4,3.4,0,0,0,37.08,8Zm1.43-3.43a.63.63,0,0,1,.47.19.64.64,0,0,1,.19.47.66.66,0,0,1-.66.66A.64.64,0,0,1,38,5.69a.63.63,0,0,1-.19-.46.66.66,0,0,1,.66-.66Z" transform="translate(-0.28)"/><path class="cls-5" d="M43.3,12.87q-.23-.6-.32-.8l-.48-1.12L41.3,8.15a1.4,1.4,0,0,0-.2-.35.36.36,0,0,0-.18-.11,2.56,2.56,0,0,0-.43,0V7.3l1.42,0,1.35,0v.35a2.4,2.4,0,0,0-.74.08.2.2,0,0,0-.11.18,2.77,2.77,0,0,0,.23.76l.71,1.78.17.4q.29.7.39.93l.59-1.33L45,9.13a9.15,9.15,0,0,0,.38-1.07.78.78,0,0,0,0-.18.15.15,0,0,0-.08-.14,2.25,2.25,0,0,0-.75-.09V7.3l1.12,0,1.12,0v.35a1.26,1.26,0,0,0-.48.08.7.7,0,0,0-.24.28q-.08.14-.63,1.27l-.56,1.2q-.15.32-1,2.38Z" transform="translate(-0.28)"/><path class="cls-5" d="M52.27,11.9l-.19.42a5.35,5.35,0,0,1-.59.33,3.61,3.61,0,0,1-.63.21,3.2,3.2,0,0,1-.75.08,3,3,0,0,1-1.4-.32,2.27,2.27,0,0,1-1-1,3.12,3.12,0,0,1-.35-1.5,3.76,3.76,0,0,1,.18-1.22,2.3,2.3,0,0,1,.42-.8,3,3,0,0,1,.53-.43,3.73,3.73,0,0,1,.71-.38,2.57,2.57,0,0,1,1-.19,2.37,2.37,0,0,1,1.19.3,1.83,1.83,0,0,1,.78.81,2.67,2.67,0,0,1,.25,1.17q0,.16,0,.4a6.36,6.36,0,0,1-.76.11q-.63,0-1.27,0H48.51a3,3,0,0,0,.29,1.36,1.76,1.76,0,0,0,.77.76,2.24,2.24,0,0,0,1,.25,2.31,2.31,0,0,0,.71-.11,4.67,4.67,0,0,0,.88-.42ZM48.51,9.5l.62,0,1.2,0q.78,0,1,0c0-.09,0-.17,0-.22A2,2,0,0,0,51,8a1.26,1.26,0,0,0-1-.43A1.34,1.34,0,0,0,48.92,8,2.29,2.29,0,0,0,48.51,9.5Z" transform="translate(-0.28)"/><path class="cls-5" d="M53.12,12.81v-.33l.71,0A.35.35,0,0,0,54,12.4a.26.26,0,0,0,.08-.11,1.26,1.26,0,0,0,.07-.42q0-1.56,0-1.63v-.7q0-.47,0-1a1.27,1.27,0,0,0,0-.41A.23.23,0,0,0,54,8a4.38,4.38,0,0,0-.76,0V7.66a6.19,6.19,0,0,0,1.73-.43.47.47,0,0,1,.16-.06.08.08,0,0,1,.06,0,.14.14,0,0,1,0,.09.86.86,0,0,1,0,.09q0,.36,0,1.11.26-.3.49-.6a3,3,0,0,1,.32-.39,1.4,1.4,0,0,1,.4-.24,1.27,1.27,0,0,1,.47-.09,1.2,1.2,0,0,1,.49.11l0,.08q-.09.78-.1,1.37H57a1.05,1.05,0,0,0-.31-.41.75.75,0,0,0-.45-.13,1,1,0,0,0-.77.37,1.69,1.69,0,0,0-.32,1.12v.6q0,.39,0,1.41a2.9,2.9,0,0,0,0,.46.34.34,0,0,0,.06.14.28.28,0,0,0,.13.07,6.25,6.25,0,0,0,.95.11v.33q-1,0-1.76,0T53.12,12.81Z" transform="translate(-0.28)"/><path class="cls-5" d="M58.13,11h.35a4.41,4.41,0,0,0,0,.54,1.93,1.93,0,0,0,.1.39.8.8,0,0,0,.22.32,1.14,1.14,0,0,0,.32.21,1.35,1.35,0,0,0,.35.1,4.56,4.56,0,0,0,.54,0,1.49,1.49,0,0,0,1-.32,1.06,1.06,0,0,0,.38-.87.79.79,0,0,0-.12-.43.8.8,0,0,0-.35-.29,6,6,0,0,0-1-.28q-.74-.17-1-.25a1.61,1.61,0,0,1-.52-.3,1.25,1.25,0,0,1-.31-.45,1.49,1.49,0,0,1-.11-.59A1.58,1.58,0,0,1,58.31,8a1.73,1.73,0,0,1,.76-.63,2.66,2.66,0,0,1,1.14-.24,4.21,4.21,0,0,1,.86.1,3.33,3.33,0,0,1,.79.25q0,.65-.06,1.32h-.33a3.45,3.45,0,0,0-.07-.56,1,1,0,0,0-.1-.24.88.88,0,0,0-.22-.23,1.61,1.61,0,0,0-.41-.21,1.75,1.75,0,0,0-.61-.09,1.14,1.14,0,0,0-.83.3,1,1,0,0,0-.31.71.8.8,0,0,0,.09.39.76.76,0,0,0,.24.27,1.59,1.59,0,0,0,.43.18l1,.24a6.13,6.13,0,0,1,1,.32,1.05,1.05,0,0,1,.45.42,1.31,1.31,0,0,1,.17.68,1.8,1.8,0,0,1-.65,1.38,2.51,2.51,0,0,1-1.75.59,7.9,7.9,0,0,1-1.34-.15,2.12,2.12,0,0,1-.5-.12.07.07,0,0,1,0-.06.52.52,0,0,1,0-.1A3.73,3.73,0,0,0,58.1,12Q58.11,11.8,58.13,11Z" transform="translate(-0.28)"/><path class="cls-5" d="M62.93,8V7.66a6.13,6.13,0,0,0,1.91-.49l.13.09q0,1.25,0,1.91v1.07q0,1.52,0,1.65a1.21,1.21,0,0,0,.06.43.31.31,0,0,0,.08.09.36.36,0,0,0,.14.06l.65,0v.33q-.89,0-1.42,0l-1.54,0v-.33h.56a.43.43,0,0,0,.19,0,.27.27,0,0,0,.1-.1,1.07,1.07,0,0,0,.08-.42q0-.08,0-1.68v-1a4.86,4.86,0,0,0-.06-1A.24.24,0,0,0,63.71,8,3.4,3.4,0,0,0,62.93,8Zm1.43-3.43a.63.63,0,0,1,.47.19.64.64,0,0,1,.19.47.66.66,0,0,1-.66.66.64.64,0,0,1-.47-.19.63.63,0,0,1-.19-.46.66.66,0,0,1,.66-.66Z" transform="translate(-0.28)"/><path class="cls-5" d="M66.43,8.22V8a9.86,9.86,0,0,0,.93-.4q0-1.39,0-1.78a4.85,4.85,0,0,0,1-.45l.14.12q-.06.49-.14,2.14h1.17l.46,0,0,0-.12.54H68.31l0,2.38a8.81,8.81,0,0,0,0,1,.78.78,0,0,0,.11.3.62.62,0,0,0,.21.2,1.3,1.3,0,0,0,.45.12l.39,0a2,2,0,0,0,.38-.1l.07.23q-.28.22-.53.45a2,2,0,0,1-.42.11l-.45,0a1.42,1.42,0,0,1-.5-.07,1.19,1.19,0,0,1-.34-.2,1,1,0,0,1-.25-.32,1.66,1.66,0,0,1-.13-.61q0-.4,0-.87,0-.09,0-.21V8.19h-.24Z" transform="translate(-0.28)"/><path class="cls-5" d="M70.34,15.95l.3-.9h.14l.19.15a.63.63,0,0,0,.17.08.92.92,0,0,0,.27,0,.84.84,0,0,0,.35-.08,1,1,0,0,0,.32-.25,2.88,2.88,0,0,0,.35-.58q.31-.63.56-1.28-.19-.53-.45-1.18l-.93-2.31q-.42-1-.68-1.58a.68.68,0,0,0-.23-.29,1.57,1.57,0,0,0-.54-.12V7.3q.73,0,1.44,0t1.33,0v.33a4.14,4.14,0,0,0-.69.08.21.21,0,0,0-.15.21,1.58,1.58,0,0,0,.1.39q.23.72.43,1.23l.37.91q.33.82.56,1.33l.31-.69q.18-.41.64-1.56T75,8.12a.69.69,0,0,0,0-.16A.2.2,0,0,0,75,7.78a2.47,2.47,0,0,0-.71-.12V7.3q.68,0,1.2,0t1,0l-.06.36a.85.85,0,0,0-.46.13,2.59,2.59,0,0,0-.5.79q-.33.67-1.23,2.64l-1.35,3.16a5.94,5.94,0,0,1-.57,1.09,1.62,1.62,0,0,1-.57.5,1.59,1.59,0,0,1-.73.17,1.28,1.28,0,0,1-.35,0A1.73,1.73,0,0,1,70.34,15.95Z" transform="translate(-0.28)"/><path class="cls-5" d="M80.14,10.12a2.85,2.85,0,0,1,3-3A2.65,2.65,0,0,1,85.9,9.92a3.14,3.14,0,0,1-.4,1.56,2.84,2.84,0,0,1-1.12,1.11,3.25,3.25,0,0,1-1.6.4,2.62,2.62,0,0,1-1.15-.23,2.3,2.3,0,0,1-.76-.57,2.74,2.74,0,0,1-.45-.71A3.47,3.47,0,0,1,80.14,10.12Zm1.11-.43a4.75,4.75,0,0,0,.24,1.46,2.13,2.13,0,0,0,.69,1.09,1.6,1.6,0,0,0,1,.34A1.43,1.43,0,0,0,84.31,12a2.52,2.52,0,0,0,.46-1.66,4.3,4.3,0,0,0-.27-1.61,2,2,0,0,0-.69-1,1.66,1.66,0,0,0-.93-.28,1.47,1.47,0,0,0-1.17.52A2.45,2.45,0,0,0,81.25,9.68Z" transform="translate(-0.28)"/><path class="cls-5" d="M86.74,8.23V8a6,6,0,0,0,.81-.41V7.23a4.11,4.11,0,0,1,.1-1.08,2,2,0,0,1,.27-.56,8.14,8.14,0,0,1,.83-.93,2.94,2.94,0,0,1,.56-.46,1.22,1.22,0,0,1,.56-.12,1.55,1.55,0,0,1,.47.08l0,1-.13.05A1.32,1.32,0,0,0,89.87,5a1.15,1.15,0,0,0-.42-.07.93.93,0,0,0-.52.13.73.73,0,0,0-.29.37,3.33,3.33,0,0,0-.09,1V7.58h.62q.47,0,.92,0l.06,0-.12.6-.75,0-.73,0v2.1q0,.39,0,1.41a2.9,2.9,0,0,0,0,.46.35.35,0,0,0,.06.14.28.28,0,0,0,.13.07,6.25,6.25,0,0,0,.95.11v.33l-1.66,0-1.51,0v-.33h.56a.43.43,0,0,0,.19,0,.27.27,0,0,0,.1-.1,1.08,1.08,0,0,0,.08-.42q0-.08,0-1.68V8.18Z" transform="translate(-0.28)"/><path class="cls-5" d="M93.67,12.52a13.57,13.57,0,0,0,.11-1.82h.4a4.37,4.37,0,0,0,.1,1,.88.88,0,0,0,.33.33,2.68,2.68,0,0,0,.69.31,2.76,2.76,0,0,0,.84.14,2.23,2.23,0,0,0,1.09-.27,1.71,1.71,0,0,0,.73-.71,2,2,0,0,0,.23-.95,1.77,1.77,0,0,0-.11-.67,1,1,0,0,0-.35-.45,1.45,1.45,0,0,0-.58-.24l-.87-.12Q95.62,9,95.16,8.9a2.48,2.48,0,0,1-.9-.44,1.84,1.84,0,0,1-.47-.66,2.19,2.19,0,0,1-.18-.88A2.53,2.53,0,0,1,94,5.61a2.41,2.41,0,0,1,1.07-1,3.49,3.49,0,0,1,1.53-.34,4.92,4.92,0,0,1,1.09.13,4.85,4.85,0,0,1,1.1.39,6.44,6.44,0,0,0-.12.69q0,.32-.05.94h-.4a6.56,6.56,0,0,0-.05-1,1.49,1.49,0,0,0-.4-.38,2.53,2.53,0,0,0-1.26-.34,1.81,1.81,0,0,0-1.36.52,1.84,1.84,0,0,0-.51,1.34,1.38,1.38,0,0,0,.18.77,1.24,1.24,0,0,0,.65.44A6,6,0,0,0,96.51,8q.73.1,1.32.21a2.27,2.27,0,0,1,.81.39,1.72,1.72,0,0,1,.43.59,2,2,0,0,1,.17.86,2.65,2.65,0,0,1-1,2,3.61,3.61,0,0,1-2.5.87A4.76,4.76,0,0,1,93.67,12.52Z" transform="translate(-0.28)"/><path class="cls-5" d="M99.86,8.22V8a9.86,9.86,0,0,0,.93-.4q0-1.39,0-1.78a4.85,4.85,0,0,0,1-.45l.14.12q-.06.49-.14,2.14h1.17l.46,0,0,0-.12.54h-1.54l0,2.38a8.81,8.81,0,0,0,0,1,.78.78,0,0,0,.11.3.62.62,0,0,0,.21.2,1.3,1.3,0,0,0,.45.12l.39,0a2,2,0,0,0,.38-.1l.07.23q-.28.22-.53.45a2,2,0,0,1-.42.11l-.45,0a1.42,1.42,0,0,1-.5-.07,1.19,1.19,0,0,1-.34-.2,1,1,0,0,1-.25-.32,1.66,1.66,0,0,1-.13-.61q0-.4,0-.87,0-.09,0-.21V8.19h-.24Z" transform="translate(-0.28)"/><path class="cls-5" d="M106.27,12.81v-.4a3.1,3.1,0,0,0,.58,0,.51.51,0,0,0,.21-.12,1.89,1.89,0,0,0,.28-.47l.76-1.65,1.46-3.3q.24-.54,1-2.43H111l2.5,5.88q.61,1.43.81,1.79a.61.61,0,0,0,.24.27,1.73,1.73,0,0,0,.59.07v.4q-.91-.06-1.28-.06l-1.89.06v-.4a6.48,6.48,0,0,0,.8,0,.35.35,0,0,0,.19-.08.2.2,0,0,0,0-.14,1,1,0,0,0-.08-.33L112.19,10H108.8l-.64,1.51a1.77,1.77,0,0,0-.17.59.2.2,0,0,0,0,.13.35.35,0,0,0,.2.11,4.39,4.39,0,0,0,.76.05v.4q-1-.05-1.48-.05T106.27,12.81ZM109,9.52h3L110.49,6Z" transform="translate(-0.28)"/><path class="cls-5" d="M115.56,12.81v-.33h.56a.43.43,0,0,0,.19,0,.27.27,0,0,0,.1-.1,1.08,1.08,0,0,0,.08-.42q0-.08,0-1.68v-.7q0-.47,0-1a1.32,1.32,0,0,0-.06-.41.23.23,0,0,0-.13-.1,4.32,4.32,0,0,0-.76,0V7.66a6.14,6.14,0,0,0,1.72-.43.46.46,0,0,1,.16-.06.08.08,0,0,1,.06,0,.14.14,0,0,1,0,.09.86.86,0,0,1,0,.09q0,.21,0,.89l1.09-.93a2.65,2.65,0,0,1,.91-.18,2.15,2.15,0,0,1,.9.19,1.58,1.58,0,0,1,.64.49,1.68,1.68,0,0,1,.28.74,14.49,14.49,0,0,1,0,1.47v1a8.47,8.47,0,0,0,0,1,.49.49,0,0,0,.09.24.3.3,0,0,0,.19.08l.63,0v.33q-.57,0-1,0l-1.09,0q.08-1.45.08-1.83V10a6.39,6.39,0,0,0-.07-1.21,1.06,1.06,0,0,0-.45-.63,1.48,1.48,0,0,0-.85-.24,1.59,1.59,0,0,0-.8.21,1.35,1.35,0,0,0-.52.48,2,2,0,0,0-.16.92v.71q0,1.53,0,1.65a1.28,1.28,0,0,0,.07.43.24.24,0,0,0,.07.09.37.37,0,0,0,.15.06l.64,0v.33q-.71,0-1.29,0Z" transform="translate(-0.28)"/><path class="cls-5" d="M126.36,4.85V4.52a10.86,10.86,0,0,0,1.1-.17,8.63,8.63,0,0,0,.88-.24l.08.05q0,.5-.05,1.92l0,.94V10.7q0,.6,0,1a1.55,1.55,0,0,0,.07.52.37.37,0,0,0,.18.14,3.54,3.54,0,0,0,.73.11v.32l-1,0-1,0q0-.4,0-1.09-.23.17-.63.51t-.62.56a3.46,3.46,0,0,1-.83.12,2.36,2.36,0,0,1-1.22-.33,2.17,2.17,0,0,1-.86-1,3.18,3.18,0,0,1-.3-1.4,3.32,3.32,0,0,1,.18-1.11,2.18,2.18,0,0,1,.47-.81,4,4,0,0,1,.72-.5,8.33,8.33,0,0,1,.91-.48,1.91,1.91,0,0,1,.76-.15,2.9,2.9,0,0,1,.72.09,2.85,2.85,0,0,1,.69.28V6a3.86,3.86,0,0,0-.07-1,.16.16,0,0,0-.09-.09A3.28,3.28,0,0,0,126.36,4.85Zm1,3.69a2.64,2.64,0,0,0-.83-.64,2,2,0,0,0-.86-.2,1.67,1.67,0,0,0-.88.25,1.56,1.56,0,0,0-.62.74,3,3,0,0,0-.21,1.2,2.44,2.44,0,0,0,.53,1.68,1.65,1.65,0,0,0,1.28.6,1.48,1.48,0,0,0,.7-.16,1.68,1.68,0,0,0,.84-1.18,9.9,9.9,0,0,0,0-1.27Z" transform="translate(-0.28)"/><path class="cls-5" d="M130,12.81v-.33l.71,0a.35.35,0,0,0,.15-.06.26.26,0,0,0,.08-.11,1.26,1.26,0,0,0,.07-.42q0-1.56,0-1.63v-.7q0-.47,0-1a1.27,1.27,0,0,0,0-.41.23.23,0,0,0-.13-.1,4.38,4.38,0,0,0-.76,0V7.66a6.19,6.19,0,0,0,1.73-.43.47.47,0,0,1,.16-.06.08.08,0,0,1,.06,0,.14.14,0,0,1,0,.09.86.86,0,0,1,0,.09q0,.36,0,1.11.26-.3.49-.6a3,3,0,0,1,.32-.39,1.4,1.4,0,0,1,.4-.24,1.27,1.27,0,0,1,.47-.09,1.2,1.2,0,0,1,.49.11l0,.08q-.09.78-.1,1.37h-.26a1.05,1.05,0,0,0-.31-.41.75.75,0,0,0-.45-.13,1,1,0,0,0-.77.37A1.69,1.69,0,0,0,132,9.68v.6q0,.39,0,1.41a2.9,2.9,0,0,0,0,.46.34.34,0,0,0,.06.14.28.28,0,0,0,.13.07,6.25,6.25,0,0,0,.95.11v.33q-1,0-1.76,0T130,12.81Z" transform="translate(-0.28)"/><path class="cls-5" d="M139.42,11.9l-.19.42a5.35,5.35,0,0,1-.59.33,3.61,3.61,0,0,1-.63.21,3.2,3.2,0,0,1-.75.08,3,3,0,0,1-1.4-.32,2.27,2.27,0,0,1-1-1,3.11,3.11,0,0,1-.35-1.5,3.76,3.76,0,0,1,.18-1.22,2.3,2.3,0,0,1,.42-.8,3,3,0,0,1,.53-.43,3.73,3.73,0,0,1,.71-.38,2.57,2.57,0,0,1,1-.19,2.37,2.37,0,0,1,1.19.3,1.83,1.83,0,0,1,.78.81,2.67,2.67,0,0,1,.25,1.17q0,.16,0,.4a6.34,6.34,0,0,1-.76.11q-.63,0-1.27,0h-1.88a3,3,0,0,0,.29,1.36,1.76,1.76,0,0,0,.77.76,2.24,2.24,0,0,0,1,.25,2.31,2.31,0,0,0,.71-.11,4.67,4.67,0,0,0,.88-.42Zm-3.76-2.4.62,0,1.2,0q.78,0,1,0c0-.09,0-.17,0-.22A2,2,0,0,0,138.14,8a1.26,1.26,0,0,0-1-.43,1.34,1.34,0,0,0-1.07.47A2.29,2.29,0,0,0,135.66,9.5Z" transform="translate(-0.28)"/><path class="cls-5" d="M142.5,12.88l-.25-.81-.54-1.81q-.23-.79-.48-1.52a5.23,5.23,0,0,0-.32-.84.44.44,0,0,0-.19-.16,2.58,2.58,0,0,0-.56-.09V7.31q.64,0,1.38,0t1.46,0v.33a4.58,4.58,0,0,0-.71,0,.27.27,0,0,0-.16.08.22.22,0,0,0,0,.14,4,4,0,0,0,.17.72l.54,1.89q.13.47.33,1l.45-1,.86-1.93q.3-.69.57-1.38h.29q.39,1.07.53,1.42l.67,1.7.52,1.29.44-1.15q.43-1.11.67-1.9a2.38,2.38,0,0,0,.13-.6.26.26,0,0,0-.11-.24,2.16,2.16,0,0,0-.76-.08V7.31l1.23,0q.41,0,1.11,0v.33a1.28,1.28,0,0,0-.46.06.52.52,0,0,0-.21.18,5.6,5.6,0,0,0-.47.94L148,10.29l-.26.66-.45,1.19a6.77,6.77,0,0,0-.25.74h-.55l-.28-.73-1.34-3.36L144.29,10l-.66,1.47q-.23.51-.37.87l-.19.54Z" transform="translate(-0.28)"/><path class="cls-5" d="M150.54,11h.35a4.41,4.41,0,0,0,0,.54,1.93,1.93,0,0,0,.1.39.8.8,0,0,0,.22.32,1.14,1.14,0,0,0,.32.21,1.35,1.35,0,0,0,.35.1,4.56,4.56,0,0,0,.54,0,1.49,1.49,0,0,0,1-.32,1.06,1.06,0,0,0,.38-.87.79.79,0,0,0-.12-.43.8.8,0,0,0-.35-.29,6,6,0,0,0-1-.28q-.74-.17-1-.25a1.61,1.61,0,0,1-.52-.3,1.25,1.25,0,0,1-.31-.45,1.49,1.49,0,0,1-.11-.59,1.58,1.58,0,0,1,.24-.85,1.73,1.73,0,0,1,.76-.63,2.66,2.66,0,0,1,1.14-.24,4.21,4.21,0,0,1,.86.1,3.33,3.33,0,0,1,.79.25q0,.65-.06,1.32h-.33a3.45,3.45,0,0,0-.07-.56,1,1,0,0,0-.1-.24.88.88,0,0,0-.22-.23,1.61,1.61,0,0,0-.41-.21,1.75,1.75,0,0,0-.61-.09,1.14,1.14,0,0,0-.83.3,1,1,0,0,0-.31.71.8.8,0,0,0,.09.39.76.76,0,0,0,.24.27,1.59,1.59,0,0,0,.43.18l1,.24a6.13,6.13,0,0,1,1,.32,1.05,1.05,0,0,1,.45.42,1.31,1.31,0,0,1,.17.68,1.8,1.8,0,0,1-.65,1.38,2.51,2.51,0,0,1-1.75.59,7.9,7.9,0,0,1-1.34-.15,2.12,2.12,0,0,1-.5-.12.07.07,0,0,1,0-.06.52.52,0,0,1,0-.1,3.73,3.73,0,0,0,.07-.49Q150.53,11.8,150.54,11Z" transform="translate(-0.28)"/></svg>