<?xml version="1.0" encoding="utf-8"?>
<!-- Generator: Adobe Illustrator 17.0.1, SVG Export Plug-In . SVG Version: 6.00 Build 0)  -->
<!DOCTYPE svg PUBLIC "-//W3C//DTD SVG 1.1//EN" "http://www.w3.org/Graphics/SVG/1.1/DTD/svg11.dtd">
<svg version="1.1" id="a_x2F_w" xmlns="http://www.w3.org/2000/svg" xmlns:xlink="http://www.w3.org/1999/xlink" x="0px" y="0px"
	 width="437.76px" height="56.88px" viewBox="0 0 437.76 56.88" enable-background="new 0 0 437.76 56.88" xml:space="preserve">
<g>
	<g>
		<g>
			<g>
				<g>
					<g>
						<path d="M61.102,12.696c0-1.306-0.067-2.198-0.307-2.578c-0.207-0.342-0.62-0.479-1.444-0.514L57.702,9.5V8.465
							c1.789,0.078,3.4,0.106,5.085,0.106c1.582,0,3.195-0.028,4.983-0.106V9.5l-1.648,0.104c-0.825,0.035-1.238,0.172-1.445,0.514
							c-0.24,0.38-0.308,1.273-0.308,2.578v11.819c0,4.88,2.539,6.288,7.079,6.288c3.709,0,7.076-1.408,7.076-7.113V12.696
							c0-1.306-0.068-2.198-0.309-2.578c-0.207-0.342-0.619-0.445-1.443-0.514L75.259,9.5V8.465
							c1.373,0.043,2.749,0.106,3.986,0.106c1.375,0,2.611-0.063,4.122-0.106V9.5l-1.511,0.104
							c-0.825,0.068-1.236,0.172-1.441,0.514c-0.243,0.38-0.312,1.273-0.312,2.578v9.93c0,7.354-2.783,10.308-9.725,10.308
							c-5.84,0-9.277-1.751-9.277-8.04V12.696z"/>
						<path d="M89.928,28.741c0,0.928,0.036,1.617,0.175,1.995c0.134,0.307,0.515,0.446,1.097,0.479l1.547,0.104v1.032
							c-1.203-0.035-2.579-0.104-4.262-0.104c-1.682,0-3.059,0.068-4.261,0.104v-1.032l1.55-0.104
							c0.582-0.032,0.959-0.172,1.098-0.479c0.136-0.378,0.171-1.067,0.171-1.995v-7.73c0-1.098-0.069-1.854-0.239-2.127
							c-0.208-0.277-0.552-0.381-1.272-0.381h-1.272v-0.963c2.028-0.205,4.09-0.859,5.359-1.408l0.311,0.139v2.92h0.069l2.54-2.198
							c0.759-0.653,1.41-0.86,2.786-0.86c4.019,0,5.669,2.235,5.669,5.979v6.631c0,0.928,0.035,1.617,0.171,1.995
							c0.139,0.307,0.517,0.446,1.1,0.479l1.408,0.104v1.032c-0.859-0.035-1.856-0.104-2.817-0.104
							c-0.963,0-1.959,0.068-2.749,0.104v-9.759c0-2.852-1.616-4.362-3.953-4.362c-2.096,0-4.225,1.82-4.225,3.229V28.741z"/>
						<path d="M110.474,28.741c0,0.928,0.033,1.617,0.169,1.995c0.141,0.307,0.518,0.446,1.102,0.479l1.579,0.104v1.032
							c-1.237-0.035-2.61-0.104-4.294-0.104c-1.684,0-3.057,0.068-4.295,0.104v-1.032l1.579-0.104
							c0.584-0.032,0.965-0.172,1.1-0.479c0.139-0.378,0.172-1.067,0.172-1.995v-7.73c0-1.098-0.066-1.854-0.239-2.127
							c-0.207-0.277-0.551-0.381-1.271-0.381h-1.271v-0.963c2.026-0.205,4.09-0.859,5.359-1.408l0.312,0.139V28.741z
							 M110.784,10.565c0,0.996-0.93,1.891-1.924,1.891c-1,0-1.892-0.894-1.892-1.891c0-0.995,0.892-1.924,1.892-1.924
							C109.854,8.641,110.784,9.57,110.784,10.565z"/>
						<path d="M125.487,28.741c-0.584,1.272-0.93,2.577-1.411,3.746h-1.716l-5.91-13.848c-0.205-0.479-0.413-1.1-1.064-1.132
							l-1.169-0.069v-0.961c1.342,0.033,2.682,0.102,4.022,0.102c1.338,0,2.643-0.069,3.984-0.102v0.961l-1.682,0.069
							c-0.896,0.032-1.136,0.515-0.553,1.959l4.088,9.893c0.725-1.58,1.479-3.197,2.132-4.811l1.444-3.642
							c0.925-2.372,0.859-3.368-0.173-3.4l-1.409-0.069v-0.961c1.065,0.033,2.165,0.102,3.228,0.102
							c1.068,0,2.168-0.069,3.233-0.102v0.961l-1.065,0.069c-0.86,0.067-1.444,1.272-1.927,2.302L125.487,28.741z"/>
						<path d="M148.128,22.418c0,0.481,0,0.961-0.068,1.445c-2.064,0.343-4.158,0.48-6.22,0.48h-5.017
							c0,4.019,1.994,6.768,6.22,6.768c1.65,0,2.952-0.823,4.262-1.616l0.445,0.344l-0.689,1.172
							c-0.241,0.41-3.16,1.921-5.496,1.921c-5.188,0-7.938-3.298-7.938-7.937c0-3.332,0.895-5.325,2.475-6.562
							c0.652-0.516,1.373-1.031,2.128-1.373c1.204-0.551,2.2-0.93,3.368-0.93C145.343,16.131,148.128,18.535,148.128,22.418z
							 M136.89,22.969c2.819,0.31,5.706,0.242,8.181,0.104c0-3.195-1.17-5.808-3.645-5.808
							C138.779,17.265,136.721,19.223,136.89,22.969z"/>
						<path d="M152.764,21.01c0-1.098-0.071-1.854-0.242-2.127c-0.205-0.277-0.55-0.381-1.27-0.381h-1.272v-0.963
							c2.027-0.205,4.089-0.859,5.36-1.408l0.311,0.139v3.47h0.068l1.854-2.2c0.826-0.997,1.993-1.408,2.886-1.408
							c0.584,0,1.305,0.171,1.58,0.379l-0.307,4.123h-0.722c-0.38-0.824-1.102-1.582-2.339-1.582c-1.514,0-3.021,1.582-3.021,3.781
							v5.908c0,0.928,0.031,1.617,0.17,1.995c0.136,0.307,0.654,0.446,1.443,0.479l1.786,0.104v1.032
							c-1.786-0.035-3.159-0.104-4.845-0.104c-1.684,0-3.057,0.068-4.294,0.104v-1.032l1.579-0.104
							c0.585-0.032,0.964-0.172,1.102-0.479c0.138-0.378,0.171-1.067,0.171-1.995V21.01z"/>
						<path d="M165.2,27.333v1.407c0,2.131,2.439,2.922,4.432,2.922c2.166,0,4.022-1.271,4.022-3.127
							c0-1.098-0.585-1.993-1.648-2.268c-1.513-0.377-3.4-0.757-5.054-1.375c-1.648-0.617-2.919-1.647-2.919-3.744
							c0-3.711,3.23-5.018,6.46-5.018c1.614,0,3.092,0.379,4.431,0.86c-0.101,1.237-0.135,2.507-0.171,3.881h-0.962v-0.788
							c0-1.787-2.027-2.819-3.986-2.819c-2.92,0-3.367,1.618-3.367,2.784c0,1.478,1.135,2.268,3.747,2.715
							c4.087,0.687,6.01,1.717,6.01,4.398c0,3.779-3.777,5.772-7.589,5.772c-1.653,0-3.128-0.239-4.814-0.824
							c0.347-1.513,0.38-3.16,0.38-4.775H165.2z"/>
						<path d="M183.786,28.741c0,0.928,0.036,1.617,0.172,1.995c0.139,0.307,0.516,0.446,1.102,0.479l1.579,0.104v1.032
							c-1.237-0.035-2.61-0.104-4.295-0.104c-1.684,0-3.058,0.068-4.294,0.104v-1.032l1.58-0.104c0.586-0.032,0.963-0.172,1.1-0.479
							c0.137-0.378,0.172-1.067,0.172-1.995v-7.73c0-1.098-0.069-1.854-0.241-2.127c-0.207-0.277-0.549-0.381-1.268-0.381h-1.273
							v-0.963c2.026-0.205,4.089-0.859,5.358-1.408l0.309,0.139V28.741z M184.096,10.565c0,0.996-0.929,1.891-1.926,1.891
							c-0.994,0-1.89-0.894-1.89-1.891c0-0.995,0.896-1.924,1.89-1.924C183.168,8.641,184.096,9.57,184.096,10.565z"/>
						<path d="M188.08,19.258v-0.723l2.681-1.201V14.93c0-0.897-0.035-1.786-0.138-2.715c1.237-0.377,2.336-0.928,2.919-1.307
							l0.414,0.379c-0.207,1.512-0.378,3.436-0.378,4.878v1.308l4.709-0.208l-0.311,1.855h-4.398v9.003
							c0,1.582,0.446,2.371,1.89,2.371c0.893,0,1.548-0.377,2.028-0.654l0.446,0.583l-1.649,1.823
							c-0.31,0.344-1.512,0.413-2.234,0.413c-1.82,0-3.366-0.859-3.366-3.642V19.12L188.08,19.258z"/>
						<path d="M212.818,19.258c0.516-1.271,0-1.649-1.236-1.751l-0.895-0.069v-0.961c1.101,0.033,2.163,0.102,3.264,0.102
							c1.101,0,2.163-0.069,3.265-0.102v0.961l-0.962,0.069c-0.825,0.067-1.582,1.132-2.888,4.157l-6.974,16.08
							c-1.1,2.508-2.336,4.225-5.222,4.225c-0.586,0-1.341-0.273-1.719-0.516l0.824-2.576h0.447
							c0.412,0.413,1.271,0.823,1.753,0.791c1.992-0.14,3.091-2.921,3.746-4.502l0.788-2.096c-0.584-1.615-1.272-3.299-1.925-4.879
							l-3.744-9.002c-0.55-1.305-1.031-1.615-1.786-1.683l-0.621-0.069v-0.961c1.342,0.033,2.647,0.102,3.987,0.102
							c1.342,0,2.646-0.069,3.986-0.102v0.961l-1.307,0.069c-0.962,0.032-1.545,0.378-0.823,2.232l2.198,5.771
							c0.481,1.308,1.032,2.544,1.751,3.779L212.818,19.258z"/>
						<path d="M223.878,24.893c0-5.153,3.23-8.762,8.761-8.762c4.401,0,7.802,3.437,7.802,7.834c0,5.26-3.747,8.968-9.002,8.968
							C227.108,33.071,223.878,29.635,223.878,24.893z M227.074,23.416c0,3.605,1.306,8.384,5.703,8.384
							c3.128,0,4.466-3.128,4.466-6.323c0-4.433-2.098-8.212-5.393-8.212C228.209,17.265,227.074,20.222,227.074,23.416z"/>
						<path d="M253.253,10.256l-0.41,0.206c-0.62-0.583-1.411-0.962-2.269-0.962c-2.131,0-2.509,0.997-2.509,4.914v2.92l4.503-0.137
							l-0.242,1.82h-4.261v9.723c0,0.928,0.033,1.617,0.173,1.995c0.136,0.307,0.516,0.446,1.099,0.479l1.582,0.104v1.032
							c-1.238-0.035-2.611-0.104-4.295-0.104c-1.686,0-3.06,0.068-4.297,0.104v-1.032l1.582-0.104
							c0.582-0.032,0.962-0.172,1.102-0.479c0.134-0.378,0.169-1.067,0.169-1.995v-9.723l-2.371,0.139v-0.758l2.371-1.065v-1.443
							c0-2.266,0.447-3.814,1.444-4.946l1.99-2.269c0.895-1.031,2.132-1.443,3.095-1.443c0.514,0,1.065,0.17,1.544,0.378V10.256z"/>
						<path d="M276.826,14.176l-0.206-1.961c-0.104-0.928-0.242-1.271-1.513-2.062c-0.962-0.584-2.405-0.824-3.745-0.824
							c-2.405,0-5.085,1.615-5.085,5.017c0,2.334,1.374,3.778,5.668,4.26c4.845,0.515,7.901,1.717,7.901,5.636
							c0,5.876-5.256,8.691-10.374,8.691c-2.407,0-4.741-0.755-5.876-1.306c0.275-1.787,0.275-3.641,0.242-5.254h1.098l0.276,2.299
							c0.171,1.445,2.884,2.75,5.601,2.75c3.09,0,6.149-1.889,6.149-5.291c0-3.264-2.542-4.191-6.048-4.604
							c-5.395-0.619-7.523-2.304-7.523-5.876c0-5.325,4.673-7.764,8.796-7.764c2.749,0,4.809,0.892,6.218,1.442
							c-0.346,1.751-0.48,3.23-0.48,4.847H276.826z"/>
						<path d="M281.36,19.258v-0.723l2.68-1.201V14.93c0-0.897-0.034-1.786-0.138-2.715c1.236-0.377,2.336-0.928,2.919-1.307
							l0.412,0.379c-0.202,1.512-0.375,3.436-0.375,4.878v1.308l4.706-0.208l-0.31,1.855h-4.397v9.003
							c0,1.582,0.447,2.371,1.888,2.371c0.896,0,1.548-0.377,2.027-0.654l0.447,0.583l-1.648,1.823
							c-0.31,0.344-1.514,0.413-2.233,0.413c-1.821,0-3.369-0.859-3.369-3.642V19.12L281.36,19.258z"/>
						<path d="M319.459,27.711c0.308,0.688,0.686,1.615,1.099,2.336c0.379,0.652,0.757,1.099,1.375,1.167l1.169,0.104v1.032
							c-1.514-0.035-3.022-0.104-4.57-0.104c-1.204,0-2.718,0.068-4.57,0.104v-1.032l1.614-0.104c0.723-0.032,1.41-0.273,1.41-0.687
							c0-0.48-0.378-1.374-0.723-2.199l-1.579-3.95h-9.896l-0.962,2.304c-0.308,0.719-1.203,3.023-1.203,3.571
							c0,0.722,0.585,0.859,1.649,0.961l1.272,0.104v1.032c-1.648-0.035-2.957-0.104-3.952-0.104c-1.339,0-2.646,0.068-3.951,0.104
							v-1.032l1.273-0.104c0.822-0.068,1.479-0.791,1.853-1.681l6.117-13.918c1.064-2.404,2.231-4.948,3.162-7.42h1.099
							L319.459,27.711z M314.063,23.004l-4.328-10.24l-4.362,10.24H314.063z"/>
						<path d="M329.761,28.741c0,0.928,0.036,1.617,0.173,1.995c0.14,0.307,0.518,0.446,1.1,0.479l1.547,0.104v1.032
							c-1.203-0.035-2.578-0.104-4.26-0.104c-1.688,0-3.059,0.068-4.26,0.104v-1.032l1.547-0.104c0.584-0.032,0.96-0.172,1.1-0.479
							c0.137-0.378,0.17-1.067,0.17-1.995v-7.73c0-1.098-0.07-1.854-0.244-2.127c-0.202-0.277-0.549-0.381-1.27-0.381h-1.271v-0.963
							c2.029-0.205,4.092-0.859,5.361-1.408l0.308,0.139v2.92h0.068l2.542-2.198c0.762-0.653,1.41-0.86,2.785-0.86
							c4.019,0,5.669,2.235,5.669,5.979v6.631c0,0.928,0.036,1.617,0.171,1.995c0.139,0.307,0.518,0.446,1.102,0.479l1.408,0.104
							v1.032c-0.857-0.035-1.855-0.104-2.814-0.104c-0.965,0-1.961,0.068-2.752,0.104v-9.759c0-2.852-1.616-4.362-3.95-4.362
							c-2.095,0-4.228,1.82-4.228,3.229V28.741z"/>
						<path d="M358.004,10.945c0-0.791-0.103-1.41-0.859-1.41h-1.924V8.572c1.819-0.274,3.643-0.583,5.358-1.268l0.311,0.273v21.164
							c0,0.928,0.034,1.617,0.174,1.995c0.134,0.307,0.515,0.446,1.098,0.479l1.582,0.104v1.032c-1.41-0.035-2.27-0.104-3.127-0.104
							c-0.894,0-1.753,0.068-2.647,0.104l0.171-3.162l-3.811,3.194c-0.31,0.241-1.306,0.277-2.201,0.277
							c-4.81,0-7.076-3.434-7.076-7.936c0-3.128,1.512-5.465,3.229-6.356l3.024-1.581c1.03-0.551,1.958-0.654,2.542-0.654
							c1.547,0,2.678,0.448,4.157,1.102V10.945z M358.004,20.222c0-0.688-2.783-2.544-4.844-2.475
							c-3.506,0.103-5.12,2.095-5.12,6.288c0,3.194,1.787,6.664,5.359,6.664c1.443,0,2.817-0.994,3.745-2.164
							c0.962-1.202,0.859-2.373,0.859-3.881V20.222z"/>
						<path d="M368.414,21.01c0-1.098-0.071-1.854-0.241-2.127c-0.208-0.277-0.55-0.381-1.269-0.381h-1.273v-0.963
							c2.026-0.205,4.087-0.859,5.358-1.408l0.311,0.139v3.47h0.068l1.855-2.2c0.828-0.997,1.992-1.408,2.889-1.408
							c0.583,0,1.303,0.171,1.579,0.379l-0.313,4.123h-0.72c-0.374-0.824-1.1-1.582-2.334-1.582c-1.514,0-3.025,1.582-3.025,3.781
							v5.908c0,0.928,0.034,1.617,0.171,1.995c0.14,0.307,0.651,0.446,1.442,0.479l1.787,0.104v1.032
							c-1.787-0.035-3.164-0.104-4.844-0.104c-1.684,0-3.057,0.068-4.297,0.104v-1.032l1.582-0.104
							c0.584-0.032,0.963-0.172,1.1-0.479c0.137-0.378,0.173-1.067,0.173-1.995V21.01z"/>
						<path d="M393.192,22.418c0,0.481,0,0.961-0.071,1.445c-2.061,0.343-4.157,0.48-6.218,0.48h-5.018
							c0,4.019,1.994,6.768,6.219,6.768c1.65,0,2.956-0.823,4.262-1.616l0.447,0.344l-0.689,1.172
							c-0.241,0.41-3.161,1.921-5.498,1.921c-5.185,0-7.936-3.298-7.936-7.937c0-3.332,0.896-5.325,2.473-6.562
							c0.654-0.516,1.377-1.031,2.131-1.373c1.201-0.551,2.2-0.93,3.367-0.93C390.406,16.131,393.192,18.535,393.192,22.418z
							 M381.956,22.969c2.818,0.31,5.701,0.242,8.177,0.104c0-3.195-1.169-5.808-3.643-5.808
							C383.843,17.265,381.786,19.223,381.956,22.969z"/>
						<path d="M408.443,16.131h0.791c0.308,0.996,0.651,1.891,0.996,2.783l3.952,9.963c0.547-1.406,1.131-2.814,1.648-4.258
							l1.721-4.811c0.547-1.512,0.172-2.234-1.103-2.302l-1.166-0.069v-0.961c1.133,0.033,2.23,0.102,3.366,0.102
							c1.133,0,2.233-0.069,3.369-0.102v0.961l-0.896,0.069c-0.789,0.067-1.341,0.995-2.197,2.988l-2.337,5.36
							c-0.928,2.131-1.582,4.434-2.373,6.631h-1.577l-4.673-11.751c-0.586,1.27-1.237,2.578-1.787,3.848l-3.366,7.903h-1.617
							l-3.506-11.543c-0.893-2.889-1.408-3.369-2.266-3.437l-0.961-0.069v-0.961c1.374,0.033,2.709,0.102,4.084,0.102
							s2.717-0.069,4.09-0.102v0.961l-1.373,0.069c-1.169,0.067-1.545,0.445-1.169,1.683l2.886,9.482
							c0.449-0.928,0.828-1.854,1.24-2.781L408.443,16.131z"/>
						<path d="M425.344,27.333v1.407c0,2.131,2.441,2.922,4.434,2.922c2.164,0,4.021-1.271,4.021-3.127
							c0-1.098-0.586-1.993-1.65-2.268c-1.512-0.377-3.4-0.757-5.049-1.375c-1.65-0.617-2.922-1.647-2.922-3.744
							c0-3.711,3.232-5.018,6.459-5.018c1.614,0,3.094,0.379,4.432,0.86c-0.103,1.237-0.137,2.507-0.171,3.881h-0.962v-0.788
							c0-1.787-2.026-2.819-3.986-2.819c-2.918,0-3.365,1.618-3.365,2.784c0,1.478,1.131,2.268,3.74,2.715
							c4.092,0.687,6.016,1.717,6.016,4.398c0,3.779-3.779,5.772-7.592,5.772c-1.648,0-3.128-0.239-4.81-0.824
							c0.342-1.513,0.377-3.16,0.377-4.775H425.344z"/>
					</g>
				</g>
			</g>
		</g>
		<g>
			<path fill="#FFFFFF" d="M4.557,2.017c-0.047,1.265-0.285,7.93-0.285,7.93c-0.182,4.652-0.34,8.733-0.34,12.368
				c0,15.989,3.09,23.269,20.881,31.897c17.789-8.628,20.881-15.906,20.881-31.889c0-3.639-0.16-7.725-0.342-12.381
				c0,0-0.234-6.662-0.281-7.926H4.557z"/>
			<path fill="#EE3124" d="M43.823,3.386H5.854L5.453,13.977h38.801L43.823,3.386z M26.094,13.261l-0.038-0.092
				c0,0,0.283-0.121,0.657-0.354c0.738-0.452,1.346-1.379,1.346-2.27c0-1.563-1.459-2.836-3.292-2.836
				c-1.826,0-3.33,1.273-3.33,2.836c0,0.891,0.615,1.817,1.342,2.27c0.383,0.232,0.667,0.354,0.667,0.354l-0.039,0.092
				c0,0-0.315-0.117-0.696-0.353c-1.28-0.781-1.963-2.066-1.963-3.224c0-1.966,1.825-3.565,4.012-3.565
				c2.196,0,3.997,1.6,3.997,3.565c0,1.157-0.689,2.442-1.962,3.224C26.411,13.144,26.094,13.261,26.094,13.261z M27.034,13.055
				l-0.027-0.093c1.185-0.776,1.961-2.045,1.961-3.278c0-2.081-1.896-3.771-4.209-3.771c-2.303,0-4.224,1.69-4.224,3.771
				c0,1.233,0.77,2.502,1.96,3.278l-0.028,0.093c-1.738-0.796-3.006-2.438-3.006-4.144c0-2.456,2.45-4.493,5.31-4.493
				c2.86,0,5.262,2.037,5.262,4.493C30.032,10.617,28.774,12.259,27.034,13.055z"/>
			<path fill="#EE3124" d="M24.675,21.661h0.178c0.318-0.342,0.701-0.551,1.204-0.551c0.803,0,1.682,0.349,2.424,0.34
				c0.695-0.008,1.14-0.356,1.2-0.4v-5.941c0.109,0.314,0.471,0.646,0.744,0.625v5.863c-0.312,0.238-0.674,0.33-1.073,0.342
				c-0.967,0.033-2.142-0.413-3.146-0.411c-0.556,0.002-1.043,0.144-1.441,0.571c-0.393-0.428-0.908-0.569-1.463-0.571
				c-1.008-0.002-2.167,0.444-3.136,0.411c-0.4-0.012-0.77-0.104-1.074-0.342l0.001-5.863c0.266-0.012,0.599-0.321,0.75-0.625v5.928
				c0.063,0.046,0.458,0.43,1.192,0.43c0.739,0,1.651-0.356,2.425-0.356C24.201,21.111,24.675,21.661,24.675,21.661z"/>
			<path fill="#EE3124" d="M39.504,39.509c-0.116-0.378-0.458-0.693-0.793-0.721c0.07,0.067,0.127,0.12,0.185,0.188
				c0.345,0.402,0.142,1.303-0.223,1.521c0.157-0.541-0.263-0.971-0.805-0.818c0.208,0.114,0.328,0.457,0.238,0.781
				c-0.086,0.307-0.436,0.595-0.78,0.529c-0.466-0.086-0.206-0.697-0.221-1.088c-0.018-0.551-0.368-0.813-0.626-0.936
				c-0.032-0.015-0.005-0.053-0.005-0.053c0.184,0.05,0.36,0.123,0.609,0.12c0.344-0.002,0.613-0.193,0.727-0.346
				c0.135-0.17,0.192-0.462,0.111-0.676c-0.056,0.095-0.139,0.205-0.221,0.282c-0.197,0.185-0.585,0.209-0.869,0.073
				c-0.291-0.137-0.572-0.435-0.789-0.724c-0.752-1.022-1.662-2.062-2.6-2.677c-0.579-0.378-1.343-0.688-2.077-0.708
				c-0.447-0.013-0.887,0.079-1.272,0.322c-0.508,0.326-0.818,0.888-0.882,1.425c-0.076,0.625,0.144,1.252,0.526,1.742
				c0.512,0.651,1.224,1.132,1.918,1.571c0.501,0.321,0.998,0.669,1.467,1.036c0.369,0.295,0.682,0.629,0.788,1.108
				c0.103,0.441-0.096,0.748-0.271,0.897c-0.31,0.26-1.153,0.238-1.464-0.023c-0.198-1.52-1.243-2.187-2.6-2.511
				c-0.649-0.156-1.333-0.317-1.877-0.618c-0.488-0.264-0.927-0.536-1.145-1.172c-0.085,0.02-0.313-0.022-0.489-0.094
				c-0.397-0.151-0.533-0.42-0.606-0.662c0.234,0.239,0.44,0.386,1.046,0.414c0.365,0.018,0.85-0.165,1.041-0.473
				c-0.379,0.051-0.676,0.027-0.895-0.102c-0.207-0.131-0.41-0.418-0.369-0.738c0.361,0.379,1.033,0.517,1.642,0.22
				c0.082-0.04,0.36-0.252,0.372-0.345c-0.326,0.033-0.615-0.026-0.808-0.186c-0.204-0.16-0.323-0.402-0.321-0.742
				c0.208,0.211,0.589,0.326,0.95,0.313c0.37-0.015,0.711-0.162,0.837-0.459c-0.279,0.049-0.551-0.012-0.77-0.147
				c-0.207-0.132-0.358-0.333-0.371-0.587c-0.356-0.027-0.635-0.186-0.809-0.396c-0.206,0.294-0.271,0.97-0.236,1.435
				c-0.574-0.021-1.06-0.422-1.146-0.961c-0.251,0.284-0.291,0.981-0.157,1.369c-0.689-0.041-1.103-0.412-1.266-0.978
				c-0.095,0.201-0.147,0.481-0.142,0.784c0.002,0.084,0.017,0.247,0.038,0.372c0,0-0.167-0.011-0.402-0.177
				c-0.308-0.2-0.579-0.711-0.559-0.959c0.175,0.27,0.403,0.506,0.665,0.671c-0.029-0.622,0.256-1.102,0.596-1.345
				c0.003,0.673,0.216,1.063,0.758,1.204c-0.092-0.397,0.025-0.72,0.117-0.962c0.093-0.236,0.341-0.549,0.481-0.639
				c0.003,0.547,0.262,1.091,0.726,1.215c-0.014-0.424,0.073-0.913,0.227-1.215c0.076-0.141,0.172-0.297,0.291-0.363
				c0.131,0.438,0.69,0.655,1.194,0.672c1.364,0.04,1.432-1.079,1.432-1.079c-0.182,0.087-0.43,0.239-0.888,0.239
				c-0.555,0-0.711-0.445-0.711-0.445c0.324,0.129,0.971-0.037,1.273-0.275c0.195-0.148,0.429-0.467,0.454-0.748
				c0.018-0.272-0.045-0.52-0.225-0.648c-0.225,0.59-1.521,0.902-1.962,0.307c0.486,0.039,0.938-0.179,1.103-0.488
				c0.048-0.076,0.093-0.312,0.055-0.427c0,0-0.355,0.234-0.82,0.253c-0.505,0.021-0.778-0.189-0.778-0.189
				c0.335-0.02,0.976-0.359,0.933-0.775c0,0-0.207,0.077-0.35,0.088c-0.375,0.038-0.837-0.007-1.086-0.188
				c0.009-0.065,0.147-1.02,0.035-1.142c-0.42,0.195-0.819,0.506-1.054,0.912c-0.251-0.041-0.552-0.075-0.901-0.072
				c-0.347,0.004-0.74,0.073-0.925,0.166c-0.085,0.047-0.237,0.158-0.32,0.261c-0.098,0.112-0.129,0.255-0.229,0.319
				c-0.245,0.145-0.643,0.199-0.966,0.226c-0.249,0.021-0.574-0.013-0.653,0.178c-0.083,0.209,0.083,0.322,0.161,0.42
				c0.048,0.077,0.106,0.188,0.142,0.289c0.032,0.09,0.072,0.238,0.122,0.316c0.319,0.509,0.635,0.283,0.99,0.171
				c0.386-0.129,0.913-0.271,1.382-0.268c0.276,0.002,0.575,0.039,0.806,0.188c0.208,0.131,0.318,0.426,0.307,0.674
				c-0.008,0.227-0.104,0.451-0.282,0.598c-0.089,0.087-0.447,0.298-0.926,0.298c-0.587,0-1.175-0.272-1.687-0.286
				c-0.154-0.006-0.31,0.048-0.361,0.101c-0.166,0.161-0.168,0.376-0.02,0.571c0.518-0.01,0.499,0.572,0.425,0.846
				c-0.254,0.655-0.768,0.683-1.01,0.656c-0.302-0.029-0.608-0.161-0.742-0.314c-0.252,0.738,0.249,1.342,0.926,1.373
				c-0.463,0.382-1.392,0.084-1.479-0.421c-0.071,0.07-0.122,0.234-0.131,0.374c-0.059,0.911,0.676,1.281,1.6,1.246
				c-0.539,0.215-1.227,0.106-1.855-0.079c-0.566-0.162-0.888-0.314-1.279-0.511c-0.483-0.23-0.997-0.648-1.248-1.091
				c-0.084-0.153-0.17-0.425-0.159-0.616c0.041-0.695,0.836-0.787,0.73-1.584c-0.558-0.166-1.115,0.104-1.283,0.641
				c-0.046,0.143-0.065,0.313-0.043,0.5c-0.201-0.172-0.401-0.408-0.617-0.591c-0.176-0.16-0.363-0.259-0.572-0.242
				c-0.016,0.001-0.056,0.165-0.198,0.343c-0.053,0.063-0.271,0.26-0.271,0.26c0.009,0.123,0.123,0.26,0.173,0.303
				c0.173,0.15,0.514,0.24,0.654,0.471c0.043,0.07,0.064,0.152,0.054,0.256c-0.151,0.047-0.292,0.045-0.417,0.016
				c-0.428-0.1-0.75-0.482-1.242-0.511c-0.204-0.012-0.411,0.026-0.507,0.165c0.131,0.173,0.108,0.524-0.016,0.735
				c0.078,0.178,0.242,0.249,0.427,0.271c0.28,0.035,0.62-0.018,0.89,0.015c0.141,0.015,0.265,0.056,0.349,0.148
				c-0.161,0.112-0.291,0.198-0.47,0.24c-0.39,0.084-0.86-0.206-1.192-0.024c0,0,0.075,0.156,0.018,0.342
				c-0.045,0.168-0.129,0.322-0.129,0.322c0.173,0.158,0.355,0.222,0.535,0.225c0.359,0.003,0.73-0.212,1.084-0.341
				c0.168-0.062,0.327-0.106,0.483-0.105c-0.288,0.374-0.741,0.729-1.271,0.776c-0.069,0.006-0.166,0.005-0.166,0.005
				c0.004,0.061,0.137,0.129,0.177,0.151c0.119,0.059,0.316,0.108,0.479,0.115c0.71,0.031,1.293-0.211,1.783-0.491
				c-0.219,0.442-0.62,0.699-1.127,0.851c0.048,0.065,0.173,0.085,0.275,0.102c1.093,0.178,2.074-0.559,2.074-0.559
				c-0.024,0.205-0.182,0.513-0.53,0.731c-0.18,0.11-0.379,0.137-0.379,0.137c0.15,0.155,0.552,0.169,0.826,0.148
				c0.317-0.025,0.687-0.158,0.999-0.218c0.498-0.097,0.8-0.071,1.105-0.137c-0.338,0.136-0.688,0.267-1.047,0.405
				c-0.432,0.16-0.838,0.369-1.221,0.578c-0.4,0.217-0.749,0.504-1.127,0.691c-0.411,0.209-0.887,0.118-1.072-0.208
				c-0.092-0.162-0.084-0.334-0.123-0.506c-0.09-0.409-0.396-0.748-0.853-0.745c-0.036,0.354-0.333,0.581-0.481,0.684
				c0.063,0.636,0.885,0.63,0.975,1.282c-0.068,0.046-0.226,0.063-0.385,0.014c-0.339-0.098-0.557-0.229-0.875-0.235
				c-0.18-0.003-0.353,0.034-0.511,0.136c0.062,0.066,0.113,0.142,0.14,0.248c0.051,0.199-0.013,0.43-0.103,0.568
				c0.12,0.129,0.278,0.17,0.455,0.169c0.296-0.001,0.644-0.115,0.906-0.132c0.161-0.01,0.351-0.015,0.493,0.061
				c-0.165,0.414-0.768,0.376-1.226,0.494c-0.218,0.057-0.397,0.146-0.488,0.336c0.311,0.104,0.527,0.328,0.506,0.758
				c0.158,0.01,0.292-0.024,0.414-0.075c0.396-0.171,0.627-0.597,1.021-0.731c-0.013,0.432-0.283,0.682-0.346,1.059
				c-0.021,0.117-0.018,0.246,0.013,0.399c0,0,0.196-0.093,0.402-0.088c0.187,0.006,0.286,0.061,0.388,0.126
				c0.11-0.102,0.171-0.244,0.208-0.396c0.065-0.286,0.045-0.627,0.057-0.904c0.027-0.159,0.021-0.225,0.142-0.245
				c0.541,0.001,1.116-0.298,1.331-0.532c-0.094,0.339-0.208,0.537-0.399,0.76c-0.066,0.072-0.215,0.216-0.274,0.266
				c0.333,0.045,0.671-0.052,0.939-0.223c0.555-0.363,1.033-0.836,1.27-1.423c0.066,0.253,0.047,0.559-0.039,0.806
				c-0.063,0.179-0.179,0.359-0.255,0.445c0.09,0.021,0.27-0.016,0.38-0.061c0.407-0.178,0.702-0.531,0.922-0.981
				c0.109-0.224,0.221-0.53,0.261-0.813c0.234,0.246,0.287,0.654,0.111,1.113c-0.036,0.095-0.105,0.191-0.122,0.225
				c0.27-0.033,0.483-0.219,0.671-0.396c0.317-0.312,0.597-0.918,0.53-1.459c0.303,0.269,0.386,0.986,0.2,1.383
				c0.268-0.07,0.494-0.246,0.684-0.449c0.22-0.23,0.354-0.412,0.485-0.847c0.125-0.417,0.041-0.708,0.041-0.708
				c0.062,0.047,0.139,0.196,0.172,0.326c0.12,0.525-0.028,1.134-0.471,1.557c-0.076,0.072-0.221,0.183-0.241,0.197
				c0.297,0.398,0.823,0.561,1.412,0.59c0.984,0.055,1.567-0.363,2.487-0.465c-0.384,0.174-0.731,0.403-0.96,0.506
				c-0.535,0.251-1.017,0.412-1.438,0.395c-0.247-0.008-0.532-0.007-0.782-0.132c-0.187,0.222-0.221,0.485-0.182,0.858
				c0.054,0.499,0.328,0.82,0.204,1.334c-0.254,0.958-1.958,0.814-2.588,0.348c-0.514-0.382-0.471-1.283-0.933-1.67
				c-0.138-0.116-0.314-0.184-0.565-0.183c-0.089,0.297-0.288,0.472-0.519,0.628c0.033,0.184,0.122,0.315,0.229,0.426
				c0.187,0.202,0.456,0.33,0.613,0.565c0.066,0.096,0.117,0.212,0.134,0.357c-0.17,0.01-0.315-0.028-0.45-0.094
				c-0.347-0.168-0.603-0.512-1.002-0.597c-0.139-0.029-0.295-0.027-0.489,0.023c0.071,0.2-0.051,0.524-0.238,0.667
				c0.147,0.395,0.544,0.615,1.056,0.643c0.285,0.017,0.613-0.012,0.782,0.198c-0.396,0.427-1.027,0.008-1.579,0.008
				c-0.151,0-0.289,0.03-0.426,0.116c0.025,0.033,0.091,0.168,0.103,0.298c0.018,0.192-0.115,0.456-0.115,0.456
				c0.015,0.156,0.337,0.239,0.508,0.26c0.125,0.016,0.266,0.008,0.38-0.014c0.407-0.068,0.85-0.36,1.265-0.321
				c0.064,0.007,0.168,0.033,0.194,0.087c-0.131,0.328-0.464,0.37-0.664,0.582c-0.072,0.077-0.13,0.178-0.153,0.32
				c0.346-0.084,0.461,0.055,0.63,0.268c0.157,0.016,0.29-0.031,0.4-0.111c0.209-0.16,0.355-0.499,0.496-0.666
				c0.051-0.066,0.101-0.16,0.216-0.14c0.066,0.012,0.143,0.149,0.225,0.252c0.286,0.364,0.792,0.657,1.425,0.583
				c0.182-0.022,0.372-0.102,0.492-0.244c-0.405-0.069-0.693-0.344-0.827-0.719c0.354,0.256,0.97,0.483,1.476,0.395
				c0.07-0.014,0.227-0.068,0.253-0.124c-0.396-0.105-0.716-0.499-0.57-0.987c0.178,0.3,0.551,0.578,0.987,0.616
				c0.142,0.013,0.307,0.017,0.432-0.074c-0.07-0.064-0.155-0.142-0.202-0.246c-0.053-0.107-0.083-0.262-0.066-0.396
				c0.051-0.359,0.542-0.455,0.865-0.495c0.413-0.05,0.863,0.048,1.231-0.099c0.267-0.104,0.504-0.307,0.481-0.592
				c-0.137,0.099-0.323,0.186-0.558,0.163c-0.36-0.03-0.473-0.333-0.473-0.548c0-0.433,0.26-0.643,0.771-0.675
				c0.227-0.015,0.584,0.043,0.789,0.13c-0.009-0.002,0.338,0.127,0.34,0.115c-0.148-0.291,0.017-0.803,0.111-1.037
				c0.177-0.403,0.372-0.632,0.481-0.996c0.022,0.074,0.032,0.154,0.022,0.24c-0.043,0.418-0.211,0.664-0.258,1.139
				c-0.027,0.248,0.073,0.604,0.286,0.777c0.416,0.322,1.069,0.439,1.292,0.97c0.163,0.411,0,0.767-0.199,1.032
				c-0.288,0.404-0.723,0.748-1.205,0.977c-0.128,0.062-0.37,0.176-0.602,0.098c-0.415-0.138-0.567-0.919-0.939-1.173
				c-0.139-0.093-0.319-0.124-0.518-0.075c-0.02,0.143-0.054,0.207-0.154,0.334c-0.062,0.08-0.218,0.187-0.217,0.203
				c0.018,0.164,0.125,0.315,0.18,0.365c0.2,0.182,0.619,0.295,0.71,0.544c-0.046,0.067-0.142,0.083-0.227,0.087
				c-0.455,0.016-0.664-0.391-1.089-0.424c-0.1-0.008-0.285,0-0.383,0.076c0.021,0.127,0.011,0.175-0.019,0.275
				c-0.042,0.133-0.077,0.178-0.141,0.27c0.077,0.338,0.648,0.367,1.111,0.408c0.134,0.012,0.288,0.037,0.353,0.135
				c-0.118,0.102-0.263,0.193-0.429,0.225c-0.342,0.062-0.652-0.133-0.978-0.156c-0.114-0.007-0.258,0.031-0.376,0.104
				c0.029,0.072,0.044,0.237,0.016,0.37c-0.035,0.153-0.045,0.236-0.091,0.293c0.055,0.058,0.22,0.148,0.398,0.155
				c0.464,0.015,0.852-0.363,1.334-0.186c-0.188,0.295-0.525,0.314-0.805,0.484c-0.11,0.074-0.234,0.199-0.301,0.332
				c0.101,0.051,0.186,0.117,0.248,0.205c0.052,0.089,0.096,0.174,0.111,0.312c0.582,0.038,0.852-0.349,1.128-0.653
				c0.408-0.446,0.983-0.736,1.764-0.793c0.851-0.059,1.942,0.348,2.328-0.383c-0.472-0.021-1.031-0.116-1.2-0.443
				c0.83,0.239,1.853,0.008,2.272-0.519c-0.57,0.108-1.159-0.024-1.383-0.384c0.636,0.168,1.329,0.074,1.815-0.225
				c0.324-0.192,0.672-0.484,0.758-0.85c-0.043,0.012-0.142,0.061-0.226,0.097c-0.409,0.175-1.125,0.144-1.294-0.184
				c0.368,0.021,0.706-0.044,0.963-0.186c0.355-0.199,0.54-0.498,0.656-0.703c0.14-0.262,0.27-0.525,0.458-0.743
				c0.071-0.085,0.162-0.134,0.231-0.161c-0.06-0.07-0.213-0.078-0.319-0.06c-0.523,0.095-0.752,0.579-1.239,0.68
				c0.183-0.515,0.266-1.2,0.276-1.795c0.997,0.388,1.871,0.087,2.314-0.516c0.269-0.362,0.334-0.806,0.334-1.116
				c0-0.619-0.335-1.078-0.646-1.421c-0.591-0.632-1.333-1.091-2.041-1.578c-0.487-0.337-0.988-0.687-1.399-1.062
				c-0.292-0.264-0.61-0.637-0.686-1.081c-0.109-0.673,0.303-1.187,0.76-1.329c1.497-0.453,3.028,1.164,3.751,2.014
				c0.164,0.188,0.76,0.883,0.524,1.338c-0.066,0.121-0.246,0.195-0.368,0.184c-0.212-0.02-0.385-0.225-0.234-0.546
				c-0.395,0.089-0.559,0.674-0.328,1.003c0.167,0.246,0.457,0.279,0.671,0.24c0.188-0.033,0.363-0.147,0.456-0.295
				c-0.271,0.807,0.037,1.648,0.438,2.09c0.474,0.525,1.148,0.65,1.434,0.668c0.742,0.044,1.481-0.136,1.958-0.746
				C39.503,40.653,39.664,40.045,39.504,39.509z M24.338,30.847c-0.124-0.175-0.153-0.461-0.033-0.644
				c0.292,0.188,0.558,0.219,0.89,0.278C24.907,30.564,24.575,30.671,24.338,30.847z"/>
			<path fill="#FFF200" d="M38.421,4.068l-4.188,4.719l4.188,4.718l4.092-4.718L38.421,4.068z M35.911,8.777l2.485-2.785
				l2.445,2.835l-2.404,2.773L35.911,8.777z"/>
			<path fill="#FFF200" d="M11.589,4.068L7.397,8.786l4.192,4.718l4.089-4.718L11.589,4.068z M9.082,8.777l2.484-2.785l2.446,2.835
				l-2.406,2.773L9.082,8.777z"/>
			<g>
				<path fill-rule="evenodd" clip-rule="evenodd" fill="#00539B" d="M15.498,33.907c-0.067,0.354-0.469,0.603-0.469,0.603
					c-0.406-0.195-0.854-0.013-0.854-0.013C14.329,34.062,14.922,33.747,15.498,33.907z M12.878,36.139c0,0,0.15-0.104,0.301-0.153
					c0.226-0.071,0.424-0.055,0.55-0.042c0,0,0.283-0.415,0.016-0.735C13.308,35.308,12.947,35.648,12.878,36.139z M12.62,37.349
					c0,0,0.534-0.201,1.001-0.092c0,0,0.293-0.389,0.112-0.664C13.158,36.655,12.799,36.965,12.62,37.349z M30.395,21.572
					c0,0-0.352,0.33-1.157,0.33c-0.96,0-2.052-0.414-3.023-0.414c-0.969,0-1.346,0.476-1.449,0.559c0,0-0.49-0.559-1.418-0.559
					c-0.961,0-2.104,0.394-3.23,0.394c-0.588,0-0.918-0.28-1.002-0.31l0.008-5.658h-0.643v6.29h5.283c0,0,0.273,0.591,1.002,0.591
					c0.691,0,0.989-0.591,0.989-0.591c0.972,0.017,5.321,0,5.321,0l-0.014-6.29h-0.67L30.395,21.572z M46.429,0.644l0.33,9.352
					c0.979,25.144,1.348,34.551-21.607,45.591l-0.339,0.161l-0.334-0.161C1.521,44.547,1.889,35.141,2.866,10.001L3.197,0.64
					L46.429,0.644z M4.557,2.017c-0.047,1.265-0.285,7.93-0.285,7.93c-0.182,4.652-0.34,8.733-0.34,12.368
					c0,15.989,3.09,23.269,20.881,31.897c17.789-8.628,20.881-15.906,20.881-31.889c0-3.639-0.16-7.725-0.342-12.381
					c0,0-0.234-6.662-0.281-7.926H4.557z M42.665,36.892c2.053-5.518,2.017-12.377,1.669-22.033L6.953,36.892
					c-2.046-5.5-2.018-12.331-1.671-21.938L42.665,36.892z M24.653,31.589c-0.147-0.039-0.313-0.049-0.467-0.006
					c0,0,0.14,0.334,0.196,0.469C24.442,31.912,24.583,31.728,24.653,31.589 M23.954,31.609c-0.139,0-0.3,0.035-0.391,0.072
					c0.053,0.113,0.148,0.434,0.153,0.434C23.785,31.971,23.89,31.765,23.954,31.609 M23.278,31.754
					c-0.082-0.001-0.26,0.063-0.347,0.11c0,0,0.154,0.24,0.202,0.344L23.278,31.754 M18.013,33.599
					c-0.018-0.174-0.253-0.348-0.367-0.4c-0.269-0.127-0.432-0.184-0.753-0.175c-0.228,0.008-0.356,0.081-0.356,0.081
					c0.233,0.143,0.544,0.289,0.632,0.609C17.389,33.581,17.707,33.546,18.013,33.599z M24.767,32.734
					c-0.072,0.145-0.108,0.443-0.176,0.594c0.147,0.033,0.307-0.092,0.415-0.148C24.929,33.049,24.843,32.863,24.767,32.734
					 M23.499,32.816c-0.053,0.085-0.128,0.271-0.205,0.367c0.112,0.035,0.295,0.084,0.384,0.072
					C23.621,33.15,23.551,32.915,23.499,32.816 M24.12,32.818c-0.029,0.141-0.158,0.41-0.195,0.516
					c0.141,0.027,0.277,0.07,0.406,0.04C24.266,33.239,24.155,32.95,24.12,32.818z M14.524,38.862
					c-0.046-0.024-0.253-0.034-0.314-0.034c-0.591-0.006-0.931,0.25-1.111,0.596c0.286-0.044,0.722-0.075,0.943,0.122
					C14.394,39.355,14.565,39.005,14.524,38.862z M13.247,40.742c0,0-0.292,0.067-0.605,0.426c-0.13,0.152-0.287,0.443-0.228,0.69
					c0,0,0.17-0.19,0.471-0.279c0.171-0.05,0.308-0.046,0.4-0.021C13.445,41.464,13.525,40.915,13.247,40.742z M13.425,42.486
					c-0.208,0.214-0.398,0.619-0.312,1.054c0.041,0.208,0.196,0.304,0.196,0.304c0.053-0.262,0.267-0.563,0.622-0.6
					C14.021,42.773,13.606,42.486,13.425,42.486z M18.008,43.247c-0.246,0.125-0.408,0.317-0.408,0.317
					c0.649-0.065,0.963,0.216,0.963,0.216c0.197-0.043,0.543-0.355,0.519-0.628C18.732,43.04,18.284,43.114,18.008,43.247z
					 M15.033,43.895c0,0,0.033,0.493,0.377,0.796c0.1,0.092,0.241,0.191,0.408,0.186c-0.2-0.244-0.143-0.666,0.005-0.943
					C15.644,43.757,15.245,43.761,15.033,43.895z M16.455,45.136c0,0,0.2-0.082,0.49-0.072c0.227,0.006,0.415,0.064,0.415,0.064
					c0.181-0.082,0.374-0.473,0.238-0.667C17.059,44.483,16.588,44.755,16.455,45.136z M25.998,46.118 M25.998,46.118
					c-0.434-0.126-0.952,0.059-1.028,0.482c0.193-0.066,0.487-0.09,0.656,0.055C25.845,46.515,26.005,46.322,25.998,46.118z
					 M17.193,46.093c-0.414,0.107-0.765,0.418-0.752,0.951c0.411-0.405,0.74-0.197,0.74-0.197
					C17.375,46.646,17.345,46.206,17.193,46.093 M24.817,47.304c-0.479-0.143-0.966,0.178-1.068,0.576
					c0.169-0.123,0.602-0.223,0.909-0.031C24.755,47.8,24.896,47.486,24.817,47.304z M18.711,47.761c0,0-0.193,0.729,0.325,0.955
					c0,0-0.092-0.388,0.306-0.688C19.235,47.788,18.933,47.636,18.711,47.761z M24.338,48.564c-0.43,0.047-0.931,0.395-0.982,0.873
					c0,0,0.125-0.109,0.328-0.195c0.148-0.067,0.427-0.106,0.58-0.015C24.399,49.156,24.451,48.658,24.338,48.564z M24.89,50.013
					c-0.19,0.146-0.49,0.614-0.433,0.979c0.029,0.183,0.177,0.271,0.177,0.271c0.076-0.326,0.365-0.633,0.614-0.733
					C25.299,50.339,25.037,50.019,24.89,50.013z"/>
				<path fill-rule="evenodd" clip-rule="evenodd" fill="#00539B" d="M21.389,31.148c-0.265,0.055-0.59,0.386-0.55,0.809
					c0.048,0.509,0.502,0.798,1.405,0.828c0.738,0.025,1.725-0.197,2.352-0.348c0.445-0.106,0.653-0.24,0.653-0.24
					c-0.172-0.021-0.421-0.014-0.635,0.025c-0.73,0.12-1.639,0.25-2.216,0.209c-0.461-0.031-1.121-0.183-1.131-0.824
					C21.263,31.371,21.389,31.148,21.389,31.148z"/>
			</g>
			<path fill="#00539B" d="M29.681,21.05c-0.06,0.044-0.505,0.393-1.2,0.4c-0.742,0.009-1.621-0.34-2.424-0.34
				c-0.503,0-0.886,0.209-1.204,0.551h-0.178c0,0-0.474-0.551-1.215-0.551c-0.774,0-1.687,0.356-2.425,0.356
				c-0.734,0-1.129-0.384-1.192-0.43v-5.928l0.131,0.1c0.66,0.518,1.417,0.33,2.231,0.13c0.871-0.218,1.79-0.412,2.561,0.361
				c0.771-0.784,1.665-0.583,2.555-0.361c0.802,0.2,1.573,0.388,2.225-0.13l0.137-0.1V21.05z"/>
			<path fill-rule="evenodd" clip-rule="evenodd" fill="#FFFFFF" d="M19.973,20.972c0.66,0.516,1.416,0.352,2.229,0.168
				c0.854-0.197,1.743-0.356,2.483,0.325v-5.632c-0.702-0.771-1.541-0.562-2.441-0.338c-0.768,0.186-1.578,0.362-2.27-0.087V20.972z
				"/>
			<path fill-rule="evenodd" clip-rule="evenodd" fill="#FFFFFF" d="M29.531,15.408c-0.688,0.449-1.487,0.273-2.251,0.087
				c-0.901-0.225-1.748-0.395-2.44,0.322v5.646c0.752-0.68,1.628-0.521,2.483-0.324c0.801,0.184,1.587,0.291,2.209-0.16V15.408z"/>
			<g>
				<path fill-rule="evenodd" clip-rule="evenodd" fill="#00539B" d="M24.364,18.226v0.192c-0.642-0.427-1.366-0.249-2.125-0.056
					c-0.655,0.156-1.329,0.322-1.932,0.09v-0.172c0.568,0.245,1.213,0.092,1.891-0.077C22.931,18.021,23.696,17.837,24.364,18.226z"
					/>
				<path fill-rule="evenodd" clip-rule="evenodd" fill="#00539B" d="M24.364,16.747v0.193c-0.642-0.426-1.366-0.25-2.125-0.054
					c-0.655,0.155-1.329,0.322-1.932,0.091v-0.174c0.568,0.247,1.213,0.092,1.891-0.078C22.931,16.542,23.696,16.357,24.364,16.747z
					"/>
				<path fill-rule="evenodd" clip-rule="evenodd" fill="#00539B" d="M24.364,19.716v0.19c-0.642-0.427-1.366-0.245-2.125-0.056
					c-0.655,0.158-1.329,0.324-1.932,0.088v-0.17c0.569,0.247,1.214,0.092,1.891-0.074C22.932,19.506,23.696,19.327,24.364,19.716z"
					/>
				<path fill-rule="evenodd" clip-rule="evenodd" fill="#00539B" d="M27.315,18.203c0.676,0.169,1.31,0.322,1.887,0.077v0.172
					c-0.614,0.232-1.273,0.066-1.927-0.09c-0.761-0.193-1.498-0.371-2.126,0.056v-0.192C25.815,17.837,26.583,18.021,27.315,18.203z
					"/>
				<path fill-rule="evenodd" clip-rule="evenodd" fill="#00539B" d="M27.315,16.726c0.676,0.17,1.31,0.325,1.887,0.078v0.174
					c-0.614,0.231-1.273,0.064-1.927-0.091c-0.761-0.196-1.497-0.372-2.126,0.054v-0.193C25.815,16.357,26.583,16.542,27.315,16.726
					z"/>
				<path fill-rule="evenodd" clip-rule="evenodd" fill="#00539B" d="M27.315,19.695c0.675,0.166,1.31,0.321,1.887,0.074v0.17
					c-0.614,0.236-1.273,0.07-1.927-0.088c-0.761-0.189-1.498-0.371-2.126,0.056v-0.19C25.815,19.327,26.582,19.506,27.315,19.695z"
					/>
			</g>
		</g>
	</g>
</g>
</svg>
