<?xml version="1.0" encoding="utf-8"?>
<!-- Generator: Adobe Illustrator 18.0.0, SVG Export Plug-In . SVG Version: 6.00 Build 0)  -->
<!DOCTYPE svg PUBLIC "-//W3C//DTD SVG 1.1//EN" "http://www.w3.org/Graphics/SVG/1.1/DTD/svg11.dtd">
<svg version="1.1" id="a_x2F_w" xmlns="http://www.w3.org/2000/svg" xmlns:xlink="http://www.w3.org/1999/xlink" x="0px" y="0px"
	 viewBox="0 0 106.844 19.878" enable-background="new 0 0 106.844 19.878" xml:space="preserve">
<rect x="-9.736" y="-9.909" fill="none" width="127.317" height="39.772"/>
<g>
	<path d="M19.884,16.626c0.053-0.313,0.084-0.82,0.093-1.521h0.329c0.016,0.476,0.043,0.758,0.08,0.844
		c0.038,0.088,0.128,0.18,0.271,0.277c0.145,0.098,0.337,0.184,0.578,0.261c0.243,0.077,0.477,0.115,0.701,0.115
		c0.33,0,0.634-0.075,0.912-0.227c0.277-0.152,0.479-0.352,0.607-0.6c0.128-0.247,0.191-0.51,0.191-0.791
		c0-0.213-0.031-0.401-0.096-0.558c-0.064-0.156-0.16-0.282-0.291-0.379c-0.13-0.096-0.292-0.164-0.484-0.202
		c-0.121-0.019-0.361-0.054-0.724-0.1c-0.362-0.048-0.67-0.099-0.925-0.153c-0.34-0.106-0.589-0.228-0.749-0.367
		c-0.16-0.14-0.29-0.324-0.39-0.552c-0.1-0.229-0.149-0.474-0.149-0.738c0-0.384,0.102-0.746,0.302-1.087
		c0.2-0.34,0.497-0.605,0.89-0.794c0.394-0.188,0.82-0.283,1.28-0.283c0.277,0,0.579,0.037,0.908,0.11
		c0.327,0.073,0.634,0.181,0.917,0.321c-0.046,0.206-0.078,0.398-0.098,0.575c-0.019,0.177-0.034,0.439-0.045,0.784h-0.327
		c-0.01-0.502-0.024-0.775-0.044-0.821c-0.082-0.118-0.193-0.224-0.334-0.318c-0.336-0.189-0.688-0.284-1.054-0.284
		c-0.474,0-0.853,0.143-1.134,0.432c-0.283,0.288-0.425,0.661-0.425,1.12c0,0.276,0.051,0.491,0.152,0.643
		c0.101,0.152,0.282,0.273,0.543,0.364c0.18,0.063,0.474,0.121,0.881,0.176c0.407,0.055,0.775,0.112,1.101,0.175
		c0.308,0.092,0.533,0.2,0.681,0.325c0.148,0.126,0.268,0.291,0.361,0.495c0.095,0.203,0.142,0.443,0.142,0.717
		c0,0.65-0.27,1.217-0.808,1.701c-0.538,0.482-1.235,0.724-2.09,0.724C20.996,17.008,20.41,16.879,19.884,16.626z"/>
	<path d="M25.052,13.03v-0.206c0.313-0.125,0.563-0.235,0.749-0.332c0-0.777,0-1.274,0-1.488c0.339-0.118,0.614-0.243,0.827-0.377
		l0.116,0.098c-0.035,0.271-0.074,0.868-0.116,1.791c0.261,0.004,0.417,0.006,0.469,0.006c0.029,0,0.198-0.004,0.505-0.01
		c0.169-0.004,0.296-0.01,0.381-0.019l0.034,0.033l-0.103,0.455c-0.205-0.003-0.394-0.004-0.567-0.004
		c-0.173,0-0.413,0.001-0.719,0.004l-0.025,1.992c-0.01,0.485-0.006,0.776,0.01,0.871c0.017,0.095,0.048,0.176,0.093,0.246
		c0.046,0.071,0.104,0.127,0.178,0.169c0.074,0.044,0.198,0.075,0.373,0.099c0.134,0,0.241-0.005,0.325-0.018
		c0.082-0.012,0.188-0.039,0.315-0.086l0.059,0.191c-0.154,0.12-0.302,0.247-0.445,0.377c-0.124,0.046-0.239,0.075-0.348,0.091
		c-0.107,0.015-0.231,0.022-0.371,0.022c-0.173,0-0.31-0.019-0.413-0.06c-0.102-0.038-0.196-0.092-0.281-0.163
		c-0.084-0.07-0.155-0.159-0.211-0.267c-0.056-0.107-0.093-0.277-0.109-0.509c0.004-0.222,0.01-0.466,0.021-0.729
		c0.003-0.052,0.005-0.108,0.005-0.17v-2.032H25.6C25.437,13.004,25.255,13.013,25.052,13.03z"/>
	<path d="M30.407,16.866v-0.332c0.259-0.004,0.419-0.014,0.482-0.032c0.065-0.018,0.123-0.052,0.177-0.103
		c0.054-0.052,0.132-0.183,0.233-0.394c0.059-0.121,0.271-0.578,0.637-1.375l1.225-2.76c0.134-0.303,0.42-0.98,0.858-2.026h0.313
		l2.092,4.908c0.341,0.796,0.566,1.296,0.678,1.497c0.062,0.115,0.129,0.19,0.203,0.226c0.072,0.036,0.239,0.056,0.497,0.06v0.332
		c-0.51-0.031-0.866-0.048-1.068-0.048l-1.577,0.048v-0.332c0.365-0.007,0.587-0.018,0.666-0.035c0.077-0.016,0.13-0.04,0.158-0.071
		c0.028-0.03,0.042-0.068,0.042-0.115c0-0.071-0.022-0.164-0.068-0.276l-0.602-1.499h-2.833l-0.532,1.257
		c-0.095,0.226-0.143,0.39-0.143,0.496c0,0.044,0.014,0.082,0.04,0.111c0.035,0.044,0.091,0.071,0.166,0.087
		c0.121,0.028,0.333,0.042,0.637,0.046v0.332c-0.552-0.029-0.965-0.044-1.239-0.044C31.13,16.822,30.784,16.836,30.407,16.866z
		 M32.687,14.121h2.467l-1.219-2.945L32.687,14.121z"/>
	<path d="M38.173,16.866v-0.279l0.468-0.005c0.069-0.003,0.122-0.015,0.16-0.036c0.037-0.022,0.066-0.048,0.086-0.08
		c0.036-0.066,0.06-0.181,0.068-0.348c0-0.042,0.009-0.512,0.025-1.405V14.13c0-0.262-0.005-0.541-0.015-0.842
		c-0.011-0.192-0.025-0.307-0.047-0.343c-0.021-0.035-0.058-0.063-0.109-0.081c-0.053-0.018-0.265-0.025-0.637-0.022v-0.278
		c0.659-0.092,1.14-0.211,1.443-0.358c0.065-0.031,0.109-0.049,0.132-0.049c0.023,0,0.042,0.01,0.055,0.025
		c0.013,0.016,0.019,0.039,0.019,0.073c0,0.023-0.001,0.049-0.005,0.078c-0.009,0.117-0.019,0.364-0.029,0.744l0.91-0.779
		c0.268-0.097,0.521-0.147,0.76-0.147c0.264,0,0.514,0.054,0.751,0.162c0.236,0.107,0.414,0.243,0.533,0.406
		c0.119,0.163,0.197,0.368,0.237,0.616c0.022,0.146,0.034,0.556,0.034,1.229v0.865c0,0.426,0.011,0.714,0.034,0.867
		c0.016,0.098,0.041,0.165,0.076,0.203c0.034,0.037,0.087,0.062,0.159,0.07l0.522,0.015v0.279c-0.319-0.024-0.585-0.033-0.797-0.033
		c-0.184,0-0.485,0.01-0.91,0.033c0.046-0.807,0.068-1.315,0.068-1.526v-0.822c0-0.513-0.02-0.849-0.059-1.008
		c-0.056-0.219-0.182-0.394-0.377-0.529c-0.196-0.134-0.432-0.2-0.71-0.2c-0.244,0-0.468,0.058-0.67,0.174
		c-0.202,0.115-0.347,0.25-0.433,0.4c-0.087,0.152-0.131,0.407-0.131,0.765v0.594c0.017,0.849,0.025,1.307,0.025,1.376
		c0.006,0.161,0.026,0.283,0.059,0.356c0.013,0.029,0.032,0.055,0.059,0.076c0.026,0.021,0.067,0.038,0.122,0.051
		c0.021,0.003,0.2,0.008,0.543,0.015v0.279c-0.398-0.024-0.759-0.033-1.082-0.033C39.24,16.833,38.794,16.842,38.173,16.866z"/>
	<path d="M47.192,10.22V9.941c0.362-0.039,0.668-0.085,0.918-0.139c0.249-0.054,0.493-0.12,0.732-0.198l0.063,0.044
		c-0.013,0.277-0.028,0.813-0.044,1.606l-0.019,0.783V15.1c0,0.331,0.005,0.62,0.017,0.864c0.012,0.241,0.032,0.388,0.062,0.435
		c0.029,0.047,0.078,0.085,0.146,0.115c0.068,0.029,0.272,0.058,0.612,0.087v0.265c-0.398-0.024-0.679-0.033-0.842-0.033
		c-0.141,0-0.428,0.01-0.861,0.033c0.01-0.225,0.017-0.528,0.024-0.909c-0.131,0.095-0.307,0.237-0.526,0.425
		c-0.221,0.188-0.393,0.344-0.516,0.465c-0.262,0.066-0.491,0.098-0.69,0.098c-0.368,0-0.708-0.092-1.018-0.273
		c-0.311-0.183-0.549-0.447-0.717-0.796c-0.168-0.348-0.253-0.737-0.253-1.171c0-0.327,0.052-0.636,0.154-0.928
		c0.104-0.292,0.233-0.517,0.39-0.678c0.088-0.092,0.288-0.231,0.602-0.417c0.313-0.186,0.566-0.32,0.761-0.403
		c0.194-0.083,0.405-0.125,0.634-0.125c0.205,0,0.407,0.026,0.604,0.076c0.197,0.051,0.389,0.128,0.575,0.232v-1.287
		c0-0.453-0.02-0.729-0.059-0.826c-0.014-0.036-0.038-0.063-0.073-0.079C47.802,10.24,47.577,10.224,47.192,10.22z M48,13.297
		c-0.223-0.244-0.454-0.422-0.698-0.535c-0.242-0.112-0.481-0.168-0.717-0.168c-0.267,0-0.514,0.068-0.738,0.206
		c-0.225,0.136-0.396,0.343-0.516,0.619c-0.12,0.277-0.179,0.609-0.179,0.997c0,0.597,0.148,1.061,0.444,1.398
		c0.297,0.335,0.654,0.503,1.071,0.503c0.219,0,0.415-0.045,0.587-0.137c0.174-0.092,0.325-0.225,0.456-0.401
		c0.13-0.176,0.214-0.371,0.25-0.587C47.987,15.05,48,14.697,48,14.132V13.297z"/>
	<path d="M50.22,16.866v-0.279c0.372-0.007,0.572-0.013,0.601-0.019c0.057-0.01,0.098-0.025,0.126-0.046
		c0.028-0.021,0.05-0.051,0.066-0.092c0.033-0.073,0.053-0.192,0.06-0.351c0.016-0.872,0.023-1.327,0.023-1.366V14.13
		c0-0.262-0.004-0.541-0.014-0.842c-0.007-0.192-0.021-0.307-0.042-0.343c-0.021-0.035-0.059-0.063-0.112-0.081
		c-0.054-0.018-0.268-0.025-0.639-0.022v-0.278c0.659-0.092,1.141-0.211,1.443-0.358c0.065-0.031,0.109-0.049,0.133-0.049
		c0.022,0,0.04,0.01,0.054,0.025c0.013,0.016,0.02,0.039,0.02,0.073c0,0.023-0.002,0.049-0.006,0.078
		c-0.016,0.198-0.025,0.507-0.028,0.925c0.146-0.17,0.282-0.338,0.405-0.504c0.124-0.167,0.214-0.273,0.27-0.323
		c0.098-0.085,0.211-0.152,0.338-0.203c0.127-0.05,0.259-0.076,0.396-0.076c0.138,0,0.273,0.03,0.407,0.089l0.028,0.067
		c-0.049,0.435-0.076,0.816-0.083,1.146h-0.22c-0.075-0.157-0.162-0.272-0.262-0.343c-0.1-0.071-0.225-0.108-0.374-0.108
		c-0.252,0-0.465,0.104-0.642,0.311c-0.176,0.206-0.264,0.518-0.264,0.932v0.504c0,0.216,0.008,0.608,0.023,1.18
		c0.004,0.203,0.013,0.331,0.025,0.387c0.013,0.056,0.029,0.096,0.051,0.12c0.021,0.024,0.057,0.045,0.105,0.061
		c0.098,0.029,0.362,0.059,0.793,0.088v0.279c-0.574-0.024-1.064-0.033-1.468-0.033C51.016,16.833,50.612,16.842,50.22,16.866z"/>
	<path d="M58.105,16.106l-0.156,0.353c-0.225,0.142-0.39,0.233-0.494,0.278c-0.153,0.069-0.329,0.127-0.525,0.176
		c-0.198,0.048-0.406,0.07-0.624,0.07c-0.432,0-0.821-0.09-1.17-0.269c-0.35-0.18-0.621-0.448-0.815-0.806
		c-0.193-0.356-0.291-0.775-0.291-1.256c0-0.375,0.052-0.712,0.154-1.015c0.104-0.303,0.22-0.523,0.35-0.668
		c0.096-0.104,0.242-0.224,0.44-0.359c0.199-0.135,0.396-0.242,0.592-0.321c0.259-0.106,0.537-0.16,0.838-0.16
		c0.365,0,0.695,0.083,0.99,0.249c0.296,0.166,0.512,0.394,0.649,0.681c0.137,0.287,0.205,0.61,0.205,0.973
		c0,0.092-0.009,0.204-0.024,0.333c-0.234,0.047-0.445,0.074-0.63,0.089c-0.353,0.025-0.704,0.039-1.056,0.039h-1.569
		c0.007,0.467,0.088,0.847,0.242,1.135c0.155,0.289,0.369,0.503,0.642,0.64c0.272,0.138,0.556,0.207,0.849,0.207
		c0.199,0,0.397-0.031,0.595-0.096c0.197-0.066,0.441-0.183,0.732-0.356L58.105,16.106z M54.968,14.105
		c0.092,0.01,0.265,0.02,0.52,0.03c0.486,0.017,0.82,0.025,1.003,0.025c0.434,0,0.72-0.009,0.856-0.025
		c0.003-0.077,0.005-0.139,0.005-0.182c0-0.515-0.104-0.894-0.313-1.134c-0.21-0.242-0.488-0.363-0.838-0.363
		c-0.368,0-0.665,0.132-0.891,0.396C55.087,13.118,54.972,13.536,54.968,14.105z"/>
	<path d="M60.679,16.92l-0.206-0.682l-0.455-1.513c-0.13-0.439-0.263-0.861-0.398-1.269s-0.225-0.644-0.269-0.706
		c-0.044-0.062-0.098-0.106-0.161-0.133c-0.063-0.025-0.22-0.05-0.468-0.073v-0.278c0.359,0.022,0.745,0.033,1.155,0.033
		c0.438,0,0.845-0.011,1.223-0.033v0.278c-0.303,0.003-0.5,0.016-0.592,0.034c-0.062,0.014-0.106,0.037-0.134,0.071
		c-0.027,0.035-0.042,0.075-0.042,0.12c0,0.075,0.047,0.276,0.142,0.604l0.455,1.576c0.075,0.265,0.166,0.55,0.273,0.857
		l0.372-0.852l0.72-1.609c0.17-0.38,0.33-0.766,0.48-1.153h0.239c0.216,0.596,0.362,0.99,0.44,1.183l0.563,1.419
		c0.192,0.476,0.337,0.834,0.435,1.075l0.367-0.964c0.237-0.621,0.423-1.148,0.557-1.587c0.075-0.238,0.112-0.406,0.112-0.504
		c0-0.092-0.031-0.158-0.095-0.199c-0.063-0.041-0.275-0.064-0.634-0.071v-0.278c0.496,0.022,0.839,0.033,1.028,0.033
		c0.229,0,0.539-0.011,0.932-0.033v0.278c-0.189,0.003-0.316,0.021-0.382,0.052c-0.065,0.031-0.123,0.083-0.172,0.154
		c-0.085,0.11-0.217,0.372-0.396,0.783l-0.514,1.225l-0.22,0.549c-0.042,0.108-0.168,0.439-0.377,0.995
		c-0.092,0.234-0.16,0.44-0.206,0.618h-0.46l-0.234-0.612l-1.116-2.804l-0.47,1.012l-0.553,1.229
		c-0.127,0.284-0.23,0.525-0.308,0.726l-0.162,0.45H60.679z"/>
	<path d="M67.388,15.388h0.294c0.003,0.189,0.013,0.339,0.028,0.451c0.018,0.109,0.045,0.219,0.085,0.324
		c0.039,0.105,0.099,0.196,0.181,0.27c0.082,0.072,0.171,0.13,0.268,0.172c0.096,0.039,0.194,0.067,0.294,0.079
		c0.1,0.015,0.251,0.02,0.454,0.02c0.333,0,0.606-0.087,0.821-0.263c0.213-0.177,0.321-0.418,0.321-0.727
		c0-0.136-0.034-0.257-0.101-0.361c-0.068-0.102-0.164-0.185-0.29-0.243c-0.126-0.06-0.396-0.137-0.812-0.23
		c-0.415-0.094-0.683-0.163-0.804-0.207c-0.183-0.067-0.328-0.15-0.437-0.249c-0.107-0.097-0.193-0.222-0.257-0.371
		c-0.064-0.149-0.096-0.314-0.096-0.49c0-0.258,0.067-0.494,0.203-0.712c0.136-0.216,0.349-0.393,0.64-0.527
		c0.291-0.136,0.608-0.203,0.95-0.203c0.207,0,0.445,0.027,0.717,0.085c0.271,0.058,0.491,0.129,0.661,0.214
		c-0.022,0.361-0.039,0.729-0.049,1.106h-0.279c-0.016-0.238-0.035-0.396-0.056-0.47c-0.021-0.075-0.051-0.142-0.086-0.201
		c-0.036-0.059-0.099-0.121-0.187-0.188c-0.089-0.066-0.202-0.126-0.341-0.179c-0.139-0.052-0.311-0.077-0.513-0.077
		c-0.288,0-0.52,0.085-0.693,0.254c-0.176,0.169-0.263,0.369-0.263,0.597c0,0.127,0.025,0.236,0.075,0.328
		c0.051,0.091,0.119,0.166,0.204,0.223c0.085,0.057,0.204,0.108,0.357,0.154l0.814,0.2c0.411,0.104,0.694,0.193,0.85,0.269
		c0.155,0.076,0.28,0.192,0.375,0.351c0.095,0.158,0.143,0.349,0.143,0.569c0,0.44-0.182,0.825-0.547,1.152
		c-0.364,0.329-0.852,0.493-1.463,0.493c-0.28,0-0.654-0.044-1.122-0.129c-0.258-0.048-0.396-0.082-0.416-0.102
		c-0.014-0.01-0.02-0.026-0.02-0.049c0-0.023,0.003-0.051,0.01-0.083c0.029-0.141,0.049-0.277,0.059-0.411
		C67.374,16.091,67.381,15.812,67.388,15.388z"/>
</g>
<g>
	<polygon points="73.857,19.251 73.857,0.449 74.339,0.449 74.339,19.251 73.83,19.251 	"/>
	<polygon points="106.362,19.251 106.362,0.449 106.844,0.449 106.844,19.251 106.334,19.251 	"/>
	<path d="M77.769,2.72V2.565c0.247,0.011,0.456,0.018,0.629,0.018c0.121,0,0.34-0.004,0.655-0.012
		c0.315-0.007,0.528-0.011,0.638-0.011c0.119,0,0.228,0.001,0.326,0.004c0.098,0.002,0.187,0.007,0.267,0.014
		c-0.041,0.137-0.066,0.384-0.078,0.737h-0.153c-0.015-0.196-0.034-0.348-0.06-0.453c-0.085-0.028-0.191-0.051-0.314-0.063
		c-0.125-0.015-0.269-0.022-0.433-0.022c-0.164,0-0.334,0.01-0.51,0.029c-0.01,0.088-0.016,0.17-0.02,0.246
		c-0.001,0.043-0.005,0.23-0.012,0.557v0.539c0.183,0.005,0.343,0.008,0.482,0.008c0.206,0,0.371-0.011,0.494-0.031
		c0.048-0.009,0.078-0.023,0.092-0.04c0.014-0.019,0.028-0.088,0.045-0.206l0.019-0.151h0.155l-0.018,0.557l0.018,0.597h-0.155
		l-0.016-0.155c-0.018-0.179-0.031-0.273-0.038-0.286c-0.014-0.022-0.045-0.04-0.094-0.051c-0.093-0.021-0.302-0.032-0.629-0.032
		c-0.114,0-0.233,0.004-0.355,0.01v0.492c0,0.221,0.003,0.436,0.01,0.646c0.004,0.153,0.015,0.246,0.032,0.274
		c0.02,0.029,0.05,0.051,0.093,0.064c0.041,0.015,0.159,0.024,0.351,0.026v0.156c-0.207-0.012-0.413-0.017-0.617-0.017
		c-0.184,0-0.451,0.006-0.804,0.017V5.87c0.19-0.003,0.307-0.012,0.35-0.026c0.041-0.014,0.07-0.033,0.088-0.057
		c0.019-0.032,0.029-0.111,0.035-0.236c0.002-0.033,0.006-0.265,0.013-0.692V3.732c0-0.222-0.003-0.438-0.008-0.649
		c-0.005-0.153-0.018-0.244-0.035-0.273c-0.019-0.027-0.049-0.049-0.091-0.063C78.08,2.732,77.962,2.724,77.769,2.72"/>
	<path d="M80.556,4.318c0-0.258,0.038-0.494,0.115-0.712c0.077-0.219,0.206-0.414,0.385-0.587c0.178-0.175,0.381-0.306,0.606-0.395
		c0.226-0.089,0.484-0.133,0.774-0.133c0.27,0,0.513,0.038,0.731,0.113c0.221,0.075,0.399,0.176,0.54,0.3
		c0.141,0.124,0.252,0.26,0.333,0.408c0.062,0.11,0.11,0.24,0.147,0.391c0.036,0.148,0.055,0.309,0.055,0.479
		c0,0.548-0.185,1.002-0.551,1.367c-0.37,0.364-0.833,0.546-1.395,0.546c-0.255,0-0.492-0.042-0.714-0.125
		c-0.221-0.082-0.408-0.205-0.562-0.369c-0.151-0.163-0.268-0.361-0.348-0.594C80.596,4.775,80.556,4.544,80.556,4.318
		 M81.063,4.115c0,0.154,0.015,0.311,0.046,0.471c0.031,0.159,0.071,0.296,0.117,0.412c0.078,0.194,0.181,0.358,0.307,0.491
		c0.126,0.132,0.266,0.229,0.421,0.292c0.154,0.063,0.328,0.094,0.516,0.094c0.262,0,0.49-0.064,0.683-0.19
		c0.193-0.128,0.337-0.308,0.433-0.54c0.095-0.231,0.143-0.498,0.143-0.801c0-0.258-0.033-0.495-0.102-0.713
		c-0.043-0.134-0.1-0.255-0.168-0.363c-0.07-0.107-0.155-0.201-0.251-0.282c-0.097-0.08-0.222-0.147-0.376-0.202
		C82.676,2.726,82.509,2.7,82.33,2.7c-0.257,0-0.484,0.057-0.679,0.172c-0.195,0.115-0.342,0.282-0.44,0.501
		C81.113,3.591,81.063,3.838,81.063,4.115"/>
	<path d="M84.435,2.72V2.565c0.264,0.011,0.511,0.018,0.737,0.018c0.23,0,0.461-0.007,0.688-0.018V2.72
		c-0.189,0.004-0.308,0.012-0.349,0.026c-0.043,0.014-0.07,0.032-0.085,0.057c-0.021,0.032-0.034,0.111-0.039,0.236
		c-0.003,0.033-0.007,0.264-0.012,0.692v0.9c0,0.349,0.022,0.579,0.067,0.69c0.044,0.111,0.116,0.203,0.213,0.275
		c0.075,0.056,0.176,0.101,0.303,0.134c0.126,0.033,0.267,0.05,0.424,0.05c0.182,0,0.343-0.023,0.485-0.066
		c0.141-0.045,0.247-0.1,0.317-0.163c0.071-0.065,0.124-0.137,0.159-0.216c0.035-0.08,0.058-0.188,0.074-0.327
		c0.015-0.141,0.023-0.315,0.023-0.527v-0.75c0-0.222-0.004-0.438-0.012-0.649c-0.004-0.153-0.014-0.244-0.033-0.273
		c-0.018-0.027-0.048-0.049-0.09-0.063c-0.042-0.015-0.159-0.022-0.351-0.026V2.565c0.269,0.011,0.464,0.018,0.588,0.018
		c0.111,0,0.313-0.007,0.604-0.018V2.72c-0.191,0.004-0.31,0.012-0.351,0.026c-0.041,0.014-0.069,0.032-0.086,0.057
		c-0.02,0.033-0.031,0.111-0.036,0.236c-0.003,0.033-0.006,0.264-0.011,0.692v0.814c0,0.401-0.028,0.683-0.083,0.841
		c-0.058,0.16-0.159,0.3-0.309,0.421C87.161,5.9,87.018,5.97,86.841,6.021c-0.176,0.05-0.372,0.075-0.587,0.075
		c-0.249,0-0.467-0.03-0.65-0.09c-0.184-0.059-0.323-0.136-0.419-0.233c-0.095-0.096-0.161-0.195-0.197-0.295
		c-0.046-0.134-0.068-0.357-0.068-0.67V3.732c0-0.222-0.003-0.437-0.007-0.649c-0.006-0.153-0.018-0.244-0.034-0.273
		c-0.02-0.027-0.051-0.049-0.092-0.063C84.746,2.732,84.628,2.724,84.435,2.72"/>
	<path d="M88.382,6.026V5.87c0.172-0.001,0.284-0.015,0.339-0.039c0.022-0.01,0.039-0.024,0.049-0.046
		c0.017-0.032,0.027-0.117,0.034-0.255c0.008-0.215,0.013-0.399,0.013-0.556V2.994c0-0.055-0.004-0.089-0.011-0.105
		c-0.013-0.029-0.042-0.063-0.087-0.103c-0.029-0.026-0.063-0.044-0.101-0.05c-0.039-0.008-0.124-0.013-0.257-0.015V2.564
		c0.283,0.007,0.459,0.011,0.531,0.011c0.122,0,0.244-0.004,0.366-0.011c0.136,0.181,0.236,0.314,0.299,0.398l0.498,0.621
		l0.728,0.884c0.231,0.282,0.42,0.504,0.56,0.667c0.089,0.106,0.164,0.191,0.226,0.252V3.612c0-0.158-0.005-0.345-0.018-0.559
		c-0.006-0.135-0.016-0.218-0.032-0.251c-0.011-0.02-0.027-0.035-0.051-0.045c-0.052-0.023-0.165-0.035-0.332-0.037V2.564
		c0.19,0.007,0.384,0.011,0.581,0.011c0.186,0,0.354-0.004,0.504-0.011V2.72c-0.17,0.002-0.281,0.015-0.335,0.037
		c-0.024,0.01-0.039,0.026-0.05,0.049c-0.015,0.03-0.027,0.116-0.034,0.255c-0.008,0.214-0.012,0.399-0.012,0.553v1.171
		c0,0.236,0.004,0.679,0.012,1.326l-0.251-0.073l-0.058-0.012c-0.01-0.003-0.02-0.009-0.027-0.016
		c-0.011-0.008-0.043-0.04-0.092-0.098c-0.136-0.154-0.234-0.272-0.297-0.351l-0.315-0.401l-1.729-2.087v1.89
		c0,0.161,0.007,0.351,0.019,0.568c0.006,0.137,0.017,0.221,0.031,0.252c0.011,0.022,0.028,0.039,0.051,0.049
		c0.054,0.022,0.165,0.036,0.334,0.037v0.156c-0.143-0.012-0.301-0.017-0.473-0.017C88.807,6.008,88.603,6.014,88.382,6.026"/>
	<path d="M92.614,6.026V5.909c0.092-0.054,0.17-0.103,0.233-0.147c0.01-0.11,0.018-0.265,0.024-0.46
		c0.011-0.334,0.017-0.565,0.017-0.695V3.614c0-0.159-0.004-0.346-0.011-0.559c-0.007-0.135-0.02-0.218-0.036-0.251
		c-0.01-0.022-0.028-0.036-0.05-0.046c-0.056-0.023-0.167-0.035-0.337-0.037V2.565c0.236,0.008,0.446,0.012,0.629,0.012
		c0.139,0,0.331-0.003,0.572-0.008c0.241-0.006,0.429-0.01,0.562-0.01c0.396,0,0.718,0.052,0.961,0.153
		c0.242,0.101,0.446,0.271,0.616,0.51c0.168,0.239,0.252,0.529,0.252,0.874c0,0.247-0.04,0.478-0.117,0.694
		c-0.08,0.217-0.19,0.405-0.327,0.566c-0.135,0.162-0.28,0.289-0.436,0.384c-0.156,0.094-0.32,0.165-0.491,0.213
		c-0.172,0.048-0.407,0.072-0.707,0.072c-0.099,0-0.231-0.003-0.4-0.009c-0.221-0.006-0.365-0.009-0.435-0.009
		C93.036,6.008,92.861,6.014,92.614,6.026 M93.367,5.76c0.179,0.03,0.366,0.046,0.565,0.046c0.204,0,0.384-0.018,0.542-0.054
		c0.156-0.035,0.291-0.086,0.401-0.151c0.111-0.064,0.218-0.16,0.323-0.286c0.104-0.127,0.185-0.289,0.24-0.487
		c0.056-0.197,0.084-0.4,0.084-0.611c0-0.303-0.054-0.562-0.162-0.778c-0.109-0.217-0.271-0.383-0.489-0.497
		c-0.217-0.116-0.517-0.174-0.897-0.174c-0.198,0-0.401,0.016-0.607,0.046c-0.006,0.08-0.01,0.221-0.013,0.424l-0.01,0.353v0.972
		l0.008,0.755C93.353,5.432,93.357,5.579,93.367,5.76"/>
	<path d="M96.426,6.026V5.87c0.169-0.001,0.281-0.015,0.335-0.039c0.023-0.01,0.039-0.024,0.048-0.046
		c0.019-0.032,0.028-0.117,0.035-0.256c0.009-0.214,0.013-0.399,0.013-0.555V3.731c0-0.221-0.002-0.438-0.008-0.647
		c-0.002-0.154-0.014-0.245-0.033-0.273c-0.018-0.029-0.048-0.05-0.091-0.064c-0.041-0.014-0.157-0.022-0.353-0.025V2.564
		l0.696,0.016l0.735-0.013c0.353-0.005,0.607-0.008,0.768-0.008c0.16,0,0.313,0.009,0.457,0.027
		c-0.027,0.093-0.046,0.173-0.056,0.241c-0.002,0.015-0.016,0.184-0.043,0.507h-0.152c0.002-0.165-0.011-0.316-0.032-0.452
		c-0.089-0.038-0.189-0.063-0.296-0.076c-0.182-0.022-0.362-0.035-0.546-0.035c-0.04,0-0.126,0.005-0.261,0.011
		c-0.133,0.006-0.231,0.013-0.289,0.017c-0.006,0.181-0.011,0.349-0.016,0.505l-0.011,0.821c0.191,0.012,0.368,0.018,0.524,0.018
		c0.193,0,0.36-0.01,0.495-0.027c0.055-0.006,0.086-0.019,0.101-0.039c0.015-0.02,0.027-0.087,0.037-0.2l0.018-0.17h0.145v0.046
		l-0.012,0.507l0.012,0.568h-0.17l-0.008-0.166c-0.002-0.12-0.014-0.195-0.032-0.224c-0.02-0.029-0.053-0.051-0.107-0.062
		c-0.092-0.02-0.27-0.029-0.537-0.029c-0.11,0-0.264,0.004-0.465,0.012c-0.008,0.163-0.012,0.404-0.012,0.725
		c0,0.301,0.004,0.528,0.012,0.685c0.233,0.018,0.497,0.027,0.788,0.027c0.204,0,0.354-0.007,0.44-0.02
		c0.086-0.013,0.168-0.035,0.243-0.065c0.019-0.051,0.038-0.118,0.058-0.205c0.037-0.144,0.062-0.253,0.07-0.326h0.165
		c-0.042,0.328-0.063,0.6-0.063,0.816c-0.14,0.021-0.311,0.032-0.512,0.032l-1.454-0.017C97.042,6.008,96.83,6.014,96.426,6.026"/>
	<path d="M99.525,6.026V5.909c0.093-0.054,0.17-0.103,0.235-0.147c0.008-0.11,0.018-0.265,0.021-0.46
		C99.797,4.968,99.8,4.737,99.8,4.607V3.614c0-0.159-0.003-0.346-0.011-0.559c-0.009-0.135-0.021-0.218-0.035-0.251
		c-0.012-0.022-0.031-0.036-0.053-0.046c-0.054-0.023-0.167-0.035-0.335-0.037V2.565c0.236,0.008,0.445,0.012,0.629,0.012
		c0.139,0,0.329-0.003,0.571-0.008c0.241-0.006,0.43-0.01,0.562-0.01c0.396,0,0.718,0.052,0.962,0.153
		c0.241,0.101,0.446,0.271,0.615,0.51c0.17,0.239,0.254,0.529,0.254,0.874c0,0.247-0.041,0.478-0.12,0.694
		c-0.08,0.217-0.189,0.405-0.325,0.566c-0.137,0.162-0.28,0.289-0.437,0.384c-0.156,0.094-0.32,0.165-0.49,0.213
		c-0.172,0.048-0.409,0.072-0.706,0.072c-0.101,0-0.233-0.003-0.403-0.009c-0.219-0.006-0.363-0.009-0.431-0.009
		C99.947,6.008,99.773,6.014,99.525,6.026 M100.279,5.76c0.177,0.03,0.365,0.046,0.565,0.046c0.203,0,0.384-0.018,0.54-0.054
		c0.158-0.035,0.29-0.086,0.403-0.151c0.109-0.064,0.219-0.16,0.323-0.286c0.104-0.127,0.185-0.289,0.239-0.487
		c0.058-0.197,0.084-0.4,0.084-0.611c0-0.303-0.055-0.562-0.161-0.778c-0.108-0.217-0.27-0.383-0.488-0.497
		c-0.219-0.116-0.52-0.174-0.899-0.174c-0.197,0-0.4,0.016-0.606,0.046c-0.006,0.08-0.011,0.221-0.014,0.424l-0.009,0.353v0.972
		l0.007,0.755C100.263,5.432,100.27,5.579,100.279,5.76"/>
	<path d="M78.288,10.344l-0.105-0.029l-0.06-0.48l0.06-0.059c0.417-0.121,0.87-0.287,1.362-0.497
		c0.726-0.309,1.191-0.515,1.397-0.62l0.152,0.058c-0.063,1.787-0.094,2.813-0.094,3.077v2.169c0,0.866,0.01,1.523,0.029,1.966
		c0.012,0.262,0.044,0.427,0.097,0.497c0.053,0.065,0.131,0.114,0.234,0.144c0.104,0.03,0.441,0.057,1.015,0.079v0.357
		c-0.987-0.027-1.604-0.042-1.854-0.042c-0.187,0-0.849,0.015-1.982,0.042v-0.357c0.592-0.035,0.935-0.063,1.025-0.085
		c0.093-0.021,0.16-0.053,0.205-0.097c0.045-0.041,0.077-0.102,0.098-0.181c0.031-0.122,0.058-0.47,0.082-1.043
		c0.023-0.576,0.034-1.012,0.034-1.309V11.63c0-0.938-0.002-1.528-0.006-1.767c0-0.104-0.014-0.171-0.041-0.197
		c-0.016-0.017-0.037-0.024-0.063-0.024c-0.036,0-0.125,0.031-0.27,0.094C78.94,10.033,78.501,10.235,78.288,10.344"/>
	<path d="M85.857,17.006v-0.346c0.609-0.012,0.966-0.027,1.071-0.049c0.105-0.021,0.179-0.056,0.222-0.103
		c0.055-0.067,0.094-0.185,0.117-0.356c0.035-0.288,0.053-0.588,0.053-0.895v-0.434h-1.281c-0.706,0-1.335,0.015-1.889,0.042
		l-0.1-0.316c0.301-0.566,0.701-1.258,1.205-2.078c0.733-1.195,1.464-2.345,2.192-3.449c0.044-0.019,0.149-0.064,0.316-0.135
		c0.297-0.117,0.466-0.184,0.509-0.198l0.146,0.07c-0.027,0.468-0.045,1.044-0.053,1.731c-0.02,1.446-0.029,2.239-0.029,2.381v1.21
		c0.53-0.004,0.966-0.018,1.305-0.041c-0.013,0.196-0.018,0.326-0.018,0.388l0.018,0.438c-0.397-0.027-0.733-0.042-1.006-0.042
		h-0.299v0.393c0,0.654,0.029,1.055,0.088,1.197c0.024,0.06,0.07,0.108,0.141,0.143c0.147,0.065,0.507,0.102,1.076,0.104v0.346
		c-0.842-0.027-1.49-0.042-1.941-0.042C87.213,16.964,86.598,16.979,85.857,17.006 M84.822,14.082h2.498l0.053-4.159
		c-0.425,0.612-0.905,1.36-1.442,2.246C85.395,13.054,85.024,13.691,84.822,14.082"/>
	<path d="M91.464,10.344l-0.104-0.029l-0.06-0.48l0.06-0.059c0.417-0.121,0.871-0.287,1.363-0.497
		c0.724-0.309,1.19-0.515,1.397-0.62l0.152,0.058c-0.063,1.787-0.094,2.813-0.094,3.077v2.169c0,0.866,0.011,1.523,0.029,1.966
		c0.012,0.262,0.042,0.427,0.097,0.497c0.052,0.065,0.131,0.114,0.233,0.144c0.103,0.03,0.441,0.057,1.016,0.079v0.357
		c-0.988-0.027-1.605-0.042-1.856-0.042c-0.186,0-0.846,0.015-1.981,0.042v-0.357c0.593-0.035,0.935-0.063,1.025-0.085
		c0.093-0.021,0.16-0.053,0.204-0.097c0.047-0.041,0.079-0.102,0.099-0.181c0.03-0.122,0.058-0.47,0.081-1.043
		c0.024-0.576,0.035-1.012,0.035-1.309V11.63c0-0.938-0.001-1.528-0.006-1.767c0-0.104-0.014-0.171-0.041-0.197
		c-0.015-0.017-0.037-0.024-0.064-0.024c-0.035,0-0.124,0.031-0.27,0.094C92.117,10.033,91.678,10.235,91.464,10.344"/>
	<path d="M97.765,16.824c-0.052-0.331-0.099-0.586-0.14-0.766c-0.026-0.112-0.117-0.434-0.27-0.964l0.32-0.124
		c0.245,0.654,0.525,1.1,0.844,1.331c0.317,0.232,0.734,0.348,1.244,0.348c0.374,0,0.69-0.075,0.947-0.223
		c0.254-0.147,0.461-0.382,0.621-0.707c0.16-0.324,0.241-0.688,0.241-1.095c0-0.542-0.14-0.957-0.416-1.248
		c-0.275-0.291-0.647-0.434-1.116-0.434c-0.156,0-0.301,0.015-0.436,0.046c-0.134,0.031-0.334,0.102-0.599,0.211l-0.069-0.06
		l0.128-0.637c0.313,0.019,0.521,0.028,0.625,0.028c0.475,0,0.843-0.166,1.102-0.499c0.259-0.334,0.388-0.711,0.388-1.132
		c0-0.379-0.138-0.7-0.412-0.965c-0.274-0.266-0.622-0.397-1.043-0.397c-0.253,0-0.497,0.051-0.73,0.151
		c-0.232,0.102-0.438,0.237-0.619,0.409c-0.07,0.148-0.182,0.428-0.333,0.837h-0.361l0.358-1.404
		c0.262-0.272,0.507-0.464,0.738-0.573c0.378-0.172,0.79-0.257,1.237-0.257c0.661,0,1.183,0.173,1.566,0.522
		c0.384,0.346,0.576,0.767,0.576,1.262c0,0.336-0.101,0.666-0.297,0.992c-0.198,0.324-0.534,0.656-1.009,0.997
		c0.44,0.058,0.787,0.159,1.042,0.3c0.254,0.144,0.449,0.345,0.585,0.604c0.137,0.26,0.204,0.55,0.204,0.868
		c0,0.465-0.146,0.921-0.437,1.368c-0.293,0.449-0.704,0.819-1.236,1.113c-0.53,0.292-1.104,0.438-1.725,0.438
		c-0.272,0-0.521-0.024-0.749-0.076C98.311,17.037,98.055,16.95,97.765,16.824"/>
</g>
<g>
	<path d="M19.683,1.173V0.925c0.421,0.017,0.812,0.026,1.174,0.026c0.366,0,0.731-0.009,1.092-0.026v0.248
		c-0.303,0.005-0.487,0.019-0.555,0.04c-0.066,0.021-0.111,0.053-0.135,0.091c-0.033,0.052-0.054,0.178-0.062,0.376
		c-0.003,0.051-0.01,0.418-0.02,1.099v1.433c0,0.556,0.036,0.921,0.107,1.098c0.07,0.177,0.183,0.323,0.338,0.439
		c0.119,0.088,0.279,0.157,0.481,0.211c0.201,0.053,0.427,0.079,0.674,0.079c0.29,0,0.547-0.035,0.771-0.106s0.393-0.157,0.506-0.26
		c0.111-0.102,0.196-0.216,0.251-0.342c0.056-0.127,0.096-0.3,0.12-0.521c0.025-0.221,0.037-0.5,0.037-0.839V2.779
		c0-0.351-0.006-0.693-0.019-1.029c-0.006-0.245-0.022-0.391-0.053-0.436c-0.03-0.045-0.078-0.079-0.145-0.101
		c-0.066-0.021-0.252-0.035-0.556-0.04V0.925c0.426,0.017,0.736,0.026,0.933,0.026c0.178,0,0.499-0.009,0.963-0.026v0.248
		c-0.307,0.005-0.492,0.019-0.558,0.04c-0.066,0.021-0.11,0.053-0.137,0.091c-0.03,0.052-0.05,0.178-0.058,0.376
		c-0.003,0.051-0.008,0.418-0.016,1.1v1.296c0,0.638-0.045,1.084-0.134,1.336c-0.089,0.253-0.252,0.477-0.49,0.67
		c-0.178,0.144-0.407,0.257-0.688,0.337c-0.279,0.08-0.591,0.12-0.932,0.12c-0.397,0-0.742-0.047-1.034-0.142
		c-0.292-0.094-0.515-0.218-0.667-0.372c-0.152-0.152-0.257-0.31-0.313-0.47c-0.072-0.212-0.108-0.566-0.108-1.064V2.78
		c0-0.352-0.004-0.694-0.012-1.03c-0.008-0.245-0.026-0.391-0.056-0.436c-0.03-0.045-0.077-0.079-0.144-0.101
		C20.177,1.192,19.991,1.178,19.683,1.173z"/>
	<path d="M25.846,6.426V6.206l0.37-0.004c0.056-0.003,0.097-0.013,0.128-0.029c0.029-0.017,0.052-0.038,0.067-0.063
		c0.029-0.053,0.047-0.143,0.055-0.275c0-0.033,0.007-0.404,0.02-1.112V4.26c0-0.206-0.004-0.429-0.012-0.666
		c-0.008-0.152-0.021-0.243-0.037-0.271c-0.017-0.028-0.045-0.05-0.087-0.064c-0.041-0.014-0.21-0.02-0.504-0.017V3.021
		c0.522-0.072,0.903-0.167,1.144-0.283c0.052-0.025,0.086-0.039,0.104-0.039c0.019,0,0.033,0.007,0.043,0.02
		c0.011,0.013,0.016,0.032,0.016,0.058c0,0.018-0.001,0.039-0.004,0.063c-0.007,0.093-0.016,0.289-0.023,0.588l0.722-0.615
		c0.211-0.078,0.411-0.116,0.6-0.116c0.209,0,0.408,0.042,0.595,0.127c0.186,0.086,0.328,0.193,0.423,0.322
		c0.094,0.129,0.156,0.292,0.188,0.488c0.017,0.116,0.027,0.44,0.027,0.973v0.685c0,0.336,0.009,0.565,0.026,0.685
		c0.014,0.078,0.033,0.132,0.061,0.161c0.027,0.03,0.069,0.048,0.126,0.057l0.414,0.012v0.221c-0.253-0.018-0.464-0.027-0.631-0.027
		c-0.144,0-0.385,0.009-0.721,0.027c0.036-0.639,0.054-1.041,0.054-1.209v-0.65c0-0.406-0.016-0.672-0.046-0.799
		c-0.044-0.173-0.144-0.313-0.299-0.418c-0.155-0.107-0.342-0.159-0.562-0.159c-0.193,0-0.37,0.046-0.53,0.138
		c-0.161,0.092-0.274,0.197-0.343,0.317c-0.069,0.12-0.104,0.322-0.104,0.606v0.469c0.014,0.672,0.021,1.035,0.021,1.089
		c0.005,0.129,0.021,0.224,0.046,0.282c0.011,0.025,0.026,0.044,0.047,0.061c0.02,0.017,0.053,0.03,0.098,0.041
		c0.016,0.003,0.158,0.007,0.429,0.012v0.221c-0.315-0.018-0.601-0.027-0.855-0.027C26.691,6.399,26.337,6.408,25.846,6.426z"/>
	<path d="M30.53,3.238V3.017c0.501-0.057,0.923-0.165,1.264-0.325l0.085,0.061c-0.02,0.551-0.03,0.971-0.03,1.264v0.704
		c0.013,0.672,0.019,1.035,0.022,1.089c0.003,0.129,0.017,0.224,0.043,0.282c0.013,0.025,0.029,0.044,0.051,0.061
		c0.02,0.017,0.051,0.03,0.093,0.041c0.015,0.003,0.158,0.007,0.43,0.012v0.221c-0.393-0.018-0.706-0.027-0.941-0.027
		c-0.207,0-0.545,0.009-1.016,0.027V6.206l0.371-0.004c0.054-0.003,0.097-0.013,0.127-0.029c0.029-0.017,0.052-0.038,0.068-0.063
		c0.027-0.053,0.046-0.143,0.054-0.275c0-0.033,0.007-0.404,0.021-1.112V4.04c0-0.385-0.014-0.613-0.039-0.685
		c-0.017-0.039-0.044-0.068-0.084-0.087C31.007,3.248,30.835,3.238,30.53,3.238z M31.475,0.971c0.122,0,0.225,0.043,0.309,0.128
		c0.083,0.085,0.126,0.188,0.126,0.31c0,0.118-0.043,0.22-0.128,0.306c-0.085,0.085-0.188,0.128-0.307,0.128
		c-0.121,0-0.224-0.043-0.31-0.128c-0.085-0.086-0.128-0.188-0.128-0.306c0-0.122,0.043-0.226,0.128-0.31
		C31.252,1.014,31.354,0.971,31.475,0.971z"/>
	<path d="M34.64,6.465c-0.101-0.264-0.171-0.441-0.209-0.531l-0.318-0.74L33.32,3.346c-0.052-0.116-0.097-0.193-0.132-0.233
		c-0.036-0.039-0.076-0.063-0.12-0.073c-0.036-0.011-0.132-0.019-0.287-0.023V2.785c0.429,0.018,0.741,0.027,0.938,0.027
		c0.217,0,0.515-0.01,0.892-0.027v0.232c-0.279,0.008-0.443,0.025-0.492,0.054c-0.049,0.028-0.074,0.067-0.074,0.116
		c0,0.078,0.052,0.244,0.155,0.5l0.473,1.177l0.113,0.263c0.126,0.307,0.213,0.513,0.26,0.615l0.386-0.878
		c0.025-0.052,0.142-0.342,0.353-0.87c0.124-0.309,0.207-0.543,0.248-0.705c0.011-0.045,0.017-0.083,0.017-0.116
		c0-0.044-0.017-0.075-0.051-0.094c-0.063-0.033-0.228-0.054-0.496-0.062V2.785c0.385,0.018,0.631,0.027,0.739,0.027
		c0.091,0,0.338-0.01,0.74-0.027v0.232c-0.16,0.008-0.267,0.026-0.319,0.056c-0.053,0.03-0.104,0.091-0.157,0.185
		c-0.035,0.062-0.176,0.341-0.418,0.837l-0.372,0.794c-0.064,0.142-0.288,0.668-0.671,1.577H34.64z"/>
	<path d="M40.572,5.825l-0.124,0.279c-0.179,0.111-0.309,0.184-0.392,0.221c-0.121,0.055-0.261,0.101-0.417,0.138
		c-0.155,0.038-0.32,0.057-0.493,0.057c-0.341,0-0.649-0.071-0.926-0.214c-0.276-0.142-0.491-0.353-0.646-0.637
		c-0.153-0.283-0.23-0.613-0.23-0.994c0-0.296,0.041-0.564,0.122-0.803c0.082-0.239,0.174-0.416,0.277-0.529
		c0.075-0.083,0.191-0.178,0.349-0.285c0.158-0.107,0.314-0.191,0.469-0.253c0.204-0.085,0.425-0.128,0.662-0.128
		c0.289,0,0.551,0.066,0.785,0.197c0.233,0.132,0.404,0.312,0.513,0.538c0.108,0.227,0.163,0.485,0.163,0.771
		c0,0.072-0.007,0.16-0.02,0.263c-0.186,0.036-0.353,0.061-0.499,0.07c-0.278,0.021-0.558,0.031-0.835,0.031h-1.242
		c0.006,0.37,0.069,0.67,0.191,0.899c0.122,0.229,0.292,0.398,0.508,0.507c0.216,0.107,0.439,0.163,0.672,0.163
		c0.157,0,0.314-0.026,0.471-0.077c0.156-0.052,0.35-0.144,0.579-0.28L40.572,5.825z M38.089,4.241
		c0.072,0.008,0.209,0.016,0.41,0.023c0.385,0.013,0.649,0.02,0.795,0.02c0.343,0,0.569-0.007,0.678-0.02
		c0.002-0.063,0.004-0.109,0.004-0.144c0-0.407-0.083-0.708-0.248-0.898c-0.165-0.191-0.386-0.286-0.662-0.286
		c-0.292,0-0.527,0.105-0.706,0.313C38.181,3.459,38.091,3.79,38.089,4.241z"/>
	<path d="M41.13,6.426V6.206c0.294-0.005,0.452-0.011,0.476-0.016c0.045-0.008,0.077-0.021,0.1-0.037
		c0.021-0.017,0.039-0.04,0.053-0.071c0.025-0.06,0.041-0.152,0.046-0.279c0.014-0.689,0.02-1.05,0.02-1.081V4.26
		c0-0.206-0.003-0.429-0.012-0.666c-0.005-0.152-0.016-0.243-0.032-0.271c-0.018-0.028-0.047-0.05-0.089-0.064
		c-0.044-0.014-0.212-0.02-0.506-0.017V3.021c0.521-0.072,0.902-0.167,1.142-0.283c0.052-0.025,0.087-0.039,0.104-0.039
		c0.019,0,0.032,0.007,0.043,0.02c0.01,0.013,0.016,0.032,0.016,0.058c0,0.018-0.002,0.039-0.004,0.063
		c-0.014,0.157-0.021,0.401-0.023,0.731c0.116-0.134,0.224-0.267,0.321-0.398c0.099-0.132,0.169-0.218,0.214-0.256
		c0.077-0.067,0.166-0.121,0.267-0.161c0.101-0.04,0.206-0.06,0.313-0.06c0.109,0,0.216,0.023,0.322,0.069l0.023,0.054
		c-0.039,0.344-0.061,0.646-0.066,0.906h-0.174c-0.06-0.123-0.129-0.214-0.208-0.271c-0.078-0.057-0.178-0.086-0.296-0.086
		c-0.199,0-0.368,0.083-0.508,0.246c-0.14,0.165-0.209,0.411-0.209,0.738v0.399c0,0.171,0.007,0.481,0.02,0.934
		c0.002,0.16,0.009,0.262,0.019,0.307c0.011,0.044,0.024,0.075,0.041,0.095c0.018,0.018,0.045,0.035,0.083,0.048
		c0.078,0.023,0.287,0.047,0.628,0.07v0.221c-0.454-0.018-0.842-0.027-1.162-0.027C41.759,6.399,41.44,6.408,41.13,6.426z"/>
	<path d="M44.438,5.255h0.232c0.003,0.151,0.01,0.27,0.023,0.356c0.013,0.088,0.035,0.174,0.066,0.258
		c0.031,0.084,0.079,0.155,0.144,0.214c0.065,0.058,0.136,0.102,0.212,0.135c0.076,0.033,0.154,0.055,0.233,0.065
		c0.078,0.01,0.198,0.016,0.358,0.016c0.265,0,0.48-0.069,0.65-0.21c0.17-0.14,0.255-0.33,0.255-0.572
		c0-0.108-0.027-0.205-0.08-0.287c-0.053-0.083-0.129-0.148-0.229-0.194c-0.101-0.046-0.314-0.106-0.643-0.182
		c-0.329-0.074-0.541-0.129-0.637-0.162c-0.145-0.055-0.26-0.12-0.346-0.197c-0.085-0.078-0.153-0.177-0.203-0.296
		c-0.051-0.118-0.076-0.247-0.076-0.387c0-0.204,0.054-0.392,0.161-0.563c0.107-0.172,0.276-0.312,0.507-0.418
		c0.23-0.107,0.48-0.161,0.752-0.161c0.163,0,0.353,0.022,0.566,0.067c0.215,0.045,0.39,0.102,0.524,0.169
		c-0.017,0.286-0.031,0.578-0.039,0.876H46.65c-0.013-0.189-0.028-0.313-0.045-0.372c-0.017-0.06-0.039-0.113-0.067-0.16
		C46.509,3.203,46.46,3.153,46.389,3.1c-0.069-0.053-0.159-0.1-0.27-0.141c-0.109-0.042-0.245-0.063-0.405-0.063
		c-0.229,0-0.411,0.067-0.55,0.201c-0.139,0.135-0.208,0.292-0.208,0.473c0,0.101,0.021,0.188,0.061,0.26
		c0.041,0.072,0.094,0.131,0.161,0.176c0.067,0.046,0.161,0.087,0.283,0.122l0.645,0.159c0.325,0.083,0.55,0.153,0.673,0.213
		c0.123,0.06,0.222,0.152,0.297,0.277s0.113,0.275,0.113,0.451c0,0.349-0.145,0.653-0.433,0.912c-0.289,0.26-0.675,0.39-1.158,0.39
		c-0.223,0-0.518-0.034-0.889-0.101c-0.204-0.039-0.313-0.066-0.329-0.081c-0.012-0.009-0.016-0.022-0.016-0.039
		c0-0.018,0.002-0.04,0.008-0.066c0.023-0.111,0.038-0.22,0.046-0.325C44.426,5.812,44.433,5.591,44.438,5.255z"/>
	<path d="M47.618,3.238V3.017c0.502-0.057,0.923-0.165,1.264-0.325l0.085,0.061c-0.021,0.551-0.03,0.971-0.03,1.264v0.704
		c0.013,0.672,0.021,1.035,0.022,1.089c0.003,0.129,0.017,0.224,0.043,0.282c0.013,0.025,0.029,0.044,0.051,0.061
		c0.02,0.017,0.051,0.03,0.093,0.041c0.016,0.003,0.158,0.007,0.43,0.012v0.221c-0.393-0.018-0.706-0.027-0.941-0.027
		c-0.206,0-0.545,0.009-1.016,0.027V6.206l0.371-0.004c0.055-0.003,0.097-0.013,0.127-0.029c0.029-0.017,0.053-0.038,0.068-0.063
		c0.028-0.053,0.047-0.143,0.054-0.275c0-0.033,0.007-0.404,0.021-1.112V4.04c0-0.385-0.014-0.613-0.039-0.685
		c-0.016-0.039-0.043-0.068-0.083-0.087C48.096,3.248,47.923,3.238,47.618,3.238z M48.564,0.971c0.121,0,0.224,0.043,0.308,0.128
		c0.084,0.085,0.126,0.188,0.126,0.31c0,0.118-0.043,0.22-0.128,0.306c-0.085,0.085-0.188,0.128-0.306,0.128
		c-0.122,0-0.225-0.043-0.311-0.128c-0.085-0.086-0.128-0.188-0.128-0.306c0-0.122,0.043-0.226,0.128-0.31
		C48.339,1.014,48.442,0.971,48.564,0.971z"/>
	<path d="M49.931,3.389V3.226c0.249-0.098,0.446-0.185,0.593-0.264c0-0.614,0-1.007,0-1.178c0.269-0.093,0.487-0.192,0.654-0.298
		l0.094,0.077c-0.028,0.215-0.06,0.688-0.094,1.418c0.207,0.003,0.331,0.004,0.372,0.004c0.023,0,0.156-0.003,0.399-0.008
		c0.135-0.002,0.235-0.008,0.303-0.016l0.026,0.027l-0.081,0.36c-0.163-0.003-0.313-0.004-0.449-0.004
		c-0.138,0-0.327,0.001-0.57,0.004L51.16,4.927c-0.008,0.384-0.005,0.614,0.008,0.688c0.013,0.075,0.037,0.141,0.073,0.196
		c0.036,0.056,0.083,0.101,0.141,0.133c0.058,0.034,0.156,0.061,0.295,0.078c0.105,0,0.191-0.004,0.257-0.014
		c0.065-0.009,0.148-0.031,0.249-0.067l0.047,0.15c-0.122,0.097-0.239,0.195-0.353,0.299c-0.098,0.036-0.189,0.061-0.275,0.071
		c-0.084,0.012-0.183,0.017-0.293,0.017c-0.137,0-0.246-0.015-0.327-0.046c-0.081-0.031-0.155-0.074-0.223-0.13
		c-0.066-0.056-0.123-0.126-0.167-0.212c-0.045-0.085-0.073-0.219-0.087-0.402c0.003-0.176,0.008-0.368,0.016-0.577
		c0.003-0.042,0.004-0.087,0.004-0.136V3.369h-0.158C50.236,3.369,50.091,3.376,49.931,3.389z"/>
	<path d="M52.515,8.499l0.198-0.596h0.093c0.049,0.04,0.091,0.073,0.126,0.098c0.034,0.025,0.072,0.043,0.112,0.057
		c0.04,0.013,0.099,0.018,0.176,0.018c0.08,0,0.159-0.017,0.234-0.052c0.076-0.034,0.147-0.09,0.213-0.165
		c0.066-0.074,0.145-0.203,0.235-0.387c0.137-0.277,0.259-0.559,0.367-0.846c-0.082-0.232-0.183-0.493-0.299-0.782l-0.617-1.525
		c-0.184-0.454-0.333-0.802-0.449-1.044c-0.046-0.095-0.096-0.158-0.15-0.191c-0.053-0.032-0.171-0.059-0.354-0.079V2.785
		c0.32,0.018,0.638,0.027,0.95,0.027c0.305,0,0.599-0.01,0.881-0.027v0.221c-0.266,0.018-0.419,0.034-0.457,0.05
		c-0.067,0.025-0.101,0.071-0.101,0.139c0,0.041,0.021,0.125,0.065,0.253c0.101,0.318,0.196,0.59,0.287,0.816l0.245,0.605
		c0.146,0.362,0.271,0.656,0.372,0.881l0.204-0.457c0.08-0.183,0.221-0.525,0.422-1.032c0.201-0.508,0.319-0.82,0.353-0.939
		c0.011-0.041,0.016-0.077,0.016-0.108c0-0.049-0.021-0.087-0.061-0.114c-0.04-0.027-0.195-0.054-0.467-0.079V2.785
		c0.3,0.018,0.565,0.027,0.795,0.027c0.232,0,0.462-0.01,0.688-0.027l-0.038,0.232c-0.132,0.005-0.233,0.033-0.306,0.085
		c-0.072,0.052-0.182,0.226-0.328,0.521c-0.146,0.295-0.416,0.877-0.812,1.745L54.215,7.46c-0.144,0.338-0.27,0.58-0.375,0.725
		c-0.106,0.145-0.232,0.254-0.38,0.329c-0.147,0.074-0.309,0.112-0.483,0.112c-0.086,0-0.163-0.01-0.23-0.029
		C52.677,8.579,52.6,8.545,52.515,8.499z"/>
	<path d="M59.001,4.642c0-0.579,0.185-1.052,0.552-1.417c0.368-0.366,0.84-0.549,1.416-0.549c0.543,0,0.984,0.17,1.325,0.512
		c0.341,0.341,0.512,0.781,0.512,1.322c0,0.377-0.088,0.723-0.264,1.035c-0.176,0.313-0.424,0.558-0.744,0.735
		c-0.32,0.177-0.673,0.266-1.058,0.266c-0.299,0-0.553-0.051-0.761-0.151c-0.208-0.102-0.377-0.228-0.506-0.38
		c-0.129-0.153-0.228-0.31-0.294-0.47C59.06,5.264,59.001,4.963,59.001,4.642z M59.733,4.355c0,0.318,0.053,0.642,0.159,0.97
		c0.105,0.328,0.259,0.568,0.459,0.72c0.2,0.151,0.417,0.227,0.652,0.227c0.3,0,0.55-0.118,0.752-0.357
		c0.201-0.238,0.302-0.604,0.302-1.098c0-0.412-0.06-0.767-0.18-1.065c-0.12-0.299-0.273-0.509-0.459-0.632
		c-0.187-0.123-0.392-0.184-0.616-0.184c-0.317,0-0.575,0.114-0.773,0.345C59.832,3.511,59.733,3.87,59.733,4.355z"/>
	<path d="M63.363,3.397V3.24c0.201-0.085,0.379-0.175,0.534-0.269V2.738c0-0.335,0.021-0.572,0.064-0.711
		c0.042-0.138,0.102-0.261,0.18-0.37c0.116-0.16,0.3-0.363,0.55-0.611c0.168-0.163,0.292-0.265,0.373-0.307
		c0.105-0.054,0.229-0.081,0.371-0.081c0.101,0,0.204,0.017,0.31,0.05l0.017,0.644l-0.09,0.035c-0.08-0.067-0.159-0.116-0.238-0.148
		c-0.079-0.031-0.171-0.047-0.276-0.047c-0.141,0-0.254,0.028-0.342,0.085c-0.087,0.058-0.151,0.139-0.191,0.245
		c-0.04,0.105-0.06,0.321-0.06,0.647V2.97h0.41c0.206,0,0.41-0.009,0.608-0.027l0.038,0.024l-0.076,0.401
		c-0.226-0.01-0.391-0.015-0.496-0.015c-0.109,0-0.271,0.005-0.484,0.015v1.386c0,0.171,0.006,0.48,0.019,0.933
		c0.003,0.16,0.01,0.262,0.02,0.306c0.011,0.044,0.024,0.075,0.041,0.095c0.017,0.018,0.045,0.035,0.083,0.049
		c0.078,0.023,0.286,0.046,0.628,0.069v0.221c-0.602-0.018-0.969-0.027-1.101-0.027c-0.118,0-0.45,0.009-0.995,0.027V6.206
		l0.37-0.004c0.055-0.003,0.097-0.013,0.126-0.029c0.03-0.017,0.054-0.038,0.068-0.063c0.029-0.053,0.047-0.143,0.056-0.275
		c0-0.033,0.006-0.403,0.019-1.11V3.369L63.363,3.397z"/>
</g>
<path fill="#FFFFFF" d="M0.913,0.496C0.896,0.952,0.81,3.358,0.81,3.358C0.744,5.035,0.687,6.506,0.687,7.817
	c0,5.768,1.114,8.397,7.53,11.509c6.417-3.111,7.532-5.74,7.532-11.504c0-1.312-0.057-2.787-0.123-4.466c0,0-0.084-2.404-0.1-2.86
	H0.913z"/>
<g>
	<path fill="#EE3124" d="M15.074,0.991H1.38l-0.145,3.82h13.996L15.074,0.991z M8.68,4.553L8.666,4.52c0,0,0.102-0.044,0.238-0.127
		C9.17,4.23,9.389,3.894,9.389,3.574c0-0.564-0.525-1.023-1.189-1.023c-0.657,0-1.201,0.458-1.201,1.023
		c0,0.32,0.223,0.656,0.485,0.818C7.622,4.475,7.724,4.52,7.724,4.52L7.711,4.553c0,0-0.114-0.042-0.252-0.129
		C6.997,4.143,6.751,3.68,6.751,3.263c0-0.709,0.659-1.286,1.447-1.286c0.792,0,1.443,0.577,1.443,1.286
		c0,0.417-0.25,0.88-0.71,1.162C8.794,4.511,8.68,4.553,8.68,4.553z M9.017,4.48L9.009,4.444c0.427-0.28,0.707-0.737,0.707-1.182
		c0-0.75-0.684-1.361-1.517-1.361c-0.829,0-1.524,0.611-1.524,1.361c0,0.445,0.278,0.902,0.707,1.182L7.372,4.48
		C6.744,4.191,6.289,3.6,6.289,2.983c0-0.885,0.882-1.621,1.913-1.621c1.032,0,1.899,0.735,1.899,1.621
		C10.1,3.6,9.648,4.191,9.017,4.48z"/>
	<path fill="#EE3124" d="M9.974,5.219v2.143C9.951,7.377,9.791,7.503,9.54,7.506C9.274,7.509,8.955,7.384,8.666,7.384
		c-0.181,0-0.319,0.074-0.434,0.199H8.169c0,0-0.171-0.199-0.44-0.199c-0.279,0-0.608,0.128-0.874,0.128
		c-0.263,0-0.408-0.138-0.429-0.153v-2.14C6.37,5.327,6.25,5.441,6.155,5.442V7.56c0.108,0.086,0.242,0.119,0.386,0.123
		c0.351,0.012,0.768-0.149,1.133-0.149c0.199,0,0.385,0.054,0.525,0.207C8.345,7.587,8.521,7.533,8.72,7.533
		c0.363,0,0.787,0.161,1.136,0.149c0.143-0.004,0.274-0.037,0.385-0.123V5.442C10.143,5.452,10.012,5.333,9.974,5.219z"/>
</g>
<path fill="#EE3124" d="M13.515,14.02c-0.04-0.137-0.164-0.252-0.284-0.26c0.023,0.024,0.045,0.045,0.066,0.067
	c0.127,0.145,0.051,0.47-0.079,0.548c0.054-0.193-0.095-0.348-0.292-0.295c0.073,0.044,0.119,0.166,0.086,0.282
	c-0.032,0.112-0.158,0.215-0.281,0.192c-0.168-0.033-0.074-0.254-0.08-0.394c-0.006-0.197-0.132-0.291-0.227-0.337
	c-0.011-0.006-0.001-0.019-0.001-0.019c0.065,0.017,0.129,0.045,0.22,0.043c0.123,0,0.222-0.068,0.261-0.123
	c0.05-0.063,0.069-0.168,0.042-0.244c-0.022,0.032-0.05,0.074-0.08,0.102c-0.072,0.066-0.213,0.076-0.314,0.025
	c-0.105-0.051-0.206-0.158-0.287-0.26c-0.271-0.37-0.598-0.743-0.937-0.966c-0.207-0.138-0.484-0.249-0.75-0.257
	c-0.159-0.004-0.32,0.029-0.457,0.117c-0.184,0.117-0.296,0.32-0.319,0.513c-0.028,0.229,0.052,0.453,0.19,0.628
	c0.184,0.236,0.442,0.41,0.689,0.566c0.183,0.117,0.362,0.242,0.532,0.377c0.132,0.104,0.246,0.227,0.282,0.398
	c0.037,0.159-0.032,0.27-0.096,0.323c-0.114,0.093-0.417,0.085-0.527-0.01c-0.072-0.546-0.449-0.786-0.94-0.904
	c-0.233-0.056-0.481-0.114-0.676-0.224c-0.176-0.095-0.335-0.191-0.414-0.422c-0.029,0.008-0.113-0.008-0.174-0.035
	c-0.146-0.053-0.194-0.152-0.22-0.235c0.084,0.083,0.158,0.137,0.377,0.149c0.131,0.004,0.307-0.062,0.375-0.171
	c-0.135,0.017-0.245,0.009-0.321-0.037c-0.075-0.047-0.15-0.152-0.135-0.266c0.13,0.137,0.374,0.184,0.592,0.078
	c0.03-0.014,0.13-0.088,0.136-0.125c-0.118,0.014-0.224-0.007-0.293-0.066c-0.071-0.057-0.116-0.145-0.114-0.267
	c0.074,0.078,0.211,0.119,0.342,0.113c0.131-0.006,0.256-0.059,0.3-0.167c-0.098,0.019-0.196-0.004-0.276-0.052
	C9.359,12.36,9.304,12.286,9.3,12.194c-0.13-0.01-0.231-0.066-0.293-0.139c-0.073,0.104-0.098,0.348-0.085,0.514
	c-0.207-0.008-0.381-0.15-0.413-0.347c-0.09,0.101-0.104,0.354-0.058,0.495c-0.247-0.017-0.397-0.148-0.455-0.354
	c-0.035,0.074-0.053,0.174-0.052,0.283c0.002,0.03,0.007,0.092,0.015,0.135c0,0-0.061-0.004-0.147-0.064
	c-0.11-0.072-0.207-0.258-0.2-0.347c0.064,0.099,0.145,0.183,0.238,0.243c-0.009-0.225,0.093-0.399,0.214-0.486
	c0.003,0.243,0.082,0.385,0.275,0.436c-0.032-0.143,0.009-0.259,0.043-0.349c0.034-0.081,0.123-0.196,0.174-0.231
	c0.001,0.198,0.093,0.395,0.262,0.441c-0.007-0.154,0.024-0.33,0.081-0.441c0.027-0.05,0.061-0.106,0.106-0.13
	c0.048,0.158,0.247,0.236,0.43,0.242c0.492,0.016,0.517-0.389,0.517-0.389c-0.066,0.031-0.155,0.086-0.319,0.086
	c-0.201,0-0.258-0.16-0.258-0.16c0.117,0.046,0.351-0.013,0.46-0.099c0.069-0.054,0.155-0.17,0.163-0.271
	c0.008-0.097-0.015-0.187-0.082-0.233c-0.081,0.212-0.546,0.324-0.708,0.111c0.176,0.013,0.34-0.065,0.399-0.177
	c0.018-0.028,0.034-0.115,0.02-0.153c0,0-0.128,0.083-0.297,0.09c-0.182,0.008-0.281-0.067-0.281-0.067
	c0.121-0.008,0.354-0.132,0.337-0.281c0,0-0.075,0.027-0.127,0.031c-0.134,0.014-0.303-0.003-0.392-0.069
	c0.005-0.021,0.053-0.366,0.014-0.409c-0.153,0.07-0.295,0.183-0.381,0.329c-0.091-0.015-0.199-0.028-0.325-0.025
	c-0.126,0.002-0.267,0.025-0.334,0.059c-0.03,0.016-0.086,0.054-0.116,0.094c-0.034,0.041-0.044,0.091-0.082,0.115
	c-0.089,0.05-0.232,0.07-0.349,0.079c-0.089,0.01-0.207-0.005-0.235,0.065c-0.029,0.075,0.03,0.117,0.057,0.152
	c0.018,0.026,0.038,0.068,0.052,0.103c0.013,0.034,0.024,0.088,0.043,0.115c0.114,0.185,0.23,0.103,0.357,0.063
	c0.141-0.05,0.331-0.097,0.498-0.097c0.101,0,0.208,0.013,0.292,0.068c0.075,0.046,0.115,0.152,0.11,0.241
	c-0.002,0.082-0.037,0.164-0.101,0.218c-0.032,0.03-0.162,0.104-0.335,0.104c-0.212,0-0.423-0.097-0.608-0.101
	c-0.055-0.004-0.111,0.015-0.129,0.036c-0.06,0.057-0.06,0.135-0.007,0.205c0.186-0.004,0.179,0.208,0.151,0.303
	c-0.089,0.236-0.275,0.248-0.363,0.24c-0.109-0.014-0.219-0.059-0.268-0.115c-0.09,0.268,0.093,0.482,0.335,0.496
	c-0.168,0.139-0.502,0.029-0.534-0.154c-0.025,0.027-0.045,0.086-0.048,0.139c-0.021,0.328,0.244,0.459,0.576,0.446
	c-0.194,0.08-0.441,0.04-0.668-0.026c-0.206-0.06-0.319-0.113-0.461-0.185c-0.175-0.083-0.358-0.234-0.449-0.392
	c-0.029-0.056-0.062-0.152-0.058-0.225c0.013-0.249,0.302-0.282,0.263-0.569c-0.2-0.061-0.401,0.037-0.461,0.231
	c-0.018,0.053-0.023,0.11-0.015,0.181c-0.073-0.065-0.148-0.146-0.224-0.214C5,12.028,4.933,11.994,4.859,12
	c-0.007,0-0.019,0.059-0.071,0.126c-0.018,0.019-0.099,0.089-0.099,0.089c0.004,0.046,0.045,0.097,0.063,0.108
	c0.063,0.06,0.185,0.09,0.237,0.172c0.016,0.024,0.022,0.055,0.018,0.096c-0.054,0.017-0.105,0.015-0.149,0.003
	c-0.155-0.036-0.27-0.173-0.448-0.183c-0.073-0.006-0.148,0.008-0.183,0.059c0.048,0.063,0.038,0.191-0.006,0.266
	c0.028,0.063,0.088,0.089,0.153,0.097c0.103,0.011,0.224-0.008,0.32,0.008c0.052,0.001,0.097,0.017,0.127,0.052
	c-0.06,0.041-0.105,0.07-0.17,0.085c-0.141,0.03-0.31-0.072-0.431-0.007c0,0,0.028,0.057,0.008,0.123
	c-0.015,0.061-0.048,0.116-0.048,0.116c0.063,0.058,0.129,0.078,0.193,0.082c0.129,0,0.264-0.078,0.391-0.124
	c0.062-0.023,0.119-0.04,0.175-0.04c-0.103,0.136-0.267,0.263-0.459,0.282c-0.024,0.002-0.059,0.002-0.059,0.002
	c0.002,0.021,0.048,0.043,0.063,0.051c0.043,0.023,0.114,0.043,0.172,0.045c0.257,0.011,0.466-0.076,0.644-0.178
	c-0.08,0.16-0.224,0.25-0.407,0.307c0.019,0.024,0.063,0.03,0.098,0.036c0.394,0.064,0.749-0.202,0.749-0.202
	c-0.008,0.076-0.065,0.188-0.191,0.266c-0.066,0.037-0.136,0.047-0.136,0.047c0.053,0.057,0.199,0.064,0.297,0.053
	c0.114-0.007,0.249-0.055,0.36-0.078c0.18-0.031,0.291-0.023,0.399-0.049c-0.121,0.049-0.248,0.098-0.377,0.147
	c-0.158,0.057-0.302,0.133-0.44,0.209c-0.148,0.078-0.272,0.184-0.409,0.25c-0.146,0.076-0.317,0.042-0.385-0.074
	c-0.032-0.061-0.031-0.122-0.045-0.184c-0.033-0.146-0.142-0.271-0.308-0.267c-0.014,0.125-0.122,0.207-0.173,0.246
	c0.021,0.23,0.319,0.226,0.352,0.463c-0.026,0.015-0.083,0.021-0.14,0.005c-0.121-0.036-0.202-0.083-0.315-0.085
	c-0.066-0.002-0.127,0.009-0.184,0.049c0.023,0.023,0.039,0.048,0.051,0.09c0.019,0.07-0.005,0.152-0.038,0.203
	c0.044,0.046,0.101,0.062,0.164,0.062c0.109,0,0.233-0.04,0.329-0.048c0.056-0.004,0.125-0.004,0.178,0.023
	c-0.061,0.147-0.278,0.137-0.444,0.177c-0.078,0.02-0.143,0.056-0.176,0.122c0.113,0.035,0.191,0.119,0.184,0.273
	c0.057,0.002,0.105-0.01,0.15-0.026c0.141-0.064,0.225-0.217,0.366-0.267c-0.004,0.158-0.102,0.246-0.124,0.385
	c-0.008,0.042-0.006,0.087,0.005,0.142c0,0,0.07-0.031,0.145-0.031c0.066,0.002,0.101,0.023,0.139,0.047
	c0.039-0.037,0.062-0.088,0.076-0.142c0.023-0.105,0.015-0.227,0.019-0.33c0.011-0.055,0.007-0.08,0.05-0.088
	c0.195,0,0.404-0.107,0.48-0.19c-0.031,0.121-0.073,0.191-0.144,0.272c-0.023,0.027-0.076,0.078-0.098,0.098
	c0.12,0.018,0.242-0.02,0.339-0.082c0.201-0.131,0.372-0.301,0.458-0.514c0.023,0.091,0.017,0.203-0.015,0.291
	c-0.022,0.066-0.063,0.129-0.091,0.162c0.033,0.008,0.098-0.006,0.136-0.023c0.148-0.064,0.255-0.191,0.334-0.354
	c0.04-0.082,0.08-0.191,0.095-0.292c0.084,0.088,0.102,0.236,0.039,0.399c-0.014,0.037-0.038,0.071-0.044,0.08
	c0.098-0.009,0.174-0.078,0.242-0.142c0.115-0.11,0.216-0.329,0.192-0.524c0.109,0.096,0.139,0.354,0.071,0.499
	c0.097-0.026,0.18-0.089,0.247-0.162c0.08-0.083,0.128-0.15,0.175-0.307c0.046-0.15,0.015-0.257,0.015-0.257
	c0.021,0.019,0.051,0.07,0.061,0.118c0.045,0.191-0.01,0.409-0.17,0.562c-0.026,0.025-0.079,0.066-0.086,0.07
	c0.107,0.144,0.297,0.204,0.508,0.213c0.356,0.02,0.566-0.129,0.898-0.165c-0.136,0.063-0.263,0.145-0.346,0.181
	c-0.193,0.09-0.367,0.148-0.52,0.143c-0.086-0.004-0.189-0.002-0.282-0.049c-0.065,0.082-0.078,0.177-0.065,0.313
	c0.02,0.179,0.119,0.296,0.075,0.479c-0.093,0.35-0.706,0.295-0.934,0.127c-0.186-0.137-0.169-0.463-0.336-0.603
	c-0.05-0.043-0.113-0.065-0.204-0.065c-0.032,0.105-0.104,0.17-0.188,0.227c0.011,0.066,0.044,0.113,0.083,0.154
	c0.066,0.072,0.164,0.117,0.221,0.203c0.023,0.033,0.043,0.076,0.047,0.127c-0.062,0.004-0.115-0.01-0.161-0.033
	c-0.126-0.061-0.22-0.182-0.362-0.217c-0.052-0.008-0.108-0.006-0.178,0.008c0.025,0.072-0.017,0.191-0.084,0.242
	c0.052,0.143,0.195,0.223,0.38,0.232c0.103,0.006,0.222-0.004,0.283,0.072c-0.145,0.154-0.372,0.002-0.57,0.002
	c-0.053,0-0.104,0.012-0.153,0.043c0.007,0.012,0.032,0.06,0.036,0.107c0.007,0.068-0.041,0.164-0.041,0.164
	c0.007,0.057,0.121,0.086,0.185,0.094c0.044,0.006,0.094,0.002,0.136-0.006c0.147-0.023,0.307-0.129,0.456-0.115
	c0.022,0,0.062,0.012,0.07,0.031c-0.048,0.117-0.168,0.133-0.24,0.211c-0.024,0.027-0.045,0.064-0.053,0.115
	c0.123-0.031,0.166,0.018,0.226,0.096c0.057,0.006,0.106-0.01,0.144-0.039c0.077-0.059,0.13-0.182,0.18-0.24
	c0.018-0.025,0.036-0.059,0.079-0.051c0.023,0.004,0.051,0.055,0.08,0.092c0.104,0.131,0.287,0.236,0.513,0.209
	c0.065-0.006,0.134-0.039,0.178-0.088c-0.146-0.025-0.249-0.125-0.297-0.26c0.127,0.094,0.35,0.174,0.533,0.143
	c0.023-0.004,0.08-0.025,0.088-0.045c-0.142-0.037-0.257-0.182-0.204-0.354c0.065,0.107,0.198,0.207,0.357,0.221
	c0.05,0.006,0.11,0.006,0.153-0.027c-0.023-0.023-0.054-0.051-0.071-0.088c-0.019-0.039-0.03-0.094-0.025-0.147
	c0.019-0.127,0.198-0.164,0.312-0.174c0.15-0.02,0.312,0.016,0.446-0.035c0.096-0.041,0.182-0.113,0.172-0.215
	c-0.049,0.035-0.116,0.066-0.201,0.059c-0.129-0.012-0.17-0.119-0.17-0.199c0-0.152,0.093-0.23,0.278-0.242
	c0.084-0.006,0.21,0.016,0.286,0.047c-0.002-0.002,0.121,0.045,0.121,0.043c-0.052-0.105,0.007-0.291,0.041-0.376
	c0.065-0.144,0.135-0.227,0.172-0.36c0.008,0.026,0.012,0.056,0.008,0.087c-0.013,0.15-0.076,0.24-0.091,0.412
	c-0.01,0.091,0.025,0.218,0.103,0.28c0.148,0.117,0.385,0.158,0.467,0.351c0.057,0.149,0,0.275-0.073,0.369
	c-0.104,0.148-0.261,0.272-0.434,0.352c-0.048,0.025-0.133,0.064-0.218,0.037c-0.15-0.051-0.206-0.334-0.337-0.424
	c-0.052-0.033-0.118-0.043-0.187-0.029c-0.01,0.055-0.02,0.078-0.055,0.123c-0.025,0.029-0.081,0.068-0.081,0.074
	c0.008,0.059,0.046,0.113,0.064,0.131c0.073,0.066,0.226,0.109,0.259,0.197c-0.018,0.023-0.053,0.027-0.083,0.031
	c-0.163,0.006-0.239-0.141-0.393-0.154c-0.036-0.002-0.102,0-0.14,0.029c0.008,0.043,0.007,0.06-0.005,0.1
	c-0.015,0.047-0.028,0.063-0.049,0.096c0.026,0.121,0.232,0.133,0.397,0.147c0.052,0.006,0.106,0.014,0.129,0.049
	c-0.041,0.037-0.094,0.07-0.155,0.084c-0.123,0.017-0.234-0.051-0.353-0.061c-0.04-0.002-0.092,0.014-0.135,0.041
	c0.011,0.027,0.018,0.084,0.007,0.129c-0.012,0.057-0.015,0.086-0.034,0.111c0.022,0.016,0.08,0.051,0.145,0.051
	c0.168,0.01,0.307-0.127,0.484-0.066c-0.071,0.108-0.191,0.115-0.292,0.18c-0.04,0.025-0.083,0.068-0.108,0.117
	c0.036,0.016,0.066,0.041,0.088,0.074c0.02,0.031,0.035,0.063,0.04,0.111c0.21,0.014,0.307-0.125,0.407-0.236
	c0.148-0.16,0.354-0.264,0.636-0.287c0.309-0.019,0.703,0.127,0.841-0.139c-0.17-0.008-0.373-0.039-0.432-0.158
	c0.299,0.086,0.668,0.004,0.82-0.186c-0.207,0.039-0.418-0.01-0.5-0.139c0.229,0.061,0.48,0.024,0.656-0.08
	c0.115-0.068,0.241-0.176,0.273-0.305c-0.017,0-0.054,0.016-0.082,0.029c-0.148,0.066-0.407,0.055-0.468-0.064
	c0.133,0.008,0.254-0.016,0.35-0.066c0.127-0.072,0.193-0.182,0.236-0.254c0.05-0.094,0.098-0.189,0.164-0.268
	c0.028-0.031,0.059-0.049,0.085-0.059c-0.022-0.025-0.079-0.029-0.115-0.022c-0.189,0.033-0.271,0.209-0.448,0.248
	c0.068-0.188,0.096-0.436,0.101-0.651c0.359,0.138,0.674,0.031,0.834-0.184c0.096-0.132,0.12-0.292,0.12-0.404
	c0-0.225-0.12-0.391-0.232-0.512c-0.214-0.228-0.481-0.394-0.737-0.572c-0.176-0.119-0.357-0.245-0.505-0.383
	c-0.105-0.095-0.221-0.228-0.247-0.389c-0.04-0.241,0.108-0.428,0.275-0.479c0.537-0.164,1.091,0.418,1.351,0.725
	c0.06,0.07,0.274,0.32,0.19,0.484c-0.026,0.043-0.089,0.07-0.133,0.066c-0.076-0.008-0.14-0.08-0.085-0.198
	c-0.143,0.032-0.202,0.245-0.118,0.362c0.059,0.089,0.163,0.102,0.241,0.087c0.069-0.013,0.132-0.054,0.164-0.104
	c-0.096,0.287,0.014,0.592,0.158,0.75c0.17,0.192,0.416,0.236,0.519,0.244c0.265,0.016,0.532-0.05,0.706-0.271
	C13.515,14.433,13.575,14.211,13.515,14.02z M8.046,10.896c-0.043-0.063-0.055-0.166-0.012-0.233c0.107,0.066,0.201,0.079,0.322,0.1
	C8.254,10.793,8.133,10.833,8.046,10.896z"/>
<g>
	<path fill="#FFEF00" d="M13.126,1.237l-1.51,1.7l1.51,1.704l1.475-1.704L13.126,1.237z M12.221,2.936l0.897-1.005L14,2.953
		l-0.867,1L12.221,2.936z"/>
	<path fill="#FFEF00" d="M1.936,2.937l1.513,1.704l1.475-1.704l-1.475-1.7L1.936,2.937z M3.454,3.953L2.544,2.936l0.898-1.005
		l0.882,1.022L3.454,3.953z"/>
</g>
<path fill="#00539B" d="M9.12,6.875c-0.264-0.07-0.541-0.133-0.781,0.007v0.069C8.566,6.794,8.833,6.86,9.107,6.928
	c0.234,0.06,0.471,0.118,0.695,0.032V6.899C9.592,6.99,9.366,6.933,9.12,6.875z"/>
<path fill="#00539B" d="M7.274,6.334C7.031,6.396,6.797,6.453,6.593,6.362v0.063c0.218,0.085,0.46,0.024,0.696-0.033
	C7.563,6.324,7.824,6.26,8.056,6.414V6.344C7.815,6.203,7.539,6.269,7.274,6.334z"/>
<path fill="#00539B" d="M7.274,5.803C7.031,5.866,6.797,5.919,6.593,5.832v0.06c0.218,0.085,0.46,0.025,0.696-0.03
	c0.273-0.07,0.535-0.135,0.767,0.02v-0.07C7.815,5.668,7.539,5.737,7.274,5.803z"/>
<path fill="#00539B" d="M7.274,6.875C7.031,6.933,6.799,6.99,6.593,6.899V6.96c0.218,0.086,0.46,0.028,0.696-0.032
	C7.563,6.86,7.824,6.794,8.056,6.951V6.882C7.815,6.741,7.539,6.805,7.274,6.875z"/>
<path fill="#00539B" d="M9.12,5.803C8.857,5.737,8.579,5.668,8.339,5.811v0.07c0.227-0.155,0.493-0.09,0.768-0.02
	c0.234,0.055,0.471,0.115,0.695,0.03v-0.06C9.592,5.919,9.366,5.866,9.12,5.803z"/>
<path fill="#00539B" d="M9.12,6.334c-0.264-0.065-0.541-0.131-0.781,0.01v0.069C8.566,6.26,8.833,6.324,9.107,6.392
	C9.341,6.449,9.578,6.51,9.802,6.425V6.362C9.592,6.453,9.366,6.396,9.12,6.334z"/>
<g>
	<path fill="#00539B" d="M5.198,16.738c0.148-0.145,0.267-0.07,0.267-0.07c0.07-0.072,0.058-0.232,0.005-0.271
		C5.321,16.433,5.193,16.548,5.198,16.738z"/>
	<path fill="#00539B" d="M5.203,16.05c0,0,0.071-0.029,0.178-0.029c0.081,0.004,0.15,0.025,0.15,0.025
		c0.064-0.029,0.134-0.17,0.084-0.242C5.42,15.816,5.251,15.914,5.203,16.05z"/>
	<path fill="#00539B" d="M4.691,15.601c0,0,0.01,0.182,0.136,0.289c0.035,0.033,0.086,0.068,0.146,0.065
		c-0.072-0.086-0.05-0.238,0.003-0.338C4.912,15.556,4.768,15.556,4.691,15.601z"/>
	<path fill="#00539B" d="M4.859,12c-0.207-0.058-0.422,0.058-0.477,0.212c0,0,0.163-0.064,0.307,0.003
		C4.688,12.214,4.835,12.127,4.859,12z"/>
	<path fill="#00539B" d="M5.46,11.928c0.08-0.047,0.195-0.063,0.305-0.039c-0.007-0.064-0.089-0.126-0.132-0.144
		c-0.097-0.047-0.155-0.066-0.271-0.065c-0.081,0.006-0.128,0.03-0.128,0.03C5.317,11.761,5.43,11.815,5.46,11.928z"/>
	<path fill="#00539B" d="M6.151,15.335c-0.126-0.042-0.288-0.015-0.388,0.032c-0.088,0.046-0.146,0.115-0.146,0.115
		c0.234-0.023,0.347,0.079,0.347,0.079C6.035,15.546,6.161,15.432,6.151,15.335z"/>
	<path fill="#00539B" d="M4.11,15.094c-0.075,0.076-0.143,0.223-0.113,0.381c0.015,0.073,0.073,0.108,0.073,0.108
		c0.018-0.096,0.095-0.202,0.224-0.216C4.324,15.197,4.176,15.094,4.11,15.094z"/>
	<path fill="#00539B" d="M4.047,14.465c0,0-0.105,0.025-0.22,0.154c-0.047,0.053-0.102,0.16-0.081,0.248c0,0,0.062-0.068,0.168-0.1
		c0.064-0.021,0.113-0.021,0.145-0.01C4.118,14.726,4.145,14.526,4.047,14.465z"/>
	<path fill="#00539B" d="M8.199,7.99c0.25,0,0.358-0.211,0.358-0.211c0.351,0.005,1.919,0,1.919,0L10.471,5.51h-0.241l0.001,2.039
		c0,0-0.129,0.12-0.418,0.12c-0.347,0-0.739-0.148-1.092-0.148c-0.347,0-0.485,0.173-0.522,0.203c0,0-0.176-0.203-0.51-0.203
		c-0.346,0-0.759,0.143-1.165,0.143c-0.211,0-0.33-0.102-0.361-0.114L6.167,5.51H5.934v2.269h1.905
		C7.839,7.779,7.936,7.99,8.199,7.99z"/>
	<path fill="#00539B" d="M4.18,13.209c0,0,0.106-0.143,0.04-0.239c-0.206,0.023-0.337,0.135-0.401,0.271
		C3.819,13.241,4.012,13.168,4.18,13.209z"/>
	<path fill="#00539B" d="M6.018,16.998c0,0-0.07,0.264,0.117,0.344c0,0-0.034-0.141,0.108-0.248
		C6.207,17.007,6.098,16.951,6.018,16.998z"/>
	<path fill="#00539B" d="M3.994,13.991c0.104-0.019,0.26-0.027,0.34,0.043c0.128-0.069,0.189-0.195,0.173-0.246
		c-0.015-0.012-0.092-0.012-0.114-0.012C4.18,13.772,4.058,13.866,3.994,13.991z"/>
	<path fill="#00539B" d="M4.22,12.735c0,0,0.103-0.15,0.006-0.266c-0.158,0.035-0.288,0.158-0.313,0.336
		c0,0,0.054-0.037,0.109-0.056C4.104,12.723,4.176,12.729,4.22,12.735z"/>
	<path fill="#00539B" d="M8.201,9.29l6.455,3.785c0.742-1.988,0.729-4.463,0.602-7.947L8.201,9.29z"/>
	<path fill="#00539B" d="M8.199,11.575c-0.023,0.053-0.036,0.16-0.061,0.215c0.052,0.012,0.11-0.032,0.15-0.053
		C8.259,11.691,8.227,11.622,8.199,11.575z"/>
	<path fill="#00539B" d="M7.692,17.601c0,0,0.045-0.039,0.119-0.066c0.053-0.029,0.153-0.043,0.207-0.006
		c0.049-0.027,0.069-0.207,0.027-0.24C7.893,17.304,7.711,17.429,7.692,17.601z"/>
	<path fill="#00539B" d="M7.742,11.607c-0.018,0.028-0.043,0.095-0.071,0.132c0.04,0.012,0.106,0.03,0.136,0.026
		C7.789,11.727,7.763,11.641,7.742,11.607z"/>
	<path fill="#00539B" d="M16.134,3.374l-0.121-3.373L0.421,0L0.301,3.377c-0.352,9.066-0.483,12.46,7.795,16.443l0.121,0.059
		L8.34,19.82C16.621,15.837,16.486,12.443,16.134,3.374z M8.217,19.326c-6.416-3.111-7.53-5.74-7.53-11.509
		c0-1.311,0.057-2.782,0.123-4.459c0,0,0.086-2.406,0.103-2.862h14.614c0.015,0.456,0.1,2.86,0.1,2.86
		c0.066,1.679,0.123,3.154,0.123,4.466C15.749,13.585,14.634,16.214,8.217,19.326z"/>
	<path fill="#00539B" d="M1.777,13.075L8.201,9.29L1.173,5.165C1.049,8.626,1.039,11.091,1.777,13.075z"/>
	<path fill="#00539B" d="M8.275,16.58c0.071-0.025,0.175-0.031,0.236,0.02c0.081-0.051,0.137-0.121,0.136-0.197
		C8.49,16.359,8.302,16.425,8.275,16.58z"/>
	<path fill="#00539B" d="M8.246,17.81c-0.069,0.053-0.176,0.219-0.157,0.352c0.012,0.066,0.065,0.098,0.065,0.098
		c0.027-0.115,0.132-0.228,0.221-0.264C8.395,17.927,8.297,17.81,8.246,17.81z"/>
	<path fill="#00539B" d="M7.767,11.196c0.02,0.04,0.054,0.156,0.055,0.156c0.025-0.052,0.063-0.124,0.087-0.181
		C7.858,11.171,7.799,11.183,7.767,11.196z"/>
	<path fill="#00539B" d="M7.539,11.262c0,0,0.057,0.088,0.073,0.126l0.052-0.167C7.634,11.221,7.57,11.245,7.539,11.262z"/>
	<path fill="#00539B" d="M7.991,11.162c0,0,0.051,0.122,0.073,0.169c0.02-0.05,0.072-0.118,0.098-0.168
		C8.108,11.15,8.046,11.145,7.991,11.162z"/>
	<path fill="#00539B" d="M7.898,11.792c0.052,0.01,0.1,0.025,0.148,0.016c-0.023-0.05-0.065-0.152-0.077-0.2
		C7.957,11.657,7.911,11.755,7.898,11.792z"/>
	<path fill="#00539B" d="M7.835,17.039c0.061-0.043,0.216-0.078,0.328-0.01c0.034-0.018,0.084-0.131,0.054-0.195
		C8.046,16.783,7.87,16.894,7.835,17.039z"/>
	<path fill="#00539B" d="M8.377,11.384c-0.064-0.012-0.152-0.006-0.229,0.008c-0.266,0.044-0.593,0.089-0.801,0.076
		c-0.167-0.012-0.405-0.064-0.407-0.297c-0.003-0.086,0.043-0.167,0.043-0.167c-0.093,0.02-0.211,0.141-0.198,0.293
		c0.019,0.182,0.183,0.288,0.505,0.297c0.268,0.011,0.623-0.072,0.851-0.125C8.299,11.43,8.377,11.384,8.377,11.384z"/>
	<path fill="#00539B" d="M7.729,7.384c0.269,0,0.44,0.199,0.44,0.199h0.063c0.115-0.125,0.253-0.199,0.434-0.199
		c0.289,0,0.607,0.125,0.874,0.122c0.25-0.003,0.411-0.129,0.434-0.144V5.219l-0.05,0.037c-0.235,0.186-0.512,0.12-0.801,0.047
		c-0.32-0.08-0.646-0.153-0.924,0.128C7.924,5.155,7.591,5.223,7.277,5.303C6.983,5.376,6.71,5.441,6.472,5.256L6.426,5.219v2.14
		c0.021,0.015,0.167,0.153,0.429,0.153C7.121,7.512,7.45,7.384,7.729,7.384z M8.227,5.475c0.251-0.257,0.554-0.197,0.88-0.116
		c0.277,0.067,0.563,0.13,0.814-0.031v2.01C9.695,7.498,9.412,7.46,9.125,7.393C8.816,7.324,8.499,7.267,8.227,7.51V5.475z
		 M6.472,7.334V5.327C6.723,5.489,7.015,5.425,7.29,5.358C7.616,5.278,7.919,5.201,8.171,5.48v2.032
		c-0.266-0.246-0.585-0.188-0.894-0.12C6.983,7.46,6.712,7.52,6.472,7.334z"/>
	<path fill="#00539B" d="M7.289,6.392C7.563,6.324,7.824,6.26,8.056,6.414V6.344c-0.241-0.141-0.517-0.075-0.782-0.01
		C7.031,6.396,6.797,6.453,6.593,6.362v0.063C6.811,6.51,7.053,6.449,7.289,6.392z"/>
	<path fill="#00539B" d="M7.289,5.861c0.273-0.07,0.535-0.135,0.767,0.02v-0.07C7.815,5.668,7.539,5.737,7.274,5.803
		C7.031,5.866,6.797,5.919,6.593,5.832v0.06C6.811,5.977,7.053,5.917,7.289,5.861z"/>
	<path fill="#00539B" d="M8.056,6.951V6.882C7.815,6.741,7.539,6.805,7.274,6.875C7.031,6.933,6.799,6.99,6.593,6.899V6.96
		c0.218,0.086,0.46,0.028,0.696-0.032C7.563,6.86,7.824,6.794,8.056,6.951z"/>
	<path fill="#00539B" d="M9.107,6.392C9.341,6.449,9.578,6.51,9.802,6.425V6.362C9.592,6.453,9.366,6.396,9.12,6.334
		c-0.264-0.065-0.541-0.131-0.781,0.01v0.069C8.566,6.26,8.833,6.324,9.107,6.392z"/>
	<path fill="#00539B" d="M9.107,5.861c0.234,0.055,0.471,0.115,0.695,0.03v-0.06C9.592,5.919,9.366,5.866,9.12,5.803
		C8.857,5.737,8.579,5.668,8.339,5.811v0.07C8.566,5.726,8.833,5.791,9.107,5.861z"/>
	<path fill="#00539B" d="M9.107,6.928c0.234,0.06,0.471,0.118,0.695,0.032V6.899C9.592,6.99,9.366,6.933,9.12,6.875
		c-0.264-0.07-0.541-0.133-0.781,0.007v0.069C8.566,6.794,8.833,6.86,9.107,6.928z"/>
</g>
</svg>
